%TF.GenerationSoftware,KiCad,Pcbnew,(5.99.0-8564-gb2cd1fddf9)*%
%TF.CreationDate,2021-01-25T15:54:04+03:00*%
%TF.ProjectId,Eloise_nA_meter_v2,456c6f69-7365-45f6-9e41-5f6d65746572,rev?*%
%TF.SameCoordinates,Original*%
%TF.FileFunction,Copper,L1,Top*%
%TF.FilePolarity,Positive*%
%FSLAX46Y46*%
G04 Gerber Fmt 4.6, Leading zero omitted, Abs format (unit mm)*
G04 Created by KiCad (PCBNEW (5.99.0-8564-gb2cd1fddf9)) date 2021-01-25 15:54:04*
%MOMM*%
%LPD*%
G01*
G04 APERTURE LIST*
G04 Aperture macros list*
%AMRoundRect*
0 Rectangle with rounded corners*
0 $1 Rounding radius*
0 $2 $3 $4 $5 $6 $7 $8 $9 X,Y pos of 4 corners*
0 Add a 4 corners polygon primitive as box body*
4,1,4,$2,$3,$4,$5,$6,$7,$8,$9,$2,$3,0*
0 Add four circle primitives for the rounded corners*
1,1,$1+$1,$2,$3*
1,1,$1+$1,$4,$5*
1,1,$1+$1,$6,$7*
1,1,$1+$1,$8,$9*
0 Add four rect primitives between the rounded corners*
20,1,$1+$1,$2,$3,$4,$5,0*
20,1,$1+$1,$4,$5,$6,$7,0*
20,1,$1+$1,$6,$7,$8,$9,0*
20,1,$1+$1,$8,$9,$2,$3,0*%
G04 Aperture macros list end*
%TA.AperFunction,SMDPad,CuDef*%
%ADD10RoundRect,0.225000X-0.225000X-0.250000X0.225000X-0.250000X0.225000X0.250000X-0.225000X0.250000X0*%
%TD*%
%TA.AperFunction,SMDPad,CuDef*%
%ADD11RoundRect,0.225000X-0.250000X0.225000X-0.250000X-0.225000X0.250000X-0.225000X0.250000X0.225000X0*%
%TD*%
%TA.AperFunction,ComponentPad*%
%ADD12R,1.700000X1.700000*%
%TD*%
%TA.AperFunction,ComponentPad*%
%ADD13O,1.700000X1.700000*%
%TD*%
%TA.AperFunction,SMDPad,CuDef*%
%ADD14RoundRect,0.225000X0.250000X-0.225000X0.250000X0.225000X-0.250000X0.225000X-0.250000X-0.225000X0*%
%TD*%
%TA.AperFunction,SMDPad,CuDef*%
%ADD15RoundRect,0.200000X-0.275000X0.200000X-0.275000X-0.200000X0.275000X-0.200000X0.275000X0.200000X0*%
%TD*%
%TA.AperFunction,SMDPad,CuDef*%
%ADD16RoundRect,0.200000X0.275000X-0.200000X0.275000X0.200000X-0.275000X0.200000X-0.275000X-0.200000X0*%
%TD*%
%TA.AperFunction,SMDPad,CuDef*%
%ADD17RoundRect,0.200000X-0.200000X-0.275000X0.200000X-0.275000X0.200000X0.275000X-0.200000X0.275000X0*%
%TD*%
%TA.AperFunction,SMDPad,CuDef*%
%ADD18RoundRect,0.150000X0.150000X-0.512500X0.150000X0.512500X-0.150000X0.512500X-0.150000X-0.512500X0*%
%TD*%
%TA.AperFunction,SMDPad,CuDef*%
%ADD19R,0.300000X0.700000*%
%TD*%
%TA.AperFunction,SMDPad,CuDef*%
%ADD20R,1.000000X0.700000*%
%TD*%
%TA.AperFunction,ComponentPad*%
%ADD21O,1.100000X2.600000*%
%TD*%
%TA.AperFunction,ComponentPad*%
%ADD22O,1.100000X2.100000*%
%TD*%
%TA.AperFunction,SMDPad,CuDef*%
%ADD23RoundRect,0.100000X0.712500X0.100000X-0.712500X0.100000X-0.712500X-0.100000X0.712500X-0.100000X0*%
%TD*%
%TA.AperFunction,SMDPad,CuDef*%
%ADD24RoundRect,0.062500X-0.062500X0.375000X-0.062500X-0.375000X0.062500X-0.375000X0.062500X0.375000X0*%
%TD*%
%TA.AperFunction,SMDPad,CuDef*%
%ADD25RoundRect,0.062500X-0.375000X0.062500X-0.375000X-0.062500X0.375000X-0.062500X0.375000X0.062500X0*%
%TD*%
%TA.AperFunction,SMDPad,CuDef*%
%ADD26R,5.600000X5.600000*%
%TD*%
%TA.AperFunction,SMDPad,CuDef*%
%ADD27RoundRect,0.250000X-0.250000X-0.475000X0.250000X-0.475000X0.250000X0.475000X-0.250000X0.475000X0*%
%TD*%
%TA.AperFunction,SMDPad,CuDef*%
%ADD28R,1.100000X0.250000*%
%TD*%
%TA.AperFunction,SMDPad,CuDef*%
%ADD29RoundRect,0.200000X0.200000X0.275000X-0.200000X0.275000X-0.200000X-0.275000X0.200000X-0.275000X0*%
%TD*%
%TA.AperFunction,SMDPad,CuDef*%
%ADD30R,2.400000X0.740000*%
%TD*%
%TA.AperFunction,SMDPad,CuDef*%
%ADD31R,0.700000X0.600000*%
%TD*%
%TA.AperFunction,SMDPad,CuDef*%
%ADD32RoundRect,0.250000X-0.475000X0.250000X-0.475000X-0.250000X0.475000X-0.250000X0.475000X0.250000X0*%
%TD*%
%TA.AperFunction,ViaPad*%
%ADD33C,0.800000*%
%TD*%
%TA.AperFunction,Conductor*%
%ADD34C,0.250000*%
%TD*%
%TA.AperFunction,Conductor*%
%ADD35C,0.200000*%
%TD*%
%TA.AperFunction,Conductor*%
%ADD36C,0.254000*%
%TD*%
G04 APERTURE END LIST*
D10*
%TO.P,C12,1*%
%TO.N,+3V3*%
X139425000Y-107000000D03*
%TO.P,C12,2*%
%TO.N,GND*%
X140975000Y-107000000D03*
%TD*%
D11*
%TO.P,C3,1*%
%TO.N,Net-(C3-Pad1)*%
X146000000Y-89425000D03*
%TO.P,C3,2*%
%TO.N,Net-(C14-Pad1)*%
X146000000Y-90975000D03*
%TD*%
D12*
%TO.P,J2,1,Pin_1*%
%TO.N,Net-(J2-Pad1)*%
X139600000Y-86800000D03*
D13*
%TO.P,J2,2,Pin_2*%
%TO.N,Net-(J2-Pad2)*%
X142140000Y-86800000D03*
%TO.P,J2,3,Pin_3*%
%TO.N,GND*%
X144680000Y-86800000D03*
%TD*%
D10*
%TO.P,C11,1*%
%TO.N,VBUS*%
X139425000Y-113600000D03*
%TO.P,C11,2*%
%TO.N,GND*%
X140975000Y-113600000D03*
%TD*%
D14*
%TO.P,C14,1*%
%TO.N,Net-(C14-Pad1)*%
X144400000Y-90975000D03*
%TO.P,C14,2*%
%TO.N,GND*%
X144400000Y-89425000D03*
%TD*%
D10*
%TO.P,C4,1*%
%TO.N,+3V3*%
X154225000Y-96000000D03*
%TO.P,C4,2*%
%TO.N,GND*%
X155775000Y-96000000D03*
%TD*%
D14*
%TO.P,C8,1*%
%TO.N,+3V3*%
X152600000Y-95175000D03*
%TO.P,C8,2*%
%TO.N,GND*%
X152600000Y-93625000D03*
%TD*%
D15*
%TO.P,R15,1*%
%TO.N,/TIM2_CH2*%
X147200000Y-97975000D03*
%TO.P,R15,2*%
%TO.N,Net-(D2-Pad3)*%
X147200000Y-99625000D03*
%TD*%
D11*
%TO.P,C2,1*%
%TO.N,+3V3*%
X156400000Y-89225000D03*
%TO.P,C2,2*%
%TO.N,GND*%
X156400000Y-90775000D03*
%TD*%
D16*
%TO.P,R5,1*%
%TO.N,/ADC_ALERT*%
X152910415Y-87225000D03*
%TO.P,R5,2*%
%TO.N,+3V3*%
X152910415Y-85575000D03*
%TD*%
D17*
%TO.P,R10,1*%
%TO.N,Net-(J3-PadB5)*%
X153775000Y-110400000D03*
%TO.P,R10,2*%
%TO.N,GND*%
X155425000Y-110400000D03*
%TD*%
D18*
%TO.P,U4,1,IN*%
%TO.N,VBUS*%
X139450000Y-111737500D03*
%TO.P,U4,2,GND*%
%TO.N,GND*%
X140400000Y-111737500D03*
%TO.P,U4,3,EN*%
%TO.N,VBUS*%
X141350000Y-111737500D03*
%TO.P,U4,4*%
%TO.N,N/C*%
X141350000Y-109462500D03*
%TO.P,U4,5,OUT*%
%TO.N,+3V3*%
X139450000Y-109462500D03*
%TD*%
D17*
%TO.P,R9,1*%
%TO.N,Net-(J3-PadA5)*%
X153775000Y-112000000D03*
%TO.P,R9,2*%
%TO.N,GND*%
X155425000Y-112000000D03*
%TD*%
%TO.P,R12,1*%
%TO.N,Net-(J3-PadS1)*%
X153775000Y-113600000D03*
%TO.P,R12,2*%
%TO.N,GND*%
X155425000Y-113600000D03*
%TD*%
D19*
%TO.P,J3,A1,GND*%
%TO.N,GND*%
X144600000Y-107160000D03*
%TO.P,J3,A2*%
%TO.N,N/C*%
X145100000Y-107160000D03*
%TO.P,J3,A3*%
X145600000Y-107160000D03*
%TO.P,J3,A4,VBUS*%
%TO.N,VBUS*%
X146100000Y-107160000D03*
%TO.P,J3,A5,CC1*%
%TO.N,Net-(J3-PadA5)*%
X146600000Y-107160000D03*
%TO.P,J3,A6,D+*%
%TO.N,/USB_D+*%
X147100000Y-107160000D03*
%TO.P,J3,A7,D-*%
%TO.N,/USB_D-*%
X148100000Y-107160000D03*
%TO.P,J3,A8,SBU1*%
%TO.N,no_connect_29*%
X148600000Y-107160000D03*
%TO.P,J3,A9,VBUS*%
%TO.N,VBUS*%
X149100000Y-107160000D03*
%TO.P,J3,A10*%
%TO.N,N/C*%
X149600000Y-107160000D03*
%TO.P,J3,A11*%
X150100000Y-107160000D03*
%TO.P,J3,A12,GND*%
%TO.N,GND*%
X150600000Y-107160000D03*
D20*
%TO.P,J3,B1,GND*%
X150700000Y-108400000D03*
D19*
%TO.P,J3,B2*%
%TO.N,N/C*%
X149850000Y-108400000D03*
%TO.P,J3,B3*%
X149350000Y-108400000D03*
%TO.P,J3,B4,VBUS*%
%TO.N,VBUS*%
X148850000Y-108400000D03*
%TO.P,J3,B5,CC2*%
%TO.N,Net-(J3-PadB5)*%
X148350000Y-108400000D03*
%TO.P,J3,B6,D+*%
%TO.N,/USB_D+*%
X147850000Y-108400000D03*
%TO.P,J3,B7,D-*%
%TO.N,/USB_D-*%
X147350000Y-108400000D03*
%TO.P,J3,B8,SBU2*%
%TO.N,no_connect_30*%
X146850000Y-108400000D03*
%TO.P,J3,B9,VBUS*%
%TO.N,VBUS*%
X146350000Y-108400000D03*
%TO.P,J3,B10*%
%TO.N,N/C*%
X145850000Y-108400000D03*
%TO.P,J3,B11*%
X145350000Y-108400000D03*
D20*
%TO.P,J3,B12,GND*%
%TO.N,GND*%
X144500000Y-108400000D03*
D21*
%TO.P,J3,S1,SHIELD*%
%TO.N,Net-(J3-PadS1)*%
X151920000Y-112870000D03*
D22*
X143280000Y-107510000D03*
D21*
X143280000Y-112870000D03*
D22*
X151920000Y-107510000D03*
%TD*%
D15*
%TO.P,R2,1*%
%TO.N,Net-(C3-Pad1)*%
X147600000Y-92375000D03*
%TO.P,R2,2*%
%TO.N,Net-(C14-Pad1)*%
X147600000Y-94025000D03*
%TD*%
D16*
%TO.P,R7,1*%
%TO.N,/SDA*%
X154410415Y-87225000D03*
%TO.P,R7,2*%
%TO.N,+3V3*%
X154410415Y-85575000D03*
%TD*%
D23*
%TO.P,U1,1*%
%TO.N,Net-(C14-Pad1)*%
X145312500Y-94775000D03*
%TO.P,U1,2,-*%
%TO.N,Net-(C3-Pad1)*%
X145312500Y-94125000D03*
%TO.P,U1,3,+*%
%TO.N,Net-(J2-Pad2)*%
X145312500Y-93475000D03*
%TO.P,U1,4,V-*%
%TO.N,GND*%
X145312500Y-92825000D03*
%TO.P,U1,5,+*%
%TO.N,Net-(J2-Pad1)*%
X141087500Y-92825000D03*
%TO.P,U1,6,-*%
%TO.N,/SENSOR_VMEAS*%
X141087500Y-93475000D03*
%TO.P,U1,7*%
X141087500Y-94125000D03*
%TO.P,U1,8,V+*%
%TO.N,+3V3*%
X141087500Y-94775000D03*
%TD*%
D15*
%TO.P,R8,1*%
%TO.N,Net-(J2-Pad2)*%
X151210415Y-85575000D03*
%TO.P,R8,2*%
%TO.N,GND*%
X151210415Y-87225000D03*
%TD*%
D24*
%TO.P,U5,1,VBAT*%
%TO.N,+3V3*%
X155150000Y-97762500D03*
%TO.P,U5,2,PC13*%
%TO.N,no_connect_41*%
X154650000Y-97762500D03*
%TO.P,U5,3,PC14*%
%TO.N,no_connect_50*%
X154150000Y-97762500D03*
%TO.P,U5,4,PC15*%
%TO.N,no_connect_55*%
X153650000Y-97762500D03*
%TO.P,U5,5,PF0*%
%TO.N,no_connect_59*%
X153150000Y-97762500D03*
%TO.P,U5,6,PF1*%
%TO.N,no_connect_60*%
X152650000Y-97762500D03*
%TO.P,U5,7,NRST*%
%TO.N,/NRST*%
X152150000Y-97762500D03*
%TO.P,U5,8,VSSA*%
%TO.N,GND*%
X151650000Y-97762500D03*
%TO.P,U5,9,VDDA*%
%TO.N,+3V3*%
X151150000Y-97762500D03*
%TO.P,U5,10,PA0*%
%TO.N,/TIM2_CH1*%
X150650000Y-97762500D03*
%TO.P,U5,11,PA1*%
%TO.N,/TIM2_CH2*%
X150150000Y-97762500D03*
%TO.P,U5,12,PA2*%
%TO.N,/TIM2_CH3*%
X149650000Y-97762500D03*
D25*
%TO.P,U5,13,PA3*%
%TO.N,no_connect_34*%
X148962500Y-98450000D03*
%TO.P,U5,14,PA4*%
%TO.N,no_connect_35*%
X148962500Y-98950000D03*
%TO.P,U5,15,PA5*%
%TO.N,no_connect_36*%
X148962500Y-99450000D03*
%TO.P,U5,16,PA6*%
%TO.N,no_connect_37*%
X148962500Y-99950000D03*
%TO.P,U5,17,PA7*%
%TO.N,no_connect_38*%
X148962500Y-100450000D03*
%TO.P,U5,18,PB0*%
%TO.N,no_connect_39*%
X148962500Y-100950000D03*
%TO.P,U5,19,PB1*%
%TO.N,no_connect_40*%
X148962500Y-101450000D03*
%TO.P,U5,20,PB2*%
%TO.N,no_connect_42*%
X148962500Y-101950000D03*
%TO.P,U5,21,PB10*%
%TO.N,no_connect_43*%
X148962500Y-102450000D03*
%TO.P,U5,22,PB11*%
%TO.N,no_connect_44*%
X148962500Y-102950000D03*
%TO.P,U5,23,VSS*%
%TO.N,GND*%
X148962500Y-103450000D03*
%TO.P,U5,24,VDD*%
%TO.N,+3V3*%
X148962500Y-103950000D03*
D24*
%TO.P,U5,25,PB12*%
%TO.N,no_connect_45*%
X149650000Y-104637500D03*
%TO.P,U5,26,PB13*%
%TO.N,no_connect_46*%
X150150000Y-104637500D03*
%TO.P,U5,27,PB14*%
%TO.N,no_connect_47*%
X150650000Y-104637500D03*
%TO.P,U5,28,PB15*%
%TO.N,no_connect_48*%
X151150000Y-104637500D03*
%TO.P,U5,29,PA8*%
%TO.N,no_connect_49*%
X151650000Y-104637500D03*
%TO.P,U5,30,PA9*%
%TO.N,no_connect_51*%
X152150000Y-104637500D03*
%TO.P,U5,31,PA10*%
%TO.N,no_connect_52*%
X152650000Y-104637500D03*
%TO.P,U5,32,PA11*%
%TO.N,/USB_D-*%
X153150000Y-104637500D03*
%TO.P,U5,33,PA12*%
%TO.N,/USB_D+*%
X153650000Y-104637500D03*
%TO.P,U5,34,PA13*%
%TO.N,/SWDIO*%
X154150000Y-104637500D03*
%TO.P,U5,35,VSS*%
%TO.N,GND*%
X154650000Y-104637500D03*
%TO.P,U5,36,VDDIO2*%
%TO.N,+3V3*%
X155150000Y-104637500D03*
D25*
%TO.P,U5,37,PA14*%
%TO.N,/SWCLK*%
X155837500Y-103950000D03*
%TO.P,U5,38,PA15*%
%TO.N,no_connect_53*%
X155837500Y-103450000D03*
%TO.P,U5,39,PB3*%
%TO.N,no_connect_54*%
X155837500Y-102950000D03*
%TO.P,U5,40,PB4*%
%TO.N,no_connect_56*%
X155837500Y-102450000D03*
%TO.P,U5,41,PB5*%
%TO.N,no_connect_57*%
X155837500Y-101950000D03*
%TO.P,U5,42,PB6*%
%TO.N,/SCL*%
X155837500Y-101450000D03*
%TO.P,U5,43,PB7*%
%TO.N,/SDA*%
X155837500Y-100950000D03*
%TO.P,U5,44,BOOT0*%
%TO.N,GND*%
X155837500Y-100450000D03*
%TO.P,U5,45,PB8*%
%TO.N,no_connect_58*%
X155837500Y-99950000D03*
%TO.P,U5,46,PB9*%
%TO.N,/ADC_ALERT*%
X155837500Y-99450000D03*
%TO.P,U5,47,VSS*%
%TO.N,GND*%
X155837500Y-98950000D03*
%TO.P,U5,48,VDD*%
%TO.N,+3V3*%
X155837500Y-98450000D03*
D26*
%TO.P,U5,49,VSS*%
%TO.N,GND*%
X152400000Y-101200000D03*
%TD*%
D27*
%TO.P,C6,1*%
%TO.N,+3V3*%
X154250000Y-94200000D03*
%TO.P,C6,2*%
%TO.N,GND*%
X156150000Y-94200000D03*
%TD*%
D16*
%TO.P,R1,1*%
%TO.N,GND*%
X149200000Y-94025000D03*
%TO.P,R1,2*%
%TO.N,Net-(C3-Pad1)*%
X149200000Y-92375000D03*
%TD*%
%TO.P,R6,1*%
%TO.N,/SCL*%
X156010415Y-87225000D03*
%TO.P,R6,2*%
%TO.N,+3V3*%
X156010415Y-85575000D03*
%TD*%
D28*
%TO.P,U2,1,ADDR*%
%TO.N,GND*%
X150050000Y-88800000D03*
%TO.P,U2,2,ALERT/RDY*%
%TO.N,/ADC_ALERT*%
X150050000Y-89300000D03*
%TO.P,U2,3,GND*%
%TO.N,GND*%
X150050000Y-89800000D03*
%TO.P,U2,4,AIN0*%
%TO.N,Net-(C14-Pad1)*%
X150050000Y-90300000D03*
%TO.P,U2,5,AIN1*%
%TO.N,/SENSOR_VMEAS*%
X150050000Y-90800000D03*
%TO.P,U2,6,AIN2*%
%TO.N,no_connect_32*%
X154350000Y-90800000D03*
%TO.P,U2,7,AIN3*%
%TO.N,no_connect_33*%
X154350000Y-90300000D03*
%TO.P,U2,8,VDD*%
%TO.N,+3V3*%
X154350000Y-89800000D03*
%TO.P,U2,9,SDA*%
%TO.N,/SDA*%
X154350000Y-89300000D03*
%TO.P,U2,10,SCL*%
%TO.N,/SCL*%
X154350000Y-88800000D03*
%TD*%
D11*
%TO.P,C9,1*%
%TO.N,+3V3*%
X154400000Y-107225000D03*
%TO.P,C9,2*%
%TO.N,GND*%
X154400000Y-108775000D03*
%TD*%
D14*
%TO.P,C7,1*%
%TO.N,+3V3*%
X151000000Y-95175000D03*
%TO.P,C7,2*%
%TO.N,GND*%
X151000000Y-93625000D03*
%TD*%
D29*
%TO.P,R14,1*%
%TO.N,/TIM2_CH1*%
X149325000Y-95700000D03*
%TO.P,R14,2*%
%TO.N,Net-(D2-Pad4)*%
X147675000Y-95700000D03*
%TD*%
D15*
%TO.P,R17,1*%
%TO.N,/TIM2_CH3*%
X147200000Y-101175000D03*
%TO.P,R17,2*%
%TO.N,Net-(D2-Pad1)*%
X147200000Y-102825000D03*
%TD*%
D30*
%TO.P,J1,1,Pin_1*%
%TO.N,+3V3*%
X139850000Y-99660000D03*
%TO.P,J1,2,Pin_2*%
%TO.N,/SWDIO*%
X143750000Y-99660000D03*
%TO.P,J1,3,Pin_3*%
%TO.N,GND*%
X139850000Y-100930000D03*
%TO.P,J1,4,Pin_4*%
%TO.N,/SWCLK*%
X143750000Y-100930000D03*
%TO.P,J1,5,Pin_5*%
%TO.N,GND*%
X139850000Y-102200000D03*
%TO.P,J1,6,Pin_6*%
%TO.N,no_connect_26*%
X143750000Y-102200000D03*
%TO.P,J1,7,Pin_7*%
%TO.N,no_connect_27*%
X139850000Y-103470000D03*
%TO.P,J1,8,Pin_8*%
%TO.N,no_connect_28*%
X143750000Y-103470000D03*
%TO.P,J1,9,Pin_9*%
%TO.N,GND*%
X139850000Y-104740000D03*
%TO.P,J1,10,Pin_10*%
%TO.N,/NRST*%
X143750000Y-104740000D03*
%TD*%
D10*
%TO.P,C1,1*%
%TO.N,+3V3*%
X140825000Y-96400000D03*
%TO.P,C1,2*%
%TO.N,GND*%
X142375000Y-96400000D03*
%TD*%
%TO.P,C5,1*%
%TO.N,+3V3*%
X154225000Y-92400000D03*
%TO.P,C5,2*%
%TO.N,GND*%
X155775000Y-92400000D03*
%TD*%
D31*
%TO.P,D2,1,BK*%
%TO.N,Net-(D2-Pad1)*%
X144300000Y-97900000D03*
%TO.P,D2,2,A*%
%TO.N,+3V3*%
X144300000Y-96500000D03*
%TO.P,D2,3,GK*%
%TO.N,Net-(D2-Pad3)*%
X145300000Y-97900000D03*
%TO.P,D2,4,RK*%
%TO.N,Net-(D2-Pad4)*%
X145300000Y-96500000D03*
%TD*%
D32*
%TO.P,C10,1*%
%TO.N,+3V3*%
X156200000Y-106850000D03*
%TO.P,C10,2*%
%TO.N,GND*%
X156200000Y-108750000D03*
%TD*%
D33*
%TO.N,GND*%
X149600000Y-111200000D03*
X143000000Y-89400000D03*
X155600000Y-90600000D03*
X151800000Y-90600000D03*
X156600000Y-113600000D03*
X155775000Y-95225000D03*
X145400000Y-92000000D03*
X154000000Y-99700000D03*
X154000000Y-102700000D03*
X150900000Y-102700000D03*
X142000000Y-113600000D03*
X142400000Y-97600000D03*
X150900000Y-99700000D03*
X150600000Y-109600000D03*
X139850000Y-101550000D03*
X151775000Y-93625000D03*
X143600000Y-109300000D03*
X140300000Y-105700000D03*
X149600000Y-112800000D03*
X152400000Y-101200000D03*
X151400000Y-88400000D03*
X156600000Y-110000000D03*
%TO.N,+3V3*%
X156400000Y-88400000D03*
X155235415Y-85575000D03*
X140800000Y-97600000D03*
X155175000Y-105825000D03*
X139500000Y-108100000D03*
X143800000Y-95600000D03*
X151825000Y-95175000D03*
X154225000Y-93175000D03*
X145800000Y-105450001D03*
X139800000Y-98600000D03*
X138400000Y-107200000D03*
X138400000Y-109400000D03*
%TO.N,VBUS*%
X142200000Y-111400000D03*
X138600000Y-111800000D03*
X146000000Y-109600000D03*
X149200000Y-109600000D03*
%TO.N,/NRST*%
X152000000Y-96600000D03*
X145787347Y-103812653D03*
%TO.N,Net-(C14-Pad1)*%
X142600000Y-93400000D03*
X143200000Y-91000000D03*
%TO.N,/SWCLK*%
X156600000Y-104800000D03*
X147000000Y-104000000D03*
%TO.N,/SWDIO*%
X153069951Y-106999353D03*
X141800000Y-104600000D03*
%TO.N,/SENSOR_VMEAS*%
X139400000Y-94200000D03*
X151400000Y-91800000D03*
%TO.N,/USB_D-*%
X148743851Y-106209998D03*
X147400000Y-109600000D03*
%TO.N,/USB_D+*%
X147400000Y-106000000D03*
X150000000Y-106200000D03*
%TO.N,Net-(J3-PadA5)*%
X144800000Y-106200000D03*
X144800000Y-109350002D03*
%TO.N,Net-(C3-Pad1)*%
X147600000Y-91200000D03*
X147600000Y-89400000D03*
%TO.N,/ADC_ALERT*%
X156200000Y-97400000D03*
X153000000Y-96600000D03*
%TO.N,/SCL*%
X155353248Y-88781850D03*
X156950000Y-102200000D03*
%TD*%
D34*
%TO.N,GND*%
X154400000Y-108775000D02*
X156175000Y-108775000D01*
X139850000Y-101550000D02*
X139850000Y-100930000D01*
X144500000Y-108400000D02*
X143600000Y-109300000D01*
X144600000Y-107160000D02*
X144600000Y-108300000D01*
X151650000Y-97762500D02*
X151650000Y-100450000D01*
X145312500Y-92087500D02*
X145400000Y-92000000D01*
X139850000Y-105250000D02*
X140300000Y-105700000D01*
X150600000Y-108300000D02*
X150700000Y-108400000D01*
X149200000Y-94025000D02*
X150600000Y-94025000D01*
X154650000Y-104637500D02*
X154650000Y-103450000D01*
X154650000Y-103450000D02*
X152400000Y-101200000D01*
X140400000Y-111737500D02*
X140400000Y-113025000D01*
X155425000Y-110400000D02*
X155425000Y-109525000D01*
X155775000Y-90775000D02*
X155600000Y-90600000D01*
X153150000Y-100450000D02*
X152400000Y-101200000D01*
X156200000Y-109600000D02*
X156600000Y-110000000D01*
X154650000Y-98950000D02*
X152400000Y-101200000D01*
X150700000Y-108400000D02*
X150700000Y-109500000D01*
X150050000Y-89800000D02*
X151000000Y-89800000D01*
X151210415Y-88210415D02*
X151400000Y-88400000D01*
X140400000Y-113025000D02*
X140975000Y-113600000D01*
X144500000Y-108400000D02*
X144500000Y-108500000D01*
X155425000Y-109525000D02*
X156200000Y-108750000D01*
X140975000Y-107000000D02*
X140975000Y-106375000D01*
X142375000Y-96400000D02*
X142375000Y-97575000D01*
X156400000Y-90775000D02*
X155775000Y-90775000D01*
X144600000Y-108300000D02*
X144500000Y-108400000D01*
X145312500Y-92825000D02*
X145312500Y-92087500D01*
X151775000Y-93625000D02*
X152600000Y-93625000D01*
X151210415Y-87225000D02*
X151210415Y-88210415D01*
X140975000Y-106375000D02*
X140300000Y-105700000D01*
X148962500Y-103450000D02*
X150150000Y-103450000D01*
X143025000Y-89425000D02*
X143000000Y-89400000D01*
X150600000Y-94025000D02*
X151000000Y-93625000D01*
X155837500Y-98950000D02*
X154650000Y-98950000D01*
X155425000Y-113600000D02*
X156600000Y-113600000D01*
X140975000Y-113600000D02*
X142000000Y-113600000D01*
X150700000Y-109500000D02*
X150600000Y-109600000D01*
X151650000Y-100450000D02*
X152400000Y-101200000D01*
X139850000Y-104740000D02*
X139850000Y-105250000D01*
X156175000Y-108775000D02*
X156200000Y-108750000D01*
D35*
X150050000Y-88800000D02*
X151000000Y-88800000D01*
D34*
X151000000Y-89800000D02*
X151800000Y-90600000D01*
X150600000Y-107160000D02*
X150600000Y-108300000D01*
X155775000Y-95225000D02*
X155775000Y-94575000D01*
D35*
X151000000Y-88800000D02*
X151400000Y-88400000D01*
D34*
X151000000Y-93625000D02*
X151775000Y-93625000D01*
X155775000Y-93825000D02*
X156150000Y-94200000D01*
X156200000Y-108750000D02*
X156200000Y-109600000D01*
X155425000Y-113600000D02*
X155425000Y-110400000D01*
X142375000Y-97575000D02*
X142400000Y-97600000D01*
X155837500Y-100450000D02*
X153150000Y-100450000D01*
X155775000Y-92400000D02*
X155775000Y-93825000D01*
X150150000Y-103450000D02*
X152400000Y-101200000D01*
X144400000Y-89425000D02*
X143025000Y-89425000D01*
X155775000Y-94575000D02*
X156150000Y-94200000D01*
%TO.N,+3V3*%
X155150000Y-104637500D02*
X155150000Y-105800000D01*
X155825000Y-89800000D02*
X156400000Y-89225000D01*
X151150000Y-97762500D02*
X151150000Y-95325000D01*
X140825000Y-96400000D02*
X140825000Y-97575000D01*
X140825000Y-96400000D02*
X140825000Y-95037500D01*
X155150000Y-97762500D02*
X155150000Y-97150000D01*
X144300000Y-96100000D02*
X143800000Y-95600000D01*
X156010415Y-85575000D02*
X152910415Y-85575000D01*
X154400000Y-107225000D02*
X155825000Y-107225000D01*
X139850000Y-98650000D02*
X139800000Y-98600000D01*
X155175000Y-105825000D02*
X156200000Y-106850000D01*
X154225000Y-96000000D02*
X155150000Y-96925000D01*
X155825000Y-107225000D02*
X156200000Y-106850000D01*
X140825000Y-97575000D02*
X140800000Y-97600000D01*
X146450001Y-104800000D02*
X145800000Y-105450001D01*
X155235415Y-85575000D02*
X156010415Y-85575000D01*
X148112500Y-104800000D02*
X146450001Y-104800000D01*
X155837500Y-98450000D02*
X155150000Y-97762500D01*
X156400000Y-89225000D02*
X156400000Y-88400000D01*
X140825000Y-95037500D02*
X141087500Y-94775000D01*
X151825000Y-95175000D02*
X152600000Y-95175000D01*
X154350000Y-89800000D02*
X155825000Y-89800000D01*
X151150000Y-95325000D02*
X151000000Y-95175000D01*
X139850000Y-99660000D02*
X139850000Y-98650000D01*
X155150000Y-96925000D02*
X155150000Y-97150000D01*
X154225000Y-93175000D02*
X154225000Y-96000000D01*
X148962500Y-103950000D02*
X148112500Y-104800000D01*
X144300000Y-96500000D02*
X144300000Y-96100000D01*
D35*
%TO.N,VBUS*%
X149100000Y-107160000D02*
X149100000Y-107650000D01*
D34*
X139425000Y-111762500D02*
X139450000Y-111737500D01*
X139425000Y-113600000D02*
X139425000Y-111762500D01*
D35*
X146350000Y-107900000D02*
X146350000Y-108400000D01*
D34*
X146350000Y-109250000D02*
X146000000Y-109600000D01*
X148850000Y-109250000D02*
X149200000Y-109600000D01*
D35*
X146100000Y-107650000D02*
X146350000Y-107900000D01*
D34*
X148850000Y-108400000D02*
X148850000Y-109250000D01*
X139450000Y-111737500D02*
X138662500Y-111737500D01*
X141862500Y-111737500D02*
X142200000Y-111400000D01*
D35*
X149100000Y-107650000D02*
X148850000Y-107900000D01*
X146100000Y-107160000D02*
X146100000Y-107650000D01*
D34*
X146350000Y-108400000D02*
X146350000Y-109250000D01*
D35*
X148850000Y-107900000D02*
X148850000Y-108400000D01*
D34*
X138662500Y-111737500D02*
X138600000Y-111800000D01*
X141350000Y-111737500D02*
X141862500Y-111737500D01*
%TO.N,/NRST*%
X144860000Y-104740000D02*
X143750000Y-104740000D01*
X145787347Y-103812653D02*
X144860000Y-104740000D01*
X152150000Y-96750000D02*
X152000000Y-96600000D01*
X152150000Y-97050000D02*
X152150000Y-96750000D01*
X152150000Y-97762500D02*
X152150000Y-97050000D01*
%TO.N,Net-(D2-Pad4)*%
X145300000Y-96500000D02*
X146875000Y-96500000D01*
X146875000Y-96500000D02*
X147675000Y-95700000D01*
%TO.N,Net-(D2-Pad3)*%
X145300000Y-97900000D02*
X147025000Y-99625000D01*
X147025000Y-99625000D02*
X147200000Y-99625000D01*
%TO.N,Net-(D2-Pad1)*%
X144300000Y-98135002D02*
X146100000Y-99935002D01*
X144300000Y-97900000D02*
X144300000Y-98135002D01*
X146100000Y-101725000D02*
X147200000Y-102825000D01*
X146100000Y-99935002D02*
X146100000Y-101725000D01*
%TO.N,Net-(C14-Pad1)*%
X144400000Y-90975000D02*
X146000000Y-90975000D01*
X146850000Y-94775000D02*
X147600000Y-94025000D01*
X146675000Y-90300000D02*
X146000000Y-90975000D01*
X143975000Y-94775000D02*
X145312500Y-94775000D01*
X143225000Y-90975000D02*
X143200000Y-91000000D01*
X142600000Y-93400000D02*
X143975000Y-94775000D01*
X145312500Y-94775000D02*
X146850000Y-94775000D01*
X150050000Y-90300000D02*
X146675000Y-90300000D01*
X144400000Y-90975000D02*
X143225000Y-90975000D01*
%TO.N,/SWCLK*%
X155837500Y-104037500D02*
X156600000Y-104800000D01*
X155837500Y-103950000D02*
X155837500Y-104037500D01*
X145600000Y-102600000D02*
X145600000Y-101775000D01*
X144755000Y-100930000D02*
X143750000Y-100930000D01*
X145600000Y-101775000D02*
X144755000Y-100930000D01*
X147000000Y-104000000D02*
X145600000Y-102600000D01*
%TO.N,/SWDIO*%
X153069951Y-106999353D02*
X153069951Y-106716459D01*
X142864998Y-99660000D02*
X143750000Y-99660000D01*
X141800000Y-100724998D02*
X142864998Y-99660000D01*
X141800000Y-101380000D02*
X141800000Y-104600000D01*
X153069951Y-106716459D02*
X154150000Y-105636410D01*
X154150000Y-105636410D02*
X154150000Y-104637500D01*
X141800000Y-101380000D02*
X141800000Y-100724998D01*
%TO.N,/SENSOR_VMEAS*%
X150400000Y-90800000D02*
X151400000Y-91800000D01*
X150050000Y-90800000D02*
X150400000Y-90800000D01*
X141087500Y-93475000D02*
X141087500Y-94125000D01*
X139475000Y-94125000D02*
X139400000Y-94200000D01*
X141087500Y-94125000D02*
X139475000Y-94125000D01*
%TO.N,Net-(J3-PadS1)*%
X153775000Y-113600000D02*
X152650000Y-113600000D01*
X152650000Y-113600000D02*
X151920000Y-112870000D01*
%TO.N,/USB_D-*%
X148743851Y-106209998D02*
X148590002Y-106209998D01*
X147350000Y-109550000D02*
X147400000Y-109600000D01*
X153100000Y-105400000D02*
X153150000Y-105350000D01*
X147350000Y-108400000D02*
X147350000Y-109550000D01*
X148100000Y-106700000D02*
X148100000Y-107160000D01*
X153150000Y-105350000D02*
X153150000Y-104637500D01*
X148590002Y-106209998D02*
X148100000Y-106700000D01*
X148743851Y-106209998D02*
X149553849Y-105400000D01*
X149553849Y-105400000D02*
X153100000Y-105400000D01*
%TO.N,/USB_D+*%
X147100000Y-107160000D02*
X147850000Y-107910000D01*
X150149991Y-105850009D02*
X153286401Y-105850009D01*
X150000000Y-106000000D02*
X150149991Y-105850009D01*
X153650000Y-105486410D02*
X153650000Y-104637500D01*
X153286401Y-105850009D02*
X153650000Y-105486410D01*
X150000000Y-106200000D02*
X150000000Y-106000000D01*
X147100000Y-106300000D02*
X147400000Y-106000000D01*
X147100000Y-107160000D02*
X147100000Y-106300000D01*
X147850000Y-107910000D02*
X147850000Y-108400000D01*
%TO.N,Net-(J3-PadB5)*%
X148926998Y-110400000D02*
X153775000Y-110400000D01*
X148350000Y-108400000D02*
X148350000Y-109823002D01*
X148350000Y-109823002D02*
X148926998Y-110400000D01*
%TO.N,Net-(J2-Pad1)*%
X139600000Y-91337500D02*
X141087500Y-92825000D01*
X139600000Y-86800000D02*
X139600000Y-91337500D01*
%TO.N,Net-(J3-PadA5)*%
X146674999Y-110474999D02*
X145359312Y-110474999D01*
X148125001Y-111925001D02*
X150274999Y-111925001D01*
X146240000Y-106200000D02*
X144800000Y-106200000D01*
X151200000Y-111000000D02*
X152775000Y-111000000D01*
X146600000Y-106560000D02*
X146240000Y-106200000D01*
X150274999Y-111925001D02*
X151200000Y-111000000D01*
X146600000Y-107160000D02*
X146600000Y-106560000D01*
X144800000Y-109915687D02*
X144800000Y-109350002D01*
X145359312Y-110474999D02*
X144800000Y-109915687D01*
X152775000Y-111000000D02*
X153775000Y-112000000D01*
X146674999Y-110474999D02*
X148125001Y-111925001D01*
%TO.N,Net-(C3-Pad1)*%
X147600000Y-92375000D02*
X147600000Y-92774999D01*
X149200000Y-92375000D02*
X147600000Y-92375000D01*
X146249999Y-94125000D02*
X145312500Y-94125000D01*
X147600000Y-92375000D02*
X147600000Y-91200000D01*
X146025000Y-89400000D02*
X146000000Y-89425000D01*
X147600000Y-92774999D02*
X146249999Y-94125000D01*
X147600000Y-89400000D02*
X146025000Y-89400000D01*
%TO.N,/ADC_ALERT*%
X152910415Y-87962587D02*
X151762500Y-89110502D01*
X156200000Y-97400000D02*
X156600010Y-97800010D01*
X152749990Y-90276988D02*
X152749990Y-92518384D01*
X156600010Y-99174060D02*
X156324070Y-99450000D01*
X152910415Y-87225000D02*
X152910415Y-87562500D01*
X151762500Y-89110502D02*
X151762500Y-89300000D01*
X153400010Y-96199990D02*
X153000000Y-96600000D01*
X151773002Y-89300000D02*
X152749990Y-90276988D01*
X151762500Y-89300000D02*
X150050000Y-89300000D01*
X152910415Y-87225000D02*
X152910415Y-87962587D01*
X153400010Y-93168404D02*
X153400010Y-96199990D01*
X156324070Y-99450000D02*
X155837500Y-99450000D01*
X152749990Y-92518384D02*
X153400010Y-93168404D01*
X156600010Y-97800010D02*
X156600010Y-99174060D01*
X150050000Y-89300000D02*
X151773002Y-89300000D01*
%TO.N,/SCL*%
X155353248Y-88092582D02*
X155353248Y-88781850D01*
X155837500Y-101450000D02*
X156324070Y-101450000D01*
X156950000Y-102075930D02*
X156950000Y-102200000D01*
X155353248Y-87882167D02*
X155353248Y-88781850D01*
X156010415Y-87225000D02*
X155353248Y-87882167D01*
X154350000Y-88800000D02*
X155335098Y-88800000D01*
X154350000Y-88800000D02*
X154800000Y-88800000D01*
X155335098Y-88800000D02*
X155353248Y-88781850D01*
X156010415Y-87225000D02*
X155631245Y-87225000D01*
X156324070Y-101450000D02*
X156950000Y-102075930D01*
%TO.N,/SDA*%
X154410415Y-87225000D02*
X153200000Y-88435415D01*
X153550000Y-89300000D02*
X154350000Y-89300000D01*
X153300000Y-89300000D02*
X153200000Y-89400000D01*
X154410415Y-87225000D02*
X154131245Y-87225000D01*
X157050020Y-100224050D02*
X157050020Y-92418414D01*
X153200000Y-89400000D02*
X153200000Y-89650000D01*
X156181616Y-91550010D02*
X153840008Y-91550010D01*
X153200000Y-88435415D02*
X153200000Y-89000000D01*
X157050020Y-92418414D02*
X156181616Y-91550010D01*
X153200000Y-89000000D02*
X153200000Y-89400000D01*
X153550000Y-89300000D02*
X153300000Y-89300000D01*
X153840008Y-91550010D02*
X153200000Y-90910002D01*
X155837500Y-100950000D02*
X156324070Y-100950000D01*
X153200000Y-90910002D02*
X153200000Y-89650000D01*
X156324070Y-100950000D02*
X157050020Y-100224050D01*
X153200000Y-88745830D02*
X153200000Y-89000000D01*
%TO.N,/TIM2_CH1*%
X150650000Y-97762500D02*
X150650000Y-96650000D01*
X149700000Y-95700000D02*
X149325000Y-95700000D01*
X150650000Y-96650000D02*
X149700000Y-95700000D01*
%TO.N,/TIM2_CH2*%
X150150000Y-97275930D02*
X149874060Y-96999990D01*
X148175010Y-96999990D02*
X147200000Y-97975000D01*
X150150000Y-97762500D02*
X150150000Y-97275930D01*
X149874060Y-96999990D02*
X148175010Y-96999990D01*
%TO.N,/TIM2_CH3*%
X149650000Y-97762500D02*
X148663430Y-97762500D01*
X148100000Y-100275000D02*
X147200000Y-101175000D01*
X148663430Y-97762500D02*
X148100000Y-98325930D01*
X148100000Y-98325930D02*
X148100000Y-100275000D01*
%TO.N,Net-(J2-Pad2)*%
X142140000Y-86800000D02*
X142140000Y-91740000D01*
D35*
X143365000Y-85575000D02*
X151210415Y-85575000D01*
D34*
X143875000Y-93475000D02*
X145312500Y-93475000D01*
D35*
X143365000Y-85575000D02*
X142140000Y-86800000D01*
D34*
X142140000Y-91740000D02*
X143875000Y-93475000D01*
%TD*%
%TO.N,GND*%
D36*
X156966000Y-113716472D02*
X156964042Y-113727346D01*
X156962083Y-113746691D01*
X156960161Y-113827845D01*
X156944890Y-113904617D01*
X156917850Y-113969898D01*
X156878599Y-114028642D01*
X156828642Y-114078599D01*
X156769899Y-114117850D01*
X156704618Y-114144891D01*
X156627846Y-114160161D01*
X156549969Y-114162005D01*
X156532144Y-114163700D01*
X156518408Y-114166000D01*
X156411009Y-114166000D01*
X156412847Y-114161212D01*
X156454582Y-113995059D01*
X156458129Y-113972274D01*
X156458751Y-113962387D01*
X156459000Y-113954476D01*
X156459000Y-113854000D01*
X156438998Y-113785879D01*
X156385342Y-113739386D01*
X156333000Y-113728000D01*
X155297000Y-113728000D01*
X155297000Y-112254000D01*
X155553000Y-112254000D01*
X155553000Y-113346000D01*
X155573002Y-113414121D01*
X155626658Y-113460614D01*
X155679000Y-113472000D01*
X156333000Y-113472000D01*
X156401121Y-113451998D01*
X156447614Y-113398342D01*
X156459000Y-113346000D01*
X156459000Y-113283682D01*
X156458087Y-113268545D01*
X156442506Y-113139789D01*
X156435285Y-113110388D01*
X156374729Y-112950132D01*
X156360703Y-112923303D01*
X156275118Y-112798777D01*
X156304555Y-112765738D01*
X156321833Y-112740878D01*
X156401997Y-112589475D01*
X156412847Y-112561212D01*
X156454582Y-112395059D01*
X156458129Y-112372274D01*
X156458751Y-112362387D01*
X156459000Y-112354476D01*
X156459000Y-112254000D01*
X156438998Y-112185879D01*
X156385342Y-112139386D01*
X156333000Y-112128000D01*
X155679000Y-112128000D01*
X155610879Y-112148002D01*
X155564386Y-112201658D01*
X155553000Y-112254000D01*
X155297000Y-112254000D01*
X155297000Y-110654000D01*
X155553000Y-110654000D01*
X155553000Y-111746000D01*
X155573002Y-111814121D01*
X155626658Y-111860614D01*
X155679000Y-111872000D01*
X156333000Y-111872000D01*
X156401121Y-111851998D01*
X156447614Y-111798342D01*
X156459000Y-111746000D01*
X156459000Y-111683682D01*
X156458087Y-111668545D01*
X156442506Y-111539789D01*
X156435285Y-111510388D01*
X156374729Y-111350132D01*
X156360703Y-111323303D01*
X156275118Y-111198777D01*
X156304555Y-111165738D01*
X156321833Y-111140878D01*
X156401997Y-110989475D01*
X156412847Y-110961212D01*
X156454582Y-110795059D01*
X156458129Y-110772274D01*
X156458751Y-110762387D01*
X156459000Y-110754476D01*
X156459000Y-110654000D01*
X156438998Y-110585879D01*
X156385342Y-110539386D01*
X156333000Y-110528000D01*
X155679000Y-110528000D01*
X155610879Y-110548002D01*
X155564386Y-110601658D01*
X155553000Y-110654000D01*
X155297000Y-110654000D01*
X155297000Y-110272000D01*
X156333000Y-110272000D01*
X156401121Y-110251998D01*
X156447614Y-110198342D01*
X156459000Y-110146000D01*
X156459000Y-110083682D01*
X156458087Y-110068545D01*
X156442506Y-109939789D01*
X156435285Y-109910388D01*
X156425314Y-109884000D01*
X156717885Y-109884000D01*
X156732477Y-109883152D01*
X156865120Y-109867687D01*
X156893519Y-109860974D01*
X156966000Y-109834665D01*
X156966000Y-113716472D01*
%TA.AperFunction,Conductor*%
G36*
X156966000Y-113716472D02*
G01*
X156964042Y-113727346D01*
X156962083Y-113746691D01*
X156960161Y-113827845D01*
X156944890Y-113904617D01*
X156917850Y-113969898D01*
X156878599Y-114028642D01*
X156828642Y-114078599D01*
X156769899Y-114117850D01*
X156704618Y-114144891D01*
X156627846Y-114160161D01*
X156549969Y-114162005D01*
X156532144Y-114163700D01*
X156518408Y-114166000D01*
X156411009Y-114166000D01*
X156412847Y-114161212D01*
X156454582Y-113995059D01*
X156458129Y-113972274D01*
X156458751Y-113962387D01*
X156459000Y-113954476D01*
X156459000Y-113854000D01*
X156438998Y-113785879D01*
X156385342Y-113739386D01*
X156333000Y-113728000D01*
X155297000Y-113728000D01*
X155297000Y-112254000D01*
X155553000Y-112254000D01*
X155553000Y-113346000D01*
X155573002Y-113414121D01*
X155626658Y-113460614D01*
X155679000Y-113472000D01*
X156333000Y-113472000D01*
X156401121Y-113451998D01*
X156447614Y-113398342D01*
X156459000Y-113346000D01*
X156459000Y-113283682D01*
X156458087Y-113268545D01*
X156442506Y-113139789D01*
X156435285Y-113110388D01*
X156374729Y-112950132D01*
X156360703Y-112923303D01*
X156275118Y-112798777D01*
X156304555Y-112765738D01*
X156321833Y-112740878D01*
X156401997Y-112589475D01*
X156412847Y-112561212D01*
X156454582Y-112395059D01*
X156458129Y-112372274D01*
X156458751Y-112362387D01*
X156459000Y-112354476D01*
X156459000Y-112254000D01*
X156438998Y-112185879D01*
X156385342Y-112139386D01*
X156333000Y-112128000D01*
X155679000Y-112128000D01*
X155610879Y-112148002D01*
X155564386Y-112201658D01*
X155553000Y-112254000D01*
X155297000Y-112254000D01*
X155297000Y-110654000D01*
X155553000Y-110654000D01*
X155553000Y-111746000D01*
X155573002Y-111814121D01*
X155626658Y-111860614D01*
X155679000Y-111872000D01*
X156333000Y-111872000D01*
X156401121Y-111851998D01*
X156447614Y-111798342D01*
X156459000Y-111746000D01*
X156459000Y-111683682D01*
X156458087Y-111668545D01*
X156442506Y-111539789D01*
X156435285Y-111510388D01*
X156374729Y-111350132D01*
X156360703Y-111323303D01*
X156275118Y-111198777D01*
X156304555Y-111165738D01*
X156321833Y-111140878D01*
X156401997Y-110989475D01*
X156412847Y-110961212D01*
X156454582Y-110795059D01*
X156458129Y-110772274D01*
X156458751Y-110762387D01*
X156459000Y-110754476D01*
X156459000Y-110654000D01*
X156438998Y-110585879D01*
X156385342Y-110539386D01*
X156333000Y-110528000D01*
X155679000Y-110528000D01*
X155610879Y-110548002D01*
X155564386Y-110601658D01*
X155553000Y-110654000D01*
X155297000Y-110654000D01*
X155297000Y-110272000D01*
X156333000Y-110272000D01*
X156401121Y-110251998D01*
X156447614Y-110198342D01*
X156459000Y-110146000D01*
X156459000Y-110083682D01*
X156458087Y-110068545D01*
X156442506Y-109939789D01*
X156435285Y-109910388D01*
X156425314Y-109884000D01*
X156717885Y-109884000D01*
X156732477Y-109883152D01*
X156865120Y-109867687D01*
X156893519Y-109860974D01*
X156966000Y-109834665D01*
X156966000Y-113716472D01*
G37*
%TD.AperFunction*%
X142095500Y-113670994D02*
X142096101Y-113683289D01*
X142111355Y-113838863D01*
X142116132Y-113862986D01*
X142176123Y-114061686D01*
X142185494Y-114084421D01*
X142228870Y-114166000D01*
X142001862Y-114166000D01*
X142046926Y-114017212D01*
X142051837Y-113991890D01*
X142058501Y-113917223D01*
X142059000Y-113906022D01*
X142059000Y-113854000D01*
X142038998Y-113785879D01*
X141985342Y-113739386D01*
X141933000Y-113728000D01*
X140847000Y-113728000D01*
X140847000Y-113472000D01*
X141933000Y-113472000D01*
X142001121Y-113451998D01*
X142047614Y-113398342D01*
X142059000Y-113346000D01*
X142059000Y-113307114D01*
X142058152Y-113292523D01*
X142043358Y-113165632D01*
X142036645Y-113137232D01*
X141978325Y-112976563D01*
X141965258Y-112950469D01*
X141934576Y-112903671D01*
X142028258Y-112835607D01*
X142051282Y-112813986D01*
X142095500Y-112760536D01*
X142095500Y-113670994D01*
%TA.AperFunction,Conductor*%
G36*
X142095500Y-113670994D02*
G01*
X142096101Y-113683289D01*
X142111355Y-113838863D01*
X142116132Y-113862986D01*
X142176123Y-114061686D01*
X142185494Y-114084421D01*
X142228870Y-114166000D01*
X142001862Y-114166000D01*
X142046926Y-114017212D01*
X142051837Y-113991890D01*
X142058501Y-113917223D01*
X142059000Y-113906022D01*
X142059000Y-113854000D01*
X142038998Y-113785879D01*
X141985342Y-113739386D01*
X141933000Y-113728000D01*
X140847000Y-113728000D01*
X140847000Y-113472000D01*
X141933000Y-113472000D01*
X142001121Y-113451998D01*
X142047614Y-113398342D01*
X142059000Y-113346000D01*
X142059000Y-113307114D01*
X142058152Y-113292523D01*
X142043358Y-113165632D01*
X142036645Y-113137232D01*
X141978325Y-112976563D01*
X141965258Y-112950469D01*
X141934576Y-112903671D01*
X142028258Y-112835607D01*
X142051282Y-112813986D01*
X142095500Y-112760536D01*
X142095500Y-113670994D01*
G37*
%TD.AperFunction*%
X139978000Y-105623000D02*
X139998002Y-105691121D01*
X140051658Y-105737614D01*
X140104000Y-105749000D01*
X141050000Y-105749000D01*
X141058989Y-105748679D01*
X141131997Y-105743457D01*
X141158506Y-105738674D01*
X141298606Y-105697537D01*
X141331228Y-105682639D01*
X141454064Y-105603698D01*
X141474066Y-105586367D01*
X141491516Y-105592037D01*
X141678316Y-105631743D01*
X141704513Y-105634496D01*
X141895487Y-105634496D01*
X141921684Y-105631743D01*
X142108484Y-105592037D01*
X142129760Y-105585124D01*
X142189868Y-105637208D01*
X142220039Y-105656598D01*
X142352988Y-105717314D01*
X142387399Y-105727418D01*
X142532069Y-105748218D01*
X142550000Y-105749500D01*
X143865563Y-105749500D01*
X143856357Y-105765446D01*
X143845643Y-105789510D01*
X143795937Y-105942491D01*
X143752052Y-105918763D01*
X143729382Y-105909234D01*
X143531105Y-105847857D01*
X143507017Y-105842912D01*
X143300596Y-105821216D01*
X143276005Y-105821045D01*
X143069300Y-105839857D01*
X143045145Y-105844464D01*
X142846031Y-105903066D01*
X142823231Y-105912278D01*
X142639292Y-106008439D01*
X142618715Y-106021904D01*
X142456956Y-106151961D01*
X142439386Y-106169167D01*
X142305970Y-106328167D01*
X142292077Y-106348457D01*
X142192085Y-106530342D01*
X142182398Y-106552944D01*
X142119638Y-106750787D01*
X142114525Y-106774841D01*
X142096285Y-106937457D01*
X142095500Y-106951502D01*
X142095500Y-108060994D01*
X142096101Y-108073289D01*
X142111355Y-108228863D01*
X142116132Y-108252986D01*
X142176123Y-108451686D01*
X142185494Y-108474421D01*
X142282937Y-108657685D01*
X142296545Y-108678168D01*
X142427729Y-108839014D01*
X142445056Y-108856462D01*
X142604982Y-108988765D01*
X142625369Y-109002517D01*
X142807948Y-109101237D01*
X142830618Y-109110766D01*
X143028895Y-109172143D01*
X143052983Y-109177088D01*
X143259404Y-109198784D01*
X143283995Y-109198955D01*
X143490700Y-109180143D01*
X143514855Y-109175536D01*
X143522864Y-109173179D01*
X143529788Y-109181169D01*
X143640139Y-109276788D01*
X143670309Y-109296177D01*
X143761190Y-109337681D01*
X143761190Y-109363173D01*
X143781152Y-109553100D01*
X143786629Y-109578865D01*
X143845643Y-109760492D01*
X143856357Y-109784556D01*
X143951844Y-109949944D01*
X143967327Y-109971254D01*
X144052881Y-110066272D01*
X144054015Y-110070174D01*
X144056553Y-110090266D01*
X144064408Y-110120859D01*
X144080685Y-110161971D01*
X144093017Y-110204417D01*
X144105560Y-110233403D01*
X144115868Y-110250834D01*
X144123326Y-110269670D01*
X144138543Y-110297349D01*
X144164530Y-110333116D01*
X144187032Y-110371166D01*
X144201026Y-110390415D01*
X144201395Y-110390833D01*
X144206760Y-110396541D01*
X144220843Y-110410624D01*
X144232619Y-110426832D01*
X144254239Y-110449855D01*
X144288020Y-110477801D01*
X144766826Y-110956607D01*
X144781086Y-110973844D01*
X144829937Y-111019718D01*
X144850251Y-111040032D01*
X144862121Y-111050497D01*
X144865526Y-111053138D01*
X144897758Y-111083406D01*
X144923310Y-111101971D01*
X144941063Y-111111731D01*
X144957062Y-111124141D01*
X144984247Y-111140218D01*
X145024816Y-111157774D01*
X145063564Y-111179076D01*
X145092929Y-111190702D01*
X145112543Y-111195738D01*
X145131136Y-111203784D01*
X145161466Y-111212596D01*
X145205133Y-111219512D01*
X145247952Y-111230506D01*
X145271371Y-111234215D01*
X145271927Y-111234250D01*
X145279843Y-111234499D01*
X145299759Y-111234499D01*
X145319546Y-111237633D01*
X145351115Y-111238625D01*
X145394763Y-111234499D01*
X146360405Y-111234499D01*
X147532524Y-112406619D01*
X147546775Y-112423846D01*
X147595610Y-112469705D01*
X147615939Y-112490034D01*
X147627814Y-112500503D01*
X147631223Y-112503147D01*
X147663446Y-112533407D01*
X147689001Y-112551974D01*
X147706751Y-112561732D01*
X147722751Y-112574143D01*
X147749936Y-112590221D01*
X147790512Y-112607780D01*
X147829253Y-112629078D01*
X147858617Y-112640704D01*
X147878239Y-112645742D01*
X147896825Y-112653785D01*
X147927154Y-112662597D01*
X147970817Y-112669513D01*
X148013642Y-112680508D01*
X148037060Y-112684217D01*
X148037616Y-112684252D01*
X148045532Y-112684501D01*
X148065454Y-112684501D01*
X148085235Y-112687634D01*
X148116803Y-112688626D01*
X148160441Y-112684501D01*
X150196615Y-112684501D01*
X150218867Y-112686605D01*
X150285822Y-112684501D01*
X150314577Y-112684501D01*
X150330372Y-112683507D01*
X150334650Y-112682966D01*
X150378839Y-112681578D01*
X150410036Y-112676637D01*
X150429486Y-112670986D01*
X150449578Y-112668448D01*
X150480171Y-112660593D01*
X150521283Y-112644316D01*
X150563729Y-112631984D01*
X150592715Y-112619441D01*
X150610146Y-112609133D01*
X150628982Y-112601675D01*
X150656661Y-112586458D01*
X150692428Y-112560471D01*
X150730478Y-112537969D01*
X150735500Y-112534318D01*
X150735500Y-113670994D01*
X150736101Y-113683289D01*
X150751355Y-113838863D01*
X150756132Y-113862986D01*
X150816123Y-114061686D01*
X150825494Y-114084421D01*
X150868870Y-114166000D01*
X144331443Y-114166000D01*
X144367915Y-114099658D01*
X144377602Y-114077056D01*
X144440362Y-113879213D01*
X144445475Y-113855159D01*
X144463715Y-113692543D01*
X144464500Y-113678498D01*
X144464500Y-112069006D01*
X144463899Y-112056711D01*
X144448645Y-111901137D01*
X144443868Y-111877014D01*
X144383877Y-111678314D01*
X144374506Y-111655579D01*
X144277063Y-111472315D01*
X144263455Y-111451832D01*
X144132271Y-111290986D01*
X144114944Y-111273538D01*
X143955018Y-111141235D01*
X143934631Y-111127483D01*
X143752052Y-111028763D01*
X143729382Y-111019234D01*
X143531105Y-110957857D01*
X143507017Y-110952912D01*
X143300596Y-110931216D01*
X143276005Y-110931045D01*
X143131381Y-110944207D01*
X143048156Y-110800058D01*
X143032673Y-110778748D01*
X142904887Y-110636827D01*
X142885312Y-110619201D01*
X142730811Y-110506950D01*
X142707999Y-110493779D01*
X142533536Y-110416103D01*
X142508484Y-110407963D01*
X142321684Y-110368257D01*
X142295487Y-110365504D01*
X142183003Y-110365504D01*
X142245034Y-110233681D01*
X142254794Y-110203643D01*
X142282268Y-110059621D01*
X142284500Y-110036011D01*
X142284500Y-108910421D01*
X142283506Y-108894629D01*
X142267661Y-108769202D01*
X142259807Y-108738610D01*
X142198581Y-108583972D01*
X142183365Y-108556295D01*
X142085607Y-108421742D01*
X142063986Y-108398718D01*
X141935836Y-108292703D01*
X141909169Y-108275780D01*
X141758681Y-108204966D01*
X141728643Y-108195206D01*
X141584621Y-108167732D01*
X141561011Y-108165500D01*
X141160421Y-108165500D01*
X141144629Y-108166494D01*
X141019202Y-108182339D01*
X140988610Y-108190193D01*
X140834000Y-108251408D01*
X140834000Y-108037205D01*
X140835614Y-108035342D01*
X140847000Y-107983000D01*
X140847000Y-107254000D01*
X141103000Y-107254000D01*
X141103000Y-107983000D01*
X141123002Y-108051121D01*
X141176658Y-108097614D01*
X141229000Y-108109000D01*
X141242886Y-108109000D01*
X141257477Y-108108152D01*
X141384368Y-108093358D01*
X141412768Y-108086645D01*
X141573437Y-108028325D01*
X141599531Y-108015258D01*
X141742475Y-107921540D01*
X141764863Y-107902821D01*
X141882413Y-107778732D01*
X141899894Y-107755364D01*
X141985744Y-107607562D01*
X141997380Y-107580800D01*
X142046926Y-107417212D01*
X142051837Y-107391890D01*
X142058501Y-107317223D01*
X142059000Y-107306022D01*
X142059000Y-107254000D01*
X142038998Y-107185879D01*
X141985342Y-107139386D01*
X141933000Y-107128000D01*
X141229000Y-107128000D01*
X141160879Y-107148002D01*
X141114386Y-107201658D01*
X141103000Y-107254000D01*
X140847000Y-107254000D01*
X140847000Y-106017000D01*
X141103000Y-106017000D01*
X141103000Y-106746000D01*
X141123002Y-106814121D01*
X141176658Y-106860614D01*
X141229000Y-106872000D01*
X141933000Y-106872000D01*
X142001121Y-106851998D01*
X142047614Y-106798342D01*
X142059000Y-106746000D01*
X142059000Y-106707114D01*
X142058152Y-106692523D01*
X142043358Y-106565632D01*
X142036645Y-106537232D01*
X141978325Y-106376563D01*
X141965258Y-106350469D01*
X141871540Y-106207525D01*
X141852821Y-106185137D01*
X141728732Y-106067587D01*
X141705364Y-106050106D01*
X141557562Y-105964256D01*
X141530800Y-105952620D01*
X141367212Y-105903074D01*
X141341890Y-105898163D01*
X141267223Y-105891499D01*
X141256022Y-105891000D01*
X141229000Y-105891000D01*
X141160879Y-105911002D01*
X141114386Y-105964658D01*
X141103000Y-106017000D01*
X140847000Y-106017000D01*
X140826998Y-105948879D01*
X140773342Y-105902386D01*
X140721000Y-105891000D01*
X140707114Y-105891000D01*
X140692523Y-105891848D01*
X140565632Y-105906642D01*
X140537232Y-105913355D01*
X140376563Y-105971675D01*
X140350469Y-105984742D01*
X140207525Y-106078460D01*
X140198711Y-106085829D01*
X140179032Y-106067187D01*
X140155665Y-106049706D01*
X140007762Y-105963797D01*
X139980999Y-105952160D01*
X139817300Y-105902581D01*
X139791978Y-105897671D01*
X139717223Y-105890999D01*
X139706022Y-105890500D01*
X139157113Y-105890500D01*
X139142522Y-105891348D01*
X139015517Y-105906155D01*
X138987117Y-105912868D01*
X138826339Y-105971228D01*
X138800245Y-105984295D01*
X138657204Y-106078077D01*
X138634816Y-106096796D01*
X138569259Y-106166000D01*
X138500204Y-106166000D01*
X138495487Y-106165504D01*
X138304513Y-106165504D01*
X138299796Y-106166000D01*
X138234000Y-106166000D01*
X138234000Y-105588144D01*
X138290139Y-105636788D01*
X138320309Y-105656177D01*
X138453129Y-105716834D01*
X138487539Y-105726938D01*
X138632068Y-105747718D01*
X138650000Y-105749000D01*
X139596000Y-105749000D01*
X139664121Y-105728998D01*
X139710614Y-105675342D01*
X139722000Y-105623000D01*
X139722000Y-104612000D01*
X139978000Y-104612000D01*
X139978000Y-105623000D01*
%TA.AperFunction,Conductor*%
G36*
X139978000Y-105623000D02*
G01*
X139998002Y-105691121D01*
X140051658Y-105737614D01*
X140104000Y-105749000D01*
X141050000Y-105749000D01*
X141058989Y-105748679D01*
X141131997Y-105743457D01*
X141158506Y-105738674D01*
X141298606Y-105697537D01*
X141331228Y-105682639D01*
X141454064Y-105603698D01*
X141474066Y-105586367D01*
X141491516Y-105592037D01*
X141678316Y-105631743D01*
X141704513Y-105634496D01*
X141895487Y-105634496D01*
X141921684Y-105631743D01*
X142108484Y-105592037D01*
X142129760Y-105585124D01*
X142189868Y-105637208D01*
X142220039Y-105656598D01*
X142352988Y-105717314D01*
X142387399Y-105727418D01*
X142532069Y-105748218D01*
X142550000Y-105749500D01*
X143865563Y-105749500D01*
X143856357Y-105765446D01*
X143845643Y-105789510D01*
X143795937Y-105942491D01*
X143752052Y-105918763D01*
X143729382Y-105909234D01*
X143531105Y-105847857D01*
X143507017Y-105842912D01*
X143300596Y-105821216D01*
X143276005Y-105821045D01*
X143069300Y-105839857D01*
X143045145Y-105844464D01*
X142846031Y-105903066D01*
X142823231Y-105912278D01*
X142639292Y-106008439D01*
X142618715Y-106021904D01*
X142456956Y-106151961D01*
X142439386Y-106169167D01*
X142305970Y-106328167D01*
X142292077Y-106348457D01*
X142192085Y-106530342D01*
X142182398Y-106552944D01*
X142119638Y-106750787D01*
X142114525Y-106774841D01*
X142096285Y-106937457D01*
X142095500Y-106951502D01*
X142095500Y-108060994D01*
X142096101Y-108073289D01*
X142111355Y-108228863D01*
X142116132Y-108252986D01*
X142176123Y-108451686D01*
X142185494Y-108474421D01*
X142282937Y-108657685D01*
X142296545Y-108678168D01*
X142427729Y-108839014D01*
X142445056Y-108856462D01*
X142604982Y-108988765D01*
X142625369Y-109002517D01*
X142807948Y-109101237D01*
X142830618Y-109110766D01*
X143028895Y-109172143D01*
X143052983Y-109177088D01*
X143259404Y-109198784D01*
X143283995Y-109198955D01*
X143490700Y-109180143D01*
X143514855Y-109175536D01*
X143522864Y-109173179D01*
X143529788Y-109181169D01*
X143640139Y-109276788D01*
X143670309Y-109296177D01*
X143761190Y-109337681D01*
X143761190Y-109363173D01*
X143781152Y-109553100D01*
X143786629Y-109578865D01*
X143845643Y-109760492D01*
X143856357Y-109784556D01*
X143951844Y-109949944D01*
X143967327Y-109971254D01*
X144052881Y-110066272D01*
X144054015Y-110070174D01*
X144056553Y-110090266D01*
X144064408Y-110120859D01*
X144080685Y-110161971D01*
X144093017Y-110204417D01*
X144105560Y-110233403D01*
X144115868Y-110250834D01*
X144123326Y-110269670D01*
X144138543Y-110297349D01*
X144164530Y-110333116D01*
X144187032Y-110371166D01*
X144201026Y-110390415D01*
X144201395Y-110390833D01*
X144206760Y-110396541D01*
X144220843Y-110410624D01*
X144232619Y-110426832D01*
X144254239Y-110449855D01*
X144288020Y-110477801D01*
X144766826Y-110956607D01*
X144781086Y-110973844D01*
X144829937Y-111019718D01*
X144850251Y-111040032D01*
X144862121Y-111050497D01*
X144865526Y-111053138D01*
X144897758Y-111083406D01*
X144923310Y-111101971D01*
X144941063Y-111111731D01*
X144957062Y-111124141D01*
X144984247Y-111140218D01*
X145024816Y-111157774D01*
X145063564Y-111179076D01*
X145092929Y-111190702D01*
X145112543Y-111195738D01*
X145131136Y-111203784D01*
X145161466Y-111212596D01*
X145205133Y-111219512D01*
X145247952Y-111230506D01*
X145271371Y-111234215D01*
X145271927Y-111234250D01*
X145279843Y-111234499D01*
X145299759Y-111234499D01*
X145319546Y-111237633D01*
X145351115Y-111238625D01*
X145394763Y-111234499D01*
X146360405Y-111234499D01*
X147532524Y-112406619D01*
X147546775Y-112423846D01*
X147595610Y-112469705D01*
X147615939Y-112490034D01*
X147627814Y-112500503D01*
X147631223Y-112503147D01*
X147663446Y-112533407D01*
X147689001Y-112551974D01*
X147706751Y-112561732D01*
X147722751Y-112574143D01*
X147749936Y-112590221D01*
X147790512Y-112607780D01*
X147829253Y-112629078D01*
X147858617Y-112640704D01*
X147878239Y-112645742D01*
X147896825Y-112653785D01*
X147927154Y-112662597D01*
X147970817Y-112669513D01*
X148013642Y-112680508D01*
X148037060Y-112684217D01*
X148037616Y-112684252D01*
X148045532Y-112684501D01*
X148065454Y-112684501D01*
X148085235Y-112687634D01*
X148116803Y-112688626D01*
X148160441Y-112684501D01*
X150196615Y-112684501D01*
X150218867Y-112686605D01*
X150285822Y-112684501D01*
X150314577Y-112684501D01*
X150330372Y-112683507D01*
X150334650Y-112682966D01*
X150378839Y-112681578D01*
X150410036Y-112676637D01*
X150429486Y-112670986D01*
X150449578Y-112668448D01*
X150480171Y-112660593D01*
X150521283Y-112644316D01*
X150563729Y-112631984D01*
X150592715Y-112619441D01*
X150610146Y-112609133D01*
X150628982Y-112601675D01*
X150656661Y-112586458D01*
X150692428Y-112560471D01*
X150730478Y-112537969D01*
X150735500Y-112534318D01*
X150735500Y-113670994D01*
X150736101Y-113683289D01*
X150751355Y-113838863D01*
X150756132Y-113862986D01*
X150816123Y-114061686D01*
X150825494Y-114084421D01*
X150868870Y-114166000D01*
X144331443Y-114166000D01*
X144367915Y-114099658D01*
X144377602Y-114077056D01*
X144440362Y-113879213D01*
X144445475Y-113855159D01*
X144463715Y-113692543D01*
X144464500Y-113678498D01*
X144464500Y-112069006D01*
X144463899Y-112056711D01*
X144448645Y-111901137D01*
X144443868Y-111877014D01*
X144383877Y-111678314D01*
X144374506Y-111655579D01*
X144277063Y-111472315D01*
X144263455Y-111451832D01*
X144132271Y-111290986D01*
X144114944Y-111273538D01*
X143955018Y-111141235D01*
X143934631Y-111127483D01*
X143752052Y-111028763D01*
X143729382Y-111019234D01*
X143531105Y-110957857D01*
X143507017Y-110952912D01*
X143300596Y-110931216D01*
X143276005Y-110931045D01*
X143131381Y-110944207D01*
X143048156Y-110800058D01*
X143032673Y-110778748D01*
X142904887Y-110636827D01*
X142885312Y-110619201D01*
X142730811Y-110506950D01*
X142707999Y-110493779D01*
X142533536Y-110416103D01*
X142508484Y-110407963D01*
X142321684Y-110368257D01*
X142295487Y-110365504D01*
X142183003Y-110365504D01*
X142245034Y-110233681D01*
X142254794Y-110203643D01*
X142282268Y-110059621D01*
X142284500Y-110036011D01*
X142284500Y-108910421D01*
X142283506Y-108894629D01*
X142267661Y-108769202D01*
X142259807Y-108738610D01*
X142198581Y-108583972D01*
X142183365Y-108556295D01*
X142085607Y-108421742D01*
X142063986Y-108398718D01*
X141935836Y-108292703D01*
X141909169Y-108275780D01*
X141758681Y-108204966D01*
X141728643Y-108195206D01*
X141584621Y-108167732D01*
X141561011Y-108165500D01*
X141160421Y-108165500D01*
X141144629Y-108166494D01*
X141019202Y-108182339D01*
X140988610Y-108190193D01*
X140834000Y-108251408D01*
X140834000Y-108037205D01*
X140835614Y-108035342D01*
X140847000Y-107983000D01*
X140847000Y-107254000D01*
X141103000Y-107254000D01*
X141103000Y-107983000D01*
X141123002Y-108051121D01*
X141176658Y-108097614D01*
X141229000Y-108109000D01*
X141242886Y-108109000D01*
X141257477Y-108108152D01*
X141384368Y-108093358D01*
X141412768Y-108086645D01*
X141573437Y-108028325D01*
X141599531Y-108015258D01*
X141742475Y-107921540D01*
X141764863Y-107902821D01*
X141882413Y-107778732D01*
X141899894Y-107755364D01*
X141985744Y-107607562D01*
X141997380Y-107580800D01*
X142046926Y-107417212D01*
X142051837Y-107391890D01*
X142058501Y-107317223D01*
X142059000Y-107306022D01*
X142059000Y-107254000D01*
X142038998Y-107185879D01*
X141985342Y-107139386D01*
X141933000Y-107128000D01*
X141229000Y-107128000D01*
X141160879Y-107148002D01*
X141114386Y-107201658D01*
X141103000Y-107254000D01*
X140847000Y-107254000D01*
X140847000Y-106017000D01*
X141103000Y-106017000D01*
X141103000Y-106746000D01*
X141123002Y-106814121D01*
X141176658Y-106860614D01*
X141229000Y-106872000D01*
X141933000Y-106872000D01*
X142001121Y-106851998D01*
X142047614Y-106798342D01*
X142059000Y-106746000D01*
X142059000Y-106707114D01*
X142058152Y-106692523D01*
X142043358Y-106565632D01*
X142036645Y-106537232D01*
X141978325Y-106376563D01*
X141965258Y-106350469D01*
X141871540Y-106207525D01*
X141852821Y-106185137D01*
X141728732Y-106067587D01*
X141705364Y-106050106D01*
X141557562Y-105964256D01*
X141530800Y-105952620D01*
X141367212Y-105903074D01*
X141341890Y-105898163D01*
X141267223Y-105891499D01*
X141256022Y-105891000D01*
X141229000Y-105891000D01*
X141160879Y-105911002D01*
X141114386Y-105964658D01*
X141103000Y-106017000D01*
X140847000Y-106017000D01*
X140826998Y-105948879D01*
X140773342Y-105902386D01*
X140721000Y-105891000D01*
X140707114Y-105891000D01*
X140692523Y-105891848D01*
X140565632Y-105906642D01*
X140537232Y-105913355D01*
X140376563Y-105971675D01*
X140350469Y-105984742D01*
X140207525Y-106078460D01*
X140198711Y-106085829D01*
X140179032Y-106067187D01*
X140155665Y-106049706D01*
X140007762Y-105963797D01*
X139980999Y-105952160D01*
X139817300Y-105902581D01*
X139791978Y-105897671D01*
X139717223Y-105890999D01*
X139706022Y-105890500D01*
X139157113Y-105890500D01*
X139142522Y-105891348D01*
X139015517Y-105906155D01*
X138987117Y-105912868D01*
X138826339Y-105971228D01*
X138800245Y-105984295D01*
X138657204Y-106078077D01*
X138634816Y-106096796D01*
X138569259Y-106166000D01*
X138500204Y-106166000D01*
X138495487Y-106165504D01*
X138304513Y-106165504D01*
X138299796Y-106166000D01*
X138234000Y-106166000D01*
X138234000Y-105588144D01*
X138290139Y-105636788D01*
X138320309Y-105656177D01*
X138453129Y-105716834D01*
X138487539Y-105726938D01*
X138632068Y-105747718D01*
X138650000Y-105749000D01*
X139596000Y-105749000D01*
X139664121Y-105728998D01*
X139710614Y-105675342D01*
X139722000Y-105623000D01*
X139722000Y-104612000D01*
X139978000Y-104612000D01*
X139978000Y-105623000D01*
G37*
%TD.AperFunction*%
X140516635Y-110368705D02*
X140590932Y-110470966D01*
X140551225Y-110502314D01*
X140528000Y-110575206D01*
X140528000Y-110812333D01*
X140525780Y-110815831D01*
X140454966Y-110966319D01*
X140445206Y-110996357D01*
X140417732Y-111140379D01*
X140415500Y-111163989D01*
X140415500Y-111865500D01*
X140384500Y-111865500D01*
X140384500Y-111185421D01*
X140383506Y-111169629D01*
X140367661Y-111044202D01*
X140359807Y-111013610D01*
X140298581Y-110858972D01*
X140283365Y-110831295D01*
X140272000Y-110815652D01*
X140272000Y-110575138D01*
X140251998Y-110507017D01*
X140208739Y-110469533D01*
X140240249Y-110431443D01*
X140281285Y-110428508D01*
X140307794Y-110423725D01*
X140446529Y-110382989D01*
X140479152Y-110368091D01*
X140506600Y-110350451D01*
X140516635Y-110368705D01*
%TA.AperFunction,Conductor*%
G36*
X140516635Y-110368705D02*
G01*
X140590932Y-110470966D01*
X140551225Y-110502314D01*
X140528000Y-110575206D01*
X140528000Y-110812333D01*
X140525780Y-110815831D01*
X140454966Y-110966319D01*
X140445206Y-110996357D01*
X140417732Y-111140379D01*
X140415500Y-111163989D01*
X140415500Y-111865500D01*
X140384500Y-111865500D01*
X140384500Y-111185421D01*
X140383506Y-111169629D01*
X140367661Y-111044202D01*
X140359807Y-111013610D01*
X140298581Y-110858972D01*
X140283365Y-110831295D01*
X140272000Y-110815652D01*
X140272000Y-110575138D01*
X140251998Y-110507017D01*
X140208739Y-110469533D01*
X140240249Y-110431443D01*
X140281285Y-110428508D01*
X140307794Y-110423725D01*
X140446529Y-110382989D01*
X140479152Y-110368091D01*
X140506600Y-110350451D01*
X140516635Y-110368705D01*
G37*
%TD.AperFunction*%
X148334525Y-110881623D02*
X148348772Y-110898845D01*
X148397607Y-110944704D01*
X148417936Y-110965033D01*
X148429811Y-110975502D01*
X148433220Y-110978146D01*
X148465443Y-111008406D01*
X148490998Y-111026973D01*
X148508748Y-111036731D01*
X148524748Y-111049142D01*
X148551934Y-111065220D01*
X148592507Y-111082778D01*
X148631248Y-111104076D01*
X148660617Y-111115704D01*
X148680230Y-111120740D01*
X148698819Y-111128784D01*
X148729151Y-111137597D01*
X148772821Y-111144514D01*
X148815639Y-111155507D01*
X148839057Y-111159216D01*
X148839613Y-111159251D01*
X148847529Y-111159500D01*
X148867450Y-111159500D01*
X148887232Y-111162633D01*
X148918800Y-111163625D01*
X148962438Y-111159500D01*
X149966406Y-111159500D01*
X149960405Y-111165501D01*
X148439595Y-111165501D01*
X147819650Y-110545556D01*
X147907999Y-110506221D01*
X147930811Y-110493050D01*
X147939581Y-110486678D01*
X148334525Y-110881623D01*
%TA.AperFunction,Conductor*%
G36*
X148334525Y-110881623D02*
G01*
X148348772Y-110898845D01*
X148397607Y-110944704D01*
X148417936Y-110965033D01*
X148429811Y-110975502D01*
X148433220Y-110978146D01*
X148465443Y-111008406D01*
X148490998Y-111026973D01*
X148508748Y-111036731D01*
X148524748Y-111049142D01*
X148551934Y-111065220D01*
X148592507Y-111082778D01*
X148631248Y-111104076D01*
X148660617Y-111115704D01*
X148680230Y-111120740D01*
X148698819Y-111128784D01*
X148729151Y-111137597D01*
X148772821Y-111144514D01*
X148815639Y-111155507D01*
X148839057Y-111159216D01*
X148839613Y-111159251D01*
X148847529Y-111159500D01*
X148867450Y-111159500D01*
X148887232Y-111162633D01*
X148918800Y-111163625D01*
X148962438Y-111159500D01*
X149966406Y-111159500D01*
X149960405Y-111165501D01*
X148439595Y-111165501D01*
X147819650Y-110545556D01*
X147907999Y-110506221D01*
X147930811Y-110493050D01*
X147939581Y-110486678D01*
X148334525Y-110881623D01*
G37*
%TD.AperFunction*%
X150735500Y-108060994D02*
X150736101Y-108073289D01*
X150751355Y-108228863D01*
X150756132Y-108252986D01*
X150816123Y-108451686D01*
X150825494Y-108474421D01*
X150828000Y-108479134D01*
X150828000Y-109263000D01*
X150848002Y-109331121D01*
X150901658Y-109377614D01*
X150954000Y-109389000D01*
X151200000Y-109389000D01*
X151208989Y-109388679D01*
X151281997Y-109383457D01*
X151308506Y-109378674D01*
X151448606Y-109337537D01*
X151481228Y-109322639D01*
X151604064Y-109243698D01*
X151631169Y-109220212D01*
X151672228Y-109172827D01*
X151692983Y-109177088D01*
X151899404Y-109198784D01*
X151923995Y-109198955D01*
X152130700Y-109180143D01*
X152154855Y-109175536D01*
X152353969Y-109116934D01*
X152376769Y-109107722D01*
X152560708Y-109011561D01*
X152581285Y-108998096D01*
X152743044Y-108868039D01*
X152760614Y-108850833D01*
X152894030Y-108691833D01*
X152907923Y-108671543D01*
X153007915Y-108489658D01*
X153017602Y-108467056D01*
X153080362Y-108269213D01*
X153085475Y-108245159D01*
X153103715Y-108082543D01*
X153104500Y-108068498D01*
X153104500Y-108033849D01*
X153165438Y-108033849D01*
X153191635Y-108031096D01*
X153378435Y-107991390D01*
X153403487Y-107983250D01*
X153456379Y-107959701D01*
X153478077Y-107992796D01*
X153485804Y-108002038D01*
X153467587Y-108021268D01*
X153450106Y-108044636D01*
X153364256Y-108192438D01*
X153352620Y-108219200D01*
X153303074Y-108382788D01*
X153298163Y-108408110D01*
X153291499Y-108482777D01*
X153291000Y-108493978D01*
X153291000Y-108521000D01*
X153311002Y-108589121D01*
X153364658Y-108635614D01*
X153417000Y-108647000D01*
X154927000Y-108647000D01*
X154995121Y-108626998D01*
X154999452Y-108622000D01*
X156328000Y-108622000D01*
X156328000Y-108878000D01*
X155423000Y-108878000D01*
X155354879Y-108898002D01*
X155350548Y-108903000D01*
X153417000Y-108903000D01*
X153348879Y-108923002D01*
X153302386Y-108976658D01*
X153291000Y-109029000D01*
X153291000Y-109042886D01*
X153291848Y-109057477D01*
X153306642Y-109184368D01*
X153313355Y-109212768D01*
X153351400Y-109317581D01*
X153199900Y-109374828D01*
X153173071Y-109388854D01*
X153031787Y-109485956D01*
X153009078Y-109505977D01*
X152895034Y-109633977D01*
X152890500Y-109640500D01*
X150235938Y-109640500D01*
X150238810Y-109613171D01*
X150238810Y-109586829D01*
X150218848Y-109396902D01*
X150217168Y-109389000D01*
X150446000Y-109389000D01*
X150514121Y-109368998D01*
X150560614Y-109315342D01*
X150572000Y-109263000D01*
X150572000Y-109024337D01*
X150607313Y-108947013D01*
X150617418Y-108912601D01*
X150638218Y-108767931D01*
X150639500Y-108750000D01*
X150639500Y-108050000D01*
X150639179Y-108041011D01*
X150637322Y-108015045D01*
X150654391Y-108004075D01*
X150681495Y-107980590D01*
X150735500Y-107918265D01*
X150735500Y-108060994D01*
%TA.AperFunction,Conductor*%
G36*
X150735500Y-108060994D02*
G01*
X150736101Y-108073289D01*
X150751355Y-108228863D01*
X150756132Y-108252986D01*
X150816123Y-108451686D01*
X150825494Y-108474421D01*
X150828000Y-108479134D01*
X150828000Y-109263000D01*
X150848002Y-109331121D01*
X150901658Y-109377614D01*
X150954000Y-109389000D01*
X151200000Y-109389000D01*
X151208989Y-109388679D01*
X151281997Y-109383457D01*
X151308506Y-109378674D01*
X151448606Y-109337537D01*
X151481228Y-109322639D01*
X151604064Y-109243698D01*
X151631169Y-109220212D01*
X151672228Y-109172827D01*
X151692983Y-109177088D01*
X151899404Y-109198784D01*
X151923995Y-109198955D01*
X152130700Y-109180143D01*
X152154855Y-109175536D01*
X152353969Y-109116934D01*
X152376769Y-109107722D01*
X152560708Y-109011561D01*
X152581285Y-108998096D01*
X152743044Y-108868039D01*
X152760614Y-108850833D01*
X152894030Y-108691833D01*
X152907923Y-108671543D01*
X153007915Y-108489658D01*
X153017602Y-108467056D01*
X153080362Y-108269213D01*
X153085475Y-108245159D01*
X153103715Y-108082543D01*
X153104500Y-108068498D01*
X153104500Y-108033849D01*
X153165438Y-108033849D01*
X153191635Y-108031096D01*
X153378435Y-107991390D01*
X153403487Y-107983250D01*
X153456379Y-107959701D01*
X153478077Y-107992796D01*
X153485804Y-108002038D01*
X153467587Y-108021268D01*
X153450106Y-108044636D01*
X153364256Y-108192438D01*
X153352620Y-108219200D01*
X153303074Y-108382788D01*
X153298163Y-108408110D01*
X153291499Y-108482777D01*
X153291000Y-108493978D01*
X153291000Y-108521000D01*
X153311002Y-108589121D01*
X153364658Y-108635614D01*
X153417000Y-108647000D01*
X154927000Y-108647000D01*
X154995121Y-108626998D01*
X154999452Y-108622000D01*
X156328000Y-108622000D01*
X156328000Y-108878000D01*
X155423000Y-108878000D01*
X155354879Y-108898002D01*
X155350548Y-108903000D01*
X153417000Y-108903000D01*
X153348879Y-108923002D01*
X153302386Y-108976658D01*
X153291000Y-109029000D01*
X153291000Y-109042886D01*
X153291848Y-109057477D01*
X153306642Y-109184368D01*
X153313355Y-109212768D01*
X153351400Y-109317581D01*
X153199900Y-109374828D01*
X153173071Y-109388854D01*
X153031787Y-109485956D01*
X153009078Y-109505977D01*
X152895034Y-109633977D01*
X152890500Y-109640500D01*
X150235938Y-109640500D01*
X150238810Y-109613171D01*
X150238810Y-109586829D01*
X150218848Y-109396902D01*
X150217168Y-109389000D01*
X150446000Y-109389000D01*
X150514121Y-109368998D01*
X150560614Y-109315342D01*
X150572000Y-109263000D01*
X150572000Y-109024337D01*
X150607313Y-108947013D01*
X150617418Y-108912601D01*
X150638218Y-108767931D01*
X150639500Y-108750000D01*
X150639500Y-108050000D01*
X150639179Y-108041011D01*
X150637322Y-108015045D01*
X150654391Y-108004075D01*
X150681495Y-107980590D01*
X150735500Y-107918265D01*
X150735500Y-108060994D01*
G37*
%TD.AperFunction*%
X144479410Y-107941495D02*
X144564236Y-108014998D01*
X144561782Y-108032069D01*
X144560500Y-108050000D01*
X144560500Y-108343302D01*
X144491516Y-108357965D01*
X144466464Y-108366105D01*
X144400278Y-108395573D01*
X144440362Y-108269213D01*
X144445475Y-108245159D01*
X144463715Y-108082543D01*
X144464500Y-108068498D01*
X144464500Y-107924288D01*
X144479410Y-107941495D01*
%TA.AperFunction,Conductor*%
G36*
X144479410Y-107941495D02*
G01*
X144564236Y-108014998D01*
X144561782Y-108032069D01*
X144560500Y-108050000D01*
X144560500Y-108343302D01*
X144491516Y-108357965D01*
X144466464Y-108366105D01*
X144400278Y-108395573D01*
X144440362Y-108269213D01*
X144445475Y-108245159D01*
X144463715Y-108082543D01*
X144464500Y-108068498D01*
X144464500Y-107924288D01*
X144479410Y-107941495D01*
G37*
%TD.AperFunction*%
X139978000Y-102328000D02*
X139722000Y-102328000D01*
X139722000Y-100802000D01*
X139978000Y-100802000D01*
X139978000Y-102328000D01*
%TA.AperFunction,Conductor*%
G36*
X139978000Y-102328000D02*
G01*
X139722000Y-102328000D01*
X139722000Y-100802000D01*
X139978000Y-100802000D01*
X139978000Y-102328000D01*
G37*
%TD.AperFunction*%
X143032392Y-94906486D02*
X142967327Y-94978748D01*
X142951844Y-95000058D01*
X142856357Y-95165446D01*
X142845643Y-95189510D01*
X142805023Y-95314526D01*
X142767212Y-95303074D01*
X142741890Y-95298163D01*
X142667223Y-95291499D01*
X142656022Y-95291000D01*
X142629000Y-95291000D01*
X142560879Y-95311002D01*
X142514386Y-95364658D01*
X142503000Y-95417000D01*
X142503000Y-97383000D01*
X142523002Y-97451121D01*
X142576658Y-97497614D01*
X142629000Y-97509000D01*
X142642886Y-97509000D01*
X142657477Y-97508152D01*
X142784368Y-97493358D01*
X142812768Y-97486645D01*
X142973437Y-97428325D01*
X142999531Y-97415258D01*
X143142475Y-97321540D01*
X143164863Y-97302821D01*
X143282413Y-97178732D01*
X143299894Y-97155364D01*
X143361932Y-97048557D01*
X143362008Y-97048814D01*
X143376906Y-97081437D01*
X143454906Y-97202807D01*
X143422792Y-97239868D01*
X143403402Y-97270039D01*
X143342686Y-97402988D01*
X143332582Y-97437399D01*
X143311782Y-97582069D01*
X143310500Y-97600000D01*
X143310500Y-98200000D01*
X143310821Y-98208989D01*
X143316048Y-98282068D01*
X143320831Y-98308577D01*
X143362008Y-98448814D01*
X143376906Y-98481437D01*
X143455925Y-98604392D01*
X143479410Y-98631495D01*
X143501343Y-98650500D01*
X142550000Y-98650500D01*
X142541011Y-98650821D01*
X142467932Y-98656048D01*
X142441423Y-98660831D01*
X142301186Y-98702008D01*
X142268563Y-98716906D01*
X142145608Y-98795925D01*
X142118505Y-98819410D01*
X142022792Y-98929868D01*
X142003402Y-98960039D01*
X141942686Y-99092988D01*
X141932582Y-99127399D01*
X141911782Y-99272069D01*
X141910500Y-99290000D01*
X141910500Y-99540404D01*
X141689500Y-99761404D01*
X141689500Y-99290000D01*
X141689179Y-99281011D01*
X141683952Y-99207932D01*
X141679169Y-99181423D01*
X141637992Y-99041186D01*
X141623094Y-99008563D01*
X141544075Y-98885608D01*
X141520590Y-98858505D01*
X141410132Y-98762792D01*
X141379961Y-98743402D01*
X141247012Y-98682686D01*
X141212601Y-98672582D01*
X141067931Y-98651782D01*
X141050000Y-98650500D01*
X140834887Y-98650500D01*
X140836569Y-98634496D01*
X140895487Y-98634496D01*
X140921684Y-98631743D01*
X141108484Y-98592037D01*
X141133536Y-98583897D01*
X141307999Y-98506221D01*
X141330811Y-98493050D01*
X141485312Y-98380799D01*
X141504887Y-98363173D01*
X141632673Y-98221252D01*
X141648156Y-98199942D01*
X141743643Y-98034554D01*
X141754357Y-98010490D01*
X141813371Y-97828863D01*
X141818848Y-97803098D01*
X141838810Y-97613171D01*
X141838810Y-97586829D01*
X141824316Y-97448930D01*
X141982788Y-97496926D01*
X142008110Y-97501837D01*
X142082777Y-97508501D01*
X142093978Y-97509000D01*
X142121000Y-97509000D01*
X142189121Y-97488998D01*
X142235614Y-97435342D01*
X142247000Y-97383000D01*
X142247000Y-95457508D01*
X142310514Y-95408772D01*
X142333772Y-95385514D01*
X142431269Y-95258454D01*
X142447716Y-95229967D01*
X142509004Y-95082002D01*
X142517517Y-95050232D01*
X142533422Y-94929425D01*
X142534500Y-94912978D01*
X142534500Y-94637022D01*
X142533422Y-94620575D01*
X142517517Y-94499768D01*
X142509004Y-94467997D01*
X142501549Y-94450000D01*
X142507971Y-94434496D01*
X142560402Y-94434496D01*
X143032392Y-94906486D01*
%TA.AperFunction,Conductor*%
G36*
X143032392Y-94906486D02*
G01*
X142967327Y-94978748D01*
X142951844Y-95000058D01*
X142856357Y-95165446D01*
X142845643Y-95189510D01*
X142805023Y-95314526D01*
X142767212Y-95303074D01*
X142741890Y-95298163D01*
X142667223Y-95291499D01*
X142656022Y-95291000D01*
X142629000Y-95291000D01*
X142560879Y-95311002D01*
X142514386Y-95364658D01*
X142503000Y-95417000D01*
X142503000Y-97383000D01*
X142523002Y-97451121D01*
X142576658Y-97497614D01*
X142629000Y-97509000D01*
X142642886Y-97509000D01*
X142657477Y-97508152D01*
X142784368Y-97493358D01*
X142812768Y-97486645D01*
X142973437Y-97428325D01*
X142999531Y-97415258D01*
X143142475Y-97321540D01*
X143164863Y-97302821D01*
X143282413Y-97178732D01*
X143299894Y-97155364D01*
X143361932Y-97048557D01*
X143362008Y-97048814D01*
X143376906Y-97081437D01*
X143454906Y-97202807D01*
X143422792Y-97239868D01*
X143403402Y-97270039D01*
X143342686Y-97402988D01*
X143332582Y-97437399D01*
X143311782Y-97582069D01*
X143310500Y-97600000D01*
X143310500Y-98200000D01*
X143310821Y-98208989D01*
X143316048Y-98282068D01*
X143320831Y-98308577D01*
X143362008Y-98448814D01*
X143376906Y-98481437D01*
X143455925Y-98604392D01*
X143479410Y-98631495D01*
X143501343Y-98650500D01*
X142550000Y-98650500D01*
X142541011Y-98650821D01*
X142467932Y-98656048D01*
X142441423Y-98660831D01*
X142301186Y-98702008D01*
X142268563Y-98716906D01*
X142145608Y-98795925D01*
X142118505Y-98819410D01*
X142022792Y-98929868D01*
X142003402Y-98960039D01*
X141942686Y-99092988D01*
X141932582Y-99127399D01*
X141911782Y-99272069D01*
X141910500Y-99290000D01*
X141910500Y-99540404D01*
X141689500Y-99761404D01*
X141689500Y-99290000D01*
X141689179Y-99281011D01*
X141683952Y-99207932D01*
X141679169Y-99181423D01*
X141637992Y-99041186D01*
X141623094Y-99008563D01*
X141544075Y-98885608D01*
X141520590Y-98858505D01*
X141410132Y-98762792D01*
X141379961Y-98743402D01*
X141247012Y-98682686D01*
X141212601Y-98672582D01*
X141067931Y-98651782D01*
X141050000Y-98650500D01*
X140834887Y-98650500D01*
X140836569Y-98634496D01*
X140895487Y-98634496D01*
X140921684Y-98631743D01*
X141108484Y-98592037D01*
X141133536Y-98583897D01*
X141307999Y-98506221D01*
X141330811Y-98493050D01*
X141485312Y-98380799D01*
X141504887Y-98363173D01*
X141632673Y-98221252D01*
X141648156Y-98199942D01*
X141743643Y-98034554D01*
X141754357Y-98010490D01*
X141813371Y-97828863D01*
X141818848Y-97803098D01*
X141838810Y-97613171D01*
X141838810Y-97586829D01*
X141824316Y-97448930D01*
X141982788Y-97496926D01*
X142008110Y-97501837D01*
X142082777Y-97508501D01*
X142093978Y-97509000D01*
X142121000Y-97509000D01*
X142189121Y-97488998D01*
X142235614Y-97435342D01*
X142247000Y-97383000D01*
X142247000Y-95457508D01*
X142310514Y-95408772D01*
X142333772Y-95385514D01*
X142431269Y-95258454D01*
X142447716Y-95229967D01*
X142509004Y-95082002D01*
X142517517Y-95050232D01*
X142533422Y-94929425D01*
X142534500Y-94912978D01*
X142534500Y-94637022D01*
X142533422Y-94620575D01*
X142517517Y-94499768D01*
X142509004Y-94467997D01*
X142501549Y-94450000D01*
X142507971Y-94434496D01*
X142560402Y-94434496D01*
X143032392Y-94906486D01*
G37*
%TD.AperFunction*%
X152640510Y-93753000D02*
X150872000Y-93753000D01*
X150872000Y-93497000D01*
X152640510Y-93497000D01*
X152640510Y-93753000D01*
%TA.AperFunction,Conductor*%
G36*
X152640510Y-93753000D02*
G01*
X150872000Y-93753000D01*
X150872000Y-93497000D01*
X152640510Y-93497000D01*
X152640510Y-93753000D01*
G37*
%TD.AperFunction*%
X145220968Y-91882813D02*
X145244335Y-91900294D01*
X145392238Y-91986203D01*
X145419001Y-91997840D01*
X145453559Y-92008306D01*
X145444379Y-92011002D01*
X145397886Y-92064658D01*
X145386500Y-92117000D01*
X145386500Y-92640500D01*
X145238500Y-92640500D01*
X145238500Y-92117000D01*
X145218498Y-92048879D01*
X145164842Y-92002386D01*
X145112500Y-91991000D01*
X144989974Y-91991000D01*
X145023661Y-91978772D01*
X145049755Y-91965705D01*
X145192796Y-91871923D01*
X145201654Y-91864517D01*
X145220968Y-91882813D01*
%TA.AperFunction,Conductor*%
G36*
X145220968Y-91882813D02*
G01*
X145244335Y-91900294D01*
X145392238Y-91986203D01*
X145419001Y-91997840D01*
X145453559Y-92008306D01*
X145444379Y-92011002D01*
X145397886Y-92064658D01*
X145386500Y-92117000D01*
X145386500Y-92640500D01*
X145238500Y-92640500D01*
X145238500Y-92117000D01*
X145218498Y-92048879D01*
X145164842Y-92002386D01*
X145112500Y-91991000D01*
X144989974Y-91991000D01*
X145023661Y-91978772D01*
X145049755Y-91965705D01*
X145192796Y-91871923D01*
X145201654Y-91864517D01*
X145220968Y-91882813D01*
G37*
%TD.AperFunction*%
X151990490Y-90591582D02*
X151990490Y-90950309D01*
X151930811Y-90906950D01*
X151907999Y-90893779D01*
X151733536Y-90816103D01*
X151708484Y-90807963D01*
X151521684Y-90768257D01*
X151495487Y-90765504D01*
X151439600Y-90765504D01*
X151224451Y-90550356D01*
X151223325Y-90546519D01*
X151238218Y-90442932D01*
X151239500Y-90425000D01*
X151239500Y-90175000D01*
X151239179Y-90166011D01*
X151233952Y-90092932D01*
X151229169Y-90066422D01*
X151227136Y-90059500D01*
X151458408Y-90059500D01*
X151990490Y-90591582D01*
%TA.AperFunction,Conductor*%
G36*
X151990490Y-90591582D02*
G01*
X151990490Y-90950309D01*
X151930811Y-90906950D01*
X151907999Y-90893779D01*
X151733536Y-90816103D01*
X151708484Y-90807963D01*
X151521684Y-90768257D01*
X151495487Y-90765504D01*
X151439600Y-90765504D01*
X151224451Y-90550356D01*
X151223325Y-90546519D01*
X151238218Y-90442932D01*
X151239500Y-90425000D01*
X151239500Y-90175000D01*
X151239179Y-90166011D01*
X151233952Y-90092932D01*
X151229169Y-90066422D01*
X151227136Y-90059500D01*
X151458408Y-90059500D01*
X151990490Y-90591582D01*
G37*
%TD.AperFunction*%
X150296371Y-86318214D02*
X150316392Y-86340922D01*
X150379879Y-86397487D01*
X150369824Y-86406352D01*
X150255860Y-86534262D01*
X150238582Y-86559122D01*
X150158418Y-86710525D01*
X150147568Y-86738788D01*
X150105833Y-86904941D01*
X150102286Y-86927726D01*
X150101664Y-86937613D01*
X150101415Y-86945524D01*
X150101415Y-86971000D01*
X150121417Y-87039121D01*
X150175073Y-87085614D01*
X150227415Y-87097000D01*
X151338415Y-87097000D01*
X151338415Y-88133000D01*
X151358417Y-88201121D01*
X151412073Y-88247614D01*
X151464415Y-88259000D01*
X151526733Y-88259000D01*
X151540754Y-88258154D01*
X151280892Y-88518016D01*
X151263655Y-88532276D01*
X151255932Y-88540500D01*
X151221041Y-88540500D01*
X151187537Y-88426394D01*
X151172639Y-88393772D01*
X151093698Y-88270936D01*
X151070212Y-88243831D01*
X151041732Y-88219153D01*
X151071029Y-88185342D01*
X151082415Y-88133000D01*
X151082415Y-87479000D01*
X151062413Y-87410879D01*
X151008757Y-87364386D01*
X150956415Y-87353000D01*
X150228950Y-87353000D01*
X150160829Y-87373002D01*
X150114336Y-87426658D01*
X150103863Y-87494137D01*
X150117909Y-87610211D01*
X150125130Y-87639612D01*
X150185686Y-87799868D01*
X150199712Y-87826697D01*
X150296746Y-87967882D01*
X150316767Y-87990591D01*
X150367733Y-88036000D01*
X149500000Y-88036000D01*
X149491011Y-88036321D01*
X149418003Y-88041543D01*
X149391494Y-88046326D01*
X149251394Y-88087463D01*
X149218772Y-88102361D01*
X149095936Y-88181302D01*
X149068831Y-88204788D01*
X148973212Y-88315139D01*
X148953823Y-88345309D01*
X148893166Y-88478129D01*
X148883062Y-88512539D01*
X148862282Y-88657068D01*
X148861000Y-88675000D01*
X148861000Y-88925000D01*
X148861321Y-88933989D01*
X148866543Y-89006997D01*
X148871326Y-89033505D01*
X148876845Y-89052301D01*
X148861782Y-89157069D01*
X148860500Y-89175000D01*
X148860500Y-89425000D01*
X148860821Y-89433989D01*
X148866048Y-89507068D01*
X148870831Y-89533578D01*
X148872864Y-89540500D01*
X148625427Y-89540500D01*
X148638810Y-89413171D01*
X148638810Y-89386829D01*
X148618848Y-89196902D01*
X148613371Y-89171137D01*
X148554357Y-88989510D01*
X148543643Y-88965446D01*
X148448156Y-88800058D01*
X148432673Y-88778748D01*
X148304887Y-88636827D01*
X148285312Y-88619201D01*
X148130811Y-88506950D01*
X148107999Y-88493779D01*
X147933536Y-88416103D01*
X147908484Y-88407963D01*
X147721684Y-88368257D01*
X147695487Y-88365504D01*
X147504513Y-88365504D01*
X147478316Y-88368257D01*
X147291516Y-88407963D01*
X147266464Y-88416103D01*
X147092001Y-88493779D01*
X147069189Y-88506950D01*
X146914688Y-88619201D01*
X146900349Y-88632112D01*
X146779032Y-88517187D01*
X146755665Y-88499706D01*
X146607762Y-88413797D01*
X146580999Y-88402160D01*
X146417300Y-88352581D01*
X146391978Y-88347671D01*
X146317223Y-88340999D01*
X146306022Y-88340500D01*
X145707113Y-88340500D01*
X145692522Y-88341348D01*
X145565517Y-88356155D01*
X145537117Y-88362868D01*
X145376339Y-88421228D01*
X145350245Y-88434295D01*
X145207204Y-88528077D01*
X145197962Y-88535804D01*
X145178732Y-88517587D01*
X145155364Y-88500106D01*
X145007562Y-88414256D01*
X144980800Y-88402620D01*
X144817212Y-88353074D01*
X144791890Y-88348163D01*
X144717223Y-88341499D01*
X144706022Y-88341000D01*
X144654000Y-88341000D01*
X144585879Y-88361002D01*
X144539386Y-88414658D01*
X144528000Y-88467000D01*
X144528000Y-89553000D01*
X143417000Y-89553000D01*
X143348879Y-89573002D01*
X143302386Y-89626658D01*
X143291000Y-89679000D01*
X143291000Y-89692886D01*
X143291848Y-89707477D01*
X143306642Y-89834368D01*
X143313355Y-89862768D01*
X143354151Y-89975158D01*
X143321684Y-89968257D01*
X143295487Y-89965504D01*
X143104513Y-89965504D01*
X143078316Y-89968257D01*
X142899500Y-90006266D01*
X142899500Y-89143978D01*
X143291000Y-89143978D01*
X143291000Y-89171000D01*
X143311002Y-89239121D01*
X143364658Y-89285614D01*
X143417000Y-89297000D01*
X144146000Y-89297000D01*
X144214121Y-89276998D01*
X144260614Y-89223342D01*
X144272000Y-89171000D01*
X144272000Y-88467000D01*
X144251998Y-88398879D01*
X144198342Y-88352386D01*
X144146000Y-88341000D01*
X144107114Y-88341000D01*
X144092523Y-88341848D01*
X143965632Y-88356642D01*
X143937232Y-88363355D01*
X143776563Y-88421675D01*
X143750469Y-88434742D01*
X143607525Y-88528460D01*
X143585137Y-88547179D01*
X143467587Y-88671268D01*
X143450106Y-88694636D01*
X143364256Y-88842438D01*
X143352620Y-88869200D01*
X143303074Y-89032788D01*
X143298163Y-89058110D01*
X143291499Y-89132777D01*
X143291000Y-89143978D01*
X142899500Y-89143978D01*
X142899500Y-88080792D01*
X142909383Y-88074923D01*
X143096969Y-87940871D01*
X143113194Y-87927063D01*
X143275513Y-87763323D01*
X143289180Y-87746978D01*
X143411103Y-87573177D01*
X143431423Y-87610524D01*
X143443152Y-87628311D01*
X143585839Y-87809308D01*
X143600397Y-87824865D01*
X143771539Y-87979233D01*
X143788510Y-87992114D01*
X143983216Y-88115440D01*
X144002114Y-88125278D01*
X144214814Y-88214034D01*
X144235100Y-88220547D01*
X144397763Y-88257951D01*
X144468634Y-88253724D01*
X144525969Y-88211852D01*
X144551564Y-88145630D01*
X144552000Y-88135156D01*
X144552000Y-87054000D01*
X144808000Y-87054000D01*
X144808000Y-88138056D01*
X144828002Y-88206177D01*
X144881658Y-88252670D01*
X144948153Y-88263259D01*
X144961228Y-88261781D01*
X144982122Y-88257606D01*
X145203503Y-88193498D01*
X145223394Y-88185862D01*
X145430808Y-88085371D01*
X145449128Y-88074494D01*
X145636645Y-87940492D01*
X145652870Y-87926683D01*
X145815129Y-87763002D01*
X145828796Y-87746657D01*
X145961157Y-87557977D01*
X145971874Y-87539562D01*
X146070551Y-87331279D01*
X146078013Y-87311323D01*
X146140187Y-87089391D01*
X146144179Y-87068461D01*
X146144325Y-87067060D01*
X146131492Y-86997233D01*
X146082944Y-86945429D01*
X146019004Y-86928000D01*
X144934000Y-86928000D01*
X144865879Y-86948002D01*
X144819386Y-87001658D01*
X144808000Y-87054000D01*
X144552000Y-87054000D01*
X144552000Y-86672000D01*
X146017194Y-86672000D01*
X146085315Y-86651998D01*
X146131808Y-86598342D01*
X146141912Y-86528068D01*
X146139153Y-86514346D01*
X146087571Y-86315610D01*
X146085419Y-86309500D01*
X150290382Y-86309500D01*
X150296371Y-86318214D01*
%TA.AperFunction,Conductor*%
G36*
X150296371Y-86318214D02*
G01*
X150316392Y-86340922D01*
X150379879Y-86397487D01*
X150369824Y-86406352D01*
X150255860Y-86534262D01*
X150238582Y-86559122D01*
X150158418Y-86710525D01*
X150147568Y-86738788D01*
X150105833Y-86904941D01*
X150102286Y-86927726D01*
X150101664Y-86937613D01*
X150101415Y-86945524D01*
X150101415Y-86971000D01*
X150121417Y-87039121D01*
X150175073Y-87085614D01*
X150227415Y-87097000D01*
X151338415Y-87097000D01*
X151338415Y-88133000D01*
X151358417Y-88201121D01*
X151412073Y-88247614D01*
X151464415Y-88259000D01*
X151526733Y-88259000D01*
X151540754Y-88258154D01*
X151280892Y-88518016D01*
X151263655Y-88532276D01*
X151255932Y-88540500D01*
X151221041Y-88540500D01*
X151187537Y-88426394D01*
X151172639Y-88393772D01*
X151093698Y-88270936D01*
X151070212Y-88243831D01*
X151041732Y-88219153D01*
X151071029Y-88185342D01*
X151082415Y-88133000D01*
X151082415Y-87479000D01*
X151062413Y-87410879D01*
X151008757Y-87364386D01*
X150956415Y-87353000D01*
X150228950Y-87353000D01*
X150160829Y-87373002D01*
X150114336Y-87426658D01*
X150103863Y-87494137D01*
X150117909Y-87610211D01*
X150125130Y-87639612D01*
X150185686Y-87799868D01*
X150199712Y-87826697D01*
X150296746Y-87967882D01*
X150316767Y-87990591D01*
X150367733Y-88036000D01*
X149500000Y-88036000D01*
X149491011Y-88036321D01*
X149418003Y-88041543D01*
X149391494Y-88046326D01*
X149251394Y-88087463D01*
X149218772Y-88102361D01*
X149095936Y-88181302D01*
X149068831Y-88204788D01*
X148973212Y-88315139D01*
X148953823Y-88345309D01*
X148893166Y-88478129D01*
X148883062Y-88512539D01*
X148862282Y-88657068D01*
X148861000Y-88675000D01*
X148861000Y-88925000D01*
X148861321Y-88933989D01*
X148866543Y-89006997D01*
X148871326Y-89033505D01*
X148876845Y-89052301D01*
X148861782Y-89157069D01*
X148860500Y-89175000D01*
X148860500Y-89425000D01*
X148860821Y-89433989D01*
X148866048Y-89507068D01*
X148870831Y-89533578D01*
X148872864Y-89540500D01*
X148625427Y-89540500D01*
X148638810Y-89413171D01*
X148638810Y-89386829D01*
X148618848Y-89196902D01*
X148613371Y-89171137D01*
X148554357Y-88989510D01*
X148543643Y-88965446D01*
X148448156Y-88800058D01*
X148432673Y-88778748D01*
X148304887Y-88636827D01*
X148285312Y-88619201D01*
X148130811Y-88506950D01*
X148107999Y-88493779D01*
X147933536Y-88416103D01*
X147908484Y-88407963D01*
X147721684Y-88368257D01*
X147695487Y-88365504D01*
X147504513Y-88365504D01*
X147478316Y-88368257D01*
X147291516Y-88407963D01*
X147266464Y-88416103D01*
X147092001Y-88493779D01*
X147069189Y-88506950D01*
X146914688Y-88619201D01*
X146900349Y-88632112D01*
X146779032Y-88517187D01*
X146755665Y-88499706D01*
X146607762Y-88413797D01*
X146580999Y-88402160D01*
X146417300Y-88352581D01*
X146391978Y-88347671D01*
X146317223Y-88340999D01*
X146306022Y-88340500D01*
X145707113Y-88340500D01*
X145692522Y-88341348D01*
X145565517Y-88356155D01*
X145537117Y-88362868D01*
X145376339Y-88421228D01*
X145350245Y-88434295D01*
X145207204Y-88528077D01*
X145197962Y-88535804D01*
X145178732Y-88517587D01*
X145155364Y-88500106D01*
X145007562Y-88414256D01*
X144980800Y-88402620D01*
X144817212Y-88353074D01*
X144791890Y-88348163D01*
X144717223Y-88341499D01*
X144706022Y-88341000D01*
X144654000Y-88341000D01*
X144585879Y-88361002D01*
X144539386Y-88414658D01*
X144528000Y-88467000D01*
X144528000Y-89553000D01*
X143417000Y-89553000D01*
X143348879Y-89573002D01*
X143302386Y-89626658D01*
X143291000Y-89679000D01*
X143291000Y-89692886D01*
X143291848Y-89707477D01*
X143306642Y-89834368D01*
X143313355Y-89862768D01*
X143354151Y-89975158D01*
X143321684Y-89968257D01*
X143295487Y-89965504D01*
X143104513Y-89965504D01*
X143078316Y-89968257D01*
X142899500Y-90006266D01*
X142899500Y-89143978D01*
X143291000Y-89143978D01*
X143291000Y-89171000D01*
X143311002Y-89239121D01*
X143364658Y-89285614D01*
X143417000Y-89297000D01*
X144146000Y-89297000D01*
X144214121Y-89276998D01*
X144260614Y-89223342D01*
X144272000Y-89171000D01*
X144272000Y-88467000D01*
X144251998Y-88398879D01*
X144198342Y-88352386D01*
X144146000Y-88341000D01*
X144107114Y-88341000D01*
X144092523Y-88341848D01*
X143965632Y-88356642D01*
X143937232Y-88363355D01*
X143776563Y-88421675D01*
X143750469Y-88434742D01*
X143607525Y-88528460D01*
X143585137Y-88547179D01*
X143467587Y-88671268D01*
X143450106Y-88694636D01*
X143364256Y-88842438D01*
X143352620Y-88869200D01*
X143303074Y-89032788D01*
X143298163Y-89058110D01*
X143291499Y-89132777D01*
X143291000Y-89143978D01*
X142899500Y-89143978D01*
X142899500Y-88080792D01*
X142909383Y-88074923D01*
X143096969Y-87940871D01*
X143113194Y-87927063D01*
X143275513Y-87763323D01*
X143289180Y-87746978D01*
X143411103Y-87573177D01*
X143431423Y-87610524D01*
X143443152Y-87628311D01*
X143585839Y-87809308D01*
X143600397Y-87824865D01*
X143771539Y-87979233D01*
X143788510Y-87992114D01*
X143983216Y-88115440D01*
X144002114Y-88125278D01*
X144214814Y-88214034D01*
X144235100Y-88220547D01*
X144397763Y-88257951D01*
X144468634Y-88253724D01*
X144525969Y-88211852D01*
X144551564Y-88145630D01*
X144552000Y-88135156D01*
X144552000Y-87054000D01*
X144808000Y-87054000D01*
X144808000Y-88138056D01*
X144828002Y-88206177D01*
X144881658Y-88252670D01*
X144948153Y-88263259D01*
X144961228Y-88261781D01*
X144982122Y-88257606D01*
X145203503Y-88193498D01*
X145223394Y-88185862D01*
X145430808Y-88085371D01*
X145449128Y-88074494D01*
X145636645Y-87940492D01*
X145652870Y-87926683D01*
X145815129Y-87763002D01*
X145828796Y-87746657D01*
X145961157Y-87557977D01*
X145971874Y-87539562D01*
X146070551Y-87331279D01*
X146078013Y-87311323D01*
X146140187Y-87089391D01*
X146144179Y-87068461D01*
X146144325Y-87067060D01*
X146131492Y-86997233D01*
X146082944Y-86945429D01*
X146019004Y-86928000D01*
X144934000Y-86928000D01*
X144865879Y-86948002D01*
X144819386Y-87001658D01*
X144808000Y-87054000D01*
X144552000Y-87054000D01*
X144552000Y-86672000D01*
X146017194Y-86672000D01*
X146085315Y-86651998D01*
X146131808Y-86598342D01*
X146141912Y-86528068D01*
X146139153Y-86514346D01*
X146087571Y-86315610D01*
X146085419Y-86309500D01*
X150290382Y-86309500D01*
X150296371Y-86318214D01*
G37*
%TD.AperFunction*%
%TD*%
%TO.N,+3V3*%
X139890500Y-107292887D02*
X139891348Y-107307478D01*
X139906155Y-107434483D01*
X139912868Y-107462883D01*
X139971228Y-107623661D01*
X139984295Y-107649755D01*
X140074000Y-107786578D01*
X140074000Y-109674000D01*
X138234000Y-109674000D01*
X138234000Y-106926000D01*
X139890500Y-106926000D01*
X139890500Y-107292887D01*
%TA.AperFunction,Conductor*%
G36*
X139890500Y-107292887D02*
G01*
X139891348Y-107307478D01*
X139906155Y-107434483D01*
X139912868Y-107462883D01*
X139971228Y-107623661D01*
X139984295Y-107649755D01*
X140074000Y-107786578D01*
X140074000Y-109674000D01*
X138234000Y-109674000D01*
X138234000Y-106926000D01*
X139890500Y-106926000D01*
X139890500Y-107292887D01*
G37*
%TD.AperFunction*%
%TD*%
M02*
