%TF.GenerationSoftware,KiCad,Pcbnew,(5.99.0-8564-gb2cd1fddf9)*%
%TF.CreationDate,2021-01-25T15:54:05+03:00*%
%TF.ProjectId,Eloise_nA_meter_v2,456c6f69-7365-45f6-9e41-5f6d65746572,rev?*%
%TF.SameCoordinates,Original*%
%TF.FileFunction,Legend,Bot*%
%TF.FilePolarity,Positive*%
%FSLAX46Y46*%
G04 Gerber Fmt 4.6, Leading zero omitted, Abs format (unit mm)*
G04 Created by KiCad (PCBNEW (5.99.0-8564-gb2cd1fddf9)) date 2021-01-25 15:54:05*
%MOMM*%
%LPD*%
G01*
G04 APERTURE LIST*
%ADD10C,0.250000*%
G04 APERTURE END LIST*
D10*
X100847380Y-58686309D02*
X101561666Y-58686309D01*
X101704523Y-58638690D01*
X101799761Y-58543452D01*
X101847380Y-58400595D01*
X101847380Y-58305357D01*
X101847380Y-59305357D02*
X101799761Y-59210119D01*
X101752142Y-59162500D01*
X101656904Y-59114880D01*
X101371190Y-59114880D01*
X101275952Y-59162500D01*
X101228333Y-59210119D01*
X101180714Y-59305357D01*
X101180714Y-59448214D01*
X101228333Y-59543452D01*
X101275952Y-59591071D01*
X101371190Y-59638690D01*
X101656904Y-59638690D01*
X101752142Y-59591071D01*
X101799761Y-59543452D01*
X101847380Y-59448214D01*
X101847380Y-59305357D01*
X101799761Y-60448214D02*
X101847380Y-60352976D01*
X101847380Y-60162500D01*
X101799761Y-60067261D01*
X101704523Y-60019642D01*
X101323571Y-60019642D01*
X101228333Y-60067261D01*
X101180714Y-60162500D01*
X101180714Y-60352976D01*
X101228333Y-60448214D01*
X101323571Y-60495833D01*
X101418809Y-60495833D01*
X101514047Y-60019642D01*
X101847380Y-61067261D02*
X101799761Y-60972023D01*
X101704523Y-60924404D01*
X100847380Y-60924404D01*
X100847380Y-62067261D02*
X100847380Y-62638690D01*
X101847380Y-62352976D02*
X100847380Y-62352976D01*
X101847380Y-62972023D02*
X101180714Y-62972023D01*
X101371190Y-62972023D02*
X101275952Y-63019642D01*
X101228333Y-63067261D01*
X101180714Y-63162500D01*
X101180714Y-63257738D01*
X101847380Y-63733928D02*
X101799761Y-63638690D01*
X101752142Y-63591071D01*
X101656904Y-63543452D01*
X101371190Y-63543452D01*
X101275952Y-63591071D01*
X101228333Y-63638690D01*
X101180714Y-63733928D01*
X101180714Y-63876785D01*
X101228333Y-63972023D01*
X101275952Y-64019642D01*
X101371190Y-64067261D01*
X101656904Y-64067261D01*
X101752142Y-64019642D01*
X101799761Y-63972023D01*
X101847380Y-63876785D01*
X101847380Y-63733928D01*
X101180714Y-64924404D02*
X101847380Y-64924404D01*
X101180714Y-64495833D02*
X101704523Y-64495833D01*
X101799761Y-64543452D01*
X101847380Y-64638690D01*
X101847380Y-64781547D01*
X101799761Y-64876785D01*
X101752142Y-64924404D01*
X101180714Y-65829166D02*
X101990238Y-65829166D01*
X102085476Y-65781547D01*
X102133095Y-65733928D01*
X102180714Y-65638690D01*
X102180714Y-65495833D01*
X102133095Y-65400595D01*
X101799761Y-65829166D02*
X101847380Y-65733928D01*
X101847380Y-65543452D01*
X101799761Y-65448214D01*
X101752142Y-65400595D01*
X101656904Y-65352976D01*
X101371190Y-65352976D01*
X101275952Y-65400595D01*
X101228333Y-65448214D01*
X101180714Y-65543452D01*
X101180714Y-65733928D01*
X101228333Y-65829166D01*
X101847380Y-66305357D02*
X100847380Y-66305357D01*
X101847380Y-66733928D02*
X101323571Y-66733928D01*
X101228333Y-66686309D01*
X101180714Y-66591071D01*
X101180714Y-66448214D01*
X101228333Y-66352976D01*
X101275952Y-66305357D01*
X101180714Y-67067261D02*
X101180714Y-67448214D01*
X100847380Y-67210119D02*
X101704523Y-67210119D01*
X101799761Y-67257738D01*
X101847380Y-67352976D01*
X101847380Y-67448214D01*
X101847380Y-67924404D02*
X101799761Y-67829166D01*
X101752142Y-67781547D01*
X101656904Y-67733928D01*
X101371190Y-67733928D01*
X101275952Y-67781547D01*
X101228333Y-67829166D01*
X101180714Y-67924404D01*
X101180714Y-68067261D01*
X101228333Y-68162500D01*
X101275952Y-68210119D01*
X101371190Y-68257738D01*
X101656904Y-68257738D01*
X101752142Y-68210119D01*
X101799761Y-68162500D01*
X101847380Y-68067261D01*
X101847380Y-67924404D01*
X101180714Y-68686309D02*
X101847380Y-68686309D01*
X101275952Y-68686309D02*
X101228333Y-68733928D01*
X101180714Y-68829166D01*
X101180714Y-68972023D01*
X101228333Y-69067261D01*
X101323571Y-69114880D01*
X101847380Y-69114880D01*
X102552619Y-58352976D02*
X102505000Y-58400595D01*
X102457380Y-58495833D01*
X102457380Y-58733928D01*
X102505000Y-58829166D01*
X102552619Y-58876785D01*
X102647857Y-58924404D01*
X102743095Y-58924404D01*
X102885952Y-58876785D01*
X103457380Y-58305357D01*
X103457380Y-58924404D01*
X102457380Y-59543452D02*
X102457380Y-59638690D01*
X102505000Y-59733928D01*
X102552619Y-59781547D01*
X102647857Y-59829166D01*
X102838333Y-59876785D01*
X103076428Y-59876785D01*
X103266904Y-59829166D01*
X103362142Y-59781547D01*
X103409761Y-59733928D01*
X103457380Y-59638690D01*
X103457380Y-59543452D01*
X103409761Y-59448214D01*
X103362142Y-59400595D01*
X103266904Y-59352976D01*
X103076428Y-59305357D01*
X102838333Y-59305357D01*
X102647857Y-59352976D01*
X102552619Y-59400595D01*
X102505000Y-59448214D01*
X102457380Y-59543452D01*
X102552619Y-60257738D02*
X102505000Y-60305357D01*
X102457380Y-60400595D01*
X102457380Y-60638690D01*
X102505000Y-60733928D01*
X102552619Y-60781547D01*
X102647857Y-60829166D01*
X102743095Y-60829166D01*
X102885952Y-60781547D01*
X103457380Y-60210119D01*
X103457380Y-60829166D01*
X103457380Y-61781547D02*
X103457380Y-61210119D01*
X103457380Y-61495833D02*
X102457380Y-61495833D01*
X102600238Y-61400595D01*
X102695476Y-61305357D01*
X102743095Y-61210119D01*
X101318571Y-45733928D02*
X101366190Y-45876785D01*
X101413809Y-45924404D01*
X101509047Y-45972023D01*
X101651904Y-45972023D01*
X101747142Y-45924404D01*
X101794761Y-45876785D01*
X101842380Y-45781547D01*
X101842380Y-45400595D01*
X100842380Y-45400595D01*
X100842380Y-45733928D01*
X100890000Y-45829166D01*
X100937619Y-45876785D01*
X101032857Y-45924404D01*
X101128095Y-45924404D01*
X101223333Y-45876785D01*
X101270952Y-45829166D01*
X101318571Y-45733928D01*
X101318571Y-45400595D01*
X101842380Y-46400595D02*
X101175714Y-46400595D01*
X100842380Y-46400595D02*
X100890000Y-46352976D01*
X100937619Y-46400595D01*
X100890000Y-46448214D01*
X100842380Y-46400595D01*
X100937619Y-46400595D01*
X101842380Y-47019642D02*
X101794761Y-46924404D01*
X101747142Y-46876785D01*
X101651904Y-46829166D01*
X101366190Y-46829166D01*
X101270952Y-46876785D01*
X101223333Y-46924404D01*
X101175714Y-47019642D01*
X101175714Y-47162500D01*
X101223333Y-47257738D01*
X101270952Y-47305357D01*
X101366190Y-47352976D01*
X101651904Y-47352976D01*
X101747142Y-47305357D01*
X101794761Y-47257738D01*
X101842380Y-47162500D01*
X101842380Y-47019642D01*
X101794761Y-47733928D02*
X101842380Y-47829166D01*
X101842380Y-48019642D01*
X101794761Y-48114880D01*
X101699523Y-48162500D01*
X101651904Y-48162500D01*
X101556666Y-48114880D01*
X101509047Y-48019642D01*
X101509047Y-47876785D01*
X101461428Y-47781547D01*
X101366190Y-47733928D01*
X101318571Y-47733928D01*
X101223333Y-47781547D01*
X101175714Y-47876785D01*
X101175714Y-48019642D01*
X101223333Y-48114880D01*
X101794761Y-48972023D02*
X101842380Y-48876785D01*
X101842380Y-48686309D01*
X101794761Y-48591071D01*
X101699523Y-48543452D01*
X101318571Y-48543452D01*
X101223333Y-48591071D01*
X101175714Y-48686309D01*
X101175714Y-48876785D01*
X101223333Y-48972023D01*
X101318571Y-49019642D01*
X101413809Y-49019642D01*
X101509047Y-48543452D01*
X101175714Y-49448214D02*
X101842380Y-49448214D01*
X101270952Y-49448214D02*
X101223333Y-49495833D01*
X101175714Y-49591071D01*
X101175714Y-49733928D01*
X101223333Y-49829166D01*
X101318571Y-49876785D01*
X101842380Y-49876785D01*
X101794761Y-50305357D02*
X101842380Y-50400595D01*
X101842380Y-50591071D01*
X101794761Y-50686309D01*
X101699523Y-50733928D01*
X101651904Y-50733928D01*
X101556666Y-50686309D01*
X101509047Y-50591071D01*
X101509047Y-50448214D01*
X101461428Y-50352976D01*
X101366190Y-50305357D01*
X101318571Y-50305357D01*
X101223333Y-50352976D01*
X101175714Y-50448214D01*
X101175714Y-50591071D01*
X101223333Y-50686309D01*
X101842380Y-51305357D02*
X101794761Y-51210119D01*
X101747142Y-51162500D01*
X101651904Y-51114880D01*
X101366190Y-51114880D01*
X101270952Y-51162500D01*
X101223333Y-51210119D01*
X101175714Y-51305357D01*
X101175714Y-51448214D01*
X101223333Y-51543452D01*
X101270952Y-51591071D01*
X101366190Y-51638690D01*
X101651904Y-51638690D01*
X101747142Y-51591071D01*
X101794761Y-51543452D01*
X101842380Y-51448214D01*
X101842380Y-51305357D01*
X101842380Y-52067261D02*
X101175714Y-52067261D01*
X101366190Y-52067261D02*
X101270952Y-52114880D01*
X101223333Y-52162500D01*
X101175714Y-52257738D01*
X101175714Y-52352976D01*
X102785714Y-45400595D02*
X103452380Y-45400595D01*
X102880952Y-45400595D02*
X102833333Y-45448214D01*
X102785714Y-45543452D01*
X102785714Y-45686309D01*
X102833333Y-45781547D01*
X102928571Y-45829166D01*
X103452380Y-45829166D01*
X103166666Y-46257738D02*
X103166666Y-46733928D01*
X103452380Y-46162500D02*
X102452380Y-46495833D01*
X103452380Y-46829166D01*
X103452380Y-47162500D02*
X102785714Y-47162500D01*
X102880952Y-47162500D02*
X102833333Y-47210119D01*
X102785714Y-47305357D01*
X102785714Y-47448214D01*
X102833333Y-47543452D01*
X102928571Y-47591071D01*
X103452380Y-47591071D01*
X102928571Y-47591071D02*
X102833333Y-47638690D01*
X102785714Y-47733928D01*
X102785714Y-47876785D01*
X102833333Y-47972023D01*
X102928571Y-48019642D01*
X103452380Y-48019642D01*
X103452380Y-48495833D02*
X102785714Y-48495833D01*
X102880952Y-48495833D02*
X102833333Y-48543452D01*
X102785714Y-48638690D01*
X102785714Y-48781547D01*
X102833333Y-48876785D01*
X102928571Y-48924404D01*
X103452380Y-48924404D01*
X102928571Y-48924404D02*
X102833333Y-48972023D01*
X102785714Y-49067261D01*
X102785714Y-49210119D01*
X102833333Y-49305357D01*
X102928571Y-49352976D01*
X103452380Y-49352976D01*
X103404761Y-50210119D02*
X103452380Y-50114880D01*
X103452380Y-49924404D01*
X103404761Y-49829166D01*
X103309523Y-49781547D01*
X102928571Y-49781547D01*
X102833333Y-49829166D01*
X102785714Y-49924404D01*
X102785714Y-50114880D01*
X102833333Y-50210119D01*
X102928571Y-50257738D01*
X103023809Y-50257738D01*
X103119047Y-49781547D01*
X102785714Y-50543452D02*
X102785714Y-50924404D01*
X102452380Y-50686309D02*
X103309523Y-50686309D01*
X103404761Y-50733928D01*
X103452380Y-50829166D01*
X103452380Y-50924404D01*
X103404761Y-51638690D02*
X103452380Y-51543452D01*
X103452380Y-51352976D01*
X103404761Y-51257738D01*
X103309523Y-51210119D01*
X102928571Y-51210119D01*
X102833333Y-51257738D01*
X102785714Y-51352976D01*
X102785714Y-51543452D01*
X102833333Y-51638690D01*
X102928571Y-51686309D01*
X103023809Y-51686309D01*
X103119047Y-51210119D01*
X103452380Y-52114880D02*
X102785714Y-52114880D01*
X102976190Y-52114880D02*
X102880952Y-52162500D01*
X102833333Y-52210119D01*
X102785714Y-52305357D01*
X102785714Y-52400595D01*
X104395714Y-45305357D02*
X105062380Y-45543452D01*
X104395714Y-45781547D01*
X104157619Y-46114880D02*
X104110000Y-46162500D01*
X104062380Y-46257738D01*
X104062380Y-46495833D01*
X104110000Y-46591071D01*
X104157619Y-46638690D01*
X104252857Y-46686309D01*
X104348095Y-46686309D01*
X104490952Y-46638690D01*
X105062380Y-46067261D01*
X105062380Y-46686309D01*
%TO.C,TP1*%
G36*
X117858359Y-56345896D02*
G01*
X117575279Y-56345896D01*
X117575279Y-55406585D01*
X117112057Y-55406585D01*
X117112057Y-56255826D01*
X116828977Y-56255826D01*
X116828977Y-55406585D01*
X116455826Y-55406585D01*
X116455826Y-56320162D01*
X116172746Y-56320162D01*
X116172746Y-55059169D01*
X117858359Y-55059169D01*
X117858359Y-56345896D01*
G37*
G36*
X117858359Y-62766667D02*
G01*
X117575279Y-62766667D01*
X117575279Y-61827355D01*
X117112057Y-61827355D01*
X117112057Y-62676596D01*
X116828977Y-62676596D01*
X116828977Y-61827355D01*
X116455826Y-61827355D01*
X116455826Y-62740932D01*
X116172746Y-62740932D01*
X116172746Y-61479939D01*
X117858359Y-61479939D01*
X117858359Y-62766667D01*
G37*
G36*
X115027558Y-57967173D02*
G01*
X114744478Y-57967173D01*
X114744478Y-57117933D01*
X113354812Y-57117933D01*
X113354812Y-56783384D01*
X115027558Y-56783384D01*
X115027558Y-57967173D01*
G37*
G36*
X114562510Y-53291808D02*
G01*
X114618822Y-53307359D01*
X114655985Y-53318788D01*
X114767609Y-53369181D01*
X114862003Y-53438476D01*
X114938397Y-53525847D01*
X114996020Y-53630472D01*
X115034104Y-53751526D01*
X115047881Y-53843299D01*
X115052805Y-53951723D01*
X115048368Y-54064546D01*
X115035163Y-54174475D01*
X115013784Y-54274219D01*
X114984826Y-54356486D01*
X114964952Y-54395183D01*
X114903459Y-54479612D01*
X114827287Y-54547363D01*
X114739983Y-54597800D01*
X114645095Y-54630283D01*
X114546171Y-54644174D01*
X114446759Y-54638836D01*
X114350407Y-54613630D01*
X114260662Y-54567918D01*
X114181074Y-54501062D01*
X114163806Y-54482274D01*
X114135778Y-54448340D01*
X114111156Y-54412148D01*
X114088596Y-54370446D01*
X114066753Y-54319981D01*
X114044282Y-54257502D01*
X114019840Y-54179755D01*
X113992081Y-54083489D01*
X113959662Y-53965451D01*
X113944088Y-53909757D01*
X113918952Y-53830193D01*
X113895065Y-53770647D01*
X113870676Y-53727678D01*
X113844037Y-53697847D01*
X113813400Y-53677712D01*
X113811413Y-53676732D01*
X113777797Y-53662758D01*
X113751224Y-53661405D01*
X113717513Y-53671796D01*
X113691866Y-53684193D01*
X113653540Y-53718608D01*
X113626529Y-53769908D01*
X113609715Y-53840624D01*
X113601982Y-53933283D01*
X113600760Y-53977486D01*
X113601161Y-54025944D01*
X113605071Y-54060953D01*
X113613484Y-54089796D01*
X113627392Y-54119754D01*
X113657518Y-54164903D01*
X113716633Y-54216002D01*
X113791026Y-54248173D01*
X113837335Y-54260627D01*
X113833752Y-54399336D01*
X113831789Y-54470186D01*
X113829086Y-54525451D01*
X113824384Y-54561834D01*
X113816245Y-54582892D01*
X113803231Y-54592183D01*
X113783906Y-54593263D01*
X113756831Y-54589691D01*
X113734434Y-54585904D01*
X113626557Y-54553748D01*
X113533922Y-54501281D01*
X113457023Y-54429208D01*
X113396354Y-54338239D01*
X113352407Y-54229079D01*
X113325677Y-54102436D01*
X113316657Y-53959017D01*
X113324014Y-53827331D01*
X113348651Y-53700312D01*
X113390284Y-53591379D01*
X113448565Y-53501058D01*
X113523146Y-53429877D01*
X113613679Y-53378365D01*
X113719817Y-53347049D01*
X113749344Y-53342785D01*
X113846983Y-53344660D01*
X113941981Y-53369273D01*
X114029816Y-53414482D01*
X114105965Y-53478149D01*
X114165907Y-53558133D01*
X114182113Y-53587435D01*
X114207207Y-53639031D01*
X114230606Y-53696860D01*
X114254006Y-53765672D01*
X114279099Y-53850216D01*
X114307580Y-53955238D01*
X114330502Y-54039429D01*
X114355256Y-54120303D01*
X114378531Y-54181816D01*
X114402067Y-54227219D01*
X114427603Y-54259761D01*
X114456877Y-54282692D01*
X114491627Y-54299263D01*
X114515383Y-54304919D01*
X114568657Y-54302009D01*
X114623898Y-54283063D01*
X114671670Y-54250632D01*
X114682436Y-54240035D01*
X114725907Y-54180874D01*
X114753415Y-54108150D01*
X114766806Y-54017333D01*
X114767825Y-53998632D01*
X114762395Y-53894287D01*
X114737399Y-53804778D01*
X114693178Y-53731428D01*
X114669546Y-53708085D01*
X114625318Y-53675663D01*
X114574843Y-53646747D01*
X114526504Y-53625987D01*
X114488689Y-53618034D01*
X114473104Y-53616009D01*
X114455555Y-53606123D01*
X114455511Y-53606047D01*
X114453893Y-53588926D01*
X114454838Y-53551734D01*
X114458091Y-53499899D01*
X114463397Y-53438849D01*
X114467766Y-53393554D01*
X114474248Y-53338745D01*
X114483230Y-53304324D01*
X114498446Y-53287133D01*
X114523628Y-53284013D01*
X114562510Y-53291808D01*
G37*
G36*
X116455826Y-58726342D02*
G01*
X117858359Y-58726342D01*
X117858359Y-59060891D01*
X116455826Y-59060891D01*
X116455826Y-59562715D01*
X116172746Y-59562715D01*
X116172746Y-58224519D01*
X116455826Y-58224519D01*
X116455826Y-58726342D01*
G37*
G36*
X115675640Y-44745743D02*
G01*
X115721604Y-44771165D01*
X115764362Y-44788954D01*
X115813048Y-44802869D01*
X115876798Y-44816673D01*
X116035699Y-44854321D01*
X116270314Y-44931148D01*
X116308861Y-44948194D01*
X116494674Y-45030362D01*
X116707341Y-45150687D01*
X116906877Y-45290846D01*
X117091843Y-45449563D01*
X117260802Y-45625563D01*
X117412314Y-45817569D01*
X117544943Y-46024304D01*
X117657249Y-46244494D01*
X117747795Y-46476860D01*
X117748675Y-46479513D01*
X117772845Y-46556155D01*
X117796265Y-46636906D01*
X117816301Y-46712316D01*
X117830319Y-46772937D01*
X117832447Y-46783358D01*
X117844592Y-46836767D01*
X117851100Y-46857595D01*
X117858078Y-46879926D01*
X117876304Y-46920637D01*
X117902671Y-46966699D01*
X117940579Y-47025915D01*
X117952472Y-47044274D01*
X118065590Y-47242202D01*
X118162209Y-47455362D01*
X118240336Y-47678144D01*
X118297976Y-47904940D01*
X118333135Y-48130142D01*
X118341611Y-48235864D01*
X118344444Y-48457255D01*
X118328590Y-48682321D01*
X118294496Y-48902178D01*
X118283703Y-48952135D01*
X118236764Y-49123245D01*
X118174573Y-49299683D01*
X118100344Y-49473710D01*
X118017287Y-49637591D01*
X117928616Y-49783586D01*
X117916606Y-49801613D01*
X117883708Y-49854596D01*
X117861452Y-49899712D01*
X117845671Y-49946506D01*
X117832201Y-50004521D01*
X117798542Y-50148329D01*
X117721275Y-50391841D01*
X117620975Y-50623988D01*
X117497902Y-50844267D01*
X117352318Y-51052179D01*
X117184485Y-51247222D01*
X117133300Y-51299431D01*
X116954892Y-51458766D01*
X116759842Y-51601669D01*
X116551497Y-51726279D01*
X116333208Y-51830736D01*
X116108323Y-51913180D01*
X115880191Y-51971749D01*
X115822891Y-51983937D01*
X115770983Y-51997924D01*
X115727088Y-52015093D01*
X115681770Y-52039240D01*
X115625595Y-52074159D01*
X115563232Y-52113080D01*
X115345385Y-52231751D01*
X115120332Y-52327500D01*
X114884697Y-52401628D01*
X114635106Y-52455432D01*
X114596489Y-52461132D01*
X114503066Y-52470194D01*
X114394625Y-52475978D01*
X114277921Y-52478481D01*
X114159711Y-52477702D01*
X114046753Y-52473638D01*
X113945805Y-52466288D01*
X113863622Y-52455650D01*
X113862556Y-52455464D01*
X113642816Y-52409667D01*
X113440255Y-52351025D01*
X113248537Y-52277097D01*
X113061327Y-52185442D01*
X112872290Y-52073618D01*
X112824514Y-52043857D01*
X112777958Y-52018311D01*
X112734231Y-52000278D01*
X112724305Y-51997459D01*
X113582892Y-51997459D01*
X113586987Y-52000044D01*
X113613505Y-52010015D01*
X113657956Y-52023001D01*
X113714921Y-52037703D01*
X113778983Y-52052825D01*
X113844725Y-52067067D01*
X113906728Y-52079132D01*
X113959574Y-52087720D01*
X113961254Y-52087951D01*
X114119848Y-52101720D01*
X114291766Y-52102578D01*
X114468500Y-52091076D01*
X114641541Y-52067764D01*
X114802381Y-52033192D01*
X114816818Y-52029350D01*
X114864763Y-52016005D01*
X114901895Y-52004797D01*
X114921150Y-51997829D01*
X114921806Y-51995328D01*
X114906455Y-51987617D01*
X114872814Y-51977549D01*
X114825558Y-51966649D01*
X114761317Y-51952116D01*
X114626097Y-51914710D01*
X114487908Y-51868561D01*
X114358811Y-51817524D01*
X114249088Y-51770008D01*
X114152583Y-51812418D01*
X114099092Y-51834721D01*
X113995895Y-51873159D01*
X113884655Y-51910034D01*
X113775710Y-51941998D01*
X113679397Y-51965702D01*
X113659116Y-51970236D01*
X113616968Y-51981314D01*
X113589852Y-51990950D01*
X113582892Y-51997459D01*
X112724305Y-51997459D01*
X112683906Y-51985986D01*
X112617557Y-51971662D01*
X112393649Y-51915138D01*
X112164981Y-51832621D01*
X111946638Y-51728199D01*
X111739992Y-51603244D01*
X111546416Y-51459127D01*
X111367283Y-51297219D01*
X111203965Y-51118892D01*
X111057836Y-50925516D01*
X110930267Y-50718462D01*
X110822632Y-50499103D01*
X110805291Y-50452844D01*
X111216695Y-50452844D01*
X111270366Y-50552486D01*
X111344170Y-50676550D01*
X111465684Y-50843142D01*
X111606603Y-51000887D01*
X111763339Y-51146224D01*
X111932302Y-51275594D01*
X112109904Y-51385434D01*
X112120024Y-51390943D01*
X112159003Y-51411550D01*
X112186285Y-51424984D01*
X112196482Y-51428562D01*
X112195612Y-51426564D01*
X112184825Y-51408336D01*
X112164334Y-51375747D01*
X112137450Y-51334093D01*
X112101530Y-51275972D01*
X112048919Y-51182376D01*
X111996030Y-51079996D01*
X111947452Y-50977807D01*
X111913192Y-50897492D01*
X112326975Y-50897492D01*
X112331206Y-50912759D01*
X112347259Y-50944866D01*
X112372653Y-50989768D01*
X112404904Y-51043418D01*
X112441527Y-51101770D01*
X112480040Y-51160776D01*
X112517959Y-51216392D01*
X112552799Y-51264569D01*
X112594276Y-51316466D01*
X112652697Y-51383769D01*
X112715461Y-51451426D01*
X112774592Y-51510590D01*
X112810698Y-51544675D01*
X112854344Y-51584310D01*
X112887049Y-51610730D01*
X112913210Y-51626972D01*
X112937223Y-51636072D01*
X112963484Y-51641066D01*
X113071030Y-51649340D01*
X113196956Y-51647924D01*
X113334060Y-51637340D01*
X113476145Y-51618248D01*
X113617017Y-51591309D01*
X113750481Y-51557183D01*
X113759345Y-51554542D01*
X113802207Y-51540582D01*
X113832368Y-51528773D01*
X113837838Y-51525254D01*
X114654704Y-51525254D01*
X114654896Y-51525437D01*
X114672978Y-51533823D01*
X114710539Y-51546207D01*
X114762091Y-51561126D01*
X114822146Y-51577116D01*
X114885217Y-51592716D01*
X114945816Y-51606461D01*
X114998456Y-51616889D01*
X115056124Y-51625733D01*
X115150224Y-51636161D01*
X115250571Y-51643552D01*
X115349278Y-51647495D01*
X115438454Y-51647582D01*
X115510213Y-51643405D01*
X115600152Y-51633809D01*
X115761590Y-51471084D01*
X115769161Y-51463418D01*
X115797080Y-51433017D01*
X116297359Y-51433017D01*
X116374284Y-51394186D01*
X116440667Y-51358305D01*
X116587180Y-51263358D01*
X116732468Y-51148897D01*
X116872441Y-51018885D01*
X117003005Y-50877288D01*
X117120071Y-50728069D01*
X117219546Y-50575193D01*
X117233280Y-50551349D01*
X117256917Y-50508888D01*
X117273241Y-50477574D01*
X117279331Y-50462893D01*
X117274877Y-50463030D01*
X117253300Y-50473499D01*
X117217885Y-50494070D01*
X117173176Y-50522205D01*
X117073814Y-50582761D01*
X116908908Y-50669252D01*
X116739587Y-50742638D01*
X116715788Y-50752199D01*
X116670852Y-50772476D01*
X116638619Y-50790122D01*
X116624861Y-50802142D01*
X116612598Y-50837528D01*
X116580177Y-50916887D01*
X116537754Y-51008872D01*
X116488209Y-51107829D01*
X116434419Y-51208104D01*
X116379263Y-51304042D01*
X116325619Y-51389989D01*
X116297359Y-51433017D01*
X115797080Y-51433017D01*
X115881791Y-51340773D01*
X115984111Y-51213337D01*
X116071946Y-51086662D01*
X116141122Y-50966302D01*
X116153599Y-50941107D01*
X116167385Y-50911354D01*
X116172746Y-50896881D01*
X116170616Y-50895328D01*
X116151185Y-50895175D01*
X116118060Y-50899670D01*
X116074996Y-50904591D01*
X116009398Y-50907917D01*
X115928718Y-50909391D01*
X115838401Y-50909124D01*
X115743893Y-50907227D01*
X115650641Y-50903813D01*
X115564090Y-50898994D01*
X115489687Y-50892881D01*
X115432877Y-50885587D01*
X115396352Y-50879294D01*
X115344580Y-50870045D01*
X115305277Y-50862616D01*
X115284904Y-50858202D01*
X115267419Y-50865441D01*
X115239200Y-50894789D01*
X115201514Y-50945410D01*
X115139244Y-51029997D01*
X115052485Y-51135635D01*
X114957289Y-51240964D01*
X114858922Y-51340454D01*
X114762647Y-51428575D01*
X114673728Y-51499797D01*
X114658491Y-51513785D01*
X114654704Y-51525254D01*
X113837838Y-51525254D01*
X113843769Y-51521438D01*
X113835200Y-51510837D01*
X113811102Y-51489399D01*
X113776922Y-51462193D01*
X113721270Y-51416795D01*
X113630929Y-51332909D01*
X113535010Y-51233265D01*
X113437323Y-51122073D01*
X113341675Y-51003540D01*
X113251874Y-50881877D01*
X113232573Y-50854410D01*
X113097467Y-50878442D01*
X113090792Y-50879609D01*
X112994240Y-50893016D01*
X112883282Y-50903237D01*
X112765854Y-50909937D01*
X112649891Y-50912783D01*
X112543329Y-50911439D01*
X112454103Y-50905570D01*
X112422509Y-50902394D01*
X112374884Y-50898338D01*
X112341193Y-50896440D01*
X112327252Y-50897090D01*
X112326975Y-50897492D01*
X111913192Y-50897492D01*
X111907772Y-50884787D01*
X111867585Y-50782897D01*
X111797344Y-50759253D01*
X111791469Y-50757225D01*
X111742995Y-50737964D01*
X113612346Y-50737964D01*
X113668522Y-50810851D01*
X113681685Y-50827633D01*
X113747988Y-50905649D01*
X113824488Y-50987181D01*
X113906863Y-51068249D01*
X113990792Y-51144874D01*
X114071951Y-51213075D01*
X114146020Y-51268871D01*
X114208676Y-51308284D01*
X114249088Y-51330047D01*
X114252836Y-51332065D01*
X114321598Y-51288044D01*
X114361921Y-51261083D01*
X114472109Y-51177361D01*
X114584173Y-51079185D01*
X114691260Y-50972795D01*
X114786518Y-50864438D01*
X114806302Y-50840027D01*
X114838673Y-50799920D01*
X114863132Y-50769399D01*
X114875512Y-50753653D01*
X114870762Y-50743260D01*
X114842892Y-50723005D01*
X114791199Y-50693495D01*
X114715605Y-50654683D01*
X114658764Y-50625902D01*
X114534989Y-50558129D01*
X114442664Y-50500733D01*
X115457336Y-50500733D01*
X115459094Y-50502061D01*
X115482816Y-50509105D01*
X115527392Y-50515561D01*
X115588699Y-50521115D01*
X115662612Y-50525453D01*
X115745008Y-50528261D01*
X115831763Y-50529225D01*
X115958770Y-50526787D01*
X116074315Y-50518847D01*
X116176898Y-50504958D01*
X116224659Y-50496430D01*
X116273283Y-50487112D01*
X116307295Y-50479833D01*
X116321308Y-50475686D01*
X116325079Y-50468898D01*
X116333735Y-50438856D01*
X116343525Y-50390658D01*
X116353669Y-50329233D01*
X116363387Y-50259507D01*
X116371899Y-50186410D01*
X116378425Y-50114867D01*
X116379514Y-50100482D01*
X116383992Y-50038708D01*
X116387372Y-49987734D01*
X116389341Y-49952513D01*
X116389586Y-49937994D01*
X116388807Y-49932291D01*
X116386244Y-49905485D01*
X116382598Y-49862367D01*
X116378384Y-49808889D01*
X116374756Y-49765729D01*
X116367849Y-49700815D01*
X116360499Y-49649425D01*
X116353327Y-49615616D01*
X116346954Y-49603445D01*
X116344960Y-49603939D01*
X116324517Y-49610305D01*
X116285729Y-49622867D01*
X116233080Y-49640165D01*
X116171052Y-49660739D01*
X116149823Y-49667704D01*
X115926958Y-49729286D01*
X115683789Y-49776466D01*
X115638754Y-49783579D01*
X115615912Y-49924415D01*
X115612901Y-49942373D01*
X115588852Y-50061591D01*
X115557554Y-50186912D01*
X115521851Y-50307733D01*
X115484593Y-50413454D01*
X115483990Y-50414994D01*
X115468739Y-50456445D01*
X115459171Y-50487211D01*
X115457336Y-50500733D01*
X114442664Y-50500733D01*
X114420715Y-50487088D01*
X114304997Y-50406153D01*
X114245100Y-50362217D01*
X114208492Y-50392883D01*
X114203783Y-50396774D01*
X114151118Y-50436175D01*
X114082000Y-50482692D01*
X114002448Y-50532643D01*
X113918481Y-50582349D01*
X113836118Y-50628129D01*
X113761377Y-50666301D01*
X113612346Y-50737964D01*
X111742995Y-50737964D01*
X111736469Y-50735371D01*
X111666330Y-50703921D01*
X111587224Y-50665980D01*
X111505326Y-50624653D01*
X111426811Y-50583047D01*
X111357852Y-50544267D01*
X111304624Y-50511418D01*
X111216695Y-50452844D01*
X110805291Y-50452844D01*
X110736304Y-50268809D01*
X110672654Y-50028952D01*
X110672390Y-50027708D01*
X110658038Y-49964571D01*
X110643720Y-49916214D01*
X110625658Y-49873726D01*
X110600077Y-49828197D01*
X110563201Y-49770719D01*
X110554605Y-49757584D01*
X110544207Y-49739609D01*
X111006535Y-49739609D01*
X111070871Y-49815283D01*
X111076975Y-49822375D01*
X111140489Y-49889491D01*
X111216695Y-49961232D01*
X111219087Y-49963483D01*
X111306402Y-50038829D01*
X111396067Y-50110011D01*
X111481716Y-50171509D01*
X111495650Y-50180790D01*
X111552795Y-50217276D01*
X111610071Y-50251710D01*
X111663132Y-50281701D01*
X111707634Y-50304860D01*
X111739235Y-50318794D01*
X111753589Y-50321115D01*
X111754328Y-50314381D01*
X111753237Y-50286630D01*
X111749841Y-50242742D01*
X111744527Y-50188383D01*
X111741497Y-50154545D01*
X111737123Y-50052016D01*
X111737647Y-49935566D01*
X111738598Y-49912934D01*
X112120250Y-49912934D01*
X112120745Y-50003454D01*
X112123382Y-50094332D01*
X112128194Y-50181474D01*
X112135217Y-50260784D01*
X112144484Y-50328164D01*
X112153034Y-50375867D01*
X112162498Y-50424676D01*
X112169997Y-50458938D01*
X112174413Y-50473231D01*
X112175306Y-50473832D01*
X112193482Y-50479999D01*
X112229039Y-50489457D01*
X112275343Y-50500418D01*
X112294044Y-50503867D01*
X112349570Y-50510300D01*
X112422897Y-50515600D01*
X112508671Y-50519673D01*
X112601538Y-50522423D01*
X112696144Y-50523757D01*
X112787134Y-50523578D01*
X112869156Y-50521791D01*
X112936856Y-50518302D01*
X112984878Y-50513016D01*
X113005455Y-50508972D01*
X113034271Y-50500807D01*
X113045263Y-50493715D01*
X113044514Y-50490521D01*
X113037012Y-50467877D01*
X113023239Y-50429629D01*
X113005384Y-50381915D01*
X112979805Y-50308382D01*
X112949318Y-50206735D01*
X112920558Y-50097245D01*
X112896010Y-49989468D01*
X112878159Y-49892958D01*
X112875822Y-49878112D01*
X112868333Y-49832564D01*
X112862477Y-49799928D01*
X112862179Y-49798642D01*
X113249182Y-49798642D01*
X113257886Y-49868302D01*
X113263694Y-49905135D01*
X113278416Y-49974090D01*
X113298553Y-50052671D01*
X113322316Y-50135075D01*
X113347916Y-50215504D01*
X113373564Y-50288155D01*
X113397470Y-50347229D01*
X113417846Y-50386925D01*
X113424918Y-50392061D01*
X113441395Y-50391418D01*
X113469948Y-50382244D01*
X113514124Y-50363354D01*
X113577472Y-50333562D01*
X113629945Y-50307360D01*
X113706669Y-50266513D01*
X113781062Y-50224446D01*
X113842539Y-50187011D01*
X113881187Y-50161370D01*
X113921567Y-50132603D01*
X113948978Y-50110633D01*
X113958019Y-50099951D01*
X114548274Y-50099951D01*
X114551842Y-50112151D01*
X114558967Y-50119479D01*
X114591645Y-50144915D01*
X114641085Y-50177601D01*
X114702547Y-50214933D01*
X114771294Y-50254305D01*
X114842586Y-50293114D01*
X114911685Y-50328753D01*
X114973852Y-50358619D01*
X115024348Y-50380107D01*
X115058435Y-50390613D01*
X115068187Y-50390251D01*
X115082741Y-50379364D01*
X115099073Y-50352234D01*
X115120165Y-50304711D01*
X115122382Y-50299297D01*
X115144946Y-50239466D01*
X115168560Y-50170150D01*
X115188457Y-50105268D01*
X115190087Y-50099473D01*
X115207730Y-50031916D01*
X115224729Y-49959527D01*
X115237611Y-49897017D01*
X115255760Y-49798137D01*
X115170610Y-49789983D01*
X115144788Y-49787225D01*
X115084693Y-49779711D01*
X115015433Y-49770071D01*
X114947390Y-49759713D01*
X114809319Y-49737596D01*
X114760814Y-49808402D01*
X114746248Y-49829041D01*
X114710182Y-49877671D01*
X114667512Y-49933042D01*
X114624658Y-49986742D01*
X114608803Y-50006345D01*
X114574705Y-50050579D01*
X114555212Y-50080604D01*
X114548274Y-50099951D01*
X113958019Y-50099951D01*
X113958964Y-50098835D01*
X113953461Y-50087177D01*
X113934688Y-50060980D01*
X113907274Y-50028065D01*
X113889917Y-50007551D01*
X113854118Y-49962486D01*
X113813287Y-49908705D01*
X113773297Y-49853848D01*
X113690523Y-49737534D01*
X113545185Y-49760084D01*
X113498434Y-49767170D01*
X113430342Y-49776979D01*
X113369312Y-49785225D01*
X113324515Y-49790638D01*
X113249182Y-49798642D01*
X112862179Y-49798642D01*
X112859362Y-49786471D01*
X112854643Y-49784920D01*
X112829606Y-49779711D01*
X112788088Y-49772227D01*
X112735779Y-49763525D01*
X112617982Y-49741300D01*
X112489664Y-49710907D01*
X112365846Y-49675813D01*
X112257140Y-49638784D01*
X112240289Y-49632502D01*
X112196444Y-49617374D01*
X112194387Y-49616781D01*
X114083582Y-49616781D01*
X114083982Y-49625362D01*
X114096504Y-49650059D01*
X114119230Y-49685103D01*
X114148251Y-49725337D01*
X114179656Y-49765605D01*
X114209537Y-49800751D01*
X114233984Y-49825620D01*
X114245100Y-49832565D01*
X114249088Y-49835056D01*
X114255578Y-49831256D01*
X114276324Y-49811152D01*
X114306466Y-49777559D01*
X114342196Y-49734790D01*
X114379707Y-49687156D01*
X114397098Y-49663774D01*
X114415610Y-49636959D01*
X114422796Y-49623646D01*
X114422549Y-49622997D01*
X114408772Y-49613435D01*
X114378084Y-49597180D01*
X114336317Y-49577356D01*
X114249837Y-49538145D01*
X114172259Y-49572389D01*
X114133545Y-49590130D01*
X114100439Y-49606638D01*
X114083582Y-49616781D01*
X112194387Y-49616781D01*
X112164555Y-49608179D01*
X112150597Y-49606715D01*
X112148670Y-49609074D01*
X112138982Y-49636362D01*
X112131261Y-49684487D01*
X112125542Y-49749355D01*
X112121860Y-49826869D01*
X112120250Y-49912934D01*
X111738598Y-49912934D01*
X111742783Y-49813340D01*
X111752244Y-49693484D01*
X111765746Y-49584144D01*
X111771387Y-49547899D01*
X111779946Y-49495939D01*
X111787040Y-49456432D01*
X111791537Y-49435883D01*
X116706429Y-49435883D01*
X116707085Y-49438054D01*
X116721997Y-49502479D01*
X116735024Y-49586669D01*
X116745810Y-49684937D01*
X116753999Y-49791595D01*
X116759233Y-49900957D01*
X116761156Y-50007333D01*
X116759410Y-50105038D01*
X116753640Y-50188383D01*
X116749918Y-50225377D01*
X116745839Y-50273412D01*
X116743933Y-50307214D01*
X116744587Y-50321115D01*
X116745663Y-50321637D01*
X116763332Y-50316999D01*
X116797616Y-50301185D01*
X116844249Y-50276531D01*
X116898961Y-50245371D01*
X116957485Y-50210041D01*
X117015552Y-50172875D01*
X117055606Y-50145491D01*
X117157343Y-50068866D01*
X117257831Y-49984143D01*
X117279331Y-49963921D01*
X117349738Y-49897703D01*
X117425732Y-49815926D01*
X117498075Y-49730653D01*
X117497036Y-49509425D01*
X117497033Y-49508868D01*
X117491615Y-49337614D01*
X117476460Y-49183258D01*
X117450570Y-49038512D01*
X117412944Y-48896090D01*
X117400220Y-48855149D01*
X117387933Y-48820101D01*
X117378835Y-48803579D01*
X117370756Y-48802031D01*
X117361526Y-48811904D01*
X117344087Y-48835165D01*
X117259125Y-48936953D01*
X117157946Y-49043353D01*
X117046135Y-49149022D01*
X116929277Y-49248614D01*
X116812955Y-49336788D01*
X116793267Y-49350891D01*
X116742255Y-49390380D01*
X116713465Y-49418565D01*
X116706429Y-49435883D01*
X111791537Y-49435883D01*
X111791612Y-49431137D01*
X111780303Y-49414349D01*
X113223217Y-49414349D01*
X113232573Y-49413642D01*
X113340646Y-49405484D01*
X113374834Y-49402910D01*
X113432816Y-49397689D01*
X113469741Y-49390761D01*
X113488746Y-49379306D01*
X113489900Y-49374171D01*
X115003957Y-49374171D01*
X115015439Y-49387681D01*
X115043088Y-49395635D01*
X115090044Y-49400799D01*
X115159448Y-49405942D01*
X115272036Y-49414289D01*
X115271021Y-49376977D01*
X115269148Y-49348277D01*
X115265552Y-49326798D01*
X115262227Y-49308901D01*
X115257571Y-49272950D01*
X115252676Y-49227077D01*
X115247634Y-49187820D01*
X115238923Y-49152604D01*
X115228727Y-49140223D01*
X115213623Y-49143366D01*
X115180469Y-49153860D01*
X115138692Y-49169174D01*
X115108411Y-49181295D01*
X115081189Y-49195620D01*
X115062774Y-49214176D01*
X115047157Y-49243560D01*
X115028328Y-49290372D01*
X115016936Y-49319409D01*
X115005503Y-49352336D01*
X115003957Y-49374171D01*
X113489900Y-49374171D01*
X113492971Y-49360506D01*
X113485552Y-49331541D01*
X113469628Y-49289590D01*
X113457811Y-49259572D01*
X113441619Y-49224792D01*
X113424274Y-49202996D01*
X113399417Y-49187237D01*
X113360690Y-49170568D01*
X113324990Y-49156745D01*
X113290004Y-49144813D01*
X113270488Y-49140223D01*
X113262853Y-49146879D01*
X113253637Y-49176387D01*
X113246541Y-49227077D01*
X113242020Y-49271237D01*
X113235976Y-49324113D01*
X113230713Y-49364140D01*
X113223217Y-49414349D01*
X111780303Y-49414349D01*
X111777774Y-49410595D01*
X111742539Y-49379342D01*
X111685221Y-49336737D01*
X111626345Y-49293831D01*
X111538491Y-49221482D01*
X112258035Y-49221482D01*
X112263865Y-49232235D01*
X112264720Y-49232769D01*
X112300113Y-49250010D01*
X112354988Y-49271248D01*
X112423931Y-49294849D01*
X112501526Y-49319178D01*
X112582356Y-49342600D01*
X112661007Y-49363480D01*
X112732061Y-49380185D01*
X112790103Y-49391078D01*
X112849457Y-49399961D01*
X112858819Y-49292632D01*
X112865897Y-49225483D01*
X112875820Y-49149418D01*
X112886302Y-49082342D01*
X112888520Y-49069593D01*
X112896595Y-49020309D01*
X112902234Y-48981299D01*
X112904328Y-48960081D01*
X112904326Y-48959990D01*
X112893969Y-48943669D01*
X112867212Y-48919555D01*
X112829802Y-48892834D01*
X112812497Y-48881287D01*
X112762932Y-48845762D01*
X112707011Y-48803209D01*
X112653844Y-48760479D01*
X112552316Y-48676071D01*
X112523241Y-48711921D01*
X112511558Y-48727198D01*
X112478110Y-48776574D01*
X112438756Y-48840278D01*
X112397068Y-48912063D01*
X112356616Y-48985685D01*
X112320971Y-49054897D01*
X112293702Y-49113453D01*
X112274022Y-49161254D01*
X112261089Y-49199143D01*
X112258035Y-49221482D01*
X111538491Y-49221482D01*
X111457188Y-49154528D01*
X111297843Y-48997544D01*
X111144123Y-48818871D01*
X111118716Y-48787034D01*
X111089981Y-48883208D01*
X111080786Y-48914369D01*
X111054853Y-49009178D01*
X111035703Y-49094521D01*
X111022372Y-49177422D01*
X111013891Y-49264908D01*
X111009295Y-49364004D01*
X111007616Y-49481734D01*
X111006535Y-49739609D01*
X110544207Y-49739609D01*
X110430784Y-49543544D01*
X110329008Y-49317014D01*
X110249812Y-49079581D01*
X110193731Y-48832833D01*
X110161301Y-48578360D01*
X110154097Y-48408448D01*
X110154737Y-48393921D01*
X110544043Y-48393921D01*
X110544619Y-48481382D01*
X110547564Y-48591369D01*
X110553676Y-48685446D01*
X110563705Y-48769402D01*
X110578399Y-48849028D01*
X110598505Y-48930112D01*
X110624773Y-49018445D01*
X110627553Y-49027245D01*
X110639772Y-49064026D01*
X110647318Y-49079363D01*
X110652546Y-49075977D01*
X110657812Y-49056585D01*
X110684038Y-48945908D01*
X110711411Y-48840773D01*
X110738807Y-48748168D01*
X110768255Y-48661286D01*
X110801781Y-48573321D01*
X110812268Y-48546886D01*
X110835479Y-48487076D01*
X110854038Y-48437405D01*
X110866264Y-48402439D01*
X110868550Y-48393921D01*
X111307957Y-48393921D01*
X111362064Y-48474341D01*
X111392298Y-48517432D01*
X111451401Y-48595063D01*
X111516624Y-48674491D01*
X111581401Y-48747830D01*
X111639168Y-48807193D01*
X111669426Y-48835431D01*
X111718343Y-48879051D01*
X111769019Y-48922341D01*
X111817290Y-48961913D01*
X111858989Y-48994374D01*
X111889951Y-49016334D01*
X111906010Y-49024403D01*
X111908706Y-49023244D01*
X111922566Y-49005943D01*
X111941971Y-48972223D01*
X111963603Y-48927658D01*
X111985441Y-48880904D01*
X112053233Y-48751115D01*
X112130699Y-48620563D01*
X112138939Y-48608299D01*
X113689362Y-48608299D01*
X113690523Y-48609635D01*
X113769782Y-48700816D01*
X113778289Y-48710478D01*
X113829447Y-48765190D01*
X113885971Y-48821399D01*
X113937106Y-48868336D01*
X114024010Y-48943339D01*
X114142983Y-48950309D01*
X114152914Y-48950843D01*
X114226082Y-48952769D01*
X114249837Y-48952576D01*
X114304260Y-48952136D01*
X114372133Y-48949030D01*
X114482310Y-48940780D01*
X115593388Y-48940780D01*
X115600719Y-48992249D01*
X115602571Y-49005100D01*
X115609060Y-49049222D01*
X115617499Y-49105857D01*
X115626543Y-49165957D01*
X115630212Y-49191290D01*
X115637817Y-49251750D01*
X115643107Y-49305371D01*
X115645111Y-49342882D01*
X115645535Y-49356378D01*
X115650431Y-49386005D01*
X115659250Y-49397568D01*
X115688196Y-49395206D01*
X115743738Y-49385572D01*
X115813790Y-49369908D01*
X115892811Y-49349721D01*
X115975263Y-49326516D01*
X116055606Y-49301800D01*
X116128301Y-49277078D01*
X116187809Y-49253856D01*
X116211537Y-49243022D01*
X116239038Y-49228212D01*
X116249612Y-49219059D01*
X116245949Y-49206198D01*
X116233031Y-49173816D01*
X116213329Y-49128780D01*
X116189504Y-49076858D01*
X116164214Y-49023822D01*
X116140117Y-48975441D01*
X116119872Y-48937486D01*
X116100465Y-48904207D01*
X116069809Y-48854255D01*
X116036945Y-48802906D01*
X116004995Y-48754832D01*
X115977081Y-48714708D01*
X115956325Y-48687207D01*
X115945850Y-48677001D01*
X115934992Y-48683614D01*
X115910215Y-48703375D01*
X115877649Y-48731687D01*
X115860274Y-48746658D01*
X115814584Y-48783205D01*
X115760080Y-48824303D01*
X115705102Y-48863576D01*
X115593388Y-48940780D01*
X114482310Y-48940780D01*
X114569236Y-48864452D01*
X114573824Y-48860395D01*
X114627174Y-48810277D01*
X114683908Y-48752817D01*
X114732488Y-48699661D01*
X114808814Y-48611199D01*
X114808814Y-48396377D01*
X115400709Y-48396377D01*
X115405440Y-48415736D01*
X115418148Y-48448451D01*
X115435345Y-48486723D01*
X115453535Y-48523184D01*
X115469220Y-48550464D01*
X115478907Y-48561195D01*
X115485048Y-48558440D01*
X115508396Y-48542816D01*
X115543845Y-48516471D01*
X115586521Y-48482947D01*
X115612186Y-48461904D01*
X115649039Y-48430026D01*
X115674370Y-48405891D01*
X115682101Y-48395750D01*
X116211157Y-48395750D01*
X116287387Y-48500991D01*
X116346954Y-48588572D01*
X116378003Y-48634223D01*
X116463390Y-48778080D01*
X116531968Y-48915206D01*
X116541243Y-48935448D01*
X116562633Y-48978425D01*
X116580232Y-49008857D01*
X116590932Y-49021163D01*
X116595554Y-49020759D01*
X116619332Y-49008494D01*
X116656482Y-48982250D01*
X116703398Y-48945057D01*
X116756475Y-48899946D01*
X116812107Y-48849947D01*
X116866691Y-48798090D01*
X116916620Y-48747405D01*
X116956263Y-48704171D01*
X117010823Y-48641360D01*
X117061768Y-48579409D01*
X117101813Y-48526990D01*
X117120672Y-48500451D01*
X117150307Y-48457428D01*
X117172196Y-48423933D01*
X117182602Y-48405579D01*
X117180759Y-48393315D01*
X117624211Y-48393315D01*
X117677548Y-48517663D01*
X117682801Y-48530095D01*
X117717073Y-48618900D01*
X117752250Y-48721355D01*
X117785431Y-48828197D01*
X117813716Y-48930161D01*
X117834204Y-49017984D01*
X117849734Y-49095187D01*
X117874125Y-49017984D01*
X117877404Y-49007342D01*
X117892756Y-48953054D01*
X117909535Y-48888337D01*
X117924655Y-48824975D01*
X117930638Y-48796671D01*
X117939018Y-48746587D01*
X117945240Y-48690773D01*
X117949697Y-48624229D01*
X117952779Y-48541957D01*
X117954879Y-48438956D01*
X117955168Y-48418621D01*
X117955979Y-48336514D01*
X117956168Y-48262104D01*
X117955758Y-48199901D01*
X117954774Y-48154411D01*
X117953239Y-48130142D01*
X117947781Y-48096593D01*
X117936826Y-48038225D01*
X117923388Y-47973386D01*
X117908546Y-47906605D01*
X117893381Y-47842409D01*
X117878973Y-47785329D01*
X117866403Y-47739891D01*
X117856752Y-47710624D01*
X117851100Y-47702058D01*
X117849044Y-47707555D01*
X117842170Y-47733518D01*
X117832170Y-47775585D01*
X117820423Y-47828092D01*
X117806768Y-47887266D01*
X117750591Y-48080469D01*
X117675523Y-48274596D01*
X117624211Y-48393315D01*
X117180759Y-48393315D01*
X117180252Y-48389941D01*
X117163744Y-48356602D01*
X117134719Y-48310516D01*
X117095668Y-48255192D01*
X117049086Y-48194135D01*
X116997465Y-48130854D01*
X116943297Y-48068857D01*
X116937203Y-48062209D01*
X116894888Y-48018566D01*
X116844877Y-47970251D01*
X116790898Y-47920503D01*
X116736678Y-47872559D01*
X116685945Y-47829658D01*
X116642426Y-47795039D01*
X116609848Y-47771939D01*
X116591938Y-47763597D01*
X116589139Y-47764920D01*
X116575570Y-47782754D01*
X116556718Y-47817039D01*
X116535769Y-47862188D01*
X116525505Y-47885336D01*
X116477666Y-47981566D01*
X116418360Y-48087110D01*
X116352108Y-48194212D01*
X116283431Y-48295114D01*
X116211157Y-48395750D01*
X115682101Y-48395750D01*
X115683789Y-48393535D01*
X115681392Y-48389496D01*
X115663745Y-48371927D01*
X115633377Y-48345350D01*
X115595593Y-48314032D01*
X115555697Y-48282240D01*
X115518994Y-48254241D01*
X115490786Y-48234300D01*
X115476378Y-48226686D01*
X115475854Y-48226816D01*
X115466504Y-48239684D01*
X115451529Y-48268476D01*
X115434195Y-48305867D01*
X115417769Y-48344531D01*
X115405519Y-48377143D01*
X115400709Y-48396377D01*
X114808814Y-48396377D01*
X114808814Y-48177001D01*
X114730605Y-48087024D01*
X114725307Y-48080982D01*
X114674208Y-48026154D01*
X114616053Y-47968246D01*
X114562419Y-47918837D01*
X114472442Y-47840628D01*
X114024183Y-47840628D01*
X113950060Y-47905993D01*
X113898878Y-47952976D01*
X113840872Y-48010123D01*
X113787434Y-48066530D01*
X113743576Y-48116885D01*
X113714307Y-48155876D01*
X113704966Y-48172959D01*
X113698181Y-48193840D01*
X113693684Y-48222680D01*
X113691023Y-48263924D01*
X113689749Y-48322012D01*
X113689410Y-48401388D01*
X113689362Y-48608299D01*
X112138939Y-48608299D01*
X112150597Y-48590949D01*
X112210953Y-48501122D01*
X112233069Y-48470254D01*
X112260634Y-48430992D01*
X112279367Y-48403286D01*
X112283735Y-48395798D01*
X112817157Y-48395798D01*
X112822888Y-48403045D01*
X112845369Y-48424364D01*
X112880568Y-48454829D01*
X112923989Y-48490455D01*
X113026697Y-48572742D01*
X113068516Y-48481657D01*
X113073529Y-48470710D01*
X113092082Y-48429672D01*
X113104862Y-48400537D01*
X113109348Y-48389030D01*
X113103756Y-48377771D01*
X113089919Y-48349478D01*
X113070852Y-48310319D01*
X113050974Y-48271656D01*
X113033770Y-48242331D01*
X113023586Y-48229941D01*
X113017096Y-48231470D01*
X112993972Y-48245101D01*
X112960290Y-48269040D01*
X112921299Y-48299069D01*
X112882243Y-48330975D01*
X112848370Y-48360542D01*
X112824926Y-48383555D01*
X112817157Y-48395798D01*
X112283735Y-48395798D01*
X112286096Y-48391750D01*
X112279024Y-48380833D01*
X112259637Y-48353271D01*
X112230954Y-48313332D01*
X112195987Y-48265248D01*
X112189250Y-48255881D01*
X112147581Y-48193017D01*
X112101167Y-48116326D01*
X112054823Y-48034005D01*
X112013361Y-47954249D01*
X111991247Y-47910232D01*
X111961009Y-47852551D01*
X111935300Y-47806441D01*
X111916313Y-47775782D01*
X111906238Y-47764457D01*
X111906063Y-47764450D01*
X111890041Y-47772472D01*
X111859220Y-47794428D01*
X111817655Y-47826927D01*
X111769396Y-47866576D01*
X111718497Y-47909981D01*
X111669010Y-47953751D01*
X111624986Y-47994492D01*
X111590479Y-48028813D01*
X111532981Y-48092486D01*
X111443333Y-48202414D01*
X111360744Y-48316188D01*
X111307957Y-48393921D01*
X110868550Y-48393921D01*
X110870475Y-48386745D01*
X110870419Y-48386272D01*
X110864268Y-48368007D01*
X110850180Y-48333915D01*
X110831030Y-48290983D01*
X110812161Y-48247649D01*
X110775160Y-48151200D01*
X110738500Y-48042332D01*
X110704962Y-47929543D01*
X110677326Y-47821327D01*
X110647673Y-47692654D01*
X110624127Y-47769396D01*
X110601768Y-47845301D01*
X110580852Y-47926974D01*
X110565469Y-48004636D01*
X110554858Y-48084224D01*
X110548258Y-48171675D01*
X110544907Y-48272929D01*
X110544043Y-48393921D01*
X110154737Y-48393921D01*
X110164850Y-48164419D01*
X110199623Y-47921177D01*
X110257628Y-47681774D01*
X110338081Y-47449263D01*
X110440196Y-47226695D01*
X110455273Y-47201004D01*
X111001341Y-47201004D01*
X111002069Y-47272882D01*
X111004043Y-47350365D01*
X111007331Y-47427276D01*
X111017633Y-47559857D01*
X111034254Y-47679519D01*
X111058467Y-47794442D01*
X111091543Y-47912806D01*
X111118716Y-48000784D01*
X111118722Y-48000803D01*
X111159133Y-47949980D01*
X111182015Y-47921683D01*
X111332724Y-47754768D01*
X111500713Y-47598355D01*
X111544971Y-47563777D01*
X112248227Y-47563777D01*
X112249388Y-47567462D01*
X112258246Y-47589896D01*
X112273925Y-47627731D01*
X112294148Y-47675430D01*
X112304017Y-47697593D01*
X112335229Y-47761382D01*
X112373418Y-47833317D01*
X112414987Y-47907117D01*
X112456340Y-47976498D01*
X112493879Y-48035181D01*
X112524009Y-48076883D01*
X112552316Y-48111803D01*
X112553851Y-48113696D01*
X112647134Y-48035372D01*
X112658982Y-48025523D01*
X112714664Y-47981083D01*
X112772611Y-47937184D01*
X112822030Y-47902055D01*
X112855426Y-47879122D01*
X112882800Y-47856266D01*
X112897013Y-47833803D01*
X115597575Y-47833803D01*
X115606139Y-47850649D01*
X115628000Y-47869075D01*
X115667485Y-47895008D01*
X115684447Y-47906197D01*
X115734355Y-47941669D01*
X115790542Y-47984205D01*
X115843773Y-48026897D01*
X115874186Y-48051994D01*
X115911727Y-48082366D01*
X115938350Y-48103142D01*
X115945850Y-48108247D01*
X115949663Y-48110841D01*
X115954001Y-48107835D01*
X115970430Y-48087191D01*
X115995385Y-48050580D01*
X116026261Y-48002284D01*
X116060454Y-47946580D01*
X116095358Y-47887748D01*
X116128368Y-47830067D01*
X116156879Y-47777816D01*
X116178288Y-47735274D01*
X116182968Y-47725304D01*
X116213022Y-47661330D01*
X116232452Y-47616181D01*
X116240701Y-47585528D01*
X116237211Y-47565048D01*
X116221425Y-47550413D01*
X116192785Y-47537297D01*
X116150736Y-47521375D01*
X116142023Y-47518067D01*
X116070257Y-47492781D01*
X115990406Y-47467444D01*
X115907862Y-47443493D01*
X115828018Y-47422364D01*
X115756264Y-47405493D01*
X115697993Y-47394318D01*
X115658597Y-47390273D01*
X115655057Y-47392210D01*
X115647906Y-47411559D01*
X115644952Y-47444959D01*
X115644881Y-47449464D01*
X115641978Y-47492160D01*
X115635327Y-47554071D01*
X115625600Y-47629890D01*
X115613473Y-47714310D01*
X115599617Y-47802026D01*
X115597983Y-47812611D01*
X115597575Y-47833803D01*
X112897013Y-47833803D01*
X112897486Y-47833056D01*
X112901400Y-47803271D01*
X112896462Y-47760689D01*
X112884587Y-47699088D01*
X112883312Y-47692554D01*
X112873990Y-47635422D01*
X112865212Y-47567768D01*
X112858727Y-47502862D01*
X112856656Y-47479730D01*
X112851106Y-47433904D01*
X112845175Y-47402149D01*
X112839838Y-47390273D01*
X112832877Y-47390805D01*
X112801327Y-47395926D01*
X112754046Y-47405321D01*
X112697541Y-47417554D01*
X112638318Y-47431191D01*
X112582882Y-47444794D01*
X112537741Y-47456930D01*
X112495183Y-47470008D01*
X112442048Y-47487697D01*
X112386559Y-47507199D01*
X112334075Y-47526535D01*
X112289953Y-47543728D01*
X112259551Y-47556801D01*
X112248227Y-47563777D01*
X111544971Y-47563777D01*
X111678850Y-47459180D01*
X111721743Y-47428094D01*
X111760784Y-47398355D01*
X111786940Y-47376704D01*
X111789903Y-47373365D01*
X113223195Y-47373365D01*
X113230702Y-47423638D01*
X113234942Y-47455325D01*
X113240960Y-47506893D01*
X113246541Y-47560765D01*
X113251849Y-47601474D01*
X113260325Y-47635417D01*
X113269924Y-47647619D01*
X113270488Y-47647499D01*
X113285163Y-47644380D01*
X113318312Y-47633827D01*
X113360180Y-47618489D01*
X113390863Y-47606262D01*
X113418266Y-47591940D01*
X113436661Y-47573465D01*
X113452106Y-47544205D01*
X113470656Y-47497529D01*
X113505927Y-47405699D01*
X113505555Y-47405623D01*
X114992629Y-47405623D01*
X115028406Y-47497670D01*
X115043099Y-47534748D01*
X115058950Y-47567776D01*
X115076148Y-47588364D01*
X115100720Y-47603124D01*
X115138692Y-47618668D01*
X115174040Y-47631764D01*
X115208972Y-47643212D01*
X115228290Y-47647619D01*
X115228727Y-47647418D01*
X115232550Y-47645666D01*
X115243162Y-47626310D01*
X115250923Y-47592933D01*
X115254788Y-47563183D01*
X115261145Y-47509992D01*
X115267146Y-47455773D01*
X115275825Y-47373300D01*
X115174209Y-47381298D01*
X115167593Y-47381829D01*
X115113198Y-47386893D01*
X115064949Y-47392475D01*
X115032611Y-47397459D01*
X114992629Y-47405623D01*
X113505555Y-47405623D01*
X113465755Y-47397497D01*
X113463146Y-47396988D01*
X113428345Y-47391851D01*
X113378818Y-47386257D01*
X113324389Y-47381330D01*
X113223195Y-47373365D01*
X111789903Y-47373365D01*
X111792027Y-47370972D01*
X116703144Y-47370972D01*
X116730611Y-47390273D01*
X116815231Y-47451817D01*
X116937507Y-47547921D01*
X117053772Y-47647507D01*
X117159813Y-47746753D01*
X117251416Y-47841836D01*
X117324367Y-47928934D01*
X117370756Y-47989943D01*
X117375836Y-47996624D01*
X117391359Y-47958693D01*
X117407884Y-47911505D01*
X117427584Y-47842185D01*
X117447237Y-47761569D01*
X117465045Y-47677083D01*
X117479207Y-47596150D01*
X117480690Y-47585863D01*
X117487533Y-47521041D01*
X117493013Y-47440448D01*
X117496659Y-47352384D01*
X117497999Y-47265148D01*
X117498075Y-47056385D01*
X117419683Y-46965303D01*
X117351327Y-46891821D01*
X117249348Y-46796420D01*
X117135459Y-46702697D01*
X117016460Y-46616535D01*
X117003391Y-46607802D01*
X116945922Y-46570989D01*
X116888414Y-46536339D01*
X116835189Y-46506230D01*
X116790565Y-46483038D01*
X116758864Y-46469138D01*
X116744407Y-46466907D01*
X116743657Y-46472115D01*
X116744601Y-46498040D01*
X116748064Y-46540348D01*
X116753621Y-46593205D01*
X116754227Y-46598644D01*
X116760270Y-46688159D01*
X116761669Y-46794652D01*
X116758741Y-46910396D01*
X116751804Y-47027665D01*
X116741176Y-47138730D01*
X116727176Y-47235866D01*
X116703144Y-47370972D01*
X111792027Y-47370972D01*
X111796071Y-47366416D01*
X111772795Y-47242700D01*
X111751200Y-47078409D01*
X111738979Y-46913329D01*
X111736678Y-46755476D01*
X111740057Y-46696443D01*
X112121901Y-46696443D01*
X112122214Y-46772910D01*
X112124160Y-46869149D01*
X112124409Y-46878991D01*
X112126867Y-46959423D01*
X112129811Y-47032393D01*
X112133006Y-47093335D01*
X112136217Y-47137680D01*
X112139208Y-47160862D01*
X112147900Y-47195230D01*
X112207714Y-47169586D01*
X112208004Y-47169472D01*
X114080542Y-47169472D01*
X114080670Y-47169664D01*
X114095694Y-47179910D01*
X114127643Y-47196234D01*
X114169794Y-47215194D01*
X114252517Y-47250352D01*
X114337657Y-47211748D01*
X114342948Y-47209328D01*
X114383274Y-47189370D01*
X114411619Y-47172690D01*
X114422134Y-47162686D01*
X114420261Y-47157390D01*
X114405871Y-47134626D01*
X114380908Y-47100952D01*
X114349704Y-47061621D01*
X114316589Y-47021885D01*
X114285894Y-46986999D01*
X114261950Y-46962215D01*
X114249088Y-46952786D01*
X114241225Y-46956811D01*
X114219971Y-46976859D01*
X114191362Y-47009078D01*
X114159471Y-47048233D01*
X114128370Y-47089086D01*
X114102133Y-47126401D01*
X114084833Y-47154942D01*
X114080542Y-47169472D01*
X112208004Y-47169472D01*
X112272362Y-47144176D01*
X112389167Y-47106137D01*
X112523226Y-47070225D01*
X112669413Y-47037769D01*
X112822603Y-47010098D01*
X112839537Y-47006806D01*
X112839838Y-47006649D01*
X112853714Y-46999433D01*
X112862928Y-46983234D01*
X112866481Y-46967910D01*
X113253731Y-46967910D01*
X113259717Y-46983967D01*
X113272919Y-46991958D01*
X113293693Y-46995977D01*
X113320902Y-46999654D01*
X113368000Y-47005942D01*
X113427417Y-47013828D01*
X113492393Y-47022413D01*
X113493540Y-47022564D01*
X113555585Y-47031129D01*
X113609171Y-47039219D01*
X113648605Y-47045930D01*
X113668196Y-47050355D01*
X113681656Y-47047703D01*
X113706747Y-47024272D01*
X113741322Y-46977797D01*
X113752651Y-46961440D01*
X113790469Y-46909302D01*
X113834561Y-46851008D01*
X113877550Y-46796381D01*
X113901754Y-46766158D01*
X113931587Y-46728091D01*
X113952005Y-46700989D01*
X113957649Y-46692297D01*
X114548356Y-46692297D01*
X114558017Y-46713679D01*
X114580903Y-46746480D01*
X114619140Y-46794435D01*
X114634646Y-46813551D01*
X114679384Y-46870742D01*
X114722456Y-46928298D01*
X114756341Y-46976250D01*
X114785512Y-47016686D01*
X114809319Y-47041691D01*
X114812163Y-47044677D01*
X114829980Y-47050355D01*
X114830123Y-47050302D01*
X114850116Y-47045827D01*
X114889852Y-47039085D01*
X114943639Y-47030978D01*
X115005784Y-47022413D01*
X115067709Y-47014232D01*
X115127547Y-47006291D01*
X115175392Y-46999907D01*
X115204483Y-46995977D01*
X115228796Y-46990986D01*
X115243080Y-46977910D01*
X115245695Y-46948986D01*
X115245681Y-46948263D01*
X115241160Y-46910134D01*
X115229866Y-46853688D01*
X115213362Y-46784782D01*
X115193207Y-46709275D01*
X115170965Y-46633024D01*
X115148197Y-46561886D01*
X115126464Y-46501719D01*
X115122466Y-46491592D01*
X115101801Y-46442390D01*
X115086062Y-46412958D01*
X115072635Y-46399253D01*
X115058904Y-46397229D01*
X115048134Y-46399746D01*
X115007168Y-46414696D01*
X114951580Y-46439663D01*
X114886116Y-46472040D01*
X114815522Y-46509218D01*
X114744541Y-46548592D01*
X114677920Y-46587554D01*
X114620404Y-46623498D01*
X114576738Y-46653816D01*
X114551667Y-46675901D01*
X114549794Y-46678597D01*
X114548356Y-46692297D01*
X113957649Y-46692297D01*
X113959574Y-46689333D01*
X113959549Y-46688858D01*
X113947635Y-46673180D01*
X113916586Y-46648560D01*
X113870224Y-46617224D01*
X113812371Y-46581396D01*
X113746851Y-46543302D01*
X113677484Y-46505168D01*
X113608094Y-46469218D01*
X113542503Y-46437678D01*
X113484533Y-46412774D01*
X113421720Y-46388015D01*
X113392897Y-46454874D01*
X113330141Y-46623331D01*
X113278195Y-46817987D01*
X113275507Y-46830414D01*
X113261983Y-46895227D01*
X113254605Y-46939695D01*
X113253731Y-46967910D01*
X112866481Y-46967910D01*
X112870018Y-46952655D01*
X112877827Y-46902141D01*
X112893062Y-46812996D01*
X112923126Y-46676883D01*
X112960083Y-46541817D01*
X113000786Y-46420140D01*
X113013682Y-46385442D01*
X113023586Y-46358230D01*
X113030343Y-46339666D01*
X113041761Y-46307055D01*
X113045998Y-46293058D01*
X113040780Y-46286943D01*
X113018691Y-46280369D01*
X112977710Y-46274823D01*
X112916127Y-46270143D01*
X112832232Y-46266169D01*
X112724316Y-46262738D01*
X112630049Y-46260661D01*
X112554586Y-46260269D01*
X112492701Y-46261873D01*
X112438312Y-46265762D01*
X112385336Y-46272225D01*
X112327690Y-46281549D01*
X112274001Y-46291326D01*
X112224596Y-46301142D01*
X112189924Y-46308978D01*
X112175312Y-46313711D01*
X112171113Y-46326265D01*
X112163508Y-46359469D01*
X112153839Y-46407853D01*
X112143227Y-46466089D01*
X112142595Y-46469724D01*
X112133569Y-46526387D01*
X112127298Y-46579109D01*
X112123503Y-46633818D01*
X112121901Y-46696443D01*
X111740057Y-46696443D01*
X111744840Y-46612867D01*
X111749419Y-46564609D01*
X111753156Y-46515498D01*
X111754672Y-46481073D01*
X111753640Y-46466778D01*
X111752395Y-46466192D01*
X111734292Y-46470971D01*
X111699684Y-46487083D01*
X111652739Y-46512150D01*
X111597624Y-46543793D01*
X111538508Y-46579633D01*
X111479559Y-46617292D01*
X111424944Y-46654389D01*
X111413382Y-46662716D01*
X111355180Y-46708040D01*
X111288431Y-46764268D01*
X111220502Y-46825043D01*
X111158761Y-46884010D01*
X111142549Y-46900204D01*
X111089328Y-46954638D01*
X111051736Y-46996005D01*
X111027055Y-47027707D01*
X111012568Y-47053142D01*
X111005557Y-47075712D01*
X111003506Y-47095447D01*
X111001830Y-47140077D01*
X111001341Y-47201004D01*
X110455273Y-47201004D01*
X110563188Y-47017122D01*
X110564877Y-47014558D01*
X110601226Y-46957734D01*
X110626508Y-46912343D01*
X110644558Y-46869302D01*
X110647673Y-46858719D01*
X110659211Y-46819524D01*
X110674303Y-46753924D01*
X110714901Y-46592120D01*
X110795622Y-46354495D01*
X110802841Y-46338576D01*
X111215222Y-46338576D01*
X111291020Y-46287156D01*
X111365229Y-46239907D01*
X111480356Y-46174985D01*
X111605193Y-46112561D01*
X111730906Y-46057252D01*
X111749478Y-46049683D01*
X113612496Y-46049683D01*
X113769951Y-46125895D01*
X113774600Y-46128158D01*
X113848263Y-46166508D01*
X113932061Y-46213788D01*
X114016034Y-46264209D01*
X114024183Y-46269457D01*
X114090221Y-46311984D01*
X114249088Y-46419198D01*
X114253036Y-46421862D01*
X114360434Y-46345059D01*
X114442997Y-46288835D01*
X115456463Y-46288835D01*
X115461045Y-46306360D01*
X115472413Y-46342525D01*
X115476378Y-46354466D01*
X115489094Y-46392761D01*
X115509614Y-46452500D01*
X115516894Y-46473939D01*
X115539752Y-46547488D01*
X115562644Y-46629245D01*
X115584276Y-46713753D01*
X115603354Y-46795551D01*
X115618584Y-46869182D01*
X115628670Y-46929185D01*
X115632320Y-46970101D01*
X115632332Y-46983927D01*
X115634894Y-46994094D01*
X115643804Y-47001923D01*
X115658597Y-47007244D01*
X115662861Y-47008777D01*
X115695862Y-47016021D01*
X115746608Y-47025021D01*
X115818896Y-47037141D01*
X115862877Y-47045314D01*
X115951062Y-47065030D01*
X116045995Y-47089593D01*
X116139639Y-47116745D01*
X116223961Y-47144228D01*
X116290925Y-47169785D01*
X116351202Y-47195627D01*
X116358670Y-47161061D01*
X116358712Y-47160866D01*
X116362593Y-47134574D01*
X116367619Y-47089043D01*
X116373143Y-47030620D01*
X116378522Y-46965653D01*
X116378910Y-46960600D01*
X116383448Y-46898788D01*
X116386927Y-46846488D01*
X116389012Y-46809081D01*
X116389366Y-46791945D01*
X116388529Y-46783251D01*
X116385878Y-46752457D01*
X116382046Y-46706119D01*
X116377546Y-46650405D01*
X116373423Y-46606800D01*
X116365973Y-46544440D01*
X116356939Y-46480148D01*
X116347214Y-46419425D01*
X116337692Y-46367772D01*
X116329267Y-46330690D01*
X116322833Y-46313680D01*
X116322031Y-46313174D01*
X116304310Y-46307719D01*
X116269057Y-46299145D01*
X116222852Y-46289072D01*
X116211183Y-46286825D01*
X116147686Y-46278099D01*
X116066578Y-46270901D01*
X115974030Y-46265410D01*
X115876211Y-46261805D01*
X115779294Y-46260263D01*
X115689449Y-46260963D01*
X115612846Y-46264083D01*
X115555657Y-46269802D01*
X115546828Y-46271188D01*
X115502076Y-46278598D01*
X115469814Y-46284570D01*
X115456523Y-46287921D01*
X115456463Y-46288835D01*
X114442997Y-46288835D01*
X114471937Y-46269127D01*
X114613398Y-46184937D01*
X114766441Y-46107759D01*
X114802820Y-46090563D01*
X114845778Y-46069639D01*
X114875142Y-46054552D01*
X114886018Y-46047755D01*
X114882983Y-46041290D01*
X114865794Y-46017789D01*
X114836410Y-45981762D01*
X114798254Y-45937080D01*
X114754749Y-45887616D01*
X114709318Y-45837242D01*
X114665385Y-45789831D01*
X114626373Y-45749253D01*
X114595706Y-45719382D01*
X114572093Y-45698179D01*
X114517639Y-45651568D01*
X114458645Y-45603452D01*
X114399890Y-45557524D01*
X114346152Y-45517477D01*
X114302209Y-45487006D01*
X114272840Y-45469805D01*
X114267559Y-45467740D01*
X114248663Y-45465770D01*
X114224798Y-45472306D01*
X114193086Y-45489038D01*
X114150653Y-45517660D01*
X114094622Y-45559865D01*
X114022118Y-45617343D01*
X113925649Y-45699996D01*
X113789077Y-45835170D01*
X113668596Y-45976893D01*
X113612496Y-46049683D01*
X111749478Y-46049683D01*
X111752395Y-46048494D01*
X111868206Y-46001297D01*
X111906063Y-45909055D01*
X111913620Y-45890643D01*
X112327252Y-45890643D01*
X112334100Y-45891356D01*
X112362001Y-45890366D01*
X112406034Y-45887234D01*
X112460537Y-45882313D01*
X112494048Y-45879513D01*
X112554586Y-45877235D01*
X112604660Y-45875351D01*
X112728454Y-45876758D01*
X112856640Y-45883342D01*
X112980429Y-45894710D01*
X113091033Y-45910471D01*
X113223195Y-45933779D01*
X113232573Y-45935432D01*
X113251874Y-45907237D01*
X113266255Y-45886569D01*
X113319372Y-45813909D01*
X113380121Y-45734961D01*
X113421720Y-45683273D01*
X113441259Y-45658996D01*
X113495542Y-45595289D01*
X113516723Y-45572136D01*
X113565122Y-45522203D01*
X113620665Y-45467678D01*
X113678378Y-45413211D01*
X113733290Y-45363452D01*
X113780427Y-45323054D01*
X113814818Y-45296666D01*
X113834263Y-45280984D01*
X113843769Y-45267389D01*
X113843675Y-45266818D01*
X113843616Y-45266780D01*
X114654407Y-45266780D01*
X114659695Y-45274258D01*
X114681011Y-45293326D01*
X114713093Y-45317823D01*
X114714313Y-45318702D01*
X114778233Y-45370196D01*
X114851907Y-45438329D01*
X114930987Y-45518372D01*
X115011128Y-45605598D01*
X115058904Y-45661348D01*
X115087981Y-45695278D01*
X115157200Y-45782684D01*
X115214437Y-45863088D01*
X115230046Y-45886069D01*
X115254324Y-45916774D01*
X115273062Y-45930523D01*
X115275825Y-45930627D01*
X115284904Y-45930967D01*
X115290579Y-45931178D01*
X115374572Y-45912853D01*
X115498986Y-45894596D01*
X115639126Y-45883646D01*
X115779294Y-45880056D01*
X115799595Y-45879537D01*
X115867641Y-45879606D01*
X115945787Y-45880650D01*
X116015206Y-45882585D01*
X116070231Y-45885244D01*
X116105192Y-45888462D01*
X116131898Y-45891626D01*
X116161271Y-45892355D01*
X116172650Y-45888462D01*
X116167803Y-45874713D01*
X116151431Y-45842455D01*
X116126134Y-45797229D01*
X116094659Y-45743694D01*
X116059753Y-45686507D01*
X116024162Y-45630327D01*
X115990634Y-45579812D01*
X115972477Y-45554926D01*
X115930594Y-45502919D01*
X115878109Y-45442128D01*
X115819950Y-45378204D01*
X115806304Y-45363976D01*
X116308861Y-45363976D01*
X116310160Y-45373438D01*
X116324744Y-45398041D01*
X116353164Y-45440881D01*
X116365401Y-45459415D01*
X116439842Y-45583437D01*
X116510472Y-45719315D01*
X116571129Y-45855329D01*
X116591938Y-45906631D01*
X116631140Y-46003277D01*
X116739999Y-46045363D01*
X116744407Y-46047206D01*
X116851475Y-46091961D01*
X117018685Y-46174419D01*
X117173176Y-46265637D01*
X117203532Y-46284960D01*
X117242611Y-46308438D01*
X117269389Y-46322708D01*
X117279322Y-46325218D01*
X117279124Y-46323835D01*
X117270408Y-46304272D01*
X117250865Y-46268752D01*
X117223371Y-46221997D01*
X117190807Y-46168731D01*
X117156051Y-46113674D01*
X117121981Y-46061549D01*
X117091477Y-46017078D01*
X117085886Y-46009276D01*
X116990757Y-45891108D01*
X116876636Y-45771706D01*
X116749103Y-45655831D01*
X116613736Y-45548247D01*
X116476116Y-45453719D01*
X116341821Y-45377009D01*
X116320296Y-45366552D01*
X116308861Y-45363976D01*
X115806304Y-45363976D01*
X115761050Y-45316794D01*
X115600152Y-45154105D01*
X115484346Y-45144337D01*
X115425622Y-45141552D01*
X115333889Y-45142316D01*
X115231620Y-45147432D01*
X115127048Y-45156311D01*
X115028404Y-45168363D01*
X114943921Y-45183000D01*
X114934000Y-45185114D01*
X114868522Y-45200109D01*
X114804210Y-45216398D01*
X114745854Y-45232595D01*
X114698243Y-45247315D01*
X114666164Y-45259172D01*
X114654407Y-45266780D01*
X113843616Y-45266780D01*
X113829490Y-45257647D01*
X113793173Y-45244364D01*
X113737579Y-45227824D01*
X113665566Y-45208883D01*
X113579990Y-45188396D01*
X113503876Y-45173790D01*
X113405211Y-45160173D01*
X113298924Y-45149766D01*
X113193191Y-45143209D01*
X113096187Y-45141143D01*
X113016086Y-45144208D01*
X112902538Y-45153838D01*
X112773561Y-45277633D01*
X112720703Y-45330675D01*
X112658311Y-45397787D01*
X112599486Y-45465221D01*
X112552055Y-45524261D01*
X112549051Y-45528267D01*
X112514084Y-45576955D01*
X112476208Y-45632787D01*
X112437913Y-45691707D01*
X112401686Y-45749658D01*
X112370018Y-45802584D01*
X112345397Y-45846427D01*
X112330312Y-45877133D01*
X112327252Y-45890643D01*
X111913620Y-45890643D01*
X111914555Y-45888364D01*
X111920865Y-45873112D01*
X112009961Y-45679613D01*
X112108776Y-45501788D01*
X112112486Y-45495732D01*
X112140627Y-45450083D01*
X112165362Y-45410422D01*
X112181706Y-45384748D01*
X112201614Y-45354350D01*
X112136351Y-45387421D01*
X112010566Y-45459356D01*
X111865361Y-45561171D01*
X111723014Y-45679649D01*
X111587992Y-45810419D01*
X111464768Y-45949113D01*
X111357810Y-46091359D01*
X111271588Y-46232789D01*
X111215222Y-46338576D01*
X110802841Y-46338576D01*
X110898080Y-46128562D01*
X111021061Y-45915537D01*
X111163350Y-45716641D01*
X111323735Y-45533091D01*
X111501001Y-45366106D01*
X111693935Y-45216906D01*
X111901323Y-45086708D01*
X112121951Y-44976731D01*
X112201614Y-44946415D01*
X112354606Y-44888194D01*
X112598074Y-44822316D01*
X112623842Y-44816641D01*
X112687060Y-44801538D01*
X112723308Y-44790532D01*
X113582892Y-44790532D01*
X113582967Y-44792673D01*
X113598755Y-44800627D01*
X113632605Y-44811065D01*
X113679397Y-44822301D01*
X113709886Y-44829208D01*
X113817950Y-44857980D01*
X113934681Y-44894427D01*
X114049447Y-44935078D01*
X114151617Y-44976462D01*
X114248663Y-45019132D01*
X114254272Y-45021598D01*
X114350265Y-44977246D01*
X114364998Y-44970591D01*
X114428057Y-44944128D01*
X114499297Y-44916529D01*
X114565950Y-44892794D01*
X114583747Y-44886967D01*
X114658578Y-44864366D01*
X114739857Y-44842067D01*
X114812889Y-44824156D01*
X114940134Y-44795619D01*
X114839716Y-44765808D01*
X114700475Y-44730965D01*
X114504310Y-44700347D01*
X114299785Y-44687342D01*
X114092874Y-44692011D01*
X113889552Y-44714410D01*
X113695795Y-44754598D01*
X113680530Y-44758676D01*
X113634007Y-44772007D01*
X113599262Y-44783325D01*
X113582892Y-44790532D01*
X112723308Y-44790532D01*
X112735632Y-44786790D01*
X112777560Y-44769218D01*
X112820845Y-44745642D01*
X112873489Y-44712884D01*
X113013239Y-44629467D01*
X113096187Y-44588468D01*
X113237294Y-44518723D01*
X113469455Y-44430323D01*
X113707318Y-44364887D01*
X113948478Y-44323031D01*
X114190531Y-44305375D01*
X114299785Y-44308628D01*
X114431072Y-44312535D01*
X114489645Y-44317921D01*
X114737099Y-44353694D01*
X114971085Y-44409959D01*
X115194496Y-44487686D01*
X115410225Y-44587845D01*
X115425622Y-44596864D01*
X115621165Y-44711405D01*
X115675640Y-44745743D01*
G37*
G36*
X117858359Y-56963246D02*
G01*
X117319072Y-56966603D01*
X116779785Y-56969959D01*
X117318983Y-57304508D01*
X117858182Y-57639058D01*
X117858270Y-57809549D01*
X117858359Y-57980040D01*
X116172746Y-57980040D01*
X116172746Y-57674179D01*
X116725882Y-57664646D01*
X117279019Y-57655113D01*
X116725882Y-57314756D01*
X116172746Y-56974398D01*
X116172746Y-56641844D01*
X117858359Y-56641844D01*
X117858359Y-56963246D01*
G37*
G36*
X115027558Y-60257548D02*
G01*
X114316036Y-60257548D01*
X114323750Y-60366864D01*
X114324340Y-60374862D01*
X114334295Y-60453970D01*
X114351972Y-60514893D01*
X114379998Y-60564145D01*
X114420996Y-60608241D01*
X114439149Y-60622979D01*
X114477721Y-60651808D01*
X114531330Y-60690460D01*
X114596516Y-60736472D01*
X114669822Y-60787386D01*
X114747789Y-60840740D01*
X115027558Y-61030756D01*
X115027558Y-61229613D01*
X115027436Y-61269339D01*
X115026682Y-61332386D01*
X115025353Y-61382845D01*
X115023584Y-61416333D01*
X115021508Y-61428470D01*
X115013728Y-61424751D01*
X114987190Y-61409149D01*
X114945631Y-61383571D01*
X114892775Y-61350404D01*
X114832346Y-61312038D01*
X114768069Y-61270861D01*
X114703667Y-61229261D01*
X114642865Y-61189626D01*
X114589387Y-61154346D01*
X114546957Y-61125808D01*
X114519301Y-61106401D01*
X114485669Y-61079624D01*
X114422598Y-61021626D01*
X114361605Y-60957262D01*
X114312451Y-60896438D01*
X114286174Y-60859796D01*
X114263593Y-60941473D01*
X114259500Y-60955787D01*
X114225336Y-61045412D01*
X114178547Y-61119968D01*
X114113929Y-61188029D01*
X114065074Y-61226539D01*
X113992761Y-61264178D01*
X113910285Y-61284795D01*
X113811601Y-61290437D01*
X113721657Y-61283911D01*
X113633152Y-61261409D01*
X113555361Y-61220635D01*
X113482424Y-61159254D01*
X113452828Y-61127627D01*
X113426129Y-61092999D01*
X113404025Y-61054996D01*
X113386093Y-61011136D01*
X113371914Y-60958936D01*
X113361065Y-60895912D01*
X113353126Y-60819582D01*
X113347675Y-60727462D01*
X113344292Y-60617070D01*
X113342555Y-60485922D01*
X113342043Y-60331535D01*
X113342025Y-60257548D01*
X113623194Y-60257548D01*
X113627327Y-60530978D01*
X113627511Y-60543050D01*
X113629108Y-60632348D01*
X113631007Y-60700141D01*
X113633568Y-60750213D01*
X113637151Y-60786349D01*
X113642119Y-60812333D01*
X113648831Y-60831951D01*
X113657649Y-60848987D01*
X113659271Y-60851704D01*
X113704662Y-60903337D01*
X113765005Y-60934355D01*
X113838994Y-60944072D01*
X113860991Y-60943044D01*
X113928970Y-60927456D01*
X113981200Y-60892311D01*
X114019774Y-60836360D01*
X114021620Y-60832507D01*
X114031619Y-60808319D01*
X114039035Y-60781318D01*
X114044422Y-60746919D01*
X114048334Y-60700538D01*
X114051324Y-60637592D01*
X114053947Y-60553495D01*
X114055329Y-60494019D01*
X114056325Y-60422744D01*
X114056439Y-60362124D01*
X114055668Y-60317179D01*
X114054012Y-60292933D01*
X114047936Y-60257548D01*
X113623194Y-60257548D01*
X113342025Y-60257548D01*
X113341945Y-59922999D01*
X115027558Y-59922999D01*
X115027558Y-60257548D01*
G37*
G36*
X114518416Y-58241279D02*
G01*
X114634941Y-58195725D01*
X114739414Y-58154872D01*
X114829849Y-58119495D01*
X114904259Y-58090373D01*
X114960657Y-58068282D01*
X114997058Y-58053999D01*
X115011474Y-58048301D01*
X115017099Y-58049851D01*
X115022083Y-58064622D01*
X115025306Y-58096289D01*
X115027041Y-58147795D01*
X115027558Y-58222078D01*
X115027558Y-58402532D01*
X114972872Y-58422920D01*
X114950115Y-58431363D01*
X114902638Y-58448882D01*
X114844350Y-58470319D01*
X114783080Y-58492793D01*
X114647974Y-58542277D01*
X114647974Y-59219259D01*
X114837549Y-59291266D01*
X115027124Y-59363272D01*
X115027341Y-59546631D01*
X115027307Y-59572796D01*
X115026656Y-59634723D01*
X115025315Y-59684607D01*
X115023438Y-59717883D01*
X115021178Y-59729990D01*
X115011772Y-59726573D01*
X114980615Y-59714476D01*
X114929984Y-59694547D01*
X114862253Y-59667735D01*
X114779795Y-59634989D01*
X114684985Y-59597257D01*
X114580195Y-59555487D01*
X114467800Y-59510628D01*
X114350173Y-59463629D01*
X114229688Y-59415438D01*
X114108719Y-59367003D01*
X113989639Y-59319274D01*
X113874822Y-59273198D01*
X113766642Y-59229724D01*
X113667473Y-59189801D01*
X113579687Y-59154377D01*
X113505659Y-59124401D01*
X113341258Y-59057666D01*
X113344819Y-58878037D01*
X113344865Y-58875701D01*
X113739036Y-58875701D01*
X114039098Y-58987740D01*
X114104161Y-59011945D01*
X114181043Y-59040300D01*
X114247319Y-59064464D01*
X114299619Y-59083219D01*
X114334572Y-59095350D01*
X114348809Y-59099636D01*
X114351508Y-59090594D01*
X114354284Y-59059611D01*
X114356486Y-59010551D01*
X114357937Y-58947539D01*
X114358460Y-58874699D01*
X114358460Y-58649905D01*
X114220137Y-58699632D01*
X114154789Y-58723241D01*
X114073500Y-58752798D01*
X113988573Y-58783826D01*
X113910425Y-58812530D01*
X113739036Y-58875701D01*
X113344865Y-58875701D01*
X113348379Y-58698408D01*
X114171884Y-58376693D01*
X114257158Y-58343377D01*
X114358460Y-58303792D01*
X114391826Y-58290755D01*
X114518416Y-58241279D01*
G37*
G36*
X111733536Y-58399993D02*
G01*
X111822132Y-58423953D01*
X111933921Y-58474802D01*
X112029015Y-58544541D01*
X112106248Y-58632037D01*
X112164457Y-58736158D01*
X112202475Y-58855772D01*
X112216655Y-58949624D01*
X112221864Y-59059167D01*
X112217624Y-59172531D01*
X112204506Y-59282582D01*
X112183078Y-59382185D01*
X112153911Y-59464207D01*
X112099321Y-59554454D01*
X112027705Y-59629478D01*
X111943293Y-59687155D01*
X111849678Y-59726738D01*
X111750455Y-59747481D01*
X111649217Y-59748639D01*
X111549558Y-59729463D01*
X111455072Y-59689209D01*
X111369354Y-59627129D01*
X111343216Y-59600926D01*
X111291752Y-59532622D01*
X111246027Y-59446179D01*
X111204830Y-59339095D01*
X111166950Y-59208865D01*
X111149381Y-59141696D01*
X111119701Y-59035873D01*
X111092634Y-58951674D01*
X111067012Y-58886681D01*
X111041670Y-58838475D01*
X111015443Y-58804635D01*
X110987164Y-58782743D01*
X110955668Y-58770379D01*
X110934666Y-58767551D01*
X110885943Y-58777865D01*
X110840984Y-58809007D01*
X110805273Y-58857792D01*
X110789358Y-58896475D01*
X110777594Y-58950515D01*
X110771227Y-59022290D01*
X110770296Y-59045968D01*
X110773716Y-59139862D01*
X110790589Y-59214034D01*
X110822215Y-59271029D01*
X110869889Y-59313396D01*
X110934910Y-59343682D01*
X111004594Y-59367272D01*
X111001356Y-59517995D01*
X110999657Y-59574536D01*
X110997031Y-59628167D01*
X110993951Y-59667904D01*
X110990784Y-59687828D01*
X110981661Y-59697221D01*
X110952355Y-59702215D01*
X110909066Y-59697074D01*
X110856929Y-59683264D01*
X110801081Y-59662252D01*
X110746658Y-59635504D01*
X110698796Y-59604485D01*
X110698276Y-59604089D01*
X110625257Y-59536125D01*
X110568885Y-59455405D01*
X110528124Y-59359493D01*
X110501939Y-59245956D01*
X110489292Y-59112361D01*
X110488536Y-59091360D01*
X110492794Y-58944865D01*
X110514660Y-58816920D01*
X110554291Y-58707184D01*
X110611846Y-58615318D01*
X110687483Y-58540983D01*
X110781358Y-58483840D01*
X110857651Y-58458428D01*
X110950472Y-58448187D01*
X111043864Y-58456503D01*
X111128774Y-58483387D01*
X111140662Y-58489041D01*
X111200251Y-58522081D01*
X111251428Y-58560558D01*
X111295907Y-58607335D01*
X111335406Y-58665274D01*
X111371641Y-58737241D01*
X111406327Y-58826099D01*
X111441182Y-58934711D01*
X111477921Y-59065940D01*
X111487854Y-59102672D01*
X111516088Y-59199271D01*
X111542349Y-59273915D01*
X111568343Y-59329191D01*
X111595773Y-59367682D01*
X111626347Y-59391976D01*
X111661768Y-59404656D01*
X111703742Y-59408308D01*
X111705122Y-59408304D01*
X111775624Y-59396282D01*
X111835214Y-59362514D01*
X111882493Y-59309135D01*
X111916064Y-59238282D01*
X111934529Y-59152089D01*
X111936490Y-59052694D01*
X111926972Y-58982999D01*
X111896207Y-58895223D01*
X111845706Y-58823777D01*
X111775839Y-58769137D01*
X111686976Y-58731779D01*
X111616390Y-58711259D01*
X111625050Y-58619079D01*
X111629823Y-58569811D01*
X111636194Y-58507135D01*
X111641804Y-58454929D01*
X111649899Y-58382959D01*
X111733536Y-58399993D01*
G37*
G36*
X117858359Y-60128875D02*
G01*
X117146836Y-60128875D01*
X117154636Y-60239404D01*
X117158492Y-60285601D01*
X117164431Y-60326772D01*
X117174302Y-60363392D01*
X117190065Y-60397529D01*
X117213678Y-60431246D01*
X117247103Y-60466610D01*
X117292297Y-60505686D01*
X117351220Y-60550539D01*
X117425833Y-60603235D01*
X117518095Y-60665839D01*
X117629964Y-60740417D01*
X117858359Y-60892123D01*
X117858359Y-61096413D01*
X117858331Y-61133500D01*
X117857931Y-61199658D01*
X117856731Y-61245062D01*
X117854326Y-61273153D01*
X117850313Y-61287377D01*
X117844286Y-61291176D01*
X117835841Y-61287993D01*
X117832721Y-61286215D01*
X117796534Y-61264364D01*
X117745353Y-61232050D01*
X117683251Y-61191980D01*
X117614299Y-61146861D01*
X117542571Y-61099399D01*
X117472138Y-61052303D01*
X117407073Y-61008278D01*
X117351449Y-60970032D01*
X117309337Y-60940273D01*
X117284810Y-60921707D01*
X117251720Y-60890775D01*
X117208099Y-60843711D01*
X117169725Y-60796276D01*
X117114178Y-60720821D01*
X117100349Y-60785302D01*
X117094298Y-60810426D01*
X117056038Y-60910711D01*
X116999406Y-60999182D01*
X116927500Y-61071748D01*
X116843419Y-61124322D01*
X116836116Y-61127609D01*
X116802577Y-61139732D01*
X116764991Y-61147129D01*
X116716147Y-61150820D01*
X116648835Y-61151824D01*
X116603099Y-61151508D01*
X116551396Y-61149286D01*
X116512516Y-61143853D01*
X116478745Y-61133959D01*
X116442371Y-61118354D01*
X116368818Y-61076675D01*
X116297120Y-61014081D01*
X116243691Y-60936426D01*
X116207100Y-60841528D01*
X116185914Y-60727203D01*
X116184623Y-60713608D01*
X116181486Y-60662662D01*
X116178680Y-60591922D01*
X116176308Y-60505657D01*
X116174476Y-60408140D01*
X116173288Y-60303640D01*
X116172851Y-60196428D01*
X116172834Y-60128875D01*
X116455826Y-60128875D01*
X116455826Y-60377867D01*
X116456363Y-60473220D01*
X116458456Y-60552278D01*
X116462679Y-60612850D01*
X116469603Y-60658648D01*
X116479799Y-60693383D01*
X116493838Y-60720767D01*
X116512294Y-60744510D01*
X116561281Y-60783472D01*
X116622332Y-60806321D01*
X116687391Y-60811101D01*
X116750499Y-60798229D01*
X116805699Y-60768119D01*
X116847031Y-60721186D01*
X116848764Y-60718126D01*
X116860175Y-60690036D01*
X116868957Y-60650227D01*
X116875904Y-60594027D01*
X116881811Y-60516765D01*
X116887357Y-60413773D01*
X116890346Y-60308016D01*
X116889262Y-60224281D01*
X116884097Y-60164260D01*
X116878736Y-60128875D01*
X116455826Y-60128875D01*
X116172834Y-60128875D01*
X116172746Y-59781459D01*
X117858359Y-59781459D01*
X117858359Y-60128875D01*
G37*
G36*
X112196758Y-53708105D02*
G01*
X111690839Y-53708105D01*
X111554563Y-53839995D01*
X111532667Y-53861239D01*
X111487092Y-53905817D01*
X111450008Y-53942589D01*
X111424769Y-53968212D01*
X111414729Y-53979344D01*
X111422856Y-53986121D01*
X111450819Y-54004549D01*
X111496307Y-54033007D01*
X111556844Y-54069983D01*
X111629950Y-54113965D01*
X111713150Y-54163441D01*
X111803964Y-54216898D01*
X112196758Y-54446993D01*
X112196758Y-54663010D01*
X112196520Y-54718002D01*
X112195556Y-54782144D01*
X112193982Y-54833165D01*
X112191937Y-54866861D01*
X112189561Y-54879027D01*
X112180258Y-54873803D01*
X112151289Y-54855825D01*
X112104839Y-54826371D01*
X112043072Y-54786833D01*
X111968156Y-54738600D01*
X111882254Y-54683065D01*
X111787533Y-54621619D01*
X111686157Y-54555652D01*
X111598274Y-54498531D01*
X111501799Y-54436191D01*
X111413525Y-54379538D01*
X111335670Y-54329978D01*
X111270454Y-54288914D01*
X111220098Y-54257753D01*
X111186819Y-54237897D01*
X111172839Y-54230754D01*
X111162996Y-54236707D01*
X111136274Y-54258714D01*
X111095310Y-54295007D01*
X111042323Y-54343546D01*
X110979535Y-54402294D01*
X110909166Y-54469213D01*
X110833437Y-54542265D01*
X110511145Y-54855299D01*
X110511351Y-54625902D01*
X110511556Y-54396504D01*
X110884911Y-54052305D01*
X111258265Y-53708105D01*
X110511145Y-53708105D01*
X110511145Y-53373556D01*
X112196758Y-53373556D01*
X112196758Y-53708105D01*
G37*
G36*
X111677897Y-55095920D02*
G01*
X111785905Y-55053688D01*
X111884288Y-55015197D01*
X111970445Y-54981463D01*
X112041775Y-54953501D01*
X112095680Y-54932326D01*
X112129558Y-54918955D01*
X112197464Y-54891992D01*
X112193894Y-55074064D01*
X112190324Y-55256135D01*
X112055218Y-55305603D01*
X112012026Y-55321434D01*
X111951990Y-55343491D01*
X111900438Y-55362489D01*
X111865214Y-55375539D01*
X111810317Y-55396008D01*
X111813745Y-55732298D01*
X111817173Y-56068587D01*
X112003749Y-56140444D01*
X112190324Y-56212301D01*
X112193894Y-56394904D01*
X112194287Y-56420480D01*
X112194266Y-56482326D01*
X112192853Y-56532158D01*
X112190230Y-56565409D01*
X112186581Y-56577507D01*
X112180094Y-56575396D01*
X112151743Y-56564724D01*
X112102775Y-56545734D01*
X112035142Y-56519199D01*
X111950794Y-56485891D01*
X111851684Y-56446583D01*
X111739762Y-56402049D01*
X111616979Y-56353061D01*
X111485288Y-56300392D01*
X111346638Y-56244814D01*
X110517578Y-55912121D01*
X110514015Y-55731178D01*
X110513982Y-55729521D01*
X110932244Y-55729521D01*
X110939940Y-55733536D01*
X110969153Y-55745898D01*
X111016695Y-55764837D01*
X111079129Y-55789012D01*
X111153020Y-55817081D01*
X111234929Y-55847701D01*
X111527659Y-55956298D01*
X111527659Y-55497032D01*
X111466540Y-55520610D01*
X111465636Y-55520958D01*
X111433420Y-55533095D01*
X111382180Y-55552099D01*
X111316871Y-55576143D01*
X111242445Y-55603406D01*
X111163854Y-55632063D01*
X111148152Y-55637803D01*
X111077089Y-55664526D01*
X111016521Y-55688509D01*
X110969894Y-55708303D01*
X110940653Y-55722457D01*
X110932244Y-55729521D01*
X110513982Y-55729521D01*
X110510451Y-55550234D01*
X110578351Y-55524657D01*
X110598221Y-55517030D01*
X110640488Y-55500654D01*
X110701733Y-55476850D01*
X110779356Y-55446634D01*
X110870756Y-55411022D01*
X110973333Y-55371028D01*
X111084487Y-55327669D01*
X111201618Y-55281959D01*
X111322124Y-55234914D01*
X111443407Y-55187549D01*
X111527659Y-55154633D01*
X111562864Y-55140879D01*
X111677897Y-55095920D01*
G37*
G36*
X110794225Y-60424823D02*
G01*
X112196758Y-60424823D01*
X112196758Y-60759372D01*
X110794225Y-60759372D01*
X110794225Y-61261195D01*
X110511145Y-61261195D01*
X110511145Y-59922999D01*
X110794225Y-59922999D01*
X110794225Y-60424823D01*
G37*
G36*
X111124009Y-56770537D02*
G01*
X111276271Y-56770975D01*
X111405778Y-56772096D01*
X111514848Y-56774050D01*
X111605799Y-56776986D01*
X111680950Y-56781053D01*
X111742617Y-56786400D01*
X111793118Y-56793177D01*
X111834773Y-56801532D01*
X111869897Y-56811615D01*
X111900810Y-56823576D01*
X111974140Y-56862148D01*
X112060704Y-56930967D01*
X112128601Y-57017291D01*
X112178033Y-57121397D01*
X112209203Y-57243561D01*
X112211837Y-57261480D01*
X112217850Y-57331200D01*
X112220443Y-57413874D01*
X112219647Y-57499984D01*
X112215489Y-57580011D01*
X112207998Y-57644437D01*
X112200471Y-57682128D01*
X112164780Y-57792131D01*
X112112155Y-57887852D01*
X112044496Y-57966333D01*
X111963705Y-58024619D01*
X111954223Y-58029754D01*
X111924519Y-58045167D01*
X111895878Y-58058133D01*
X111865864Y-58068890D01*
X111832041Y-58077674D01*
X111791972Y-58084720D01*
X111743222Y-58090265D01*
X111683355Y-58094545D01*
X111609933Y-58097796D01*
X111520523Y-58100254D01*
X111412686Y-58102156D01*
X111283987Y-58103736D01*
X111131991Y-58105232D01*
X110511145Y-58111018D01*
X110511145Y-57776524D01*
X111112690Y-57771677D01*
X111187066Y-57771060D01*
X111316762Y-57769847D01*
X111424245Y-57768569D01*
X111511857Y-57767127D01*
X111581940Y-57765423D01*
X111636838Y-57763357D01*
X111678892Y-57760831D01*
X111710446Y-57757745D01*
X111733841Y-57754003D01*
X111751421Y-57749503D01*
X111765528Y-57744148D01*
X111803215Y-57725033D01*
X111861508Y-57679615D01*
X111901265Y-57620956D01*
X111924112Y-57546197D01*
X111931678Y-57452482D01*
X111929768Y-57395438D01*
X111915875Y-57314146D01*
X111887066Y-57247411D01*
X111841581Y-57190118D01*
X111832771Y-57181331D01*
X111815792Y-57165160D01*
X111798777Y-57151695D01*
X111779390Y-57140670D01*
X111755295Y-57131821D01*
X111724154Y-57124885D01*
X111683634Y-57119598D01*
X111631396Y-57115694D01*
X111565105Y-57112910D01*
X111482426Y-57110982D01*
X111381020Y-57109645D01*
X111258554Y-57108636D01*
X111112690Y-57107689D01*
X110511145Y-57103880D01*
X110511145Y-56770517D01*
X111076374Y-56770517D01*
X111124009Y-56770537D01*
G37*
G36*
X117092633Y-53315263D02*
G01*
X117181486Y-53319530D01*
X117258357Y-53327228D01*
X117316485Y-53338358D01*
X117396013Y-53363447D01*
X117494620Y-53407291D01*
X117581788Y-53464454D01*
X117665611Y-53539603D01*
X117670566Y-53544628D01*
X117739958Y-53621871D01*
X117791260Y-53695811D01*
X117829083Y-53774243D01*
X117858037Y-53864965D01*
X117877145Y-53968871D01*
X117882307Y-54094629D01*
X117870267Y-54220638D01*
X117841759Y-54339844D01*
X117797520Y-54445190D01*
X117783721Y-54469038D01*
X117715362Y-54557087D01*
X117626656Y-54634645D01*
X117521274Y-54698349D01*
X117499442Y-54708838D01*
X117448477Y-54731079D01*
X117405080Y-54747105D01*
X117376835Y-54753995D01*
X117375405Y-54754100D01*
X117359985Y-54754233D01*
X117348041Y-54749427D01*
X117337330Y-54735760D01*
X117325612Y-54709311D01*
X117310646Y-54666158D01*
X117290191Y-54602381D01*
X117287886Y-54595122D01*
X117269632Y-54537550D01*
X117254736Y-54490415D01*
X117244678Y-54458412D01*
X117240940Y-54446238D01*
X117246896Y-54443569D01*
X117271344Y-54434902D01*
X117308283Y-54422666D01*
X117394341Y-54386150D01*
X117475304Y-54330073D01*
X117536757Y-54261043D01*
X117577456Y-54181589D01*
X117596156Y-54094241D01*
X117591613Y-54001526D01*
X117562581Y-53905973D01*
X117543085Y-53866771D01*
X117491512Y-53797072D01*
X117423674Y-53742194D01*
X117338291Y-53701612D01*
X117234084Y-53674801D01*
X117109774Y-53661236D01*
X116964083Y-53660393D01*
X116901876Y-53663420D01*
X116795764Y-53674630D01*
X116708972Y-53693880D01*
X116637720Y-53722489D01*
X116578226Y-53761777D01*
X116526711Y-53813064D01*
X116485790Y-53872579D01*
X116450079Y-53960676D01*
X116435542Y-54054809D01*
X116442893Y-54149338D01*
X116472847Y-54238618D01*
X116512373Y-54302688D01*
X116577561Y-54367072D01*
X116658325Y-54411223D01*
X116674569Y-54418083D01*
X116702034Y-54433767D01*
X116712660Y-54446505D01*
X116709737Y-54462889D01*
X116701700Y-54499178D01*
X116689816Y-54549651D01*
X116675349Y-54608814D01*
X116666737Y-54643423D01*
X116651377Y-54699787D01*
X116636511Y-54734911D01*
X116617917Y-54751245D01*
X116591371Y-54751240D01*
X116552651Y-54737347D01*
X116497535Y-54712017D01*
X116492100Y-54709441D01*
X116393309Y-54648070D01*
X116309027Y-54567213D01*
X116240767Y-54469504D01*
X116190040Y-54357577D01*
X116158359Y-54234068D01*
X116147234Y-54101611D01*
X116149435Y-54033102D01*
X116170778Y-53890193D01*
X116214039Y-53759764D01*
X116278273Y-53643061D01*
X116362535Y-53541330D01*
X116465880Y-53455817D01*
X116587363Y-53387770D01*
X116726038Y-53338433D01*
X116752619Y-53332489D01*
X116821790Y-53323041D01*
X116906024Y-53317019D01*
X116998558Y-53314427D01*
X117092633Y-53315263D01*
G37*
G36*
X114378012Y-54884257D02*
G01*
X114454964Y-54897731D01*
X114502470Y-54910975D01*
X114634455Y-54963823D01*
X114751307Y-55035526D01*
X114851351Y-55124408D01*
X114932913Y-55228792D01*
X114994317Y-55347000D01*
X115033887Y-55477355D01*
X115034869Y-55482210D01*
X115047214Y-55576909D01*
X115050447Y-55682659D01*
X115044998Y-55790535D01*
X115031299Y-55891612D01*
X115009779Y-55976964D01*
X114968670Y-56077224D01*
X114898441Y-56193607D01*
X114810520Y-56291746D01*
X114705517Y-56371283D01*
X114584039Y-56431861D01*
X114446696Y-56473121D01*
X114294097Y-56494705D01*
X114126849Y-56496256D01*
X113979403Y-56481519D01*
X113844800Y-56450772D01*
X113726467Y-56403307D01*
X113621960Y-56338135D01*
X113528835Y-56254266D01*
X113451593Y-56159132D01*
X113387070Y-56044548D01*
X113343973Y-55918507D01*
X113321742Y-55779327D01*
X113320543Y-55683232D01*
X113607624Y-55683232D01*
X113610510Y-55757140D01*
X113627140Y-55843010D01*
X113660407Y-55917571D01*
X113712499Y-55987161D01*
X113770392Y-56040873D01*
X113860691Y-56094927D01*
X113968097Y-56130864D01*
X114093167Y-56148856D01*
X114236456Y-56149075D01*
X114320226Y-56141086D01*
X114443216Y-56114485D01*
X114546816Y-56071257D01*
X114630898Y-56011481D01*
X114695334Y-55935234D01*
X114739995Y-55842596D01*
X114740636Y-55840710D01*
X114755357Y-55779310D01*
X114763481Y-55708472D01*
X114764274Y-55639403D01*
X114757000Y-55583311D01*
X114723662Y-55492459D01*
X114666681Y-55405169D01*
X114590035Y-55332775D01*
X114495336Y-55276766D01*
X114384194Y-55238630D01*
X114357772Y-55233326D01*
X114283896Y-55225104D01*
X114198197Y-55222088D01*
X114109940Y-55224176D01*
X114028390Y-55231265D01*
X113962810Y-55243254D01*
X113872541Y-55273628D01*
X113777947Y-55325284D01*
X113704192Y-55392030D01*
X113651243Y-55473909D01*
X113619064Y-55570962D01*
X113607624Y-55683232D01*
X113320543Y-55683232D01*
X113319820Y-55625329D01*
X113321824Y-55594094D01*
X113344531Y-55448054D01*
X113388139Y-55316760D01*
X113452131Y-55200850D01*
X113535995Y-55100961D01*
X113639215Y-55017732D01*
X113761279Y-54951798D01*
X113901672Y-54903799D01*
X113902828Y-54903500D01*
X113982776Y-54888401D01*
X114078412Y-54878838D01*
X114181593Y-54874900D01*
X114198197Y-54875188D01*
X114284174Y-54876677D01*
X114378012Y-54884257D01*
G37*
%TD*%
M02*
