%TF.GenerationSoftware,KiCad,Pcbnew,(5.99.0-8564-gb2cd1fddf9)*%
%TF.CreationDate,2021-01-25T15:54:05+03:00*%
%TF.ProjectId,Eloise_nA_meter_v2,456c6f69-7365-45f6-9e41-5f6d65746572,rev?*%
%TF.SameCoordinates,Original*%
%TF.FileFunction,Legend,Top*%
%TF.FilePolarity,Positive*%
%FSLAX46Y46*%
G04 Gerber Fmt 4.6, Leading zero omitted, Abs format (unit mm)*
G04 Created by KiCad (PCBNEW (5.99.0-8564-gb2cd1fddf9)) date 2021-01-25 15:54:05*
%MOMM*%
%LPD*%
G01*
G04 APERTURE LIST*
%ADD10C,0.250000*%
%ADD11C,0.150000*%
%ADD12C,0.120000*%
%ADD13C,0.050000*%
G04 APERTURE END LIST*
D10*
X148328571Y-87547619D02*
X148376190Y-87404761D01*
X148423809Y-87357142D01*
X148519047Y-87309523D01*
X148661904Y-87309523D01*
X148757142Y-87357142D01*
X148804761Y-87404761D01*
X148852380Y-87500000D01*
X148852380Y-87880952D01*
X147852380Y-87880952D01*
X147852380Y-87547619D01*
X147900000Y-87452380D01*
X147947619Y-87404761D01*
X148042857Y-87357142D01*
X148138095Y-87357142D01*
X148233333Y-87404761D01*
X148280952Y-87452380D01*
X148328571Y-87547619D01*
X148328571Y-87880952D01*
X148471428Y-86880952D02*
X148471428Y-86119047D01*
X148852380Y-86500000D02*
X148090476Y-86500000D01*
X147452380Y-87909523D02*
X146452380Y-87909523D01*
X146452380Y-87528571D01*
X146500000Y-87433333D01*
X146547619Y-87385714D01*
X146642857Y-87338095D01*
X146785714Y-87338095D01*
X146880952Y-87385714D01*
X146928571Y-87433333D01*
X146976190Y-87528571D01*
X146976190Y-87909523D01*
X146452380Y-87052380D02*
X147452380Y-86719047D01*
X146452380Y-86385714D01*
X147071428Y-86052380D02*
X147071428Y-85290476D01*
X147452380Y-85671428D02*
X146690476Y-85671428D01*
X149300000Y-87361904D02*
X149252380Y-87457142D01*
X149252380Y-87600000D01*
X149300000Y-87742857D01*
X149395238Y-87838095D01*
X149490476Y-87885714D01*
X149680952Y-87933333D01*
X149823809Y-87933333D01*
X150014285Y-87885714D01*
X150109523Y-87838095D01*
X150204761Y-87742857D01*
X150252380Y-87600000D01*
X150252380Y-87504761D01*
X150204761Y-87361904D01*
X150157142Y-87314285D01*
X149823809Y-87314285D01*
X149823809Y-87504761D01*
X150252380Y-86885714D02*
X149252380Y-86885714D01*
X150252380Y-86314285D01*
X149252380Y-86314285D01*
X150252380Y-85838095D02*
X149252380Y-85838095D01*
X149252380Y-85600000D01*
X149300000Y-85457142D01*
X149395238Y-85361904D01*
X149490476Y-85314285D01*
X149680952Y-85266666D01*
X149823809Y-85266666D01*
X150014285Y-85314285D01*
X150109523Y-85361904D01*
X150204761Y-85457142D01*
X150252380Y-85600000D01*
X150252380Y-85838095D01*
D11*
%TO.C,C12*%
X139685714Y-108485714D02*
X139647619Y-108523809D01*
X139533333Y-108561904D01*
X139457142Y-108561904D01*
X139342857Y-108523809D01*
X139266666Y-108447619D01*
X139228571Y-108371428D01*
X139190476Y-108219047D01*
X139190476Y-108104761D01*
X139228571Y-107952380D01*
X139266666Y-107876190D01*
X139342857Y-107800000D01*
X139457142Y-107761904D01*
X139533333Y-107761904D01*
X139647619Y-107800000D01*
X139685714Y-107838095D01*
X140447619Y-108561904D02*
X139990476Y-108561904D01*
X140219047Y-108561904D02*
X140219047Y-107761904D01*
X140142857Y-107876190D01*
X140066666Y-107952380D01*
X139990476Y-107990476D01*
X140752380Y-107838095D02*
X140790476Y-107800000D01*
X140866666Y-107761904D01*
X141057142Y-107761904D01*
X141133333Y-107800000D01*
X141171428Y-107838095D01*
X141209523Y-107914285D01*
X141209523Y-107990476D01*
X141171428Y-108104761D01*
X140714285Y-108561904D01*
X141209523Y-108561904D01*
%TO.C,C3*%
X147466666Y-89485714D02*
X147428571Y-89523809D01*
X147314285Y-89561904D01*
X147238095Y-89561904D01*
X147123809Y-89523809D01*
X147047619Y-89447619D01*
X147009523Y-89371428D01*
X146971428Y-89219047D01*
X146971428Y-89104761D01*
X147009523Y-88952380D01*
X147047619Y-88876190D01*
X147123809Y-88800000D01*
X147238095Y-88761904D01*
X147314285Y-88761904D01*
X147428571Y-88800000D01*
X147466666Y-88838095D01*
X147733333Y-88761904D02*
X148228571Y-88761904D01*
X147961904Y-89066666D01*
X148076190Y-89066666D01*
X148152380Y-89104761D01*
X148190476Y-89142857D01*
X148228571Y-89219047D01*
X148228571Y-89409523D01*
X148190476Y-89485714D01*
X148152380Y-89523809D01*
X148076190Y-89561904D01*
X147847619Y-89561904D01*
X147771428Y-89523809D01*
X147733333Y-89485714D01*
%TO.C,C11*%
X138485714Y-113914285D02*
X138523809Y-113952380D01*
X138561904Y-114066666D01*
X138561904Y-114142857D01*
X138523809Y-114257142D01*
X138447619Y-114333333D01*
X138371428Y-114371428D01*
X138219047Y-114409523D01*
X138104761Y-114409523D01*
X137952380Y-114371428D01*
X137876190Y-114333333D01*
X137800000Y-114257142D01*
X137761904Y-114142857D01*
X137761904Y-114066666D01*
X137800000Y-113952380D01*
X137838095Y-113914285D01*
X138561904Y-113152380D02*
X138561904Y-113609523D01*
X138561904Y-113380952D02*
X137761904Y-113380952D01*
X137876190Y-113457142D01*
X137952380Y-113533333D01*
X137990476Y-113609523D01*
X138561904Y-112390476D02*
X138561904Y-112847619D01*
X138561904Y-112619047D02*
X137761904Y-112619047D01*
X137876190Y-112695238D01*
X137952380Y-112771428D01*
X137990476Y-112847619D01*
%TO.C,C14*%
X143885714Y-92285714D02*
X143847619Y-92323809D01*
X143733333Y-92361904D01*
X143657142Y-92361904D01*
X143542857Y-92323809D01*
X143466666Y-92247619D01*
X143428571Y-92171428D01*
X143390476Y-92019047D01*
X143390476Y-91904761D01*
X143428571Y-91752380D01*
X143466666Y-91676190D01*
X143542857Y-91600000D01*
X143657142Y-91561904D01*
X143733333Y-91561904D01*
X143847619Y-91600000D01*
X143885714Y-91638095D01*
X144647619Y-92361904D02*
X144190476Y-92361904D01*
X144419047Y-92361904D02*
X144419047Y-91561904D01*
X144342857Y-91676190D01*
X144266666Y-91752380D01*
X144190476Y-91790476D01*
X145333333Y-91828571D02*
X145333333Y-92361904D01*
X145142857Y-91523809D02*
X144952380Y-92095238D01*
X145447619Y-92095238D01*
%TO.C,C4*%
X157285714Y-96133333D02*
X157323809Y-96171428D01*
X157361904Y-96285714D01*
X157361904Y-96361904D01*
X157323809Y-96476190D01*
X157247619Y-96552380D01*
X157171428Y-96590476D01*
X157019047Y-96628571D01*
X156904761Y-96628571D01*
X156752380Y-96590476D01*
X156676190Y-96552380D01*
X156600000Y-96476190D01*
X156561904Y-96361904D01*
X156561904Y-96285714D01*
X156600000Y-96171428D01*
X156638095Y-96133333D01*
X156828571Y-95447619D02*
X157361904Y-95447619D01*
X156523809Y-95638095D02*
X157095238Y-95828571D01*
X157095238Y-95333333D01*
%TO.C,C8*%
X152466666Y-92485714D02*
X152428571Y-92523809D01*
X152314285Y-92561904D01*
X152238095Y-92561904D01*
X152123809Y-92523809D01*
X152047619Y-92447619D01*
X152009523Y-92371428D01*
X151971428Y-92219047D01*
X151971428Y-92104761D01*
X152009523Y-91952380D01*
X152047619Y-91876190D01*
X152123809Y-91800000D01*
X152238095Y-91761904D01*
X152314285Y-91761904D01*
X152428571Y-91800000D01*
X152466666Y-91838095D01*
X152923809Y-92104761D02*
X152847619Y-92066666D01*
X152809523Y-92028571D01*
X152771428Y-91952380D01*
X152771428Y-91914285D01*
X152809523Y-91838095D01*
X152847619Y-91800000D01*
X152923809Y-91761904D01*
X153076190Y-91761904D01*
X153152380Y-91800000D01*
X153190476Y-91838095D01*
X153228571Y-91914285D01*
X153228571Y-91952380D01*
X153190476Y-92028571D01*
X153152380Y-92066666D01*
X153076190Y-92104761D01*
X152923809Y-92104761D01*
X152847619Y-92142857D01*
X152809523Y-92180952D01*
X152771428Y-92257142D01*
X152771428Y-92409523D01*
X152809523Y-92485714D01*
X152847619Y-92523809D01*
X152923809Y-92561904D01*
X153076190Y-92561904D01*
X153152380Y-92523809D01*
X153190476Y-92485714D01*
X153228571Y-92409523D01*
X153228571Y-92257142D01*
X153190476Y-92180952D01*
X153152380Y-92142857D01*
X153076190Y-92104761D01*
%TO.C,R15*%
X146561904Y-99314285D02*
X146180952Y-99580952D01*
X146561904Y-99771428D02*
X145761904Y-99771428D01*
X145761904Y-99466666D01*
X145800000Y-99390476D01*
X145838095Y-99352380D01*
X145914285Y-99314285D01*
X146028571Y-99314285D01*
X146104761Y-99352380D01*
X146142857Y-99390476D01*
X146180952Y-99466666D01*
X146180952Y-99771428D01*
X146561904Y-98552380D02*
X146561904Y-99009523D01*
X146561904Y-98780952D02*
X145761904Y-98780952D01*
X145876190Y-98857142D01*
X145952380Y-98933333D01*
X145990476Y-99009523D01*
X145761904Y-97828571D02*
X145761904Y-98209523D01*
X146142857Y-98247619D01*
X146104761Y-98209523D01*
X146066666Y-98133333D01*
X146066666Y-97942857D01*
X146104761Y-97866666D01*
X146142857Y-97828571D01*
X146219047Y-97790476D01*
X146409523Y-97790476D01*
X146485714Y-97828571D01*
X146523809Y-97866666D01*
X146561904Y-97942857D01*
X146561904Y-98133333D01*
X146523809Y-98209523D01*
X146485714Y-98247619D01*
%TO.C,C2*%
X155685714Y-90033333D02*
X155723809Y-90071428D01*
X155761904Y-90185714D01*
X155761904Y-90261904D01*
X155723809Y-90376190D01*
X155647619Y-90452380D01*
X155571428Y-90490476D01*
X155419047Y-90528571D01*
X155304761Y-90528571D01*
X155152380Y-90490476D01*
X155076190Y-90452380D01*
X155000000Y-90376190D01*
X154961904Y-90261904D01*
X154961904Y-90185714D01*
X155000000Y-90071428D01*
X155038095Y-90033333D01*
X155038095Y-89728571D02*
X155000000Y-89690476D01*
X154961904Y-89614285D01*
X154961904Y-89423809D01*
X155000000Y-89347619D01*
X155038095Y-89309523D01*
X155114285Y-89271428D01*
X155190476Y-89271428D01*
X155304761Y-89309523D01*
X155761904Y-89766666D01*
X155761904Y-89271428D01*
%TO.C,R5*%
X152777081Y-86761904D02*
X152510415Y-86380952D01*
X152319938Y-86761904D02*
X152319938Y-85961904D01*
X152624700Y-85961904D01*
X152700891Y-86000000D01*
X152738986Y-86038095D01*
X152777081Y-86114285D01*
X152777081Y-86228571D01*
X152738986Y-86304761D01*
X152700891Y-86342857D01*
X152624700Y-86380952D01*
X152319938Y-86380952D01*
X153500891Y-85961904D02*
X153119938Y-85961904D01*
X153081843Y-86342857D01*
X153119938Y-86304761D01*
X153196129Y-86266666D01*
X153386605Y-86266666D01*
X153462795Y-86304761D01*
X153500891Y-86342857D01*
X153538986Y-86419047D01*
X153538986Y-86609523D01*
X153500891Y-86685714D01*
X153462795Y-86723809D01*
X153386605Y-86761904D01*
X153196129Y-86761904D01*
X153119938Y-86723809D01*
X153081843Y-86685714D01*
%TO.C,R10*%
X157161904Y-110914285D02*
X156780952Y-111180952D01*
X157161904Y-111371428D02*
X156361904Y-111371428D01*
X156361904Y-111066666D01*
X156400000Y-110990476D01*
X156438095Y-110952380D01*
X156514285Y-110914285D01*
X156628571Y-110914285D01*
X156704761Y-110952380D01*
X156742857Y-110990476D01*
X156780952Y-111066666D01*
X156780952Y-111371428D01*
X157161904Y-110152380D02*
X157161904Y-110609523D01*
X157161904Y-110380952D02*
X156361904Y-110380952D01*
X156476190Y-110457142D01*
X156552380Y-110533333D01*
X156590476Y-110609523D01*
X156361904Y-109657142D02*
X156361904Y-109580952D01*
X156400000Y-109504761D01*
X156438095Y-109466666D01*
X156514285Y-109428571D01*
X156666666Y-109390476D01*
X156857142Y-109390476D01*
X157009523Y-109428571D01*
X157085714Y-109466666D01*
X157123809Y-109504761D01*
X157161904Y-109580952D01*
X157161904Y-109657142D01*
X157123809Y-109733333D01*
X157085714Y-109771428D01*
X157009523Y-109809523D01*
X156857142Y-109847619D01*
X156666666Y-109847619D01*
X156514285Y-109809523D01*
X156438095Y-109771428D01*
X156400000Y-109733333D01*
X156361904Y-109657142D01*
%TO.C,U4*%
X137761904Y-111209523D02*
X138409523Y-111209523D01*
X138485714Y-111171428D01*
X138523809Y-111133333D01*
X138561904Y-111057142D01*
X138561904Y-110904761D01*
X138523809Y-110828571D01*
X138485714Y-110790476D01*
X138409523Y-110752380D01*
X137761904Y-110752380D01*
X138028571Y-110028571D02*
X138561904Y-110028571D01*
X137723809Y-110219047D02*
X138295238Y-110409523D01*
X138295238Y-109914285D01*
%TO.C,R9*%
X156666666Y-112361904D02*
X156400000Y-111980952D01*
X156209523Y-112361904D02*
X156209523Y-111561904D01*
X156514285Y-111561904D01*
X156590476Y-111600000D01*
X156628571Y-111638095D01*
X156666666Y-111714285D01*
X156666666Y-111828571D01*
X156628571Y-111904761D01*
X156590476Y-111942857D01*
X156514285Y-111980952D01*
X156209523Y-111980952D01*
X157047619Y-112361904D02*
X157200000Y-112361904D01*
X157276190Y-112323809D01*
X157314285Y-112285714D01*
X157390476Y-112171428D01*
X157428571Y-112019047D01*
X157428571Y-111714285D01*
X157390476Y-111638095D01*
X157352380Y-111600000D01*
X157276190Y-111561904D01*
X157123809Y-111561904D01*
X157047619Y-111600000D01*
X157009523Y-111638095D01*
X156971428Y-111714285D01*
X156971428Y-111904761D01*
X157009523Y-111980952D01*
X157047619Y-112019047D01*
X157123809Y-112057142D01*
X157276190Y-112057142D01*
X157352380Y-112019047D01*
X157390476Y-111980952D01*
X157428571Y-111904761D01*
%TO.C,R12*%
X157161904Y-114114285D02*
X156780952Y-114380952D01*
X157161904Y-114571428D02*
X156361904Y-114571428D01*
X156361904Y-114266666D01*
X156400000Y-114190476D01*
X156438095Y-114152380D01*
X156514285Y-114114285D01*
X156628571Y-114114285D01*
X156704761Y-114152380D01*
X156742857Y-114190476D01*
X156780952Y-114266666D01*
X156780952Y-114571428D01*
X157161904Y-113352380D02*
X157161904Y-113809523D01*
X157161904Y-113580952D02*
X156361904Y-113580952D01*
X156476190Y-113657142D01*
X156552380Y-113733333D01*
X156590476Y-113809523D01*
X156438095Y-113047619D02*
X156400000Y-113009523D01*
X156361904Y-112933333D01*
X156361904Y-112742857D01*
X156400000Y-112666666D01*
X156438095Y-112628571D01*
X156514285Y-112590476D01*
X156590476Y-112590476D01*
X156704761Y-112628571D01*
X157161904Y-113085714D01*
X157161904Y-112590476D01*
%TO.C,J3*%
X147233333Y-110961904D02*
X147233333Y-111533333D01*
X147195238Y-111647619D01*
X147119047Y-111723809D01*
X147004761Y-111761904D01*
X146928571Y-111761904D01*
X147538095Y-110961904D02*
X148033333Y-110961904D01*
X147766666Y-111266666D01*
X147880952Y-111266666D01*
X147957142Y-111304761D01*
X147995238Y-111342857D01*
X148033333Y-111419047D01*
X148033333Y-111609523D01*
X147995238Y-111685714D01*
X147957142Y-111723809D01*
X147880952Y-111761904D01*
X147652380Y-111761904D01*
X147576190Y-111723809D01*
X147538095Y-111685714D01*
%TO.C,R2*%
X147466666Y-91561904D02*
X147200000Y-91180952D01*
X147009523Y-91561904D02*
X147009523Y-90761904D01*
X147314285Y-90761904D01*
X147390476Y-90800000D01*
X147428571Y-90838095D01*
X147466666Y-90914285D01*
X147466666Y-91028571D01*
X147428571Y-91104761D01*
X147390476Y-91142857D01*
X147314285Y-91180952D01*
X147009523Y-91180952D01*
X147771428Y-90838095D02*
X147809523Y-90800000D01*
X147885714Y-90761904D01*
X148076190Y-90761904D01*
X148152380Y-90800000D01*
X148190476Y-90838095D01*
X148228571Y-90914285D01*
X148228571Y-90990476D01*
X148190476Y-91104761D01*
X147733333Y-91561904D01*
X148228571Y-91561904D01*
%TO.C,R7*%
X154277081Y-86761904D02*
X154010415Y-86380952D01*
X153819938Y-86761904D02*
X153819938Y-85961904D01*
X154124700Y-85961904D01*
X154200891Y-86000000D01*
X154238986Y-86038095D01*
X154277081Y-86114285D01*
X154277081Y-86228571D01*
X154238986Y-86304761D01*
X154200891Y-86342857D01*
X154124700Y-86380952D01*
X153819938Y-86380952D01*
X154543748Y-85961904D02*
X155077081Y-85961904D01*
X154734224Y-86761904D01*
%TO.C,U1*%
X142590476Y-93361904D02*
X142590476Y-94009523D01*
X142628571Y-94085714D01*
X142666666Y-94123809D01*
X142742857Y-94161904D01*
X142895238Y-94161904D01*
X142971428Y-94123809D01*
X143009523Y-94085714D01*
X143047619Y-94009523D01*
X143047619Y-93361904D01*
X143847619Y-94161904D02*
X143390476Y-94161904D01*
X143619047Y-94161904D02*
X143619047Y-93361904D01*
X143542857Y-93476190D01*
X143466666Y-93552380D01*
X143390476Y-93590476D01*
%TO.C,R8*%
X151077081Y-86761904D02*
X150810415Y-86380952D01*
X150619938Y-86761904D02*
X150619938Y-85961904D01*
X150924700Y-85961904D01*
X151000891Y-86000000D01*
X151038986Y-86038095D01*
X151077081Y-86114285D01*
X151077081Y-86228571D01*
X151038986Y-86304761D01*
X151000891Y-86342857D01*
X150924700Y-86380952D01*
X150619938Y-86380952D01*
X151534224Y-86304761D02*
X151458034Y-86266666D01*
X151419938Y-86228571D01*
X151381843Y-86152380D01*
X151381843Y-86114285D01*
X151419938Y-86038095D01*
X151458034Y-86000000D01*
X151534224Y-85961904D01*
X151686605Y-85961904D01*
X151762795Y-86000000D01*
X151800891Y-86038095D01*
X151838986Y-86114285D01*
X151838986Y-86152380D01*
X151800891Y-86228571D01*
X151762795Y-86266666D01*
X151686605Y-86304761D01*
X151534224Y-86304761D01*
X151458034Y-86342857D01*
X151419938Y-86380952D01*
X151381843Y-86457142D01*
X151381843Y-86609523D01*
X151419938Y-86685714D01*
X151458034Y-86723809D01*
X151534224Y-86761904D01*
X151686605Y-86761904D01*
X151762795Y-86723809D01*
X151800891Y-86685714D01*
X151838986Y-86609523D01*
X151838986Y-86457142D01*
X151800891Y-86380952D01*
X151762795Y-86342857D01*
X151686605Y-86304761D01*
%TO.C,U5*%
X156561904Y-105009523D02*
X157209523Y-105009523D01*
X157285714Y-104971428D01*
X157323809Y-104933333D01*
X157361904Y-104857142D01*
X157361904Y-104704761D01*
X157323809Y-104628571D01*
X157285714Y-104590476D01*
X157209523Y-104552380D01*
X156561904Y-104552380D01*
X156561904Y-103790476D02*
X156561904Y-104171428D01*
X156942857Y-104209523D01*
X156904761Y-104171428D01*
X156866666Y-104095238D01*
X156866666Y-103904761D01*
X156904761Y-103828571D01*
X156942857Y-103790476D01*
X157019047Y-103752380D01*
X157209523Y-103752380D01*
X157285714Y-103790476D01*
X157323809Y-103828571D01*
X157361904Y-103904761D01*
X157361904Y-104095238D01*
X157323809Y-104171428D01*
X157285714Y-104209523D01*
%TO.C,C6*%
X157485714Y-94333333D02*
X157523809Y-94371428D01*
X157561904Y-94485714D01*
X157561904Y-94561904D01*
X157523809Y-94676190D01*
X157447619Y-94752380D01*
X157371428Y-94790476D01*
X157219047Y-94828571D01*
X157104761Y-94828571D01*
X156952380Y-94790476D01*
X156876190Y-94752380D01*
X156800000Y-94676190D01*
X156761904Y-94561904D01*
X156761904Y-94485714D01*
X156800000Y-94371428D01*
X156838095Y-94333333D01*
X156761904Y-93647619D02*
X156761904Y-93800000D01*
X156800000Y-93876190D01*
X156838095Y-93914285D01*
X156952380Y-93990476D01*
X157104761Y-94028571D01*
X157409523Y-94028571D01*
X157485714Y-93990476D01*
X157523809Y-93952380D01*
X157561904Y-93876190D01*
X157561904Y-93723809D01*
X157523809Y-93647619D01*
X157485714Y-93609523D01*
X157409523Y-93571428D01*
X157219047Y-93571428D01*
X157142857Y-93609523D01*
X157104761Y-93647619D01*
X157066666Y-93723809D01*
X157066666Y-93876190D01*
X157104761Y-93952380D01*
X157142857Y-93990476D01*
X157219047Y-94028571D01*
%TO.C,R1*%
X149066666Y-91761904D02*
X148800000Y-91380952D01*
X148609523Y-91761904D02*
X148609523Y-90961904D01*
X148914285Y-90961904D01*
X148990476Y-91000000D01*
X149028571Y-91038095D01*
X149066666Y-91114285D01*
X149066666Y-91228571D01*
X149028571Y-91304761D01*
X148990476Y-91342857D01*
X148914285Y-91380952D01*
X148609523Y-91380952D01*
X149828571Y-91761904D02*
X149371428Y-91761904D01*
X149600000Y-91761904D02*
X149600000Y-90961904D01*
X149523809Y-91076190D01*
X149447619Y-91152380D01*
X149371428Y-91190476D01*
%TO.C,R6*%
X155877081Y-86761904D02*
X155610415Y-86380952D01*
X155419938Y-86761904D02*
X155419938Y-85961904D01*
X155724700Y-85961904D01*
X155800891Y-86000000D01*
X155838986Y-86038095D01*
X155877081Y-86114285D01*
X155877081Y-86228571D01*
X155838986Y-86304761D01*
X155800891Y-86342857D01*
X155724700Y-86380952D01*
X155419938Y-86380952D01*
X156562795Y-85961904D02*
X156410415Y-85961904D01*
X156334224Y-86000000D01*
X156296129Y-86038095D01*
X156219938Y-86152380D01*
X156181843Y-86304761D01*
X156181843Y-86609523D01*
X156219938Y-86685714D01*
X156258034Y-86723809D01*
X156334224Y-86761904D01*
X156486605Y-86761904D01*
X156562795Y-86723809D01*
X156600891Y-86685714D01*
X156638986Y-86609523D01*
X156638986Y-86419047D01*
X156600891Y-86342857D01*
X156562795Y-86304761D01*
X156486605Y-86266666D01*
X156334224Y-86266666D01*
X156258034Y-86304761D01*
X156219938Y-86342857D01*
X156181843Y-86419047D01*
%TO.C,U2*%
X151590476Y-89361904D02*
X151590476Y-90009523D01*
X151628571Y-90085714D01*
X151666666Y-90123809D01*
X151742857Y-90161904D01*
X151895238Y-90161904D01*
X151971428Y-90123809D01*
X152009523Y-90085714D01*
X152047619Y-90009523D01*
X152047619Y-89361904D01*
X152390476Y-89438095D02*
X152428571Y-89400000D01*
X152504761Y-89361904D01*
X152695238Y-89361904D01*
X152771428Y-89400000D01*
X152809523Y-89438095D01*
X152847619Y-89514285D01*
X152847619Y-89590476D01*
X152809523Y-89704761D01*
X152352380Y-90161904D01*
X152847619Y-90161904D01*
%TO.C,C9*%
X153485714Y-108133333D02*
X153523809Y-108171428D01*
X153561904Y-108285714D01*
X153561904Y-108361904D01*
X153523809Y-108476190D01*
X153447619Y-108552380D01*
X153371428Y-108590476D01*
X153219047Y-108628571D01*
X153104761Y-108628571D01*
X152952380Y-108590476D01*
X152876190Y-108552380D01*
X152800000Y-108476190D01*
X152761904Y-108361904D01*
X152761904Y-108285714D01*
X152800000Y-108171428D01*
X152838095Y-108133333D01*
X153561904Y-107752380D02*
X153561904Y-107600000D01*
X153523809Y-107523809D01*
X153485714Y-107485714D01*
X153371428Y-107409523D01*
X153219047Y-107371428D01*
X152914285Y-107371428D01*
X152838095Y-107409523D01*
X152800000Y-107447619D01*
X152761904Y-107523809D01*
X152761904Y-107676190D01*
X152800000Y-107752380D01*
X152838095Y-107790476D01*
X152914285Y-107828571D01*
X153104761Y-107828571D01*
X153180952Y-107790476D01*
X153219047Y-107752380D01*
X153257142Y-107676190D01*
X153257142Y-107523809D01*
X153219047Y-107447619D01*
X153180952Y-107409523D01*
X153104761Y-107371428D01*
%TO.C,C7*%
X150866666Y-92485714D02*
X150828571Y-92523809D01*
X150714285Y-92561904D01*
X150638095Y-92561904D01*
X150523809Y-92523809D01*
X150447619Y-92447619D01*
X150409523Y-92371428D01*
X150371428Y-92219047D01*
X150371428Y-92104761D01*
X150409523Y-91952380D01*
X150447619Y-91876190D01*
X150523809Y-91800000D01*
X150638095Y-91761904D01*
X150714285Y-91761904D01*
X150828571Y-91800000D01*
X150866666Y-91838095D01*
X151133333Y-91761904D02*
X151666666Y-91761904D01*
X151323809Y-92561904D01*
%TO.C,R14*%
X148085714Y-97161904D02*
X147819047Y-96780952D01*
X147628571Y-97161904D02*
X147628571Y-96361904D01*
X147933333Y-96361904D01*
X148009523Y-96400000D01*
X148047619Y-96438095D01*
X148085714Y-96514285D01*
X148085714Y-96628571D01*
X148047619Y-96704761D01*
X148009523Y-96742857D01*
X147933333Y-96780952D01*
X147628571Y-96780952D01*
X148847619Y-97161904D02*
X148390476Y-97161904D01*
X148619047Y-97161904D02*
X148619047Y-96361904D01*
X148542857Y-96476190D01*
X148466666Y-96552380D01*
X148390476Y-96590476D01*
X149533333Y-96628571D02*
X149533333Y-97161904D01*
X149342857Y-96323809D02*
X149152380Y-96895238D01*
X149647619Y-96895238D01*
%TO.C,R17*%
X146361904Y-102514285D02*
X145980952Y-102780952D01*
X146361904Y-102971428D02*
X145561904Y-102971428D01*
X145561904Y-102666666D01*
X145600000Y-102590476D01*
X145638095Y-102552380D01*
X145714285Y-102514285D01*
X145828571Y-102514285D01*
X145904761Y-102552380D01*
X145942857Y-102590476D01*
X145980952Y-102666666D01*
X145980952Y-102971428D01*
X146361904Y-101752380D02*
X146361904Y-102209523D01*
X146361904Y-101980952D02*
X145561904Y-101980952D01*
X145676190Y-102057142D01*
X145752380Y-102133333D01*
X145790476Y-102209523D01*
X145561904Y-101485714D02*
X145561904Y-100952380D01*
X146361904Y-101295238D01*
%TO.C,J1*%
X141361904Y-99866666D02*
X141933333Y-99866666D01*
X142047619Y-99904761D01*
X142123809Y-99980952D01*
X142161904Y-100095238D01*
X142161904Y-100171428D01*
X142161904Y-99066666D02*
X142161904Y-99523809D01*
X142161904Y-99295238D02*
X141361904Y-99295238D01*
X141476190Y-99371428D01*
X141552380Y-99447619D01*
X141590476Y-99523809D01*
%TO.C,C1*%
X141466666Y-98085714D02*
X141428571Y-98123809D01*
X141314285Y-98161904D01*
X141238095Y-98161904D01*
X141123809Y-98123809D01*
X141047619Y-98047619D01*
X141009523Y-97971428D01*
X140971428Y-97819047D01*
X140971428Y-97704761D01*
X141009523Y-97552380D01*
X141047619Y-97476190D01*
X141123809Y-97400000D01*
X141238095Y-97361904D01*
X141314285Y-97361904D01*
X141428571Y-97400000D01*
X141466666Y-97438095D01*
X142228571Y-98161904D02*
X141771428Y-98161904D01*
X142000000Y-98161904D02*
X142000000Y-97361904D01*
X141923809Y-97476190D01*
X141847619Y-97552380D01*
X141771428Y-97590476D01*
%TO.C,C5*%
X157285714Y-92533333D02*
X157323809Y-92571428D01*
X157361904Y-92685714D01*
X157361904Y-92761904D01*
X157323809Y-92876190D01*
X157247619Y-92952380D01*
X157171428Y-92990476D01*
X157019047Y-93028571D01*
X156904761Y-93028571D01*
X156752380Y-92990476D01*
X156676190Y-92952380D01*
X156600000Y-92876190D01*
X156561904Y-92761904D01*
X156561904Y-92685714D01*
X156600000Y-92571428D01*
X156638095Y-92533333D01*
X156561904Y-91809523D02*
X156561904Y-92190476D01*
X156942857Y-92228571D01*
X156904761Y-92190476D01*
X156866666Y-92114285D01*
X156866666Y-91923809D01*
X156904761Y-91847619D01*
X156942857Y-91809523D01*
X157019047Y-91771428D01*
X157209523Y-91771428D01*
X157285714Y-91809523D01*
X157323809Y-91847619D01*
X157361904Y-91923809D01*
X157361904Y-92114285D01*
X157323809Y-92190476D01*
X157285714Y-92228571D01*
%TO.C,D2*%
X143561904Y-98390476D02*
X142761904Y-98390476D01*
X142761904Y-98200000D01*
X142800000Y-98085714D01*
X142876190Y-98009523D01*
X142952380Y-97971428D01*
X143104761Y-97933333D01*
X143219047Y-97933333D01*
X143371428Y-97971428D01*
X143447619Y-98009523D01*
X143523809Y-98085714D01*
X143561904Y-98200000D01*
X143561904Y-98390476D01*
X142838095Y-97628571D02*
X142800000Y-97590476D01*
X142761904Y-97514285D01*
X142761904Y-97323809D01*
X142800000Y-97247619D01*
X142838095Y-97209523D01*
X142914285Y-97171428D01*
X142990476Y-97171428D01*
X143104761Y-97209523D01*
X143561904Y-97666666D01*
X143561904Y-97171428D01*
%TO.C,C10*%
X155685714Y-106085714D02*
X155647619Y-106123809D01*
X155533333Y-106161904D01*
X155457142Y-106161904D01*
X155342857Y-106123809D01*
X155266666Y-106047619D01*
X155228571Y-105971428D01*
X155190476Y-105819047D01*
X155190476Y-105704761D01*
X155228571Y-105552380D01*
X155266666Y-105476190D01*
X155342857Y-105400000D01*
X155457142Y-105361904D01*
X155533333Y-105361904D01*
X155647619Y-105400000D01*
X155685714Y-105438095D01*
X156447619Y-106161904D02*
X155990476Y-106161904D01*
X156219047Y-106161904D02*
X156219047Y-105361904D01*
X156142857Y-105476190D01*
X156066666Y-105552380D01*
X155990476Y-105590476D01*
X156942857Y-105361904D02*
X157019047Y-105361904D01*
X157095238Y-105400000D01*
X157133333Y-105438095D01*
X157171428Y-105514285D01*
X157209523Y-105666666D01*
X157209523Y-105857142D01*
X157171428Y-106009523D01*
X157133333Y-106085714D01*
X157095238Y-106123809D01*
X157019047Y-106161904D01*
X156942857Y-106161904D01*
X156866666Y-106123809D01*
X156828571Y-106085714D01*
X156790476Y-106009523D01*
X156752380Y-105857142D01*
X156752380Y-105666666D01*
X156790476Y-105514285D01*
X156828571Y-105438095D01*
X156866666Y-105400000D01*
X156942857Y-105361904D01*
D12*
%TO.C,C12*%
X140059420Y-107510000D02*
X140340580Y-107510000D01*
X140059420Y-106490000D02*
X140340580Y-106490000D01*
%TO.C,C3*%
X146510000Y-90059420D02*
X146510000Y-90340580D01*
X145490000Y-90059420D02*
X145490000Y-90340580D01*
%TO.C,J2*%
X139600000Y-88130000D02*
X138270000Y-88130000D01*
X138270000Y-88130000D02*
X138270000Y-86800000D01*
X140870000Y-85470000D02*
X146010000Y-85470000D01*
X140870000Y-88130000D02*
X140870000Y-85470000D01*
X140870000Y-88130000D02*
X146010000Y-88130000D01*
X146010000Y-88130000D02*
X146010000Y-85470000D01*
%TO.C,C11*%
X140059420Y-114110000D02*
X140340580Y-114110000D01*
X140059420Y-113090000D02*
X140340580Y-113090000D01*
%TO.C,C14*%
X143890000Y-90340580D02*
X143890000Y-90059420D01*
X144910000Y-90340580D02*
X144910000Y-90059420D01*
%TO.C,C4*%
X154859420Y-96510000D02*
X155140580Y-96510000D01*
X154859420Y-95490000D02*
X155140580Y-95490000D01*
%TO.C,C8*%
X153110000Y-94540580D02*
X153110000Y-94259420D01*
X152090000Y-94540580D02*
X152090000Y-94259420D01*
%TO.C,R15*%
X146677500Y-98562742D02*
X146677500Y-99037258D01*
X147722500Y-98562742D02*
X147722500Y-99037258D01*
%TO.C,C2*%
X155890000Y-89859420D02*
X155890000Y-90140580D01*
X156910000Y-89859420D02*
X156910000Y-90140580D01*
%TO.C,R5*%
X153432915Y-86637258D02*
X153432915Y-86162742D01*
X152387915Y-86637258D02*
X152387915Y-86162742D01*
%TO.C,R10*%
X154362742Y-110922500D02*
X154837258Y-110922500D01*
X154362742Y-109877500D02*
X154837258Y-109877500D01*
%TO.C,U4*%
X141960000Y-110600000D02*
X141960000Y-109800000D01*
X138840000Y-110600000D02*
X138840000Y-109800000D01*
X138840000Y-110600000D02*
X138840000Y-112400000D01*
X141960000Y-110600000D02*
X141960000Y-111400000D01*
%TO.C,R9*%
X154362742Y-112522500D02*
X154837258Y-112522500D01*
X154362742Y-111477500D02*
X154837258Y-111477500D01*
%TO.C,R12*%
X154362742Y-114122500D02*
X154837258Y-114122500D01*
X154362742Y-113077500D02*
X154837258Y-113077500D01*
D13*
%TO.C,J3*%
X152075000Y-111250000D02*
X152073580Y-108825000D01*
D12*
%TO.C,R2*%
X148122500Y-92962742D02*
X148122500Y-93437258D01*
X147077500Y-92962742D02*
X147077500Y-93437258D01*
%TO.C,R7*%
X154932915Y-86637258D02*
X154932915Y-86162742D01*
X153887915Y-86637258D02*
X153887915Y-86162742D01*
%TO.C,U1*%
X143200000Y-92190000D02*
X141700000Y-92190000D01*
X143200000Y-95410000D02*
X146125000Y-95410000D01*
X143200000Y-95410000D02*
X141700000Y-95410000D01*
X143200000Y-92190000D02*
X144700000Y-92190000D01*
%TO.C,R8*%
X150687915Y-86162742D02*
X150687915Y-86637258D01*
X151732915Y-86162742D02*
X151732915Y-86637258D01*
%TO.C,U5*%
X156010000Y-104810000D02*
X155535000Y-104810000D01*
X148790000Y-104810000D02*
X149265000Y-104810000D01*
X156010000Y-98065000D02*
X156010000Y-97590000D01*
X148790000Y-97590000D02*
X149265000Y-97590000D01*
X148790000Y-104335000D02*
X148790000Y-104810000D01*
X148790000Y-98065000D02*
X148790000Y-97590000D01*
X156010000Y-104335000D02*
X156010000Y-104810000D01*
%TO.C,C6*%
X154938748Y-94935000D02*
X155461252Y-94935000D01*
X154938748Y-93465000D02*
X155461252Y-93465000D01*
%TO.C,R1*%
X149722500Y-93437258D02*
X149722500Y-92962742D01*
X148677500Y-93437258D02*
X148677500Y-92962742D01*
%TO.C,R6*%
X156532915Y-86637258D02*
X156532915Y-86162742D01*
X155487915Y-86637258D02*
X155487915Y-86162742D01*
%TO.C,G\u002A\u002A\u002A*%
G36*
X140937496Y-89066751D02*
G01*
X141064820Y-89080154D01*
X141183325Y-89102728D01*
X141294366Y-89134837D01*
X141399297Y-89176847D01*
X141499470Y-89229123D01*
X141560475Y-89267311D01*
X141659326Y-89341284D01*
X141746567Y-89423438D01*
X141822009Y-89513375D01*
X141885462Y-89610694D01*
X141936738Y-89714996D01*
X141975648Y-89825881D01*
X142002002Y-89942950D01*
X142015612Y-90065802D01*
X142016288Y-90194040D01*
X142014418Y-90226832D01*
X141999753Y-90354102D01*
X141973768Y-90473065D01*
X141936161Y-90584233D01*
X141886631Y-90688118D01*
X141824876Y-90785231D01*
X141750597Y-90876084D01*
X141663492Y-90961189D01*
X141563260Y-91041058D01*
X141516340Y-91073725D01*
X141429109Y-91132143D01*
X141721697Y-91134007D01*
X142014285Y-91135872D01*
X142014285Y-91592857D01*
X140971428Y-91592857D01*
X140971428Y-91142340D01*
X141039261Y-91077491D01*
X141132953Y-90979286D01*
X141214063Y-90876064D01*
X141282361Y-90768385D01*
X141337616Y-90656805D01*
X141379598Y-90541883D01*
X141408077Y-90424176D01*
X141422824Y-90304244D01*
X141423607Y-90182642D01*
X141421506Y-90150953D01*
X141408401Y-90052056D01*
X141385609Y-89962708D01*
X141352513Y-89881421D01*
X141308497Y-89806706D01*
X141252944Y-89737077D01*
X141247620Y-89731290D01*
X141181148Y-89670168D01*
X141106070Y-89619954D01*
X141023974Y-89581548D01*
X140939285Y-89556460D01*
X140897338Y-89550312D01*
X140846067Y-89547342D01*
X140790055Y-89547443D01*
X140733881Y-89550508D01*
X140682126Y-89556431D01*
X140646428Y-89563288D01*
X140559725Y-89591515D01*
X140479403Y-89632017D01*
X140406578Y-89683790D01*
X140342367Y-89745829D01*
X140287883Y-89817130D01*
X140244242Y-89896688D01*
X140225822Y-89942049D01*
X140211335Y-89984624D01*
X140200350Y-90023365D01*
X140192418Y-90061435D01*
X140187092Y-90101998D01*
X140183923Y-90148216D01*
X140182463Y-90203253D01*
X140182219Y-90250000D01*
X140182896Y-90317036D01*
X140185167Y-90373232D01*
X140189508Y-90421991D01*
X140196394Y-90466715D01*
X140206302Y-90510805D01*
X140219706Y-90557664D01*
X140229497Y-90588137D01*
X140260129Y-90669489D01*
X140297214Y-90746560D01*
X140342126Y-90821473D01*
X140396239Y-90896351D01*
X140460930Y-90973318D01*
X140519642Y-91036196D01*
X140621428Y-91141118D01*
X140621428Y-91592857D01*
X139578571Y-91592857D01*
X139578571Y-91135874D01*
X139869642Y-91134008D01*
X140160714Y-91132143D01*
X140116393Y-91105035D01*
X140089011Y-91087304D01*
X140056668Y-91064916D01*
X140025537Y-91042168D01*
X140019964Y-91037927D01*
X139920914Y-90954022D01*
X139834841Y-90864255D01*
X139761583Y-90768367D01*
X139700977Y-90666099D01*
X139652860Y-90557192D01*
X139617067Y-90441385D01*
X139602640Y-90375000D01*
X139596691Y-90332631D01*
X139592359Y-90280037D01*
X139589646Y-90220554D01*
X139588553Y-90157519D01*
X139589081Y-90094270D01*
X139591232Y-90034143D01*
X139595007Y-89980475D01*
X139600408Y-89936603D01*
X139602463Y-89925259D01*
X139633439Y-89805344D01*
X139676598Y-89692759D01*
X139731650Y-89587872D01*
X139798303Y-89491053D01*
X139876265Y-89402670D01*
X139965245Y-89323093D01*
X140064950Y-89252690D01*
X140175091Y-89191832D01*
X140185914Y-89186641D01*
X140284889Y-89144472D01*
X140385105Y-89111558D01*
X140488976Y-89087412D01*
X140598915Y-89071542D01*
X140717337Y-89063461D01*
X140800000Y-89062153D01*
X140937496Y-89066751D01*
G37*
D11*
%TO.C,U2*%
X150575000Y-91425000D02*
X153825000Y-91425000D01*
X150575000Y-91425000D02*
X150575000Y-91150000D01*
X150575000Y-88175000D02*
X153825000Y-88175000D01*
X153825000Y-88175000D02*
X153825000Y-88450000D01*
X150575000Y-88175000D02*
X150575000Y-88350000D01*
X150575000Y-88350000D02*
X149500000Y-88350000D01*
X153825000Y-91425000D02*
X153825000Y-91150000D01*
D12*
%TO.C,C9*%
X153890000Y-107859420D02*
X153890000Y-108140580D01*
X154910000Y-107859420D02*
X154910000Y-108140580D01*
%TO.C,C7*%
X151510000Y-94540580D02*
X151510000Y-94259420D01*
X150490000Y-94540580D02*
X150490000Y-94259420D01*
%TO.C,R14*%
X148737258Y-95177500D02*
X148262742Y-95177500D01*
X148737258Y-96222500D02*
X148262742Y-96222500D01*
%TO.C,R17*%
X146677500Y-101762742D02*
X146677500Y-102237258D01*
X147722500Y-101762742D02*
X147722500Y-102237258D01*
%TO.C,J1*%
X140035000Y-105370000D02*
X140035000Y-105435000D01*
X140035000Y-98965000D02*
X140035000Y-99030000D01*
X143565000Y-105370000D02*
X143565000Y-105435000D01*
X140035000Y-98965000D02*
X143565000Y-98965000D01*
X140035000Y-105435000D02*
X143565000Y-105435000D01*
X138710000Y-99030000D02*
X140035000Y-99030000D01*
X143565000Y-98965000D02*
X143565000Y-99030000D01*
%TO.C,C1*%
X141459420Y-96910000D02*
X141740580Y-96910000D01*
X141459420Y-95890000D02*
X141740580Y-95890000D01*
%TO.C,C5*%
X154859420Y-92910000D02*
X155140580Y-92910000D01*
X154859420Y-91890000D02*
X155140580Y-91890000D01*
%TO.C,D2*%
X144700000Y-95859026D02*
X144600000Y-96059026D01*
X144600000Y-96059026D02*
X145000000Y-96059026D01*
X145000000Y-96059026D02*
X144900000Y-95859026D01*
X144900000Y-95859026D02*
X144700000Y-95859026D01*
%TO.C,C10*%
X155465000Y-107538748D02*
X155465000Y-108061252D01*
X156935000Y-107538748D02*
X156935000Y-108061252D01*
%TD*%
M02*
