M48
; DRILL file {KiCad (5.99.0-8564-gb2cd1fddf9)} date 01/25/21 15:54:02
; FORMAT={-:-/ absolute / inch / decimal}
; #@! TF.CreationDate,2021-01-25T15:54:02+03:00
; #@! TF.GenerationSoftware,Kicad,Pcbnew,(5.99.0-8564-gb2cd1fddf9)
; #@! TF.FileFunction,Plated,1,4,PTH
FMAT,2
INCH
T1C0.0157
T2C0.0236
T3C0.0394
%
G90
G05
T1
X5.4488Y-4.2205
X5.4488Y-4.3071
X5.4567Y-4.4016
X5.4882Y-3.7087
X5.4921Y-4.2559
X5.5039Y-3.8819
X5.5059Y-3.998
X5.5236Y-4.1614
X5.5433Y-3.8425
X5.5827Y-4.1181
X5.5906Y-4.4724
X5.5984Y-4.3858
X5.6063Y-3.8425
X5.6142Y-3.6772
X5.6299Y-3.5197
X5.6378Y-3.5827
X5.6535Y-4.3031
X5.6614Y-3.7638
X5.7008Y-4.1811
X5.7008Y-4.3051
X5.7244Y-3.622
X5.7397Y-4.0871
X5.7402Y-4.1516
X5.748Y-4.315
X5.7874Y-4.0945
X5.8031Y-4.1732
X5.8031Y-4.315
X5.811Y-3.5197
X5.811Y-3.5906
X5.8561Y-4.1815
X5.874Y-4.315
X5.8898Y-4.378
X5.8898Y-4.4409
X5.9055Y-4.1811
X5.9291Y-4.315
X5.9409Y-3.9252
X5.9409Y-4.0433
X5.9606Y-3.4803
X5.9606Y-3.6142
X5.9754Y-3.686
X5.9764Y-3.5669
X5.9774Y-3.747
X5.9843Y-3.8031
X6.0Y-3.9843
X6.0236Y-3.8031
X6.0264Y-4.2126
X6.063Y-3.9252
X6.063Y-4.0433
X6.0719Y-3.6683
X6.1093Y-4.1663
X6.1116Y-3.3691
X6.1163Y-3.4953
X6.126Y-3.5669
X6.1329Y-3.749
X6.1496Y-3.8346
X6.1575Y-3.4803
X6.1654Y-4.126
X6.1654Y-4.3307
X6.1654Y-4.4724
X6.1791Y-4.0236
T3
X5.4961Y-3.4173
X5.5961Y-3.4173
X5.6961Y-3.4173
T2
G00X5.6409Y-4.213
M15
G01X5.6409Y-4.2524
M16
G05
G00X5.6409Y-4.4142
M15
G01X5.6409Y-4.4732
M16
G05
G00X5.9811Y-4.213
M15
G01X5.9811Y-4.2524
M16
G05
G00X5.9811Y-4.4142
M15
G01X5.9811Y-4.4732
M16
G05
T0
M30
