%TF.GenerationSoftware,KiCad,Pcbnew,(5.99.0-8564-gb2cd1fddf9)*%
%TF.CreationDate,2021-01-25T15:54:05+03:00*%
%TF.ProjectId,Eloise_nA_meter_v2,456c6f69-7365-45f6-9e41-5f6d65746572,rev?*%
%TF.SameCoordinates,Original*%
%TF.FileFunction,Paste,Top*%
%TF.FilePolarity,Positive*%
%FSLAX46Y46*%
G04 Gerber Fmt 4.6, Leading zero omitted, Abs format (unit mm)*
G04 Created by KiCad (PCBNEW (5.99.0-8564-gb2cd1fddf9)) date 2021-01-25 15:54:05*
%MOMM*%
%LPD*%
G01*
G04 APERTURE LIST*
G04 Aperture macros list*
%AMRoundRect*
0 Rectangle with rounded corners*
0 $1 Rounding radius*
0 $2 $3 $4 $5 $6 $7 $8 $9 X,Y pos of 4 corners*
0 Add a 4 corners polygon primitive as box body*
4,1,4,$2,$3,$4,$5,$6,$7,$8,$9,$2,$3,0*
0 Add four circle primitives for the rounded corners*
1,1,$1+$1,$2,$3*
1,1,$1+$1,$4,$5*
1,1,$1+$1,$6,$7*
1,1,$1+$1,$8,$9*
0 Add four rect primitives between the rounded corners*
20,1,$1+$1,$2,$3,$4,$5,0*
20,1,$1+$1,$4,$5,$6,$7,0*
20,1,$1+$1,$6,$7,$8,$9,0*
20,1,$1+$1,$8,$9,$2,$3,0*%
G04 Aperture macros list end*
%ADD10RoundRect,0.225000X-0.225000X-0.250000X0.225000X-0.250000X0.225000X0.250000X-0.225000X0.250000X0*%
%ADD11RoundRect,0.225000X-0.250000X0.225000X-0.250000X-0.225000X0.250000X-0.225000X0.250000X0.225000X0*%
%ADD12RoundRect,0.225000X0.250000X-0.225000X0.250000X0.225000X-0.250000X0.225000X-0.250000X-0.225000X0*%
%ADD13RoundRect,0.200000X-0.275000X0.200000X-0.275000X-0.200000X0.275000X-0.200000X0.275000X0.200000X0*%
%ADD14RoundRect,0.200000X0.275000X-0.200000X0.275000X0.200000X-0.275000X0.200000X-0.275000X-0.200000X0*%
%ADD15RoundRect,0.200000X-0.200000X-0.275000X0.200000X-0.275000X0.200000X0.275000X-0.200000X0.275000X0*%
%ADD16RoundRect,0.150000X0.150000X-0.512500X0.150000X0.512500X-0.150000X0.512500X-0.150000X-0.512500X0*%
%ADD17R,0.300000X0.700000*%
%ADD18R,1.000000X0.700000*%
%ADD19RoundRect,0.100000X0.712500X0.100000X-0.712500X0.100000X-0.712500X-0.100000X0.712500X-0.100000X0*%
%ADD20RoundRect,0.250000X-0.315000X0.315000X-0.315000X-0.315000X0.315000X-0.315000X0.315000X0.315000X0*%
%ADD21RoundRect,0.062500X-0.062500X0.375000X-0.062500X-0.375000X0.062500X-0.375000X0.062500X0.375000X0*%
%ADD22RoundRect,0.062500X-0.375000X0.062500X-0.375000X-0.062500X0.375000X-0.062500X0.375000X0.062500X0*%
%ADD23RoundRect,0.250000X-0.250000X-0.475000X0.250000X-0.475000X0.250000X0.475000X-0.250000X0.475000X0*%
%ADD24R,1.100000X0.250000*%
%ADD25RoundRect,0.200000X0.200000X0.275000X-0.200000X0.275000X-0.200000X-0.275000X0.200000X-0.275000X0*%
%ADD26R,2.400000X0.740000*%
%ADD27R,0.700000X0.600000*%
%ADD28RoundRect,0.250000X-0.475000X0.250000X-0.475000X-0.250000X0.475000X-0.250000X0.475000X0.250000X0*%
G04 APERTURE END LIST*
D10*
%TO.C,C12*%
X139425000Y-107000000D03*
X140975000Y-107000000D03*
%TD*%
D11*
%TO.C,C3*%
X146000000Y-89425000D03*
X146000000Y-90975000D03*
%TD*%
D10*
%TO.C,C11*%
X139425000Y-113600000D03*
X140975000Y-113600000D03*
%TD*%
D12*
%TO.C,C14*%
X144400000Y-90975000D03*
X144400000Y-89425000D03*
%TD*%
D10*
%TO.C,C4*%
X154225000Y-96000000D03*
X155775000Y-96000000D03*
%TD*%
D12*
%TO.C,C8*%
X152600000Y-95175000D03*
X152600000Y-93625000D03*
%TD*%
D13*
%TO.C,R15*%
X147200000Y-97975000D03*
X147200000Y-99625000D03*
%TD*%
D11*
%TO.C,C2*%
X156400000Y-89225000D03*
X156400000Y-90775000D03*
%TD*%
D14*
%TO.C,R5*%
X152910415Y-87225000D03*
X152910415Y-85575000D03*
%TD*%
D15*
%TO.C,R10*%
X153775000Y-110400000D03*
X155425000Y-110400000D03*
%TD*%
D16*
%TO.C,U4*%
X139450000Y-111737500D03*
X140400000Y-111737500D03*
X141350000Y-111737500D03*
X141350000Y-109462500D03*
X139450000Y-109462500D03*
%TD*%
D15*
%TO.C,R9*%
X153775000Y-112000000D03*
X155425000Y-112000000D03*
%TD*%
%TO.C,R12*%
X153775000Y-113600000D03*
X155425000Y-113600000D03*
%TD*%
D17*
%TO.C,J3*%
X144600000Y-107160000D03*
X145100000Y-107160000D03*
X145600000Y-107160000D03*
X146100000Y-107160000D03*
X146600000Y-107160000D03*
X147100000Y-107160000D03*
X148100000Y-107160000D03*
X148600000Y-107160000D03*
X149100000Y-107160000D03*
X149600000Y-107160000D03*
X150100000Y-107160000D03*
X150600000Y-107160000D03*
D18*
X150700000Y-108400000D03*
D17*
X149850000Y-108400000D03*
X149350000Y-108400000D03*
X148850000Y-108400000D03*
X148350000Y-108400000D03*
X147850000Y-108400000D03*
X147350000Y-108400000D03*
X146850000Y-108400000D03*
X146350000Y-108400000D03*
X145850000Y-108400000D03*
X145350000Y-108400000D03*
D18*
X144500000Y-108400000D03*
%TD*%
D13*
%TO.C,R2*%
X147600000Y-92375000D03*
X147600000Y-94025000D03*
%TD*%
D14*
%TO.C,R7*%
X154410415Y-87225000D03*
X154410415Y-85575000D03*
%TD*%
D19*
%TO.C,U1*%
X145312500Y-94775000D03*
X145312500Y-94125000D03*
X145312500Y-93475000D03*
X145312500Y-92825000D03*
X141087500Y-92825000D03*
X141087500Y-93475000D03*
X141087500Y-94125000D03*
X141087500Y-94775000D03*
%TD*%
D13*
%TO.C,R8*%
X151210415Y-85575000D03*
X151210415Y-87225000D03*
%TD*%
D20*
%TO.C,U5*%
X153100000Y-101900000D03*
X154500000Y-101900000D03*
X151700000Y-101900000D03*
X153100000Y-100500000D03*
X150300000Y-99100000D03*
X153100000Y-103300000D03*
X151700000Y-100500000D03*
X150300000Y-103300000D03*
X153100000Y-99100000D03*
X154500000Y-100500000D03*
X154500000Y-99100000D03*
X151700000Y-99100000D03*
X150300000Y-101900000D03*
X151700000Y-103300000D03*
X154500000Y-103300000D03*
X150300000Y-100500000D03*
D21*
X155150000Y-97762500D03*
X154650000Y-97762500D03*
X154150000Y-97762500D03*
X153650000Y-97762500D03*
X153150000Y-97762500D03*
X152650000Y-97762500D03*
X152150000Y-97762500D03*
X151650000Y-97762500D03*
X151150000Y-97762500D03*
X150650000Y-97762500D03*
X150150000Y-97762500D03*
X149650000Y-97762500D03*
D22*
X148962500Y-98450000D03*
X148962500Y-98950000D03*
X148962500Y-99450000D03*
X148962500Y-99950000D03*
X148962500Y-100450000D03*
X148962500Y-100950000D03*
X148962500Y-101450000D03*
X148962500Y-101950000D03*
X148962500Y-102450000D03*
X148962500Y-102950000D03*
X148962500Y-103450000D03*
X148962500Y-103950000D03*
D21*
X149650000Y-104637500D03*
X150150000Y-104637500D03*
X150650000Y-104637500D03*
X151150000Y-104637500D03*
X151650000Y-104637500D03*
X152150000Y-104637500D03*
X152650000Y-104637500D03*
X153150000Y-104637500D03*
X153650000Y-104637500D03*
X154150000Y-104637500D03*
X154650000Y-104637500D03*
X155150000Y-104637500D03*
D22*
X155837500Y-103950000D03*
X155837500Y-103450000D03*
X155837500Y-102950000D03*
X155837500Y-102450000D03*
X155837500Y-101950000D03*
X155837500Y-101450000D03*
X155837500Y-100950000D03*
X155837500Y-100450000D03*
X155837500Y-99950000D03*
X155837500Y-99450000D03*
X155837500Y-98950000D03*
X155837500Y-98450000D03*
%TD*%
D23*
%TO.C,C6*%
X154250000Y-94200000D03*
X156150000Y-94200000D03*
%TD*%
D14*
%TO.C,R1*%
X149200000Y-94025000D03*
X149200000Y-92375000D03*
%TD*%
%TO.C,R6*%
X156010415Y-87225000D03*
X156010415Y-85575000D03*
%TD*%
D24*
%TO.C,U2*%
X150050000Y-88800000D03*
X150050000Y-89300000D03*
X150050000Y-89800000D03*
X150050000Y-90300000D03*
X150050000Y-90800000D03*
X154350000Y-90800000D03*
X154350000Y-90300000D03*
X154350000Y-89800000D03*
X154350000Y-89300000D03*
X154350000Y-88800000D03*
%TD*%
D11*
%TO.C,C9*%
X154400000Y-107225000D03*
X154400000Y-108775000D03*
%TD*%
D12*
%TO.C,C7*%
X151000000Y-95175000D03*
X151000000Y-93625000D03*
%TD*%
D25*
%TO.C,R14*%
X149325000Y-95700000D03*
X147675000Y-95700000D03*
%TD*%
D13*
%TO.C,R17*%
X147200000Y-101175000D03*
X147200000Y-102825000D03*
%TD*%
D26*
%TO.C,J1*%
X139850000Y-99660000D03*
X143750000Y-99660000D03*
X139850000Y-100930000D03*
X143750000Y-100930000D03*
X139850000Y-102200000D03*
X143750000Y-102200000D03*
X139850000Y-103470000D03*
X143750000Y-103470000D03*
X139850000Y-104740000D03*
X143750000Y-104740000D03*
%TD*%
D10*
%TO.C,C1*%
X140825000Y-96400000D03*
X142375000Y-96400000D03*
%TD*%
%TO.C,C5*%
X154225000Y-92400000D03*
X155775000Y-92400000D03*
%TD*%
D27*
%TO.C,D2*%
X144300000Y-97900000D03*
X144300000Y-96500000D03*
X145300000Y-97900000D03*
X145300000Y-96500000D03*
%TD*%
D28*
%TO.C,C10*%
X156200000Y-106850000D03*
X156200000Y-108750000D03*
%TD*%
M02*
