%TF.GenerationSoftware,KiCad,Pcbnew,(5.99.0-8564-gb2cd1fddf9)*%
%TF.CreationDate,2021-01-25T15:54:05+03:00*%
%TF.ProjectId,Eloise_nA_meter_v2,456c6f69-7365-45f6-9e41-5f6d65746572,rev?*%
%TF.SameCoordinates,Original*%
%TF.FileFunction,Copper,L3,Inr*%
%TF.FilePolarity,Positive*%
%FSLAX46Y46*%
G04 Gerber Fmt 4.6, Leading zero omitted, Abs format (unit mm)*
G04 Created by KiCad (PCBNEW (5.99.0-8564-gb2cd1fddf9)) date 2021-01-25 15:54:05*
%MOMM*%
%LPD*%
G01*
G04 APERTURE LIST*
%TA.AperFunction,ComponentPad*%
%ADD10R,1.700000X1.700000*%
%TD*%
%TA.AperFunction,ComponentPad*%
%ADD11O,1.700000X1.700000*%
%TD*%
%TA.AperFunction,ComponentPad*%
%ADD12O,1.100000X2.600000*%
%TD*%
%TA.AperFunction,ComponentPad*%
%ADD13O,1.100000X2.100000*%
%TD*%
%TA.AperFunction,ViaPad*%
%ADD14C,0.800000*%
%TD*%
%TA.AperFunction,Conductor*%
%ADD15C,0.254000*%
%TD*%
G04 APERTURE END LIST*
D10*
%TO.N,Net-(J2-Pad1)*%
%TO.C,J2*%
X139600000Y-86800000D03*
D11*
%TO.N,Net-(J2-Pad2)*%
X142140000Y-86800000D03*
%TO.N,GND*%
X144680000Y-86800000D03*
%TD*%
D12*
%TO.N,Net-(J3-PadS1)*%
%TO.C,J3*%
X151920000Y-112870000D03*
D13*
X143280000Y-107510000D03*
D12*
X143280000Y-112870000D03*
D13*
X151920000Y-107510000D03*
%TD*%
D14*
%TO.N,GND*%
X149600000Y-111200000D03*
X143000000Y-89400000D03*
X155600000Y-90600000D03*
X151800000Y-90600000D03*
X156600000Y-113600000D03*
X155775000Y-95225000D03*
X145400000Y-92000000D03*
X154000000Y-99700000D03*
X154000000Y-102700000D03*
X150900000Y-102700000D03*
X142000000Y-113600000D03*
X142400000Y-97600000D03*
X150900000Y-99700000D03*
X150600000Y-109600000D03*
X139850000Y-101550000D03*
X151775000Y-93625000D03*
X143600000Y-109300000D03*
X140300000Y-105700000D03*
X149600000Y-112800000D03*
X152400000Y-101200000D03*
X151400000Y-88400000D03*
X156600000Y-110000000D03*
%TO.N,+3V3*%
X156400000Y-88400000D03*
X155235415Y-85575000D03*
X140800000Y-97600000D03*
X155175000Y-105825000D03*
X139500000Y-108100000D03*
X143800000Y-95600000D03*
X151825000Y-95175000D03*
X154225000Y-93175000D03*
X145800000Y-105450001D03*
X139800000Y-98600000D03*
X138400000Y-107200000D03*
X138400000Y-109400000D03*
%TO.N,VBUS*%
X142200000Y-111400000D03*
X138600000Y-111800000D03*
X146000000Y-109600000D03*
X149200000Y-109600000D03*
%TO.N,/NRST*%
X152000000Y-96600000D03*
X145787347Y-103812653D03*
%TO.N,Net-(C14-Pad1)*%
X142600000Y-93400000D03*
X143200000Y-91000000D03*
%TO.N,/SWCLK*%
X156600000Y-104800000D03*
X147000000Y-104000000D03*
%TO.N,/SWDIO*%
X153069951Y-106999353D03*
X141800000Y-104600000D03*
%TO.N,/SENSOR_VMEAS*%
X139400000Y-94200000D03*
X151400000Y-91800000D03*
%TO.N,/USB_D-*%
X148743851Y-106209998D03*
X147400000Y-109600000D03*
%TO.N,/USB_D+*%
X147400000Y-106000000D03*
X150000000Y-106200000D03*
%TO.N,Net-(J3-PadA5)*%
X144800000Y-106200000D03*
X144800000Y-109350002D03*
%TO.N,Net-(C3-Pad1)*%
X147600000Y-91200000D03*
X147600000Y-89400000D03*
%TO.N,/ADC_ALERT*%
X156200000Y-97400000D03*
X153000000Y-96600000D03*
%TO.N,/SCL*%
X155353248Y-88781850D03*
X156950000Y-102200000D03*
%TD*%
%TO.N,VBUS*%
D15*
X147066464Y-106983897D02*
X147091516Y-106992037D01*
X147278316Y-107031743D01*
X147304513Y-107034496D01*
X147495487Y-107034496D01*
X147521684Y-107031743D01*
X147708484Y-106992037D01*
X147733536Y-106983897D01*
X147863575Y-106926000D01*
X147996490Y-106926000D01*
X148038964Y-106973172D01*
X148058539Y-106990797D01*
X148213040Y-107103048D01*
X148235852Y-107116219D01*
X148410315Y-107193895D01*
X148435367Y-107202035D01*
X148622167Y-107241741D01*
X148648364Y-107244494D01*
X148839338Y-107244494D01*
X148865535Y-107241741D01*
X149052335Y-107202035D01*
X149077387Y-107193895D01*
X149251850Y-107116219D01*
X149274662Y-107103048D01*
X149378806Y-107027383D01*
X149469189Y-107093050D01*
X149492001Y-107106221D01*
X149666464Y-107183897D01*
X149691516Y-107192037D01*
X149878316Y-107231743D01*
X149904513Y-107234496D01*
X150095487Y-107234496D01*
X150121684Y-107231743D01*
X150308484Y-107192037D01*
X150333536Y-107183897D01*
X150507999Y-107106221D01*
X150530811Y-107093050D01*
X150685312Y-106980799D01*
X150704887Y-106963174D01*
X150726584Y-106939077D01*
X150736142Y-106940018D01*
X150735500Y-106951502D01*
X150735500Y-108060994D01*
X150736101Y-108073289D01*
X150751355Y-108228863D01*
X150756132Y-108252986D01*
X150816123Y-108451686D01*
X150825494Y-108474421D01*
X150894972Y-108605091D01*
X150721684Y-108568257D01*
X150695487Y-108565504D01*
X150504513Y-108565504D01*
X150478316Y-108568257D01*
X150291516Y-108607963D01*
X150266464Y-108616103D01*
X150092001Y-108693779D01*
X150069189Y-108706950D01*
X149914688Y-108819201D01*
X149895113Y-108836827D01*
X149767327Y-108978748D01*
X149751844Y-109000058D01*
X149656357Y-109165446D01*
X149645643Y-109189510D01*
X149586629Y-109371137D01*
X149581152Y-109396902D01*
X149561190Y-109586829D01*
X149561190Y-109613171D01*
X149581152Y-109803098D01*
X149586629Y-109828863D01*
X149645643Y-110010490D01*
X149656357Y-110034554D01*
X149735211Y-110171132D01*
X149721684Y-110168257D01*
X149695487Y-110165504D01*
X149504513Y-110165504D01*
X149478316Y-110168257D01*
X149291516Y-110207963D01*
X149266464Y-110216103D01*
X149092001Y-110293779D01*
X149069189Y-110306950D01*
X148914688Y-110419201D01*
X148895113Y-110436827D01*
X148767327Y-110578748D01*
X148751844Y-110600058D01*
X148656357Y-110765446D01*
X148645643Y-110789510D01*
X148586629Y-110971137D01*
X148581152Y-110996902D01*
X148561190Y-111186829D01*
X148561190Y-111213171D01*
X148581152Y-111403098D01*
X148586629Y-111428863D01*
X148645643Y-111610490D01*
X148656357Y-111634554D01*
X148751844Y-111799942D01*
X148767327Y-111821252D01*
X148895113Y-111963173D01*
X148914688Y-111980799D01*
X148941116Y-112000000D01*
X148914688Y-112019201D01*
X148895113Y-112036827D01*
X148767327Y-112178748D01*
X148751844Y-112200058D01*
X148656357Y-112365446D01*
X148645643Y-112389510D01*
X148586629Y-112571137D01*
X148581152Y-112596902D01*
X148561190Y-112786829D01*
X148561190Y-112813171D01*
X148581152Y-113003098D01*
X148586629Y-113028863D01*
X148645643Y-113210490D01*
X148656357Y-113234554D01*
X148751844Y-113399942D01*
X148767327Y-113421252D01*
X148895113Y-113563173D01*
X148914688Y-113580799D01*
X149069189Y-113693050D01*
X149092001Y-113706221D01*
X149266464Y-113783897D01*
X149291516Y-113792037D01*
X149478316Y-113831743D01*
X149504513Y-113834496D01*
X149695487Y-113834496D01*
X149721684Y-113831743D01*
X149908484Y-113792037D01*
X149933536Y-113783897D01*
X150107999Y-113706221D01*
X150130811Y-113693050D01*
X150285312Y-113580799D01*
X150304887Y-113563173D01*
X150432673Y-113421252D01*
X150448156Y-113399942D01*
X150543643Y-113234554D01*
X150554357Y-113210490D01*
X150613371Y-113028863D01*
X150618848Y-113003098D01*
X150638810Y-112813171D01*
X150638810Y-112786829D01*
X150618848Y-112596902D01*
X150613371Y-112571137D01*
X150554357Y-112389510D01*
X150543643Y-112365446D01*
X150448156Y-112200058D01*
X150432673Y-112178748D01*
X150304887Y-112036827D01*
X150285312Y-112019201D01*
X150258884Y-112000000D01*
X150285312Y-111980799D01*
X150304887Y-111963173D01*
X150432673Y-111821252D01*
X150448156Y-111799942D01*
X150543643Y-111634554D01*
X150554357Y-111610490D01*
X150613371Y-111428863D01*
X150618848Y-111403098D01*
X150638810Y-111213171D01*
X150638810Y-111186829D01*
X150618848Y-110996902D01*
X150613371Y-110971137D01*
X150554357Y-110789510D01*
X150543643Y-110765446D01*
X150464789Y-110628868D01*
X150478316Y-110631743D01*
X150504513Y-110634496D01*
X150695487Y-110634496D01*
X150721684Y-110631743D01*
X150908484Y-110592037D01*
X150933536Y-110583897D01*
X151107999Y-110506221D01*
X151130811Y-110493050D01*
X151285312Y-110380799D01*
X151304887Y-110363173D01*
X151432673Y-110221252D01*
X151448156Y-110199942D01*
X151474000Y-110155179D01*
X151474000Y-111017927D01*
X151463231Y-111022278D01*
X151279292Y-111118439D01*
X151258715Y-111131904D01*
X151096956Y-111261961D01*
X151079386Y-111279167D01*
X150945970Y-111438167D01*
X150932077Y-111458457D01*
X150832085Y-111640342D01*
X150822398Y-111662944D01*
X150759638Y-111860787D01*
X150754525Y-111884841D01*
X150736285Y-112047457D01*
X150735500Y-112061502D01*
X150735500Y-113670994D01*
X150736101Y-113683289D01*
X150751355Y-113838863D01*
X150756132Y-113862986D01*
X150816123Y-114061686D01*
X150825494Y-114084421D01*
X150847229Y-114125299D01*
X150770387Y-114148609D01*
X150593813Y-114166000D01*
X144331443Y-114166000D01*
X144367915Y-114099658D01*
X144377602Y-114077056D01*
X144440362Y-113879213D01*
X144445475Y-113855159D01*
X144463715Y-113692543D01*
X144464500Y-113678498D01*
X144464500Y-112069006D01*
X144463899Y-112056711D01*
X144448645Y-111901137D01*
X144443868Y-111877014D01*
X144383877Y-111678314D01*
X144374506Y-111655579D01*
X144277063Y-111472315D01*
X144263455Y-111451832D01*
X144132271Y-111290986D01*
X144114944Y-111273538D01*
X143955018Y-111141235D01*
X143934631Y-111127483D01*
X143752052Y-111028763D01*
X143729382Y-111019234D01*
X143531105Y-110957857D01*
X143507017Y-110952912D01*
X143300596Y-110931216D01*
X143276005Y-110931045D01*
X143069300Y-110949857D01*
X143045145Y-110954464D01*
X142846031Y-111013066D01*
X142823231Y-111022278D01*
X142639292Y-111118439D01*
X142618715Y-111131904D01*
X142456956Y-111261961D01*
X142439386Y-111279167D01*
X142305970Y-111438167D01*
X142292077Y-111458457D01*
X142192085Y-111640342D01*
X142182398Y-111662944D01*
X142119638Y-111860787D01*
X142114525Y-111884841D01*
X142096285Y-112047457D01*
X142095500Y-112061502D01*
X142095500Y-112565505D01*
X142095487Y-112565504D01*
X141904513Y-112565504D01*
X141878316Y-112568257D01*
X141691516Y-112607963D01*
X141666464Y-112616103D01*
X141492001Y-112693779D01*
X141469189Y-112706950D01*
X141314688Y-112819201D01*
X141295113Y-112836827D01*
X141167327Y-112978748D01*
X141151844Y-113000058D01*
X141056357Y-113165446D01*
X141045643Y-113189510D01*
X140986629Y-113371137D01*
X140981152Y-113396902D01*
X140961190Y-113586829D01*
X140961190Y-113613171D01*
X140981152Y-113803098D01*
X140986629Y-113828863D01*
X141045643Y-114010490D01*
X141056357Y-114034554D01*
X141132248Y-114166000D01*
X138683528Y-114166000D01*
X138672654Y-114164042D01*
X138653309Y-114162083D01*
X138572155Y-114160161D01*
X138495383Y-114144890D01*
X138430102Y-114117850D01*
X138371358Y-114078599D01*
X138321401Y-114028642D01*
X138282150Y-113969899D01*
X138255109Y-113904618D01*
X138239839Y-113827846D01*
X138237995Y-113749969D01*
X138236300Y-113732144D01*
X138234000Y-113718408D01*
X138234000Y-111806187D01*
X138251391Y-111629613D01*
X138301093Y-111465767D01*
X138381803Y-111314768D01*
X138490419Y-111182419D01*
X138622768Y-111073803D01*
X138773767Y-110993093D01*
X138937613Y-110943391D01*
X139114187Y-110926000D01*
X140600000Y-110926000D01*
X140612350Y-110925393D01*
X140807440Y-110906178D01*
X140831665Y-110901360D01*
X141019258Y-110844455D01*
X141042079Y-110835002D01*
X141107563Y-110800000D01*
X141600000Y-110800000D01*
X141600000Y-110307563D01*
X141635002Y-110242079D01*
X141644455Y-110219258D01*
X141701360Y-110031665D01*
X141706178Y-110007440D01*
X141725393Y-109812350D01*
X141726000Y-109800000D01*
X141726000Y-107806187D01*
X141743391Y-107629613D01*
X141793093Y-107465767D01*
X141873803Y-107314768D01*
X141982419Y-107182419D01*
X142095500Y-107089616D01*
X142095500Y-108060994D01*
X142096101Y-108073289D01*
X142111355Y-108228863D01*
X142116132Y-108252986D01*
X142176123Y-108451686D01*
X142185494Y-108474421D01*
X142282937Y-108657685D01*
X142296545Y-108678168D01*
X142427729Y-108839014D01*
X142445056Y-108856462D01*
X142604982Y-108988765D01*
X142611881Y-108993419D01*
X142586629Y-109071137D01*
X142581152Y-109096902D01*
X142561190Y-109286829D01*
X142561190Y-109313171D01*
X142581152Y-109503098D01*
X142586629Y-109528863D01*
X142645643Y-109710490D01*
X142656357Y-109734554D01*
X142751844Y-109899942D01*
X142767327Y-109921252D01*
X142895113Y-110063173D01*
X142914688Y-110080799D01*
X143069189Y-110193050D01*
X143092001Y-110206221D01*
X143266464Y-110283897D01*
X143291516Y-110292037D01*
X143478316Y-110331743D01*
X143504513Y-110334496D01*
X143695487Y-110334496D01*
X143721684Y-110331743D01*
X143908484Y-110292037D01*
X143933536Y-110283897D01*
X144107999Y-110206221D01*
X144130811Y-110193050D01*
X144165589Y-110167782D01*
X144269189Y-110243052D01*
X144292001Y-110256223D01*
X144466464Y-110333899D01*
X144491516Y-110342039D01*
X144678316Y-110381745D01*
X144704513Y-110384498D01*
X144895487Y-110384498D01*
X144921684Y-110381745D01*
X145108484Y-110342039D01*
X145133536Y-110333899D01*
X145307999Y-110256223D01*
X145330811Y-110243052D01*
X145485312Y-110130801D01*
X145504887Y-110113175D01*
X145632673Y-109971254D01*
X145648156Y-109949944D01*
X145743643Y-109784556D01*
X145754357Y-109760492D01*
X145810783Y-109586829D01*
X146361190Y-109586829D01*
X146361190Y-109613171D01*
X146381152Y-109803098D01*
X146386629Y-109828863D01*
X146445643Y-110010490D01*
X146456357Y-110034554D01*
X146551844Y-110199942D01*
X146567327Y-110221252D01*
X146695113Y-110363173D01*
X146714688Y-110380799D01*
X146869189Y-110493050D01*
X146892001Y-110506221D01*
X147066464Y-110583897D01*
X147091516Y-110592037D01*
X147278316Y-110631743D01*
X147304513Y-110634496D01*
X147495487Y-110634496D01*
X147521684Y-110631743D01*
X147708484Y-110592037D01*
X147733536Y-110583897D01*
X147907999Y-110506221D01*
X147930811Y-110493050D01*
X148085312Y-110380799D01*
X148104887Y-110363173D01*
X148232673Y-110221252D01*
X148248156Y-110199942D01*
X148343643Y-110034554D01*
X148354357Y-110010490D01*
X148413371Y-109828863D01*
X148418848Y-109803098D01*
X148438810Y-109613171D01*
X148438810Y-109586829D01*
X148418848Y-109396902D01*
X148413371Y-109371137D01*
X148354357Y-109189510D01*
X148343643Y-109165446D01*
X148248156Y-109000058D01*
X148232673Y-108978748D01*
X148104887Y-108836827D01*
X148085312Y-108819201D01*
X147930811Y-108706950D01*
X147907999Y-108693779D01*
X147733536Y-108616103D01*
X147708484Y-108607963D01*
X147521684Y-108568257D01*
X147495487Y-108565504D01*
X147304513Y-108565504D01*
X147278316Y-108568257D01*
X147091516Y-108607963D01*
X147066464Y-108616103D01*
X146892001Y-108693779D01*
X146869189Y-108706950D01*
X146714688Y-108819201D01*
X146695113Y-108836827D01*
X146567327Y-108978748D01*
X146551844Y-109000058D01*
X146456357Y-109165446D01*
X146445643Y-109189510D01*
X146386629Y-109371137D01*
X146381152Y-109396902D01*
X146361190Y-109586829D01*
X145810783Y-109586829D01*
X145813371Y-109578865D01*
X145818848Y-109553100D01*
X145838810Y-109363173D01*
X145838810Y-109336831D01*
X145818848Y-109146904D01*
X145813371Y-109121139D01*
X145754357Y-108939512D01*
X145743643Y-108915448D01*
X145648156Y-108750060D01*
X145632673Y-108728750D01*
X145504887Y-108586829D01*
X145485312Y-108569203D01*
X145330811Y-108456952D01*
X145307999Y-108443781D01*
X145133536Y-108366105D01*
X145108484Y-108357965D01*
X144921684Y-108318259D01*
X144895487Y-108315506D01*
X144704513Y-108315506D01*
X144678316Y-108318259D01*
X144491516Y-108357965D01*
X144466464Y-108366105D01*
X144400278Y-108395573D01*
X144440362Y-108269213D01*
X144445475Y-108245159D01*
X144463715Y-108082543D01*
X144464500Y-108068498D01*
X144464500Y-107183023D01*
X144466464Y-107183897D01*
X144491516Y-107192037D01*
X144678316Y-107231743D01*
X144704513Y-107234496D01*
X144895487Y-107234496D01*
X144921684Y-107231743D01*
X145108484Y-107192037D01*
X145133536Y-107183897D01*
X145307999Y-107106221D01*
X145330811Y-107093050D01*
X145485312Y-106980799D01*
X145504888Y-106963173D01*
X145538358Y-106926000D01*
X146936425Y-106926000D01*
X147066464Y-106983897D01*
%TA.AperFunction,Conductor*%
G36*
X147066464Y-106983897D02*
G01*
X147091516Y-106992037D01*
X147278316Y-107031743D01*
X147304513Y-107034496D01*
X147495487Y-107034496D01*
X147521684Y-107031743D01*
X147708484Y-106992037D01*
X147733536Y-106983897D01*
X147863575Y-106926000D01*
X147996490Y-106926000D01*
X148038964Y-106973172D01*
X148058539Y-106990797D01*
X148213040Y-107103048D01*
X148235852Y-107116219D01*
X148410315Y-107193895D01*
X148435367Y-107202035D01*
X148622167Y-107241741D01*
X148648364Y-107244494D01*
X148839338Y-107244494D01*
X148865535Y-107241741D01*
X149052335Y-107202035D01*
X149077387Y-107193895D01*
X149251850Y-107116219D01*
X149274662Y-107103048D01*
X149378806Y-107027383D01*
X149469189Y-107093050D01*
X149492001Y-107106221D01*
X149666464Y-107183897D01*
X149691516Y-107192037D01*
X149878316Y-107231743D01*
X149904513Y-107234496D01*
X150095487Y-107234496D01*
X150121684Y-107231743D01*
X150308484Y-107192037D01*
X150333536Y-107183897D01*
X150507999Y-107106221D01*
X150530811Y-107093050D01*
X150685312Y-106980799D01*
X150704887Y-106963174D01*
X150726584Y-106939077D01*
X150736142Y-106940018D01*
X150735500Y-106951502D01*
X150735500Y-108060994D01*
X150736101Y-108073289D01*
X150751355Y-108228863D01*
X150756132Y-108252986D01*
X150816123Y-108451686D01*
X150825494Y-108474421D01*
X150894972Y-108605091D01*
X150721684Y-108568257D01*
X150695487Y-108565504D01*
X150504513Y-108565504D01*
X150478316Y-108568257D01*
X150291516Y-108607963D01*
X150266464Y-108616103D01*
X150092001Y-108693779D01*
X150069189Y-108706950D01*
X149914688Y-108819201D01*
X149895113Y-108836827D01*
X149767327Y-108978748D01*
X149751844Y-109000058D01*
X149656357Y-109165446D01*
X149645643Y-109189510D01*
X149586629Y-109371137D01*
X149581152Y-109396902D01*
X149561190Y-109586829D01*
X149561190Y-109613171D01*
X149581152Y-109803098D01*
X149586629Y-109828863D01*
X149645643Y-110010490D01*
X149656357Y-110034554D01*
X149735211Y-110171132D01*
X149721684Y-110168257D01*
X149695487Y-110165504D01*
X149504513Y-110165504D01*
X149478316Y-110168257D01*
X149291516Y-110207963D01*
X149266464Y-110216103D01*
X149092001Y-110293779D01*
X149069189Y-110306950D01*
X148914688Y-110419201D01*
X148895113Y-110436827D01*
X148767327Y-110578748D01*
X148751844Y-110600058D01*
X148656357Y-110765446D01*
X148645643Y-110789510D01*
X148586629Y-110971137D01*
X148581152Y-110996902D01*
X148561190Y-111186829D01*
X148561190Y-111213171D01*
X148581152Y-111403098D01*
X148586629Y-111428863D01*
X148645643Y-111610490D01*
X148656357Y-111634554D01*
X148751844Y-111799942D01*
X148767327Y-111821252D01*
X148895113Y-111963173D01*
X148914688Y-111980799D01*
X148941116Y-112000000D01*
X148914688Y-112019201D01*
X148895113Y-112036827D01*
X148767327Y-112178748D01*
X148751844Y-112200058D01*
X148656357Y-112365446D01*
X148645643Y-112389510D01*
X148586629Y-112571137D01*
X148581152Y-112596902D01*
X148561190Y-112786829D01*
X148561190Y-112813171D01*
X148581152Y-113003098D01*
X148586629Y-113028863D01*
X148645643Y-113210490D01*
X148656357Y-113234554D01*
X148751844Y-113399942D01*
X148767327Y-113421252D01*
X148895113Y-113563173D01*
X148914688Y-113580799D01*
X149069189Y-113693050D01*
X149092001Y-113706221D01*
X149266464Y-113783897D01*
X149291516Y-113792037D01*
X149478316Y-113831743D01*
X149504513Y-113834496D01*
X149695487Y-113834496D01*
X149721684Y-113831743D01*
X149908484Y-113792037D01*
X149933536Y-113783897D01*
X150107999Y-113706221D01*
X150130811Y-113693050D01*
X150285312Y-113580799D01*
X150304887Y-113563173D01*
X150432673Y-113421252D01*
X150448156Y-113399942D01*
X150543643Y-113234554D01*
X150554357Y-113210490D01*
X150613371Y-113028863D01*
X150618848Y-113003098D01*
X150638810Y-112813171D01*
X150638810Y-112786829D01*
X150618848Y-112596902D01*
X150613371Y-112571137D01*
X150554357Y-112389510D01*
X150543643Y-112365446D01*
X150448156Y-112200058D01*
X150432673Y-112178748D01*
X150304887Y-112036827D01*
X150285312Y-112019201D01*
X150258884Y-112000000D01*
X150285312Y-111980799D01*
X150304887Y-111963173D01*
X150432673Y-111821252D01*
X150448156Y-111799942D01*
X150543643Y-111634554D01*
X150554357Y-111610490D01*
X150613371Y-111428863D01*
X150618848Y-111403098D01*
X150638810Y-111213171D01*
X150638810Y-111186829D01*
X150618848Y-110996902D01*
X150613371Y-110971137D01*
X150554357Y-110789510D01*
X150543643Y-110765446D01*
X150464789Y-110628868D01*
X150478316Y-110631743D01*
X150504513Y-110634496D01*
X150695487Y-110634496D01*
X150721684Y-110631743D01*
X150908484Y-110592037D01*
X150933536Y-110583897D01*
X151107999Y-110506221D01*
X151130811Y-110493050D01*
X151285312Y-110380799D01*
X151304887Y-110363173D01*
X151432673Y-110221252D01*
X151448156Y-110199942D01*
X151474000Y-110155179D01*
X151474000Y-111017927D01*
X151463231Y-111022278D01*
X151279292Y-111118439D01*
X151258715Y-111131904D01*
X151096956Y-111261961D01*
X151079386Y-111279167D01*
X150945970Y-111438167D01*
X150932077Y-111458457D01*
X150832085Y-111640342D01*
X150822398Y-111662944D01*
X150759638Y-111860787D01*
X150754525Y-111884841D01*
X150736285Y-112047457D01*
X150735500Y-112061502D01*
X150735500Y-113670994D01*
X150736101Y-113683289D01*
X150751355Y-113838863D01*
X150756132Y-113862986D01*
X150816123Y-114061686D01*
X150825494Y-114084421D01*
X150847229Y-114125299D01*
X150770387Y-114148609D01*
X150593813Y-114166000D01*
X144331443Y-114166000D01*
X144367915Y-114099658D01*
X144377602Y-114077056D01*
X144440362Y-113879213D01*
X144445475Y-113855159D01*
X144463715Y-113692543D01*
X144464500Y-113678498D01*
X144464500Y-112069006D01*
X144463899Y-112056711D01*
X144448645Y-111901137D01*
X144443868Y-111877014D01*
X144383877Y-111678314D01*
X144374506Y-111655579D01*
X144277063Y-111472315D01*
X144263455Y-111451832D01*
X144132271Y-111290986D01*
X144114944Y-111273538D01*
X143955018Y-111141235D01*
X143934631Y-111127483D01*
X143752052Y-111028763D01*
X143729382Y-111019234D01*
X143531105Y-110957857D01*
X143507017Y-110952912D01*
X143300596Y-110931216D01*
X143276005Y-110931045D01*
X143069300Y-110949857D01*
X143045145Y-110954464D01*
X142846031Y-111013066D01*
X142823231Y-111022278D01*
X142639292Y-111118439D01*
X142618715Y-111131904D01*
X142456956Y-111261961D01*
X142439386Y-111279167D01*
X142305970Y-111438167D01*
X142292077Y-111458457D01*
X142192085Y-111640342D01*
X142182398Y-111662944D01*
X142119638Y-111860787D01*
X142114525Y-111884841D01*
X142096285Y-112047457D01*
X142095500Y-112061502D01*
X142095500Y-112565505D01*
X142095487Y-112565504D01*
X141904513Y-112565504D01*
X141878316Y-112568257D01*
X141691516Y-112607963D01*
X141666464Y-112616103D01*
X141492001Y-112693779D01*
X141469189Y-112706950D01*
X141314688Y-112819201D01*
X141295113Y-112836827D01*
X141167327Y-112978748D01*
X141151844Y-113000058D01*
X141056357Y-113165446D01*
X141045643Y-113189510D01*
X140986629Y-113371137D01*
X140981152Y-113396902D01*
X140961190Y-113586829D01*
X140961190Y-113613171D01*
X140981152Y-113803098D01*
X140986629Y-113828863D01*
X141045643Y-114010490D01*
X141056357Y-114034554D01*
X141132248Y-114166000D01*
X138683528Y-114166000D01*
X138672654Y-114164042D01*
X138653309Y-114162083D01*
X138572155Y-114160161D01*
X138495383Y-114144890D01*
X138430102Y-114117850D01*
X138371358Y-114078599D01*
X138321401Y-114028642D01*
X138282150Y-113969899D01*
X138255109Y-113904618D01*
X138239839Y-113827846D01*
X138237995Y-113749969D01*
X138236300Y-113732144D01*
X138234000Y-113718408D01*
X138234000Y-111806187D01*
X138251391Y-111629613D01*
X138301093Y-111465767D01*
X138381803Y-111314768D01*
X138490419Y-111182419D01*
X138622768Y-111073803D01*
X138773767Y-110993093D01*
X138937613Y-110943391D01*
X139114187Y-110926000D01*
X140600000Y-110926000D01*
X140612350Y-110925393D01*
X140807440Y-110906178D01*
X140831665Y-110901360D01*
X141019258Y-110844455D01*
X141042079Y-110835002D01*
X141107563Y-110800000D01*
X141600000Y-110800000D01*
X141600000Y-110307563D01*
X141635002Y-110242079D01*
X141644455Y-110219258D01*
X141701360Y-110031665D01*
X141706178Y-110007440D01*
X141725393Y-109812350D01*
X141726000Y-109800000D01*
X141726000Y-107806187D01*
X141743391Y-107629613D01*
X141793093Y-107465767D01*
X141873803Y-107314768D01*
X141982419Y-107182419D01*
X142095500Y-107089616D01*
X142095500Y-108060994D01*
X142096101Y-108073289D01*
X142111355Y-108228863D01*
X142116132Y-108252986D01*
X142176123Y-108451686D01*
X142185494Y-108474421D01*
X142282937Y-108657685D01*
X142296545Y-108678168D01*
X142427729Y-108839014D01*
X142445056Y-108856462D01*
X142604982Y-108988765D01*
X142611881Y-108993419D01*
X142586629Y-109071137D01*
X142581152Y-109096902D01*
X142561190Y-109286829D01*
X142561190Y-109313171D01*
X142581152Y-109503098D01*
X142586629Y-109528863D01*
X142645643Y-109710490D01*
X142656357Y-109734554D01*
X142751844Y-109899942D01*
X142767327Y-109921252D01*
X142895113Y-110063173D01*
X142914688Y-110080799D01*
X143069189Y-110193050D01*
X143092001Y-110206221D01*
X143266464Y-110283897D01*
X143291516Y-110292037D01*
X143478316Y-110331743D01*
X143504513Y-110334496D01*
X143695487Y-110334496D01*
X143721684Y-110331743D01*
X143908484Y-110292037D01*
X143933536Y-110283897D01*
X144107999Y-110206221D01*
X144130811Y-110193050D01*
X144165589Y-110167782D01*
X144269189Y-110243052D01*
X144292001Y-110256223D01*
X144466464Y-110333899D01*
X144491516Y-110342039D01*
X144678316Y-110381745D01*
X144704513Y-110384498D01*
X144895487Y-110384498D01*
X144921684Y-110381745D01*
X145108484Y-110342039D01*
X145133536Y-110333899D01*
X145307999Y-110256223D01*
X145330811Y-110243052D01*
X145485312Y-110130801D01*
X145504887Y-110113175D01*
X145632673Y-109971254D01*
X145648156Y-109949944D01*
X145743643Y-109784556D01*
X145754357Y-109760492D01*
X145810783Y-109586829D01*
X146361190Y-109586829D01*
X146361190Y-109613171D01*
X146381152Y-109803098D01*
X146386629Y-109828863D01*
X146445643Y-110010490D01*
X146456357Y-110034554D01*
X146551844Y-110199942D01*
X146567327Y-110221252D01*
X146695113Y-110363173D01*
X146714688Y-110380799D01*
X146869189Y-110493050D01*
X146892001Y-110506221D01*
X147066464Y-110583897D01*
X147091516Y-110592037D01*
X147278316Y-110631743D01*
X147304513Y-110634496D01*
X147495487Y-110634496D01*
X147521684Y-110631743D01*
X147708484Y-110592037D01*
X147733536Y-110583897D01*
X147907999Y-110506221D01*
X147930811Y-110493050D01*
X148085312Y-110380799D01*
X148104887Y-110363173D01*
X148232673Y-110221252D01*
X148248156Y-110199942D01*
X148343643Y-110034554D01*
X148354357Y-110010490D01*
X148413371Y-109828863D01*
X148418848Y-109803098D01*
X148438810Y-109613171D01*
X148438810Y-109586829D01*
X148418848Y-109396902D01*
X148413371Y-109371137D01*
X148354357Y-109189510D01*
X148343643Y-109165446D01*
X148248156Y-109000058D01*
X148232673Y-108978748D01*
X148104887Y-108836827D01*
X148085312Y-108819201D01*
X147930811Y-108706950D01*
X147907999Y-108693779D01*
X147733536Y-108616103D01*
X147708484Y-108607963D01*
X147521684Y-108568257D01*
X147495487Y-108565504D01*
X147304513Y-108565504D01*
X147278316Y-108568257D01*
X147091516Y-108607963D01*
X147066464Y-108616103D01*
X146892001Y-108693779D01*
X146869189Y-108706950D01*
X146714688Y-108819201D01*
X146695113Y-108836827D01*
X146567327Y-108978748D01*
X146551844Y-109000058D01*
X146456357Y-109165446D01*
X146445643Y-109189510D01*
X146386629Y-109371137D01*
X146381152Y-109396902D01*
X146361190Y-109586829D01*
X145810783Y-109586829D01*
X145813371Y-109578865D01*
X145818848Y-109553100D01*
X145838810Y-109363173D01*
X145838810Y-109336831D01*
X145818848Y-109146904D01*
X145813371Y-109121139D01*
X145754357Y-108939512D01*
X145743643Y-108915448D01*
X145648156Y-108750060D01*
X145632673Y-108728750D01*
X145504887Y-108586829D01*
X145485312Y-108569203D01*
X145330811Y-108456952D01*
X145307999Y-108443781D01*
X145133536Y-108366105D01*
X145108484Y-108357965D01*
X144921684Y-108318259D01*
X144895487Y-108315506D01*
X144704513Y-108315506D01*
X144678316Y-108318259D01*
X144491516Y-108357965D01*
X144466464Y-108366105D01*
X144400278Y-108395573D01*
X144440362Y-108269213D01*
X144445475Y-108245159D01*
X144463715Y-108082543D01*
X144464500Y-108068498D01*
X144464500Y-107183023D01*
X144466464Y-107183897D01*
X144491516Y-107192037D01*
X144678316Y-107231743D01*
X144704513Y-107234496D01*
X144895487Y-107234496D01*
X144921684Y-107231743D01*
X145108484Y-107192037D01*
X145133536Y-107183897D01*
X145307999Y-107106221D01*
X145330811Y-107093050D01*
X145485312Y-106980799D01*
X145504888Y-106963173D01*
X145538358Y-106926000D01*
X146936425Y-106926000D01*
X147066464Y-106983897D01*
G37*
%TD.AperFunction*%
%TD*%
%TO.N,+3V3*%
X156527346Y-85435958D02*
X156546691Y-85437917D01*
X156627844Y-85439839D01*
X156704616Y-85455109D01*
X156769900Y-85482151D01*
X156828642Y-85521401D01*
X156878600Y-85571359D01*
X156917851Y-85630103D01*
X156944889Y-85695379D01*
X156960161Y-85772157D01*
X156962005Y-85850032D01*
X156963700Y-85867857D01*
X156966000Y-85881593D01*
X156966000Y-96704700D01*
X156904887Y-96636827D01*
X156885312Y-96619201D01*
X156730811Y-96506950D01*
X156707999Y-96493779D01*
X156533536Y-96416103D01*
X156508484Y-96407963D01*
X156321684Y-96368257D01*
X156295487Y-96365504D01*
X156104513Y-96365504D01*
X156078316Y-96368257D01*
X155891516Y-96407963D01*
X155866464Y-96416103D01*
X155692001Y-96493779D01*
X155669189Y-96506950D01*
X155514688Y-96619201D01*
X155495113Y-96636827D01*
X155367327Y-96778748D01*
X155351844Y-96800058D01*
X155256357Y-96965446D01*
X155245643Y-96989510D01*
X155186629Y-97171137D01*
X155181152Y-97196902D01*
X155161190Y-97386829D01*
X155161190Y-97413171D01*
X155181152Y-97603098D01*
X155186629Y-97628863D01*
X155245643Y-97810490D01*
X155256357Y-97834554D01*
X155351844Y-97999942D01*
X155367327Y-98021252D01*
X155495113Y-98163173D01*
X155514688Y-98180799D01*
X155669189Y-98293050D01*
X155692001Y-98306221D01*
X155866464Y-98383897D01*
X155891516Y-98392037D01*
X156078316Y-98431743D01*
X156104513Y-98434496D01*
X156295487Y-98434496D01*
X156321684Y-98431743D01*
X156508484Y-98392037D01*
X156533536Y-98383897D01*
X156707999Y-98306221D01*
X156730811Y-98293050D01*
X156885312Y-98180799D01*
X156904887Y-98163173D01*
X156966000Y-98095300D01*
X156966000Y-101165504D01*
X156854513Y-101165504D01*
X156828316Y-101168257D01*
X156641516Y-101207963D01*
X156616464Y-101216103D01*
X156442001Y-101293779D01*
X156419189Y-101306950D01*
X156264688Y-101419201D01*
X156245113Y-101436827D01*
X156117327Y-101578748D01*
X156101844Y-101600058D01*
X156006357Y-101765446D01*
X155995643Y-101789510D01*
X155936629Y-101971137D01*
X155931152Y-101996902D01*
X155911190Y-102186829D01*
X155911190Y-102213171D01*
X155931152Y-102403098D01*
X155936629Y-102428863D01*
X155995643Y-102610490D01*
X156006357Y-102634554D01*
X156101844Y-102799942D01*
X156117327Y-102821252D01*
X156245113Y-102963173D01*
X156264688Y-102980799D01*
X156419189Y-103093050D01*
X156442001Y-103106221D01*
X156616464Y-103183897D01*
X156641516Y-103192037D01*
X156828316Y-103231743D01*
X156854513Y-103234496D01*
X156966000Y-103234496D01*
X156966000Y-103830557D01*
X156933536Y-103816103D01*
X156908484Y-103807963D01*
X156721684Y-103768257D01*
X156695487Y-103765504D01*
X156504513Y-103765504D01*
X156478316Y-103768257D01*
X156291516Y-103807963D01*
X156266464Y-103816103D01*
X156092001Y-103893779D01*
X156069189Y-103906950D01*
X155914688Y-104019201D01*
X155895113Y-104036827D01*
X155767327Y-104178748D01*
X155751844Y-104200058D01*
X155656357Y-104365446D01*
X155645643Y-104389510D01*
X155586629Y-104571137D01*
X155581152Y-104596902D01*
X155561190Y-104786829D01*
X155561190Y-104813171D01*
X155581152Y-105003098D01*
X155586629Y-105028863D01*
X155645643Y-105210490D01*
X155656357Y-105234554D01*
X155751844Y-105399942D01*
X155767327Y-105421252D01*
X155895113Y-105563173D01*
X155914688Y-105580799D01*
X156069189Y-105693050D01*
X156092001Y-105706221D01*
X156266464Y-105783897D01*
X156291516Y-105792037D01*
X156478316Y-105831743D01*
X156504513Y-105834496D01*
X156695487Y-105834496D01*
X156721684Y-105831743D01*
X156908484Y-105792037D01*
X156933536Y-105783897D01*
X156966000Y-105769443D01*
X156966000Y-109030557D01*
X156933536Y-109016103D01*
X156908484Y-109007963D01*
X156721684Y-108968257D01*
X156695487Y-108965504D01*
X156504513Y-108965504D01*
X156478316Y-108968257D01*
X156291516Y-109007963D01*
X156266464Y-109016103D01*
X156092001Y-109093779D01*
X156069189Y-109106950D01*
X155914688Y-109219201D01*
X155895113Y-109236827D01*
X155767327Y-109378748D01*
X155751844Y-109400058D01*
X155656357Y-109565446D01*
X155645643Y-109589510D01*
X155586629Y-109771137D01*
X155581152Y-109796902D01*
X155561190Y-109986829D01*
X155561190Y-110013171D01*
X155581152Y-110203098D01*
X155586629Y-110228863D01*
X155645643Y-110410490D01*
X155656357Y-110434554D01*
X155751844Y-110599942D01*
X155767327Y-110621252D01*
X155895113Y-110763173D01*
X155914688Y-110780799D01*
X156069189Y-110893050D01*
X156092001Y-110906221D01*
X156266464Y-110983897D01*
X156291516Y-110992037D01*
X156478316Y-111031743D01*
X156504513Y-111034496D01*
X156695487Y-111034496D01*
X156721684Y-111031743D01*
X156908484Y-110992037D01*
X156933536Y-110983897D01*
X156966000Y-110969443D01*
X156966000Y-112630557D01*
X156933536Y-112616103D01*
X156908484Y-112607963D01*
X156721684Y-112568257D01*
X156695487Y-112565504D01*
X156504513Y-112565504D01*
X156478316Y-112568257D01*
X156291516Y-112607963D01*
X156266464Y-112616103D01*
X156092001Y-112693779D01*
X156069189Y-112706950D01*
X155914688Y-112819201D01*
X155895113Y-112836827D01*
X155767327Y-112978748D01*
X155751844Y-113000058D01*
X155656357Y-113165446D01*
X155645643Y-113189510D01*
X155586629Y-113371137D01*
X155581152Y-113396902D01*
X155561190Y-113586829D01*
X155561190Y-113613171D01*
X155581152Y-113803098D01*
X155586629Y-113828863D01*
X155645643Y-114010490D01*
X155656357Y-114034554D01*
X155732248Y-114166000D01*
X153606187Y-114166000D01*
X153429613Y-114148609D01*
X153265767Y-114098907D01*
X153114768Y-114018197D01*
X153052487Y-113967084D01*
X153080362Y-113879213D01*
X153085475Y-113855159D01*
X153103715Y-113692543D01*
X153104500Y-113678498D01*
X153104500Y-112069006D01*
X153103899Y-112056711D01*
X153088645Y-111901137D01*
X153083868Y-111877014D01*
X153023877Y-111678314D01*
X153014506Y-111655579D01*
X152917063Y-111472315D01*
X152903455Y-111451832D01*
X152772271Y-111290986D01*
X152754944Y-111273538D01*
X152726000Y-111249593D01*
X152726000Y-108881743D01*
X152743044Y-108868039D01*
X152760614Y-108850833D01*
X152894030Y-108691833D01*
X152907923Y-108671543D01*
X153007915Y-108489658D01*
X153017602Y-108467056D01*
X153080362Y-108269213D01*
X153085475Y-108245159D01*
X153103715Y-108082543D01*
X153104500Y-108068498D01*
X153104500Y-108033849D01*
X153165438Y-108033849D01*
X153191635Y-108031096D01*
X153378435Y-107991390D01*
X153403487Y-107983250D01*
X153577950Y-107905574D01*
X153600762Y-107892403D01*
X153755263Y-107780152D01*
X153774838Y-107762526D01*
X153902624Y-107620605D01*
X153918107Y-107599295D01*
X154013594Y-107433907D01*
X154024308Y-107409843D01*
X154083322Y-107228216D01*
X154088799Y-107202451D01*
X154108761Y-107012524D01*
X154108761Y-106986182D01*
X154088799Y-106796255D01*
X154083322Y-106770490D01*
X154024308Y-106588863D01*
X154013594Y-106564799D01*
X153918107Y-106399411D01*
X153902624Y-106378101D01*
X153774838Y-106236180D01*
X153755263Y-106218554D01*
X153600762Y-106106303D01*
X153577950Y-106093132D01*
X153403487Y-106015456D01*
X153378435Y-106007316D01*
X153191635Y-105967610D01*
X153165438Y-105964857D01*
X152974464Y-105964857D01*
X152948267Y-105967610D01*
X152761467Y-106007316D01*
X152736415Y-106015456D01*
X152632091Y-106061904D01*
X152600000Y-106035356D01*
X152600000Y-105800000D01*
X152107563Y-105800000D01*
X152042079Y-105764998D01*
X152019258Y-105755545D01*
X151831665Y-105698640D01*
X151807440Y-105693822D01*
X151612350Y-105674607D01*
X151600000Y-105674000D01*
X150890847Y-105674000D01*
X150848156Y-105600058D01*
X150832673Y-105578748D01*
X150704887Y-105436827D01*
X150685312Y-105419201D01*
X150530811Y-105306950D01*
X150507999Y-105293779D01*
X150333536Y-105216103D01*
X150308484Y-105207963D01*
X150121684Y-105168257D01*
X150095487Y-105165504D01*
X149904513Y-105165504D01*
X149878316Y-105168257D01*
X149691516Y-105207963D01*
X149666464Y-105216103D01*
X149492001Y-105293779D01*
X149469189Y-105306950D01*
X149365045Y-105382615D01*
X149274662Y-105316948D01*
X149251850Y-105303777D01*
X149077387Y-105226101D01*
X149052335Y-105217961D01*
X148865535Y-105178255D01*
X148839338Y-105175502D01*
X148648364Y-105175502D01*
X148622167Y-105178255D01*
X148435367Y-105217961D01*
X148410315Y-105226101D01*
X148235852Y-105303777D01*
X148213040Y-105316948D01*
X148191270Y-105332765D01*
X148104887Y-105236827D01*
X148085312Y-105219201D01*
X147930811Y-105106950D01*
X147907999Y-105093779D01*
X147733536Y-105016103D01*
X147708484Y-105007963D01*
X147521684Y-104968257D01*
X147495487Y-104965504D01*
X147374847Y-104965504D01*
X147507999Y-104906221D01*
X147530811Y-104893050D01*
X147685312Y-104780799D01*
X147704887Y-104763173D01*
X147832673Y-104621252D01*
X147848156Y-104599942D01*
X147943643Y-104434554D01*
X147954357Y-104410490D01*
X148013371Y-104228863D01*
X148018848Y-104203098D01*
X148038810Y-104013171D01*
X148038810Y-103986829D01*
X148018848Y-103796902D01*
X148013371Y-103771137D01*
X147954357Y-103589510D01*
X147943643Y-103565446D01*
X147848156Y-103400058D01*
X147832673Y-103378748D01*
X147704887Y-103236827D01*
X147685312Y-103219201D01*
X147530811Y-103106950D01*
X147507999Y-103093779D01*
X147333536Y-103016103D01*
X147308484Y-103007963D01*
X147121684Y-102968257D01*
X147095487Y-102965504D01*
X146904513Y-102965504D01*
X146878316Y-102968257D01*
X146691516Y-103007963D01*
X146666464Y-103016103D01*
X146520640Y-103081028D01*
X146492234Y-103049480D01*
X146472659Y-103031854D01*
X146318158Y-102919603D01*
X146295346Y-102906432D01*
X146120883Y-102828756D01*
X146095831Y-102820616D01*
X145909031Y-102780910D01*
X145882834Y-102778157D01*
X145691860Y-102778157D01*
X145665663Y-102780910D01*
X145478863Y-102820616D01*
X145453811Y-102828756D01*
X145279348Y-102906432D01*
X145256536Y-102919603D01*
X145102035Y-103031854D01*
X145082460Y-103049480D01*
X144954674Y-103191401D01*
X144939191Y-103212711D01*
X144843704Y-103378099D01*
X144832990Y-103402163D01*
X144773976Y-103583790D01*
X144768499Y-103609555D01*
X144748537Y-103799482D01*
X144748537Y-103825824D01*
X144768499Y-104015751D01*
X144773976Y-104041516D01*
X144832990Y-104223143D01*
X144843704Y-104247207D01*
X144939191Y-104412595D01*
X144954674Y-104433905D01*
X145082460Y-104575826D01*
X145102035Y-104593452D01*
X145256536Y-104705703D01*
X145279348Y-104718874D01*
X145453811Y-104796550D01*
X145478863Y-104804690D01*
X145665663Y-104844396D01*
X145691860Y-104847149D01*
X145882834Y-104847149D01*
X145909031Y-104844396D01*
X146095831Y-104804690D01*
X146120883Y-104796550D01*
X146266707Y-104731625D01*
X146295113Y-104763173D01*
X146314688Y-104780799D01*
X146469189Y-104893050D01*
X146492001Y-104906221D01*
X146666464Y-104983897D01*
X146691516Y-104992037D01*
X146878316Y-105031743D01*
X146904513Y-105034496D01*
X147025153Y-105034496D01*
X146892001Y-105093779D01*
X146869189Y-105106950D01*
X146714688Y-105219201D01*
X146695113Y-105236827D01*
X146567327Y-105378748D01*
X146551844Y-105400058D01*
X146456357Y-105565446D01*
X146445643Y-105589510D01*
X146418191Y-105674000D01*
X145690847Y-105674000D01*
X145648156Y-105600058D01*
X145632673Y-105578748D01*
X145504887Y-105436827D01*
X145485312Y-105419201D01*
X145330811Y-105306950D01*
X145307999Y-105293779D01*
X145133536Y-105216103D01*
X145108484Y-105207963D01*
X144921684Y-105168257D01*
X144895487Y-105165504D01*
X144704513Y-105165504D01*
X144678316Y-105168257D01*
X144491516Y-105207963D01*
X144466464Y-105216103D01*
X144292001Y-105293779D01*
X144269189Y-105306950D01*
X144114688Y-105419201D01*
X144095113Y-105436827D01*
X143967327Y-105578748D01*
X143951844Y-105600058D01*
X143909153Y-105674000D01*
X141600000Y-105674000D01*
X141587650Y-105674607D01*
X141392560Y-105693822D01*
X141368335Y-105698640D01*
X141338810Y-105707596D01*
X141338810Y-105686829D01*
X141321194Y-105519218D01*
X141466464Y-105583897D01*
X141491516Y-105592037D01*
X141678316Y-105631743D01*
X141704513Y-105634496D01*
X141895487Y-105634496D01*
X141921684Y-105631743D01*
X142108484Y-105592037D01*
X142133536Y-105583897D01*
X142307999Y-105506221D01*
X142330811Y-105493050D01*
X142485312Y-105380799D01*
X142504887Y-105363173D01*
X142632673Y-105221252D01*
X142648156Y-105199942D01*
X142743643Y-105034554D01*
X142754357Y-105010490D01*
X142813371Y-104828863D01*
X142818848Y-104803098D01*
X142838810Y-104613171D01*
X142838810Y-104586829D01*
X142818848Y-104396902D01*
X142813371Y-104371137D01*
X142754357Y-104189510D01*
X142743643Y-104165446D01*
X142648156Y-104000058D01*
X142632673Y-103978748D01*
X142504887Y-103836827D01*
X142485312Y-103819201D01*
X142330811Y-103706950D01*
X142307999Y-103693779D01*
X142133536Y-103616103D01*
X142108484Y-103607963D01*
X141921684Y-103568257D01*
X141895487Y-103565504D01*
X141704513Y-103565504D01*
X141678316Y-103568257D01*
X141491516Y-103607963D01*
X141466464Y-103616103D01*
X141292001Y-103693779D01*
X141269189Y-103706950D01*
X141114688Y-103819201D01*
X141095113Y-103836827D01*
X140967327Y-103978748D01*
X140951844Y-104000058D01*
X140856357Y-104165446D01*
X140845643Y-104189510D01*
X140786629Y-104371137D01*
X140781152Y-104396902D01*
X140761190Y-104586829D01*
X140761190Y-104613171D01*
X140778806Y-104780782D01*
X140633536Y-104716103D01*
X140608484Y-104707963D01*
X140421684Y-104668257D01*
X140395487Y-104665504D01*
X140204513Y-104665504D01*
X140178316Y-104668257D01*
X139991516Y-104707963D01*
X139966464Y-104716103D01*
X139792001Y-104793779D01*
X139769189Y-104806950D01*
X139614688Y-104919201D01*
X139595113Y-104936827D01*
X139467327Y-105078748D01*
X139451844Y-105100058D01*
X139356357Y-105265446D01*
X139345643Y-105289510D01*
X139286629Y-105471137D01*
X139281152Y-105496902D01*
X139261190Y-105686829D01*
X139261190Y-105713171D01*
X139281152Y-105903098D01*
X139286629Y-105928863D01*
X139345643Y-106110490D01*
X139356357Y-106134554D01*
X139451844Y-106299942D01*
X139467327Y-106321252D01*
X139595113Y-106463173D01*
X139614688Y-106480799D01*
X139769189Y-106593050D01*
X139792001Y-106606221D01*
X139966464Y-106683897D01*
X139991516Y-106692037D01*
X140178316Y-106731743D01*
X140204513Y-106734496D01*
X140395487Y-106734496D01*
X140421684Y-106731743D01*
X140481363Y-106719058D01*
X140474607Y-106787650D01*
X140474000Y-106800000D01*
X140474000Y-108793813D01*
X140456609Y-108970387D01*
X140406907Y-109134233D01*
X140326197Y-109285232D01*
X140217581Y-109417581D01*
X140085232Y-109526197D01*
X139934233Y-109606907D01*
X139770387Y-109656609D01*
X139593813Y-109674000D01*
X139114187Y-109674000D01*
X138937613Y-109656609D01*
X138773767Y-109606907D01*
X138622768Y-109526197D01*
X138490419Y-109417581D01*
X138381803Y-109285232D01*
X138301093Y-109134233D01*
X138251391Y-108970387D01*
X138234000Y-108793813D01*
X138234000Y-102686829D01*
X149861190Y-102686829D01*
X149861190Y-102713171D01*
X149881152Y-102903098D01*
X149886629Y-102928863D01*
X149945643Y-103110490D01*
X149956357Y-103134554D01*
X150051844Y-103299942D01*
X150067327Y-103321252D01*
X150195113Y-103463173D01*
X150214688Y-103480799D01*
X150369189Y-103593050D01*
X150392001Y-103606221D01*
X150566464Y-103683897D01*
X150591516Y-103692037D01*
X150778316Y-103731743D01*
X150804513Y-103734496D01*
X150995487Y-103734496D01*
X151021684Y-103731743D01*
X151208484Y-103692037D01*
X151233536Y-103683897D01*
X151407999Y-103606221D01*
X151430811Y-103593050D01*
X151585312Y-103480799D01*
X151604887Y-103463173D01*
X151732673Y-103321252D01*
X151748156Y-103299942D01*
X151843643Y-103134554D01*
X151854357Y-103110490D01*
X151913371Y-102928863D01*
X151918848Y-102903098D01*
X151938810Y-102713171D01*
X151938810Y-102686829D01*
X152961190Y-102686829D01*
X152961190Y-102713171D01*
X152981152Y-102903098D01*
X152986629Y-102928863D01*
X153045643Y-103110490D01*
X153056357Y-103134554D01*
X153151844Y-103299942D01*
X153167327Y-103321252D01*
X153295113Y-103463173D01*
X153314688Y-103480799D01*
X153469189Y-103593050D01*
X153492001Y-103606221D01*
X153666464Y-103683897D01*
X153691516Y-103692037D01*
X153878316Y-103731743D01*
X153904513Y-103734496D01*
X154095487Y-103734496D01*
X154121684Y-103731743D01*
X154308484Y-103692037D01*
X154333536Y-103683897D01*
X154507999Y-103606221D01*
X154530811Y-103593050D01*
X154685312Y-103480799D01*
X154704887Y-103463173D01*
X154832673Y-103321252D01*
X154848156Y-103299942D01*
X154943643Y-103134554D01*
X154954357Y-103110490D01*
X155013371Y-102928863D01*
X155018848Y-102903098D01*
X155038810Y-102713171D01*
X155038810Y-102686829D01*
X155018848Y-102496902D01*
X155013371Y-102471137D01*
X154954357Y-102289510D01*
X154943643Y-102265446D01*
X154848156Y-102100058D01*
X154832673Y-102078748D01*
X154704887Y-101936827D01*
X154685312Y-101919201D01*
X154530811Y-101806950D01*
X154507999Y-101793779D01*
X154333536Y-101716103D01*
X154308484Y-101707963D01*
X154121684Y-101668257D01*
X154095487Y-101665504D01*
X153904513Y-101665504D01*
X153878316Y-101668257D01*
X153691516Y-101707963D01*
X153666464Y-101716103D01*
X153492001Y-101793779D01*
X153469189Y-101806950D01*
X153314688Y-101919201D01*
X153295113Y-101936827D01*
X153167327Y-102078748D01*
X153151844Y-102100058D01*
X153056357Y-102265446D01*
X153045643Y-102289510D01*
X152986629Y-102471137D01*
X152981152Y-102496902D01*
X152961190Y-102686829D01*
X151938810Y-102686829D01*
X151918848Y-102496902D01*
X151913371Y-102471137D01*
X151854357Y-102289510D01*
X151843643Y-102265446D01*
X151748156Y-102100058D01*
X151732673Y-102078748D01*
X151604887Y-101936827D01*
X151585312Y-101919201D01*
X151430811Y-101806950D01*
X151407999Y-101793779D01*
X151233536Y-101716103D01*
X151208484Y-101707963D01*
X151021684Y-101668257D01*
X150995487Y-101665504D01*
X150804513Y-101665504D01*
X150778316Y-101668257D01*
X150591516Y-101707963D01*
X150566464Y-101716103D01*
X150392001Y-101793779D01*
X150369189Y-101806950D01*
X150214688Y-101919201D01*
X150195113Y-101936827D01*
X150067327Y-102078748D01*
X150051844Y-102100058D01*
X149956357Y-102265446D01*
X149945643Y-102289510D01*
X149886629Y-102471137D01*
X149881152Y-102496902D01*
X149861190Y-102686829D01*
X138234000Y-102686829D01*
X138234000Y-101536829D01*
X138811190Y-101536829D01*
X138811190Y-101563171D01*
X138831152Y-101753098D01*
X138836629Y-101778863D01*
X138895643Y-101960490D01*
X138906357Y-101984554D01*
X139001844Y-102149942D01*
X139017327Y-102171252D01*
X139145113Y-102313173D01*
X139164688Y-102330799D01*
X139319189Y-102443050D01*
X139342001Y-102456221D01*
X139516464Y-102533897D01*
X139541516Y-102542037D01*
X139728316Y-102581743D01*
X139754513Y-102584496D01*
X139945487Y-102584496D01*
X139971684Y-102581743D01*
X140158484Y-102542037D01*
X140183536Y-102533897D01*
X140357999Y-102456221D01*
X140380811Y-102443050D01*
X140535312Y-102330799D01*
X140554887Y-102313173D01*
X140682673Y-102171252D01*
X140698156Y-102149942D01*
X140793643Y-101984554D01*
X140804357Y-101960490D01*
X140863371Y-101778863D01*
X140868848Y-101753098D01*
X140888810Y-101563171D01*
X140888810Y-101536829D01*
X140868848Y-101346902D01*
X140863371Y-101321137D01*
X140819732Y-101186829D01*
X151361190Y-101186829D01*
X151361190Y-101213171D01*
X151381152Y-101403098D01*
X151386629Y-101428863D01*
X151445643Y-101610490D01*
X151456357Y-101634554D01*
X151551844Y-101799942D01*
X151567327Y-101821252D01*
X151695113Y-101963173D01*
X151714688Y-101980799D01*
X151869189Y-102093050D01*
X151892001Y-102106221D01*
X152066464Y-102183897D01*
X152091516Y-102192037D01*
X152278316Y-102231743D01*
X152304513Y-102234496D01*
X152495487Y-102234496D01*
X152521684Y-102231743D01*
X152708484Y-102192037D01*
X152733536Y-102183897D01*
X152907999Y-102106221D01*
X152930811Y-102093050D01*
X153085312Y-101980799D01*
X153104887Y-101963173D01*
X153232673Y-101821252D01*
X153248156Y-101799942D01*
X153343643Y-101634554D01*
X153354357Y-101610490D01*
X153413371Y-101428863D01*
X153418848Y-101403098D01*
X153438810Y-101213171D01*
X153438810Y-101186829D01*
X153418848Y-100996902D01*
X153413371Y-100971137D01*
X153354357Y-100789510D01*
X153343643Y-100765446D01*
X153248156Y-100600058D01*
X153232673Y-100578748D01*
X153104887Y-100436827D01*
X153085312Y-100419201D01*
X152930811Y-100306950D01*
X152907999Y-100293779D01*
X152733536Y-100216103D01*
X152708484Y-100207963D01*
X152521684Y-100168257D01*
X152495487Y-100165504D01*
X152304513Y-100165504D01*
X152278316Y-100168257D01*
X152091516Y-100207963D01*
X152066464Y-100216103D01*
X151892001Y-100293779D01*
X151869189Y-100306950D01*
X151714688Y-100419201D01*
X151695113Y-100436827D01*
X151567327Y-100578748D01*
X151551844Y-100600058D01*
X151456357Y-100765446D01*
X151445643Y-100789510D01*
X151386629Y-100971137D01*
X151381152Y-100996902D01*
X151361190Y-101186829D01*
X140819732Y-101186829D01*
X140804357Y-101139510D01*
X140793643Y-101115446D01*
X140698156Y-100950058D01*
X140682673Y-100928748D01*
X140554887Y-100786827D01*
X140535312Y-100769201D01*
X140380811Y-100656950D01*
X140357999Y-100643779D01*
X140183536Y-100566103D01*
X140158484Y-100557963D01*
X139971684Y-100518257D01*
X139945487Y-100515504D01*
X139754513Y-100515504D01*
X139728316Y-100518257D01*
X139541516Y-100557963D01*
X139516464Y-100566103D01*
X139342001Y-100643779D01*
X139319189Y-100656950D01*
X139164688Y-100769201D01*
X139145113Y-100786827D01*
X139017327Y-100928748D01*
X139001844Y-100950058D01*
X138906357Y-101115446D01*
X138895643Y-101139510D01*
X138836629Y-101321137D01*
X138831152Y-101346902D01*
X138811190Y-101536829D01*
X138234000Y-101536829D01*
X138234000Y-99686829D01*
X149861190Y-99686829D01*
X149861190Y-99713171D01*
X149881152Y-99903098D01*
X149886629Y-99928863D01*
X149945643Y-100110490D01*
X149956357Y-100134554D01*
X150051844Y-100299942D01*
X150067327Y-100321252D01*
X150195113Y-100463173D01*
X150214688Y-100480799D01*
X150369189Y-100593050D01*
X150392001Y-100606221D01*
X150566464Y-100683897D01*
X150591516Y-100692037D01*
X150778316Y-100731743D01*
X150804513Y-100734496D01*
X150995487Y-100734496D01*
X151021684Y-100731743D01*
X151208484Y-100692037D01*
X151233536Y-100683897D01*
X151407999Y-100606221D01*
X151430811Y-100593050D01*
X151585312Y-100480799D01*
X151604887Y-100463173D01*
X151732673Y-100321252D01*
X151748156Y-100299942D01*
X151843643Y-100134554D01*
X151854357Y-100110490D01*
X151913371Y-99928863D01*
X151918848Y-99903098D01*
X151938810Y-99713171D01*
X151938810Y-99686829D01*
X152961190Y-99686829D01*
X152961190Y-99713171D01*
X152981152Y-99903098D01*
X152986629Y-99928863D01*
X153045643Y-100110490D01*
X153056357Y-100134554D01*
X153151844Y-100299942D01*
X153167327Y-100321252D01*
X153295113Y-100463173D01*
X153314688Y-100480799D01*
X153469189Y-100593050D01*
X153492001Y-100606221D01*
X153666464Y-100683897D01*
X153691516Y-100692037D01*
X153878316Y-100731743D01*
X153904513Y-100734496D01*
X154095487Y-100734496D01*
X154121684Y-100731743D01*
X154308484Y-100692037D01*
X154333536Y-100683897D01*
X154507999Y-100606221D01*
X154530811Y-100593050D01*
X154685312Y-100480799D01*
X154704887Y-100463173D01*
X154832673Y-100321252D01*
X154848156Y-100299942D01*
X154943643Y-100134554D01*
X154954357Y-100110490D01*
X155013371Y-99928863D01*
X155018848Y-99903098D01*
X155038810Y-99713171D01*
X155038810Y-99686829D01*
X155018848Y-99496902D01*
X155013371Y-99471137D01*
X154954357Y-99289510D01*
X154943643Y-99265446D01*
X154848156Y-99100058D01*
X154832673Y-99078748D01*
X154704887Y-98936827D01*
X154685312Y-98919201D01*
X154530811Y-98806950D01*
X154507999Y-98793779D01*
X154333536Y-98716103D01*
X154308484Y-98707963D01*
X154121684Y-98668257D01*
X154095487Y-98665504D01*
X153904513Y-98665504D01*
X153878316Y-98668257D01*
X153691516Y-98707963D01*
X153666464Y-98716103D01*
X153492001Y-98793779D01*
X153469189Y-98806950D01*
X153314688Y-98919201D01*
X153295113Y-98936827D01*
X153167327Y-99078748D01*
X153151844Y-99100058D01*
X153056357Y-99265446D01*
X153045643Y-99289510D01*
X152986629Y-99471137D01*
X152981152Y-99496902D01*
X152961190Y-99686829D01*
X151938810Y-99686829D01*
X151918848Y-99496902D01*
X151913371Y-99471137D01*
X151854357Y-99289510D01*
X151843643Y-99265446D01*
X151748156Y-99100058D01*
X151732673Y-99078748D01*
X151604887Y-98936827D01*
X151585312Y-98919201D01*
X151430811Y-98806950D01*
X151407999Y-98793779D01*
X151233536Y-98716103D01*
X151208484Y-98707963D01*
X151021684Y-98668257D01*
X150995487Y-98665504D01*
X150804513Y-98665504D01*
X150778316Y-98668257D01*
X150591516Y-98707963D01*
X150566464Y-98716103D01*
X150392001Y-98793779D01*
X150369189Y-98806950D01*
X150214688Y-98919201D01*
X150195113Y-98936827D01*
X150067327Y-99078748D01*
X150051844Y-99100058D01*
X149956357Y-99265446D01*
X149945643Y-99289510D01*
X149886629Y-99471137D01*
X149881152Y-99496902D01*
X149861190Y-99686829D01*
X138234000Y-99686829D01*
X138234000Y-97586829D01*
X141361190Y-97586829D01*
X141361190Y-97613171D01*
X141381152Y-97803098D01*
X141386629Y-97828863D01*
X141445643Y-98010490D01*
X141456357Y-98034554D01*
X141551844Y-98199942D01*
X141567327Y-98221252D01*
X141695113Y-98363173D01*
X141714688Y-98380799D01*
X141869189Y-98493050D01*
X141892001Y-98506221D01*
X142066464Y-98583897D01*
X142091516Y-98592037D01*
X142278316Y-98631743D01*
X142304513Y-98634496D01*
X142495487Y-98634496D01*
X142521684Y-98631743D01*
X142708484Y-98592037D01*
X142733536Y-98583897D01*
X142907999Y-98506221D01*
X142930811Y-98493050D01*
X143085312Y-98380799D01*
X143104887Y-98363173D01*
X143232673Y-98221252D01*
X143248156Y-98199942D01*
X143343643Y-98034554D01*
X143354357Y-98010490D01*
X143413371Y-97828863D01*
X143418848Y-97803098D01*
X143438810Y-97613171D01*
X143438810Y-97586829D01*
X143418848Y-97396902D01*
X143413371Y-97371137D01*
X143354357Y-97189510D01*
X143343643Y-97165446D01*
X143248156Y-97000058D01*
X143232673Y-96978748D01*
X143104887Y-96836827D01*
X143085312Y-96819201D01*
X142930811Y-96706950D01*
X142907999Y-96693779D01*
X142733536Y-96616103D01*
X142708484Y-96607963D01*
X142609057Y-96586829D01*
X150961190Y-96586829D01*
X150961190Y-96613171D01*
X150981152Y-96803098D01*
X150986629Y-96828863D01*
X151045643Y-97010490D01*
X151056357Y-97034554D01*
X151151844Y-97199942D01*
X151167327Y-97221252D01*
X151295113Y-97363173D01*
X151314688Y-97380799D01*
X151469189Y-97493050D01*
X151492001Y-97506221D01*
X151666464Y-97583897D01*
X151691516Y-97592037D01*
X151878316Y-97631743D01*
X151904513Y-97634496D01*
X152095487Y-97634496D01*
X152121684Y-97631743D01*
X152308484Y-97592037D01*
X152333536Y-97583897D01*
X152500000Y-97509782D01*
X152666464Y-97583897D01*
X152691516Y-97592037D01*
X152878316Y-97631743D01*
X152904513Y-97634496D01*
X153095487Y-97634496D01*
X153121684Y-97631743D01*
X153308484Y-97592037D01*
X153333536Y-97583897D01*
X153507999Y-97506221D01*
X153530811Y-97493050D01*
X153685312Y-97380799D01*
X153704887Y-97363173D01*
X153832673Y-97221252D01*
X153848156Y-97199942D01*
X153943643Y-97034554D01*
X153954357Y-97010490D01*
X154013371Y-96828863D01*
X154018848Y-96803098D01*
X154038810Y-96613171D01*
X154038810Y-96586829D01*
X154018848Y-96396902D01*
X154013371Y-96371137D01*
X153954357Y-96189510D01*
X153943643Y-96165446D01*
X153848156Y-96000058D01*
X153832673Y-95978748D01*
X153704887Y-95836827D01*
X153685312Y-95819201D01*
X153530811Y-95706950D01*
X153507999Y-95693779D01*
X153333536Y-95616103D01*
X153308484Y-95607963D01*
X153121684Y-95568257D01*
X153095487Y-95565504D01*
X152904513Y-95565504D01*
X152878316Y-95568257D01*
X152691516Y-95607963D01*
X152666464Y-95616103D01*
X152500000Y-95690218D01*
X152333536Y-95616103D01*
X152308484Y-95607963D01*
X152121684Y-95568257D01*
X152095487Y-95565504D01*
X151904513Y-95565504D01*
X151878316Y-95568257D01*
X151691516Y-95607963D01*
X151666464Y-95616103D01*
X151492001Y-95693779D01*
X151469189Y-95706950D01*
X151314688Y-95819201D01*
X151295113Y-95836827D01*
X151167327Y-95978748D01*
X151151844Y-96000058D01*
X151056357Y-96165446D01*
X151045643Y-96189510D01*
X150986629Y-96371137D01*
X150981152Y-96396902D01*
X150961190Y-96586829D01*
X142609057Y-96586829D01*
X142521684Y-96568257D01*
X142495487Y-96565504D01*
X142304513Y-96565504D01*
X142278316Y-96568257D01*
X142091516Y-96607963D01*
X142066464Y-96616103D01*
X141892001Y-96693779D01*
X141869189Y-96706950D01*
X141714688Y-96819201D01*
X141695113Y-96836827D01*
X141567327Y-96978748D01*
X141551844Y-97000058D01*
X141456357Y-97165446D01*
X141445643Y-97189510D01*
X141386629Y-97371137D01*
X141381152Y-97396902D01*
X141361190Y-97586829D01*
X138234000Y-97586829D01*
X138234000Y-94186829D01*
X138361190Y-94186829D01*
X138361190Y-94213171D01*
X138381152Y-94403098D01*
X138386629Y-94428863D01*
X138445643Y-94610490D01*
X138456357Y-94634554D01*
X138551844Y-94799942D01*
X138567327Y-94821252D01*
X138695113Y-94963173D01*
X138714688Y-94980799D01*
X138869189Y-95093050D01*
X138892001Y-95106221D01*
X139066464Y-95183897D01*
X139091516Y-95192037D01*
X139278316Y-95231743D01*
X139304513Y-95234496D01*
X139495487Y-95234496D01*
X139521684Y-95231743D01*
X139615371Y-95211829D01*
X154736190Y-95211829D01*
X154736190Y-95238171D01*
X154756152Y-95428098D01*
X154761629Y-95453863D01*
X154820643Y-95635490D01*
X154831357Y-95659554D01*
X154926844Y-95824942D01*
X154942327Y-95846252D01*
X155070113Y-95988173D01*
X155089688Y-96005799D01*
X155244189Y-96118050D01*
X155267001Y-96131221D01*
X155441464Y-96208897D01*
X155466516Y-96217037D01*
X155653316Y-96256743D01*
X155679513Y-96259496D01*
X155870487Y-96259496D01*
X155896684Y-96256743D01*
X156083484Y-96217037D01*
X156108536Y-96208897D01*
X156282999Y-96131221D01*
X156305811Y-96118050D01*
X156460312Y-96005799D01*
X156479887Y-95988173D01*
X156607673Y-95846252D01*
X156623156Y-95824942D01*
X156718643Y-95659554D01*
X156729357Y-95635490D01*
X156788371Y-95453863D01*
X156793848Y-95428098D01*
X156813810Y-95238171D01*
X156813810Y-95211829D01*
X156793848Y-95021902D01*
X156788371Y-94996137D01*
X156729357Y-94814510D01*
X156718643Y-94790446D01*
X156623156Y-94625058D01*
X156607673Y-94603748D01*
X156479887Y-94461827D01*
X156460312Y-94444201D01*
X156305811Y-94331950D01*
X156282999Y-94318779D01*
X156108536Y-94241103D01*
X156083484Y-94232963D01*
X155896684Y-94193257D01*
X155870487Y-94190504D01*
X155679513Y-94190504D01*
X155653316Y-94193257D01*
X155466516Y-94232963D01*
X155441464Y-94241103D01*
X155267001Y-94318779D01*
X155244189Y-94331950D01*
X155089688Y-94444201D01*
X155070113Y-94461827D01*
X154942327Y-94603748D01*
X154926844Y-94625058D01*
X154831357Y-94790446D01*
X154820643Y-94814510D01*
X154761629Y-94996137D01*
X154756152Y-95021902D01*
X154736190Y-95211829D01*
X139615371Y-95211829D01*
X139708484Y-95192037D01*
X139733536Y-95183897D01*
X139907999Y-95106221D01*
X139930811Y-95093050D01*
X140085312Y-94980799D01*
X140104887Y-94963173D01*
X140232673Y-94821252D01*
X140248156Y-94799942D01*
X140343643Y-94634554D01*
X140354357Y-94610490D01*
X140413371Y-94428863D01*
X140418848Y-94403098D01*
X140438810Y-94213171D01*
X140438810Y-94186829D01*
X140418848Y-93996902D01*
X140413371Y-93971137D01*
X140354357Y-93789510D01*
X140343643Y-93765446D01*
X140248156Y-93600058D01*
X140232673Y-93578748D01*
X140104887Y-93436827D01*
X140085312Y-93419201D01*
X140040756Y-93386829D01*
X141561190Y-93386829D01*
X141561190Y-93413171D01*
X141581152Y-93603098D01*
X141586629Y-93628863D01*
X141645643Y-93810490D01*
X141656357Y-93834554D01*
X141751844Y-93999942D01*
X141767327Y-94021252D01*
X141895113Y-94163173D01*
X141914688Y-94180799D01*
X142069189Y-94293050D01*
X142092001Y-94306221D01*
X142266464Y-94383897D01*
X142291516Y-94392037D01*
X142478316Y-94431743D01*
X142504513Y-94434496D01*
X142695487Y-94434496D01*
X142721684Y-94431743D01*
X142908484Y-94392037D01*
X142933536Y-94383897D01*
X143107999Y-94306221D01*
X143130811Y-94293050D01*
X143285312Y-94180799D01*
X143304887Y-94163173D01*
X143432673Y-94021252D01*
X143448156Y-93999942D01*
X143543643Y-93834554D01*
X143554357Y-93810490D01*
X143613371Y-93628863D01*
X143618848Y-93603098D01*
X143638810Y-93413171D01*
X143638810Y-93386829D01*
X143618848Y-93196902D01*
X143613371Y-93171137D01*
X143554357Y-92989510D01*
X143543643Y-92965446D01*
X143448156Y-92800058D01*
X143432673Y-92778748D01*
X143304887Y-92636827D01*
X143285312Y-92619201D01*
X143130811Y-92506950D01*
X143107999Y-92493779D01*
X142933536Y-92416103D01*
X142908484Y-92407963D01*
X142721684Y-92368257D01*
X142695487Y-92365504D01*
X142504513Y-92365504D01*
X142478316Y-92368257D01*
X142291516Y-92407963D01*
X142266464Y-92416103D01*
X142092001Y-92493779D01*
X142069189Y-92506950D01*
X141914688Y-92619201D01*
X141895113Y-92636827D01*
X141767327Y-92778748D01*
X141751844Y-92800058D01*
X141656357Y-92965446D01*
X141645643Y-92989510D01*
X141586629Y-93171137D01*
X141581152Y-93196902D01*
X141561190Y-93386829D01*
X140040756Y-93386829D01*
X139930811Y-93306950D01*
X139907999Y-93293779D01*
X139733536Y-93216103D01*
X139708484Y-93207963D01*
X139521684Y-93168257D01*
X139495487Y-93165504D01*
X139304513Y-93165504D01*
X139278316Y-93168257D01*
X139091516Y-93207963D01*
X139066464Y-93216103D01*
X138892001Y-93293779D01*
X138869189Y-93306950D01*
X138714688Y-93419201D01*
X138695113Y-93436827D01*
X138567327Y-93578748D01*
X138551844Y-93600058D01*
X138456357Y-93765446D01*
X138445643Y-93789510D01*
X138386629Y-93971137D01*
X138381152Y-93996902D01*
X138361190Y-94186829D01*
X138234000Y-94186829D01*
X138234000Y-89386829D01*
X141961190Y-89386829D01*
X141961190Y-89413171D01*
X141981152Y-89603098D01*
X141986629Y-89628863D01*
X142045643Y-89810490D01*
X142056357Y-89834554D01*
X142151844Y-89999942D01*
X142167327Y-90021252D01*
X142295113Y-90163173D01*
X142314688Y-90180799D01*
X142454258Y-90282202D01*
X142367327Y-90378748D01*
X142351844Y-90400058D01*
X142256357Y-90565446D01*
X142245643Y-90589510D01*
X142186629Y-90771137D01*
X142181152Y-90796902D01*
X142161190Y-90986829D01*
X142161190Y-91013171D01*
X142181152Y-91203098D01*
X142186629Y-91228863D01*
X142245643Y-91410490D01*
X142256357Y-91434554D01*
X142351844Y-91599942D01*
X142367327Y-91621252D01*
X142495113Y-91763173D01*
X142514688Y-91780799D01*
X142669189Y-91893050D01*
X142692001Y-91906221D01*
X142866464Y-91983897D01*
X142891516Y-91992037D01*
X143078316Y-92031743D01*
X143104513Y-92034496D01*
X143295487Y-92034496D01*
X143321684Y-92031743D01*
X143508484Y-91992037D01*
X143524512Y-91986829D01*
X144361190Y-91986829D01*
X144361190Y-92013171D01*
X144381152Y-92203098D01*
X144386629Y-92228863D01*
X144445643Y-92410490D01*
X144456357Y-92434554D01*
X144551844Y-92599942D01*
X144567327Y-92621252D01*
X144695113Y-92763173D01*
X144714688Y-92780799D01*
X144869189Y-92893050D01*
X144892001Y-92906221D01*
X145066464Y-92983897D01*
X145091516Y-92992037D01*
X145278316Y-93031743D01*
X145304513Y-93034496D01*
X145495487Y-93034496D01*
X145521684Y-93031743D01*
X145708484Y-92992037D01*
X145733536Y-92983897D01*
X145907999Y-92906221D01*
X145930811Y-92893050D01*
X146085312Y-92780799D01*
X146104887Y-92763173D01*
X146232673Y-92621252D01*
X146248156Y-92599942D01*
X146343643Y-92434554D01*
X146354357Y-92410490D01*
X146413371Y-92228863D01*
X146418848Y-92203098D01*
X146438810Y-92013171D01*
X146438810Y-91986829D01*
X146418848Y-91796902D01*
X146413371Y-91771137D01*
X146354357Y-91589510D01*
X146343643Y-91565446D01*
X146248156Y-91400058D01*
X146232673Y-91378748D01*
X146104887Y-91236827D01*
X146085312Y-91219201D01*
X145930811Y-91106950D01*
X145907999Y-91093779D01*
X145733536Y-91016103D01*
X145708484Y-91007963D01*
X145521684Y-90968257D01*
X145495487Y-90965504D01*
X145304513Y-90965504D01*
X145278316Y-90968257D01*
X145091516Y-91007963D01*
X145066464Y-91016103D01*
X144892001Y-91093779D01*
X144869189Y-91106950D01*
X144714688Y-91219201D01*
X144695113Y-91236827D01*
X144567327Y-91378748D01*
X144551844Y-91400058D01*
X144456357Y-91565446D01*
X144445643Y-91589510D01*
X144386629Y-91771137D01*
X144381152Y-91796902D01*
X144361190Y-91986829D01*
X143524512Y-91986829D01*
X143533536Y-91983897D01*
X143707999Y-91906221D01*
X143730811Y-91893050D01*
X143885312Y-91780799D01*
X143904887Y-91763173D01*
X144032673Y-91621252D01*
X144048156Y-91599942D01*
X144143643Y-91434554D01*
X144154357Y-91410490D01*
X144213371Y-91228863D01*
X144218848Y-91203098D01*
X144238810Y-91013171D01*
X144238810Y-90986829D01*
X144218848Y-90796902D01*
X144213371Y-90771137D01*
X144154357Y-90589510D01*
X144143643Y-90565446D01*
X144048156Y-90400058D01*
X144032673Y-90378748D01*
X143904887Y-90236827D01*
X143885312Y-90219201D01*
X143745742Y-90117798D01*
X143832673Y-90021252D01*
X143848156Y-89999942D01*
X143943643Y-89834554D01*
X143954357Y-89810490D01*
X144013371Y-89628863D01*
X144018848Y-89603098D01*
X144038810Y-89413171D01*
X144038810Y-89386829D01*
X146561190Y-89386829D01*
X146561190Y-89413171D01*
X146581152Y-89603098D01*
X146586629Y-89628863D01*
X146645643Y-89810490D01*
X146656357Y-89834554D01*
X146751844Y-89999942D01*
X146767327Y-90021252D01*
X146895113Y-90163173D01*
X146914688Y-90180799D01*
X147069189Y-90293050D01*
X147081226Y-90300000D01*
X147069189Y-90306950D01*
X146914688Y-90419201D01*
X146895113Y-90436827D01*
X146767327Y-90578748D01*
X146751844Y-90600058D01*
X146656357Y-90765446D01*
X146645643Y-90789510D01*
X146586629Y-90971137D01*
X146581152Y-90996902D01*
X146561190Y-91186829D01*
X146561190Y-91213171D01*
X146581152Y-91403098D01*
X146586629Y-91428863D01*
X146645643Y-91610490D01*
X146656357Y-91634554D01*
X146751844Y-91799942D01*
X146767327Y-91821252D01*
X146895113Y-91963173D01*
X146914688Y-91980799D01*
X147069189Y-92093050D01*
X147092001Y-92106221D01*
X147266464Y-92183897D01*
X147291516Y-92192037D01*
X147478316Y-92231743D01*
X147504513Y-92234496D01*
X147695487Y-92234496D01*
X147721684Y-92231743D01*
X147908484Y-92192037D01*
X147933536Y-92183897D01*
X148107999Y-92106221D01*
X148130811Y-92093050D01*
X148285312Y-91980799D01*
X148304887Y-91963173D01*
X148432673Y-91821252D01*
X148448156Y-91799942D01*
X148455727Y-91786829D01*
X150361190Y-91786829D01*
X150361190Y-91813171D01*
X150381152Y-92003098D01*
X150386629Y-92028863D01*
X150445643Y-92210490D01*
X150456357Y-92234554D01*
X150551844Y-92399942D01*
X150567327Y-92421252D01*
X150695113Y-92563173D01*
X150714688Y-92580799D01*
X150869189Y-92693050D01*
X150892001Y-92706221D01*
X151066464Y-92783897D01*
X151091516Y-92792037D01*
X151145649Y-92803543D01*
X151089688Y-92844201D01*
X151070113Y-92861827D01*
X150942327Y-93003748D01*
X150926844Y-93025058D01*
X150831357Y-93190446D01*
X150820643Y-93214510D01*
X150761629Y-93396137D01*
X150756152Y-93421902D01*
X150736190Y-93611829D01*
X150736190Y-93638171D01*
X150756152Y-93828098D01*
X150761629Y-93853863D01*
X150820643Y-94035490D01*
X150831357Y-94059554D01*
X150926844Y-94224942D01*
X150942327Y-94246252D01*
X151070113Y-94388173D01*
X151089688Y-94405799D01*
X151244189Y-94518050D01*
X151267001Y-94531221D01*
X151441464Y-94608897D01*
X151466516Y-94617037D01*
X151653316Y-94656743D01*
X151679513Y-94659496D01*
X151870487Y-94659496D01*
X151896684Y-94656743D01*
X152083484Y-94617037D01*
X152108536Y-94608897D01*
X152282999Y-94531221D01*
X152305811Y-94518050D01*
X152460312Y-94405799D01*
X152479887Y-94388173D01*
X152607673Y-94246252D01*
X152623156Y-94224942D01*
X152718643Y-94059554D01*
X152729357Y-94035490D01*
X152788371Y-93853863D01*
X152793848Y-93828098D01*
X152813810Y-93638171D01*
X152813810Y-93611829D01*
X152793848Y-93421902D01*
X152788371Y-93396137D01*
X152729357Y-93214510D01*
X152718643Y-93190446D01*
X152623156Y-93025058D01*
X152607673Y-93003748D01*
X152479887Y-92861827D01*
X152460312Y-92844201D01*
X152305811Y-92731950D01*
X152282999Y-92718779D01*
X152108536Y-92641103D01*
X152083484Y-92632963D01*
X152029351Y-92621457D01*
X152085312Y-92580799D01*
X152104887Y-92563173D01*
X152232673Y-92421252D01*
X152248156Y-92399942D01*
X152343643Y-92234554D01*
X152354357Y-92210490D01*
X152413371Y-92028863D01*
X152418848Y-92003098D01*
X152438810Y-91813171D01*
X152438810Y-91786829D01*
X152418848Y-91596902D01*
X152413371Y-91571137D01*
X152377077Y-91459436D01*
X152485312Y-91380799D01*
X152504887Y-91363173D01*
X152632673Y-91221252D01*
X152648156Y-91199942D01*
X152743643Y-91034554D01*
X152754357Y-91010490D01*
X152813371Y-90828863D01*
X152818848Y-90803098D01*
X152838810Y-90613171D01*
X152838810Y-90586829D01*
X152818848Y-90396902D01*
X152813371Y-90371137D01*
X152754357Y-90189510D01*
X152743643Y-90165446D01*
X152648156Y-90000058D01*
X152632673Y-89978748D01*
X152504887Y-89836827D01*
X152485312Y-89819201D01*
X152330811Y-89706950D01*
X152307999Y-89693779D01*
X152133536Y-89616103D01*
X152108484Y-89607963D01*
X151921684Y-89568257D01*
X151895487Y-89565504D01*
X151704513Y-89565504D01*
X151678316Y-89568257D01*
X151491516Y-89607963D01*
X151466464Y-89616103D01*
X151292001Y-89693779D01*
X151269189Y-89706950D01*
X151114688Y-89819201D01*
X151095113Y-89836827D01*
X150967327Y-89978748D01*
X150951844Y-90000058D01*
X150856357Y-90165446D01*
X150845643Y-90189510D01*
X150786629Y-90371137D01*
X150781152Y-90396902D01*
X150761190Y-90586829D01*
X150761190Y-90613171D01*
X150781152Y-90803098D01*
X150786629Y-90828863D01*
X150822923Y-90940564D01*
X150714688Y-91019201D01*
X150695113Y-91036827D01*
X150567327Y-91178748D01*
X150551844Y-91200058D01*
X150456357Y-91365446D01*
X150445643Y-91389510D01*
X150386629Y-91571137D01*
X150381152Y-91596902D01*
X150361190Y-91786829D01*
X148455727Y-91786829D01*
X148543643Y-91634554D01*
X148554357Y-91610490D01*
X148613371Y-91428863D01*
X148618848Y-91403098D01*
X148638810Y-91213171D01*
X148638810Y-91186829D01*
X148618848Y-90996902D01*
X148613371Y-90971137D01*
X148554357Y-90789510D01*
X148543643Y-90765446D01*
X148448156Y-90600058D01*
X148432673Y-90578748D01*
X148304887Y-90436827D01*
X148285312Y-90419201D01*
X148130811Y-90306950D01*
X148118774Y-90300000D01*
X148130811Y-90293050D01*
X148285312Y-90180799D01*
X148304887Y-90163173D01*
X148432673Y-90021252D01*
X148448156Y-89999942D01*
X148543643Y-89834554D01*
X148554357Y-89810490D01*
X148613371Y-89628863D01*
X148618848Y-89603098D01*
X148638810Y-89413171D01*
X148638810Y-89386829D01*
X148618848Y-89196902D01*
X148613371Y-89171137D01*
X148554357Y-88989510D01*
X148543643Y-88965446D01*
X148448156Y-88800058D01*
X148432673Y-88778748D01*
X148304887Y-88636827D01*
X148285312Y-88619201D01*
X148130811Y-88506950D01*
X148107999Y-88493779D01*
X147933536Y-88416103D01*
X147908484Y-88407963D01*
X147809057Y-88386829D01*
X150361190Y-88386829D01*
X150361190Y-88413171D01*
X150381152Y-88603098D01*
X150386629Y-88628863D01*
X150445643Y-88810490D01*
X150456357Y-88834554D01*
X150551844Y-88999942D01*
X150567327Y-89021252D01*
X150695113Y-89163173D01*
X150714688Y-89180799D01*
X150869189Y-89293050D01*
X150892001Y-89306221D01*
X151066464Y-89383897D01*
X151091516Y-89392037D01*
X151278316Y-89431743D01*
X151304513Y-89434496D01*
X151495487Y-89434496D01*
X151521684Y-89431743D01*
X151708484Y-89392037D01*
X151733536Y-89383897D01*
X151907999Y-89306221D01*
X151930811Y-89293050D01*
X152085312Y-89180799D01*
X152104887Y-89163173D01*
X152232673Y-89021252D01*
X152248156Y-88999942D01*
X152343643Y-88834554D01*
X152354357Y-88810490D01*
X152367942Y-88768679D01*
X154314438Y-88768679D01*
X154314438Y-88795021D01*
X154334400Y-88984948D01*
X154339877Y-89010713D01*
X154398891Y-89192340D01*
X154409605Y-89216404D01*
X154505092Y-89381792D01*
X154520575Y-89403102D01*
X154648361Y-89545023D01*
X154667936Y-89562649D01*
X154822437Y-89674900D01*
X154845249Y-89688071D01*
X155000212Y-89757065D01*
X154914688Y-89819201D01*
X154895113Y-89836827D01*
X154767327Y-89978748D01*
X154751844Y-90000058D01*
X154656357Y-90165446D01*
X154645643Y-90189510D01*
X154586629Y-90371137D01*
X154581152Y-90396902D01*
X154561190Y-90586829D01*
X154561190Y-90613171D01*
X154581152Y-90803098D01*
X154586629Y-90828863D01*
X154645643Y-91010490D01*
X154656357Y-91034554D01*
X154751844Y-91199942D01*
X154767327Y-91221252D01*
X154895113Y-91363173D01*
X154914688Y-91380799D01*
X155069189Y-91493050D01*
X155092001Y-91506221D01*
X155266464Y-91583897D01*
X155291516Y-91592037D01*
X155478316Y-91631743D01*
X155504513Y-91634496D01*
X155695487Y-91634496D01*
X155721684Y-91631743D01*
X155908484Y-91592037D01*
X155933536Y-91583897D01*
X156107999Y-91506221D01*
X156130811Y-91493050D01*
X156285312Y-91380799D01*
X156304887Y-91363173D01*
X156432673Y-91221252D01*
X156448156Y-91199942D01*
X156543643Y-91034554D01*
X156554357Y-91010490D01*
X156613371Y-90828863D01*
X156618848Y-90803098D01*
X156638810Y-90613171D01*
X156638810Y-90586829D01*
X156618848Y-90396902D01*
X156613371Y-90371137D01*
X156554357Y-90189510D01*
X156543643Y-90165446D01*
X156448156Y-90000058D01*
X156432673Y-89978748D01*
X156304887Y-89836827D01*
X156285312Y-89819201D01*
X156130811Y-89706950D01*
X156107999Y-89693779D01*
X155953036Y-89624785D01*
X156038560Y-89562649D01*
X156058135Y-89545023D01*
X156185921Y-89403102D01*
X156201404Y-89381792D01*
X156296891Y-89216404D01*
X156307605Y-89192340D01*
X156366619Y-89010713D01*
X156372096Y-88984948D01*
X156392058Y-88795021D01*
X156392058Y-88768679D01*
X156372096Y-88578752D01*
X156366619Y-88552987D01*
X156307605Y-88371360D01*
X156296891Y-88347296D01*
X156201404Y-88181908D01*
X156185921Y-88160598D01*
X156058135Y-88018677D01*
X156038560Y-88001051D01*
X155884059Y-87888800D01*
X155861247Y-87875629D01*
X155686784Y-87797953D01*
X155661732Y-87789813D01*
X155474932Y-87750107D01*
X155448735Y-87747354D01*
X155257761Y-87747354D01*
X155231564Y-87750107D01*
X155044764Y-87789813D01*
X155019712Y-87797953D01*
X154845249Y-87875629D01*
X154822437Y-87888800D01*
X154667936Y-88001051D01*
X154648361Y-88018677D01*
X154520575Y-88160598D01*
X154505092Y-88181908D01*
X154409605Y-88347296D01*
X154398891Y-88371360D01*
X154339877Y-88552987D01*
X154334400Y-88578752D01*
X154314438Y-88768679D01*
X152367942Y-88768679D01*
X152413371Y-88628863D01*
X152418848Y-88603098D01*
X152438810Y-88413171D01*
X152438810Y-88386829D01*
X152418848Y-88196902D01*
X152413371Y-88171137D01*
X152354357Y-87989510D01*
X152343643Y-87965446D01*
X152248156Y-87800058D01*
X152232673Y-87778748D01*
X152104887Y-87636827D01*
X152085312Y-87619201D01*
X151930811Y-87506950D01*
X151907999Y-87493779D01*
X151733536Y-87416103D01*
X151708484Y-87407963D01*
X151521684Y-87368257D01*
X151495487Y-87365504D01*
X151304513Y-87365504D01*
X151278316Y-87368257D01*
X151091516Y-87407963D01*
X151066464Y-87416103D01*
X150892001Y-87493779D01*
X150869189Y-87506950D01*
X150714688Y-87619201D01*
X150695113Y-87636827D01*
X150567327Y-87778748D01*
X150551844Y-87800058D01*
X150456357Y-87965446D01*
X150445643Y-87989510D01*
X150386629Y-88171137D01*
X150381152Y-88196902D01*
X150361190Y-88386829D01*
X147809057Y-88386829D01*
X147721684Y-88368257D01*
X147695487Y-88365504D01*
X147504513Y-88365504D01*
X147478316Y-88368257D01*
X147291516Y-88407963D01*
X147266464Y-88416103D01*
X147092001Y-88493779D01*
X147069189Y-88506950D01*
X146914688Y-88619201D01*
X146895113Y-88636827D01*
X146767327Y-88778748D01*
X146751844Y-88800058D01*
X146656357Y-88965446D01*
X146645643Y-88989510D01*
X146586629Y-89171137D01*
X146581152Y-89196902D01*
X146561190Y-89386829D01*
X144038810Y-89386829D01*
X144018848Y-89196902D01*
X144013371Y-89171137D01*
X143954357Y-88989510D01*
X143943643Y-88965446D01*
X143848156Y-88800058D01*
X143832673Y-88778748D01*
X143704887Y-88636827D01*
X143685312Y-88619201D01*
X143530811Y-88506950D01*
X143507999Y-88493779D01*
X143333536Y-88416103D01*
X143308484Y-88407963D01*
X143121684Y-88368257D01*
X143095487Y-88365504D01*
X142904513Y-88365504D01*
X142878316Y-88368257D01*
X142691516Y-88407963D01*
X142666464Y-88416103D01*
X142492001Y-88493779D01*
X142469189Y-88506950D01*
X142314688Y-88619201D01*
X142295113Y-88636827D01*
X142167327Y-88778748D01*
X142151844Y-88800058D01*
X142056357Y-88965446D01*
X142045643Y-88989510D01*
X141986629Y-89171137D01*
X141981152Y-89196902D01*
X141961190Y-89386829D01*
X138234000Y-89386829D01*
X138234000Y-88020276D01*
X138255925Y-88054392D01*
X138279410Y-88081495D01*
X138389868Y-88177208D01*
X138420039Y-88196598D01*
X138552988Y-88257314D01*
X138587399Y-88267418D01*
X138732069Y-88288218D01*
X138750000Y-88289500D01*
X140450000Y-88289500D01*
X140458989Y-88289179D01*
X140532068Y-88283952D01*
X140558577Y-88279169D01*
X140698814Y-88237992D01*
X140731437Y-88223094D01*
X140854392Y-88144075D01*
X140881495Y-88120590D01*
X140977208Y-88010132D01*
X140996598Y-87979961D01*
X141057314Y-87847012D01*
X141062945Y-87827834D01*
X141231237Y-87979631D01*
X141248208Y-87992513D01*
X141442985Y-88115883D01*
X141461883Y-88125721D01*
X141674661Y-88214510D01*
X141694947Y-88221023D01*
X141919644Y-88272692D01*
X141940738Y-88275694D01*
X142170928Y-88288765D01*
X142192225Y-88288170D01*
X142421327Y-88262270D01*
X142442220Y-88258096D01*
X142663682Y-88193965D01*
X142683573Y-88186329D01*
X142891063Y-88085801D01*
X142909383Y-88074923D01*
X143096969Y-87940871D01*
X143113194Y-87927063D01*
X143275513Y-87763323D01*
X143289180Y-87746978D01*
X143410784Y-87573631D01*
X143431007Y-87610799D01*
X143442735Y-87628586D01*
X143585474Y-87809650D01*
X143600032Y-87825206D01*
X143771237Y-87979631D01*
X143788208Y-87992513D01*
X143982985Y-88115883D01*
X144001883Y-88125721D01*
X144214661Y-88214510D01*
X144234947Y-88221023D01*
X144459644Y-88272692D01*
X144480738Y-88275694D01*
X144710928Y-88288765D01*
X144732225Y-88288170D01*
X144961327Y-88262270D01*
X144982220Y-88258096D01*
X145203682Y-88193965D01*
X145223573Y-88186329D01*
X145431063Y-88085801D01*
X145449383Y-88074923D01*
X145636969Y-87940871D01*
X145653194Y-87927063D01*
X145815513Y-87763323D01*
X145829180Y-87746978D01*
X145961589Y-87558229D01*
X145972306Y-87539815D01*
X146071020Y-87331455D01*
X146078482Y-87311498D01*
X146140678Y-87089484D01*
X146144670Y-87068555D01*
X146168570Y-86839237D01*
X146169243Y-86827384D01*
X146169494Y-86801208D01*
X146169049Y-86789347D01*
X146149556Y-86559612D01*
X146145966Y-86538611D01*
X146088043Y-86315444D01*
X146080966Y-86295347D01*
X145986270Y-86085131D01*
X145975908Y-86066515D01*
X145847147Y-85875259D01*
X145833797Y-85858654D01*
X145674652Y-85691827D01*
X145658695Y-85677710D01*
X145473717Y-85540082D01*
X145455609Y-85528854D01*
X145269045Y-85434000D01*
X156516472Y-85434000D01*
X156527346Y-85435958D01*
%TA.AperFunction,Conductor*%
G36*
X156527346Y-85435958D02*
G01*
X156546691Y-85437917D01*
X156627844Y-85439839D01*
X156704616Y-85455109D01*
X156769900Y-85482151D01*
X156828642Y-85521401D01*
X156878600Y-85571359D01*
X156917851Y-85630103D01*
X156944889Y-85695379D01*
X156960161Y-85772157D01*
X156962005Y-85850032D01*
X156963700Y-85867857D01*
X156966000Y-85881593D01*
X156966000Y-96704700D01*
X156904887Y-96636827D01*
X156885312Y-96619201D01*
X156730811Y-96506950D01*
X156707999Y-96493779D01*
X156533536Y-96416103D01*
X156508484Y-96407963D01*
X156321684Y-96368257D01*
X156295487Y-96365504D01*
X156104513Y-96365504D01*
X156078316Y-96368257D01*
X155891516Y-96407963D01*
X155866464Y-96416103D01*
X155692001Y-96493779D01*
X155669189Y-96506950D01*
X155514688Y-96619201D01*
X155495113Y-96636827D01*
X155367327Y-96778748D01*
X155351844Y-96800058D01*
X155256357Y-96965446D01*
X155245643Y-96989510D01*
X155186629Y-97171137D01*
X155181152Y-97196902D01*
X155161190Y-97386829D01*
X155161190Y-97413171D01*
X155181152Y-97603098D01*
X155186629Y-97628863D01*
X155245643Y-97810490D01*
X155256357Y-97834554D01*
X155351844Y-97999942D01*
X155367327Y-98021252D01*
X155495113Y-98163173D01*
X155514688Y-98180799D01*
X155669189Y-98293050D01*
X155692001Y-98306221D01*
X155866464Y-98383897D01*
X155891516Y-98392037D01*
X156078316Y-98431743D01*
X156104513Y-98434496D01*
X156295487Y-98434496D01*
X156321684Y-98431743D01*
X156508484Y-98392037D01*
X156533536Y-98383897D01*
X156707999Y-98306221D01*
X156730811Y-98293050D01*
X156885312Y-98180799D01*
X156904887Y-98163173D01*
X156966000Y-98095300D01*
X156966000Y-101165504D01*
X156854513Y-101165504D01*
X156828316Y-101168257D01*
X156641516Y-101207963D01*
X156616464Y-101216103D01*
X156442001Y-101293779D01*
X156419189Y-101306950D01*
X156264688Y-101419201D01*
X156245113Y-101436827D01*
X156117327Y-101578748D01*
X156101844Y-101600058D01*
X156006357Y-101765446D01*
X155995643Y-101789510D01*
X155936629Y-101971137D01*
X155931152Y-101996902D01*
X155911190Y-102186829D01*
X155911190Y-102213171D01*
X155931152Y-102403098D01*
X155936629Y-102428863D01*
X155995643Y-102610490D01*
X156006357Y-102634554D01*
X156101844Y-102799942D01*
X156117327Y-102821252D01*
X156245113Y-102963173D01*
X156264688Y-102980799D01*
X156419189Y-103093050D01*
X156442001Y-103106221D01*
X156616464Y-103183897D01*
X156641516Y-103192037D01*
X156828316Y-103231743D01*
X156854513Y-103234496D01*
X156966000Y-103234496D01*
X156966000Y-103830557D01*
X156933536Y-103816103D01*
X156908484Y-103807963D01*
X156721684Y-103768257D01*
X156695487Y-103765504D01*
X156504513Y-103765504D01*
X156478316Y-103768257D01*
X156291516Y-103807963D01*
X156266464Y-103816103D01*
X156092001Y-103893779D01*
X156069189Y-103906950D01*
X155914688Y-104019201D01*
X155895113Y-104036827D01*
X155767327Y-104178748D01*
X155751844Y-104200058D01*
X155656357Y-104365446D01*
X155645643Y-104389510D01*
X155586629Y-104571137D01*
X155581152Y-104596902D01*
X155561190Y-104786829D01*
X155561190Y-104813171D01*
X155581152Y-105003098D01*
X155586629Y-105028863D01*
X155645643Y-105210490D01*
X155656357Y-105234554D01*
X155751844Y-105399942D01*
X155767327Y-105421252D01*
X155895113Y-105563173D01*
X155914688Y-105580799D01*
X156069189Y-105693050D01*
X156092001Y-105706221D01*
X156266464Y-105783897D01*
X156291516Y-105792037D01*
X156478316Y-105831743D01*
X156504513Y-105834496D01*
X156695487Y-105834496D01*
X156721684Y-105831743D01*
X156908484Y-105792037D01*
X156933536Y-105783897D01*
X156966000Y-105769443D01*
X156966000Y-109030557D01*
X156933536Y-109016103D01*
X156908484Y-109007963D01*
X156721684Y-108968257D01*
X156695487Y-108965504D01*
X156504513Y-108965504D01*
X156478316Y-108968257D01*
X156291516Y-109007963D01*
X156266464Y-109016103D01*
X156092001Y-109093779D01*
X156069189Y-109106950D01*
X155914688Y-109219201D01*
X155895113Y-109236827D01*
X155767327Y-109378748D01*
X155751844Y-109400058D01*
X155656357Y-109565446D01*
X155645643Y-109589510D01*
X155586629Y-109771137D01*
X155581152Y-109796902D01*
X155561190Y-109986829D01*
X155561190Y-110013171D01*
X155581152Y-110203098D01*
X155586629Y-110228863D01*
X155645643Y-110410490D01*
X155656357Y-110434554D01*
X155751844Y-110599942D01*
X155767327Y-110621252D01*
X155895113Y-110763173D01*
X155914688Y-110780799D01*
X156069189Y-110893050D01*
X156092001Y-110906221D01*
X156266464Y-110983897D01*
X156291516Y-110992037D01*
X156478316Y-111031743D01*
X156504513Y-111034496D01*
X156695487Y-111034496D01*
X156721684Y-111031743D01*
X156908484Y-110992037D01*
X156933536Y-110983897D01*
X156966000Y-110969443D01*
X156966000Y-112630557D01*
X156933536Y-112616103D01*
X156908484Y-112607963D01*
X156721684Y-112568257D01*
X156695487Y-112565504D01*
X156504513Y-112565504D01*
X156478316Y-112568257D01*
X156291516Y-112607963D01*
X156266464Y-112616103D01*
X156092001Y-112693779D01*
X156069189Y-112706950D01*
X155914688Y-112819201D01*
X155895113Y-112836827D01*
X155767327Y-112978748D01*
X155751844Y-113000058D01*
X155656357Y-113165446D01*
X155645643Y-113189510D01*
X155586629Y-113371137D01*
X155581152Y-113396902D01*
X155561190Y-113586829D01*
X155561190Y-113613171D01*
X155581152Y-113803098D01*
X155586629Y-113828863D01*
X155645643Y-114010490D01*
X155656357Y-114034554D01*
X155732248Y-114166000D01*
X153606187Y-114166000D01*
X153429613Y-114148609D01*
X153265767Y-114098907D01*
X153114768Y-114018197D01*
X153052487Y-113967084D01*
X153080362Y-113879213D01*
X153085475Y-113855159D01*
X153103715Y-113692543D01*
X153104500Y-113678498D01*
X153104500Y-112069006D01*
X153103899Y-112056711D01*
X153088645Y-111901137D01*
X153083868Y-111877014D01*
X153023877Y-111678314D01*
X153014506Y-111655579D01*
X152917063Y-111472315D01*
X152903455Y-111451832D01*
X152772271Y-111290986D01*
X152754944Y-111273538D01*
X152726000Y-111249593D01*
X152726000Y-108881743D01*
X152743044Y-108868039D01*
X152760614Y-108850833D01*
X152894030Y-108691833D01*
X152907923Y-108671543D01*
X153007915Y-108489658D01*
X153017602Y-108467056D01*
X153080362Y-108269213D01*
X153085475Y-108245159D01*
X153103715Y-108082543D01*
X153104500Y-108068498D01*
X153104500Y-108033849D01*
X153165438Y-108033849D01*
X153191635Y-108031096D01*
X153378435Y-107991390D01*
X153403487Y-107983250D01*
X153577950Y-107905574D01*
X153600762Y-107892403D01*
X153755263Y-107780152D01*
X153774838Y-107762526D01*
X153902624Y-107620605D01*
X153918107Y-107599295D01*
X154013594Y-107433907D01*
X154024308Y-107409843D01*
X154083322Y-107228216D01*
X154088799Y-107202451D01*
X154108761Y-107012524D01*
X154108761Y-106986182D01*
X154088799Y-106796255D01*
X154083322Y-106770490D01*
X154024308Y-106588863D01*
X154013594Y-106564799D01*
X153918107Y-106399411D01*
X153902624Y-106378101D01*
X153774838Y-106236180D01*
X153755263Y-106218554D01*
X153600762Y-106106303D01*
X153577950Y-106093132D01*
X153403487Y-106015456D01*
X153378435Y-106007316D01*
X153191635Y-105967610D01*
X153165438Y-105964857D01*
X152974464Y-105964857D01*
X152948267Y-105967610D01*
X152761467Y-106007316D01*
X152736415Y-106015456D01*
X152632091Y-106061904D01*
X152600000Y-106035356D01*
X152600000Y-105800000D01*
X152107563Y-105800000D01*
X152042079Y-105764998D01*
X152019258Y-105755545D01*
X151831665Y-105698640D01*
X151807440Y-105693822D01*
X151612350Y-105674607D01*
X151600000Y-105674000D01*
X150890847Y-105674000D01*
X150848156Y-105600058D01*
X150832673Y-105578748D01*
X150704887Y-105436827D01*
X150685312Y-105419201D01*
X150530811Y-105306950D01*
X150507999Y-105293779D01*
X150333536Y-105216103D01*
X150308484Y-105207963D01*
X150121684Y-105168257D01*
X150095487Y-105165504D01*
X149904513Y-105165504D01*
X149878316Y-105168257D01*
X149691516Y-105207963D01*
X149666464Y-105216103D01*
X149492001Y-105293779D01*
X149469189Y-105306950D01*
X149365045Y-105382615D01*
X149274662Y-105316948D01*
X149251850Y-105303777D01*
X149077387Y-105226101D01*
X149052335Y-105217961D01*
X148865535Y-105178255D01*
X148839338Y-105175502D01*
X148648364Y-105175502D01*
X148622167Y-105178255D01*
X148435367Y-105217961D01*
X148410315Y-105226101D01*
X148235852Y-105303777D01*
X148213040Y-105316948D01*
X148191270Y-105332765D01*
X148104887Y-105236827D01*
X148085312Y-105219201D01*
X147930811Y-105106950D01*
X147907999Y-105093779D01*
X147733536Y-105016103D01*
X147708484Y-105007963D01*
X147521684Y-104968257D01*
X147495487Y-104965504D01*
X147374847Y-104965504D01*
X147507999Y-104906221D01*
X147530811Y-104893050D01*
X147685312Y-104780799D01*
X147704887Y-104763173D01*
X147832673Y-104621252D01*
X147848156Y-104599942D01*
X147943643Y-104434554D01*
X147954357Y-104410490D01*
X148013371Y-104228863D01*
X148018848Y-104203098D01*
X148038810Y-104013171D01*
X148038810Y-103986829D01*
X148018848Y-103796902D01*
X148013371Y-103771137D01*
X147954357Y-103589510D01*
X147943643Y-103565446D01*
X147848156Y-103400058D01*
X147832673Y-103378748D01*
X147704887Y-103236827D01*
X147685312Y-103219201D01*
X147530811Y-103106950D01*
X147507999Y-103093779D01*
X147333536Y-103016103D01*
X147308484Y-103007963D01*
X147121684Y-102968257D01*
X147095487Y-102965504D01*
X146904513Y-102965504D01*
X146878316Y-102968257D01*
X146691516Y-103007963D01*
X146666464Y-103016103D01*
X146520640Y-103081028D01*
X146492234Y-103049480D01*
X146472659Y-103031854D01*
X146318158Y-102919603D01*
X146295346Y-102906432D01*
X146120883Y-102828756D01*
X146095831Y-102820616D01*
X145909031Y-102780910D01*
X145882834Y-102778157D01*
X145691860Y-102778157D01*
X145665663Y-102780910D01*
X145478863Y-102820616D01*
X145453811Y-102828756D01*
X145279348Y-102906432D01*
X145256536Y-102919603D01*
X145102035Y-103031854D01*
X145082460Y-103049480D01*
X144954674Y-103191401D01*
X144939191Y-103212711D01*
X144843704Y-103378099D01*
X144832990Y-103402163D01*
X144773976Y-103583790D01*
X144768499Y-103609555D01*
X144748537Y-103799482D01*
X144748537Y-103825824D01*
X144768499Y-104015751D01*
X144773976Y-104041516D01*
X144832990Y-104223143D01*
X144843704Y-104247207D01*
X144939191Y-104412595D01*
X144954674Y-104433905D01*
X145082460Y-104575826D01*
X145102035Y-104593452D01*
X145256536Y-104705703D01*
X145279348Y-104718874D01*
X145453811Y-104796550D01*
X145478863Y-104804690D01*
X145665663Y-104844396D01*
X145691860Y-104847149D01*
X145882834Y-104847149D01*
X145909031Y-104844396D01*
X146095831Y-104804690D01*
X146120883Y-104796550D01*
X146266707Y-104731625D01*
X146295113Y-104763173D01*
X146314688Y-104780799D01*
X146469189Y-104893050D01*
X146492001Y-104906221D01*
X146666464Y-104983897D01*
X146691516Y-104992037D01*
X146878316Y-105031743D01*
X146904513Y-105034496D01*
X147025153Y-105034496D01*
X146892001Y-105093779D01*
X146869189Y-105106950D01*
X146714688Y-105219201D01*
X146695113Y-105236827D01*
X146567327Y-105378748D01*
X146551844Y-105400058D01*
X146456357Y-105565446D01*
X146445643Y-105589510D01*
X146418191Y-105674000D01*
X145690847Y-105674000D01*
X145648156Y-105600058D01*
X145632673Y-105578748D01*
X145504887Y-105436827D01*
X145485312Y-105419201D01*
X145330811Y-105306950D01*
X145307999Y-105293779D01*
X145133536Y-105216103D01*
X145108484Y-105207963D01*
X144921684Y-105168257D01*
X144895487Y-105165504D01*
X144704513Y-105165504D01*
X144678316Y-105168257D01*
X144491516Y-105207963D01*
X144466464Y-105216103D01*
X144292001Y-105293779D01*
X144269189Y-105306950D01*
X144114688Y-105419201D01*
X144095113Y-105436827D01*
X143967327Y-105578748D01*
X143951844Y-105600058D01*
X143909153Y-105674000D01*
X141600000Y-105674000D01*
X141587650Y-105674607D01*
X141392560Y-105693822D01*
X141368335Y-105698640D01*
X141338810Y-105707596D01*
X141338810Y-105686829D01*
X141321194Y-105519218D01*
X141466464Y-105583897D01*
X141491516Y-105592037D01*
X141678316Y-105631743D01*
X141704513Y-105634496D01*
X141895487Y-105634496D01*
X141921684Y-105631743D01*
X142108484Y-105592037D01*
X142133536Y-105583897D01*
X142307999Y-105506221D01*
X142330811Y-105493050D01*
X142485312Y-105380799D01*
X142504887Y-105363173D01*
X142632673Y-105221252D01*
X142648156Y-105199942D01*
X142743643Y-105034554D01*
X142754357Y-105010490D01*
X142813371Y-104828863D01*
X142818848Y-104803098D01*
X142838810Y-104613171D01*
X142838810Y-104586829D01*
X142818848Y-104396902D01*
X142813371Y-104371137D01*
X142754357Y-104189510D01*
X142743643Y-104165446D01*
X142648156Y-104000058D01*
X142632673Y-103978748D01*
X142504887Y-103836827D01*
X142485312Y-103819201D01*
X142330811Y-103706950D01*
X142307999Y-103693779D01*
X142133536Y-103616103D01*
X142108484Y-103607963D01*
X141921684Y-103568257D01*
X141895487Y-103565504D01*
X141704513Y-103565504D01*
X141678316Y-103568257D01*
X141491516Y-103607963D01*
X141466464Y-103616103D01*
X141292001Y-103693779D01*
X141269189Y-103706950D01*
X141114688Y-103819201D01*
X141095113Y-103836827D01*
X140967327Y-103978748D01*
X140951844Y-104000058D01*
X140856357Y-104165446D01*
X140845643Y-104189510D01*
X140786629Y-104371137D01*
X140781152Y-104396902D01*
X140761190Y-104586829D01*
X140761190Y-104613171D01*
X140778806Y-104780782D01*
X140633536Y-104716103D01*
X140608484Y-104707963D01*
X140421684Y-104668257D01*
X140395487Y-104665504D01*
X140204513Y-104665504D01*
X140178316Y-104668257D01*
X139991516Y-104707963D01*
X139966464Y-104716103D01*
X139792001Y-104793779D01*
X139769189Y-104806950D01*
X139614688Y-104919201D01*
X139595113Y-104936827D01*
X139467327Y-105078748D01*
X139451844Y-105100058D01*
X139356357Y-105265446D01*
X139345643Y-105289510D01*
X139286629Y-105471137D01*
X139281152Y-105496902D01*
X139261190Y-105686829D01*
X139261190Y-105713171D01*
X139281152Y-105903098D01*
X139286629Y-105928863D01*
X139345643Y-106110490D01*
X139356357Y-106134554D01*
X139451844Y-106299942D01*
X139467327Y-106321252D01*
X139595113Y-106463173D01*
X139614688Y-106480799D01*
X139769189Y-106593050D01*
X139792001Y-106606221D01*
X139966464Y-106683897D01*
X139991516Y-106692037D01*
X140178316Y-106731743D01*
X140204513Y-106734496D01*
X140395487Y-106734496D01*
X140421684Y-106731743D01*
X140481363Y-106719058D01*
X140474607Y-106787650D01*
X140474000Y-106800000D01*
X140474000Y-108793813D01*
X140456609Y-108970387D01*
X140406907Y-109134233D01*
X140326197Y-109285232D01*
X140217581Y-109417581D01*
X140085232Y-109526197D01*
X139934233Y-109606907D01*
X139770387Y-109656609D01*
X139593813Y-109674000D01*
X139114187Y-109674000D01*
X138937613Y-109656609D01*
X138773767Y-109606907D01*
X138622768Y-109526197D01*
X138490419Y-109417581D01*
X138381803Y-109285232D01*
X138301093Y-109134233D01*
X138251391Y-108970387D01*
X138234000Y-108793813D01*
X138234000Y-102686829D01*
X149861190Y-102686829D01*
X149861190Y-102713171D01*
X149881152Y-102903098D01*
X149886629Y-102928863D01*
X149945643Y-103110490D01*
X149956357Y-103134554D01*
X150051844Y-103299942D01*
X150067327Y-103321252D01*
X150195113Y-103463173D01*
X150214688Y-103480799D01*
X150369189Y-103593050D01*
X150392001Y-103606221D01*
X150566464Y-103683897D01*
X150591516Y-103692037D01*
X150778316Y-103731743D01*
X150804513Y-103734496D01*
X150995487Y-103734496D01*
X151021684Y-103731743D01*
X151208484Y-103692037D01*
X151233536Y-103683897D01*
X151407999Y-103606221D01*
X151430811Y-103593050D01*
X151585312Y-103480799D01*
X151604887Y-103463173D01*
X151732673Y-103321252D01*
X151748156Y-103299942D01*
X151843643Y-103134554D01*
X151854357Y-103110490D01*
X151913371Y-102928863D01*
X151918848Y-102903098D01*
X151938810Y-102713171D01*
X151938810Y-102686829D01*
X152961190Y-102686829D01*
X152961190Y-102713171D01*
X152981152Y-102903098D01*
X152986629Y-102928863D01*
X153045643Y-103110490D01*
X153056357Y-103134554D01*
X153151844Y-103299942D01*
X153167327Y-103321252D01*
X153295113Y-103463173D01*
X153314688Y-103480799D01*
X153469189Y-103593050D01*
X153492001Y-103606221D01*
X153666464Y-103683897D01*
X153691516Y-103692037D01*
X153878316Y-103731743D01*
X153904513Y-103734496D01*
X154095487Y-103734496D01*
X154121684Y-103731743D01*
X154308484Y-103692037D01*
X154333536Y-103683897D01*
X154507999Y-103606221D01*
X154530811Y-103593050D01*
X154685312Y-103480799D01*
X154704887Y-103463173D01*
X154832673Y-103321252D01*
X154848156Y-103299942D01*
X154943643Y-103134554D01*
X154954357Y-103110490D01*
X155013371Y-102928863D01*
X155018848Y-102903098D01*
X155038810Y-102713171D01*
X155038810Y-102686829D01*
X155018848Y-102496902D01*
X155013371Y-102471137D01*
X154954357Y-102289510D01*
X154943643Y-102265446D01*
X154848156Y-102100058D01*
X154832673Y-102078748D01*
X154704887Y-101936827D01*
X154685312Y-101919201D01*
X154530811Y-101806950D01*
X154507999Y-101793779D01*
X154333536Y-101716103D01*
X154308484Y-101707963D01*
X154121684Y-101668257D01*
X154095487Y-101665504D01*
X153904513Y-101665504D01*
X153878316Y-101668257D01*
X153691516Y-101707963D01*
X153666464Y-101716103D01*
X153492001Y-101793779D01*
X153469189Y-101806950D01*
X153314688Y-101919201D01*
X153295113Y-101936827D01*
X153167327Y-102078748D01*
X153151844Y-102100058D01*
X153056357Y-102265446D01*
X153045643Y-102289510D01*
X152986629Y-102471137D01*
X152981152Y-102496902D01*
X152961190Y-102686829D01*
X151938810Y-102686829D01*
X151918848Y-102496902D01*
X151913371Y-102471137D01*
X151854357Y-102289510D01*
X151843643Y-102265446D01*
X151748156Y-102100058D01*
X151732673Y-102078748D01*
X151604887Y-101936827D01*
X151585312Y-101919201D01*
X151430811Y-101806950D01*
X151407999Y-101793779D01*
X151233536Y-101716103D01*
X151208484Y-101707963D01*
X151021684Y-101668257D01*
X150995487Y-101665504D01*
X150804513Y-101665504D01*
X150778316Y-101668257D01*
X150591516Y-101707963D01*
X150566464Y-101716103D01*
X150392001Y-101793779D01*
X150369189Y-101806950D01*
X150214688Y-101919201D01*
X150195113Y-101936827D01*
X150067327Y-102078748D01*
X150051844Y-102100058D01*
X149956357Y-102265446D01*
X149945643Y-102289510D01*
X149886629Y-102471137D01*
X149881152Y-102496902D01*
X149861190Y-102686829D01*
X138234000Y-102686829D01*
X138234000Y-101536829D01*
X138811190Y-101536829D01*
X138811190Y-101563171D01*
X138831152Y-101753098D01*
X138836629Y-101778863D01*
X138895643Y-101960490D01*
X138906357Y-101984554D01*
X139001844Y-102149942D01*
X139017327Y-102171252D01*
X139145113Y-102313173D01*
X139164688Y-102330799D01*
X139319189Y-102443050D01*
X139342001Y-102456221D01*
X139516464Y-102533897D01*
X139541516Y-102542037D01*
X139728316Y-102581743D01*
X139754513Y-102584496D01*
X139945487Y-102584496D01*
X139971684Y-102581743D01*
X140158484Y-102542037D01*
X140183536Y-102533897D01*
X140357999Y-102456221D01*
X140380811Y-102443050D01*
X140535312Y-102330799D01*
X140554887Y-102313173D01*
X140682673Y-102171252D01*
X140698156Y-102149942D01*
X140793643Y-101984554D01*
X140804357Y-101960490D01*
X140863371Y-101778863D01*
X140868848Y-101753098D01*
X140888810Y-101563171D01*
X140888810Y-101536829D01*
X140868848Y-101346902D01*
X140863371Y-101321137D01*
X140819732Y-101186829D01*
X151361190Y-101186829D01*
X151361190Y-101213171D01*
X151381152Y-101403098D01*
X151386629Y-101428863D01*
X151445643Y-101610490D01*
X151456357Y-101634554D01*
X151551844Y-101799942D01*
X151567327Y-101821252D01*
X151695113Y-101963173D01*
X151714688Y-101980799D01*
X151869189Y-102093050D01*
X151892001Y-102106221D01*
X152066464Y-102183897D01*
X152091516Y-102192037D01*
X152278316Y-102231743D01*
X152304513Y-102234496D01*
X152495487Y-102234496D01*
X152521684Y-102231743D01*
X152708484Y-102192037D01*
X152733536Y-102183897D01*
X152907999Y-102106221D01*
X152930811Y-102093050D01*
X153085312Y-101980799D01*
X153104887Y-101963173D01*
X153232673Y-101821252D01*
X153248156Y-101799942D01*
X153343643Y-101634554D01*
X153354357Y-101610490D01*
X153413371Y-101428863D01*
X153418848Y-101403098D01*
X153438810Y-101213171D01*
X153438810Y-101186829D01*
X153418848Y-100996902D01*
X153413371Y-100971137D01*
X153354357Y-100789510D01*
X153343643Y-100765446D01*
X153248156Y-100600058D01*
X153232673Y-100578748D01*
X153104887Y-100436827D01*
X153085312Y-100419201D01*
X152930811Y-100306950D01*
X152907999Y-100293779D01*
X152733536Y-100216103D01*
X152708484Y-100207963D01*
X152521684Y-100168257D01*
X152495487Y-100165504D01*
X152304513Y-100165504D01*
X152278316Y-100168257D01*
X152091516Y-100207963D01*
X152066464Y-100216103D01*
X151892001Y-100293779D01*
X151869189Y-100306950D01*
X151714688Y-100419201D01*
X151695113Y-100436827D01*
X151567327Y-100578748D01*
X151551844Y-100600058D01*
X151456357Y-100765446D01*
X151445643Y-100789510D01*
X151386629Y-100971137D01*
X151381152Y-100996902D01*
X151361190Y-101186829D01*
X140819732Y-101186829D01*
X140804357Y-101139510D01*
X140793643Y-101115446D01*
X140698156Y-100950058D01*
X140682673Y-100928748D01*
X140554887Y-100786827D01*
X140535312Y-100769201D01*
X140380811Y-100656950D01*
X140357999Y-100643779D01*
X140183536Y-100566103D01*
X140158484Y-100557963D01*
X139971684Y-100518257D01*
X139945487Y-100515504D01*
X139754513Y-100515504D01*
X139728316Y-100518257D01*
X139541516Y-100557963D01*
X139516464Y-100566103D01*
X139342001Y-100643779D01*
X139319189Y-100656950D01*
X139164688Y-100769201D01*
X139145113Y-100786827D01*
X139017327Y-100928748D01*
X139001844Y-100950058D01*
X138906357Y-101115446D01*
X138895643Y-101139510D01*
X138836629Y-101321137D01*
X138831152Y-101346902D01*
X138811190Y-101536829D01*
X138234000Y-101536829D01*
X138234000Y-99686829D01*
X149861190Y-99686829D01*
X149861190Y-99713171D01*
X149881152Y-99903098D01*
X149886629Y-99928863D01*
X149945643Y-100110490D01*
X149956357Y-100134554D01*
X150051844Y-100299942D01*
X150067327Y-100321252D01*
X150195113Y-100463173D01*
X150214688Y-100480799D01*
X150369189Y-100593050D01*
X150392001Y-100606221D01*
X150566464Y-100683897D01*
X150591516Y-100692037D01*
X150778316Y-100731743D01*
X150804513Y-100734496D01*
X150995487Y-100734496D01*
X151021684Y-100731743D01*
X151208484Y-100692037D01*
X151233536Y-100683897D01*
X151407999Y-100606221D01*
X151430811Y-100593050D01*
X151585312Y-100480799D01*
X151604887Y-100463173D01*
X151732673Y-100321252D01*
X151748156Y-100299942D01*
X151843643Y-100134554D01*
X151854357Y-100110490D01*
X151913371Y-99928863D01*
X151918848Y-99903098D01*
X151938810Y-99713171D01*
X151938810Y-99686829D01*
X152961190Y-99686829D01*
X152961190Y-99713171D01*
X152981152Y-99903098D01*
X152986629Y-99928863D01*
X153045643Y-100110490D01*
X153056357Y-100134554D01*
X153151844Y-100299942D01*
X153167327Y-100321252D01*
X153295113Y-100463173D01*
X153314688Y-100480799D01*
X153469189Y-100593050D01*
X153492001Y-100606221D01*
X153666464Y-100683897D01*
X153691516Y-100692037D01*
X153878316Y-100731743D01*
X153904513Y-100734496D01*
X154095487Y-100734496D01*
X154121684Y-100731743D01*
X154308484Y-100692037D01*
X154333536Y-100683897D01*
X154507999Y-100606221D01*
X154530811Y-100593050D01*
X154685312Y-100480799D01*
X154704887Y-100463173D01*
X154832673Y-100321252D01*
X154848156Y-100299942D01*
X154943643Y-100134554D01*
X154954357Y-100110490D01*
X155013371Y-99928863D01*
X155018848Y-99903098D01*
X155038810Y-99713171D01*
X155038810Y-99686829D01*
X155018848Y-99496902D01*
X155013371Y-99471137D01*
X154954357Y-99289510D01*
X154943643Y-99265446D01*
X154848156Y-99100058D01*
X154832673Y-99078748D01*
X154704887Y-98936827D01*
X154685312Y-98919201D01*
X154530811Y-98806950D01*
X154507999Y-98793779D01*
X154333536Y-98716103D01*
X154308484Y-98707963D01*
X154121684Y-98668257D01*
X154095487Y-98665504D01*
X153904513Y-98665504D01*
X153878316Y-98668257D01*
X153691516Y-98707963D01*
X153666464Y-98716103D01*
X153492001Y-98793779D01*
X153469189Y-98806950D01*
X153314688Y-98919201D01*
X153295113Y-98936827D01*
X153167327Y-99078748D01*
X153151844Y-99100058D01*
X153056357Y-99265446D01*
X153045643Y-99289510D01*
X152986629Y-99471137D01*
X152981152Y-99496902D01*
X152961190Y-99686829D01*
X151938810Y-99686829D01*
X151918848Y-99496902D01*
X151913371Y-99471137D01*
X151854357Y-99289510D01*
X151843643Y-99265446D01*
X151748156Y-99100058D01*
X151732673Y-99078748D01*
X151604887Y-98936827D01*
X151585312Y-98919201D01*
X151430811Y-98806950D01*
X151407999Y-98793779D01*
X151233536Y-98716103D01*
X151208484Y-98707963D01*
X151021684Y-98668257D01*
X150995487Y-98665504D01*
X150804513Y-98665504D01*
X150778316Y-98668257D01*
X150591516Y-98707963D01*
X150566464Y-98716103D01*
X150392001Y-98793779D01*
X150369189Y-98806950D01*
X150214688Y-98919201D01*
X150195113Y-98936827D01*
X150067327Y-99078748D01*
X150051844Y-99100058D01*
X149956357Y-99265446D01*
X149945643Y-99289510D01*
X149886629Y-99471137D01*
X149881152Y-99496902D01*
X149861190Y-99686829D01*
X138234000Y-99686829D01*
X138234000Y-97586829D01*
X141361190Y-97586829D01*
X141361190Y-97613171D01*
X141381152Y-97803098D01*
X141386629Y-97828863D01*
X141445643Y-98010490D01*
X141456357Y-98034554D01*
X141551844Y-98199942D01*
X141567327Y-98221252D01*
X141695113Y-98363173D01*
X141714688Y-98380799D01*
X141869189Y-98493050D01*
X141892001Y-98506221D01*
X142066464Y-98583897D01*
X142091516Y-98592037D01*
X142278316Y-98631743D01*
X142304513Y-98634496D01*
X142495487Y-98634496D01*
X142521684Y-98631743D01*
X142708484Y-98592037D01*
X142733536Y-98583897D01*
X142907999Y-98506221D01*
X142930811Y-98493050D01*
X143085312Y-98380799D01*
X143104887Y-98363173D01*
X143232673Y-98221252D01*
X143248156Y-98199942D01*
X143343643Y-98034554D01*
X143354357Y-98010490D01*
X143413371Y-97828863D01*
X143418848Y-97803098D01*
X143438810Y-97613171D01*
X143438810Y-97586829D01*
X143418848Y-97396902D01*
X143413371Y-97371137D01*
X143354357Y-97189510D01*
X143343643Y-97165446D01*
X143248156Y-97000058D01*
X143232673Y-96978748D01*
X143104887Y-96836827D01*
X143085312Y-96819201D01*
X142930811Y-96706950D01*
X142907999Y-96693779D01*
X142733536Y-96616103D01*
X142708484Y-96607963D01*
X142609057Y-96586829D01*
X150961190Y-96586829D01*
X150961190Y-96613171D01*
X150981152Y-96803098D01*
X150986629Y-96828863D01*
X151045643Y-97010490D01*
X151056357Y-97034554D01*
X151151844Y-97199942D01*
X151167327Y-97221252D01*
X151295113Y-97363173D01*
X151314688Y-97380799D01*
X151469189Y-97493050D01*
X151492001Y-97506221D01*
X151666464Y-97583897D01*
X151691516Y-97592037D01*
X151878316Y-97631743D01*
X151904513Y-97634496D01*
X152095487Y-97634496D01*
X152121684Y-97631743D01*
X152308484Y-97592037D01*
X152333536Y-97583897D01*
X152500000Y-97509782D01*
X152666464Y-97583897D01*
X152691516Y-97592037D01*
X152878316Y-97631743D01*
X152904513Y-97634496D01*
X153095487Y-97634496D01*
X153121684Y-97631743D01*
X153308484Y-97592037D01*
X153333536Y-97583897D01*
X153507999Y-97506221D01*
X153530811Y-97493050D01*
X153685312Y-97380799D01*
X153704887Y-97363173D01*
X153832673Y-97221252D01*
X153848156Y-97199942D01*
X153943643Y-97034554D01*
X153954357Y-97010490D01*
X154013371Y-96828863D01*
X154018848Y-96803098D01*
X154038810Y-96613171D01*
X154038810Y-96586829D01*
X154018848Y-96396902D01*
X154013371Y-96371137D01*
X153954357Y-96189510D01*
X153943643Y-96165446D01*
X153848156Y-96000058D01*
X153832673Y-95978748D01*
X153704887Y-95836827D01*
X153685312Y-95819201D01*
X153530811Y-95706950D01*
X153507999Y-95693779D01*
X153333536Y-95616103D01*
X153308484Y-95607963D01*
X153121684Y-95568257D01*
X153095487Y-95565504D01*
X152904513Y-95565504D01*
X152878316Y-95568257D01*
X152691516Y-95607963D01*
X152666464Y-95616103D01*
X152500000Y-95690218D01*
X152333536Y-95616103D01*
X152308484Y-95607963D01*
X152121684Y-95568257D01*
X152095487Y-95565504D01*
X151904513Y-95565504D01*
X151878316Y-95568257D01*
X151691516Y-95607963D01*
X151666464Y-95616103D01*
X151492001Y-95693779D01*
X151469189Y-95706950D01*
X151314688Y-95819201D01*
X151295113Y-95836827D01*
X151167327Y-95978748D01*
X151151844Y-96000058D01*
X151056357Y-96165446D01*
X151045643Y-96189510D01*
X150986629Y-96371137D01*
X150981152Y-96396902D01*
X150961190Y-96586829D01*
X142609057Y-96586829D01*
X142521684Y-96568257D01*
X142495487Y-96565504D01*
X142304513Y-96565504D01*
X142278316Y-96568257D01*
X142091516Y-96607963D01*
X142066464Y-96616103D01*
X141892001Y-96693779D01*
X141869189Y-96706950D01*
X141714688Y-96819201D01*
X141695113Y-96836827D01*
X141567327Y-96978748D01*
X141551844Y-97000058D01*
X141456357Y-97165446D01*
X141445643Y-97189510D01*
X141386629Y-97371137D01*
X141381152Y-97396902D01*
X141361190Y-97586829D01*
X138234000Y-97586829D01*
X138234000Y-94186829D01*
X138361190Y-94186829D01*
X138361190Y-94213171D01*
X138381152Y-94403098D01*
X138386629Y-94428863D01*
X138445643Y-94610490D01*
X138456357Y-94634554D01*
X138551844Y-94799942D01*
X138567327Y-94821252D01*
X138695113Y-94963173D01*
X138714688Y-94980799D01*
X138869189Y-95093050D01*
X138892001Y-95106221D01*
X139066464Y-95183897D01*
X139091516Y-95192037D01*
X139278316Y-95231743D01*
X139304513Y-95234496D01*
X139495487Y-95234496D01*
X139521684Y-95231743D01*
X139615371Y-95211829D01*
X154736190Y-95211829D01*
X154736190Y-95238171D01*
X154756152Y-95428098D01*
X154761629Y-95453863D01*
X154820643Y-95635490D01*
X154831357Y-95659554D01*
X154926844Y-95824942D01*
X154942327Y-95846252D01*
X155070113Y-95988173D01*
X155089688Y-96005799D01*
X155244189Y-96118050D01*
X155267001Y-96131221D01*
X155441464Y-96208897D01*
X155466516Y-96217037D01*
X155653316Y-96256743D01*
X155679513Y-96259496D01*
X155870487Y-96259496D01*
X155896684Y-96256743D01*
X156083484Y-96217037D01*
X156108536Y-96208897D01*
X156282999Y-96131221D01*
X156305811Y-96118050D01*
X156460312Y-96005799D01*
X156479887Y-95988173D01*
X156607673Y-95846252D01*
X156623156Y-95824942D01*
X156718643Y-95659554D01*
X156729357Y-95635490D01*
X156788371Y-95453863D01*
X156793848Y-95428098D01*
X156813810Y-95238171D01*
X156813810Y-95211829D01*
X156793848Y-95021902D01*
X156788371Y-94996137D01*
X156729357Y-94814510D01*
X156718643Y-94790446D01*
X156623156Y-94625058D01*
X156607673Y-94603748D01*
X156479887Y-94461827D01*
X156460312Y-94444201D01*
X156305811Y-94331950D01*
X156282999Y-94318779D01*
X156108536Y-94241103D01*
X156083484Y-94232963D01*
X155896684Y-94193257D01*
X155870487Y-94190504D01*
X155679513Y-94190504D01*
X155653316Y-94193257D01*
X155466516Y-94232963D01*
X155441464Y-94241103D01*
X155267001Y-94318779D01*
X155244189Y-94331950D01*
X155089688Y-94444201D01*
X155070113Y-94461827D01*
X154942327Y-94603748D01*
X154926844Y-94625058D01*
X154831357Y-94790446D01*
X154820643Y-94814510D01*
X154761629Y-94996137D01*
X154756152Y-95021902D01*
X154736190Y-95211829D01*
X139615371Y-95211829D01*
X139708484Y-95192037D01*
X139733536Y-95183897D01*
X139907999Y-95106221D01*
X139930811Y-95093050D01*
X140085312Y-94980799D01*
X140104887Y-94963173D01*
X140232673Y-94821252D01*
X140248156Y-94799942D01*
X140343643Y-94634554D01*
X140354357Y-94610490D01*
X140413371Y-94428863D01*
X140418848Y-94403098D01*
X140438810Y-94213171D01*
X140438810Y-94186829D01*
X140418848Y-93996902D01*
X140413371Y-93971137D01*
X140354357Y-93789510D01*
X140343643Y-93765446D01*
X140248156Y-93600058D01*
X140232673Y-93578748D01*
X140104887Y-93436827D01*
X140085312Y-93419201D01*
X140040756Y-93386829D01*
X141561190Y-93386829D01*
X141561190Y-93413171D01*
X141581152Y-93603098D01*
X141586629Y-93628863D01*
X141645643Y-93810490D01*
X141656357Y-93834554D01*
X141751844Y-93999942D01*
X141767327Y-94021252D01*
X141895113Y-94163173D01*
X141914688Y-94180799D01*
X142069189Y-94293050D01*
X142092001Y-94306221D01*
X142266464Y-94383897D01*
X142291516Y-94392037D01*
X142478316Y-94431743D01*
X142504513Y-94434496D01*
X142695487Y-94434496D01*
X142721684Y-94431743D01*
X142908484Y-94392037D01*
X142933536Y-94383897D01*
X143107999Y-94306221D01*
X143130811Y-94293050D01*
X143285312Y-94180799D01*
X143304887Y-94163173D01*
X143432673Y-94021252D01*
X143448156Y-93999942D01*
X143543643Y-93834554D01*
X143554357Y-93810490D01*
X143613371Y-93628863D01*
X143618848Y-93603098D01*
X143638810Y-93413171D01*
X143638810Y-93386829D01*
X143618848Y-93196902D01*
X143613371Y-93171137D01*
X143554357Y-92989510D01*
X143543643Y-92965446D01*
X143448156Y-92800058D01*
X143432673Y-92778748D01*
X143304887Y-92636827D01*
X143285312Y-92619201D01*
X143130811Y-92506950D01*
X143107999Y-92493779D01*
X142933536Y-92416103D01*
X142908484Y-92407963D01*
X142721684Y-92368257D01*
X142695487Y-92365504D01*
X142504513Y-92365504D01*
X142478316Y-92368257D01*
X142291516Y-92407963D01*
X142266464Y-92416103D01*
X142092001Y-92493779D01*
X142069189Y-92506950D01*
X141914688Y-92619201D01*
X141895113Y-92636827D01*
X141767327Y-92778748D01*
X141751844Y-92800058D01*
X141656357Y-92965446D01*
X141645643Y-92989510D01*
X141586629Y-93171137D01*
X141581152Y-93196902D01*
X141561190Y-93386829D01*
X140040756Y-93386829D01*
X139930811Y-93306950D01*
X139907999Y-93293779D01*
X139733536Y-93216103D01*
X139708484Y-93207963D01*
X139521684Y-93168257D01*
X139495487Y-93165504D01*
X139304513Y-93165504D01*
X139278316Y-93168257D01*
X139091516Y-93207963D01*
X139066464Y-93216103D01*
X138892001Y-93293779D01*
X138869189Y-93306950D01*
X138714688Y-93419201D01*
X138695113Y-93436827D01*
X138567327Y-93578748D01*
X138551844Y-93600058D01*
X138456357Y-93765446D01*
X138445643Y-93789510D01*
X138386629Y-93971137D01*
X138381152Y-93996902D01*
X138361190Y-94186829D01*
X138234000Y-94186829D01*
X138234000Y-89386829D01*
X141961190Y-89386829D01*
X141961190Y-89413171D01*
X141981152Y-89603098D01*
X141986629Y-89628863D01*
X142045643Y-89810490D01*
X142056357Y-89834554D01*
X142151844Y-89999942D01*
X142167327Y-90021252D01*
X142295113Y-90163173D01*
X142314688Y-90180799D01*
X142454258Y-90282202D01*
X142367327Y-90378748D01*
X142351844Y-90400058D01*
X142256357Y-90565446D01*
X142245643Y-90589510D01*
X142186629Y-90771137D01*
X142181152Y-90796902D01*
X142161190Y-90986829D01*
X142161190Y-91013171D01*
X142181152Y-91203098D01*
X142186629Y-91228863D01*
X142245643Y-91410490D01*
X142256357Y-91434554D01*
X142351844Y-91599942D01*
X142367327Y-91621252D01*
X142495113Y-91763173D01*
X142514688Y-91780799D01*
X142669189Y-91893050D01*
X142692001Y-91906221D01*
X142866464Y-91983897D01*
X142891516Y-91992037D01*
X143078316Y-92031743D01*
X143104513Y-92034496D01*
X143295487Y-92034496D01*
X143321684Y-92031743D01*
X143508484Y-91992037D01*
X143524512Y-91986829D01*
X144361190Y-91986829D01*
X144361190Y-92013171D01*
X144381152Y-92203098D01*
X144386629Y-92228863D01*
X144445643Y-92410490D01*
X144456357Y-92434554D01*
X144551844Y-92599942D01*
X144567327Y-92621252D01*
X144695113Y-92763173D01*
X144714688Y-92780799D01*
X144869189Y-92893050D01*
X144892001Y-92906221D01*
X145066464Y-92983897D01*
X145091516Y-92992037D01*
X145278316Y-93031743D01*
X145304513Y-93034496D01*
X145495487Y-93034496D01*
X145521684Y-93031743D01*
X145708484Y-92992037D01*
X145733536Y-92983897D01*
X145907999Y-92906221D01*
X145930811Y-92893050D01*
X146085312Y-92780799D01*
X146104887Y-92763173D01*
X146232673Y-92621252D01*
X146248156Y-92599942D01*
X146343643Y-92434554D01*
X146354357Y-92410490D01*
X146413371Y-92228863D01*
X146418848Y-92203098D01*
X146438810Y-92013171D01*
X146438810Y-91986829D01*
X146418848Y-91796902D01*
X146413371Y-91771137D01*
X146354357Y-91589510D01*
X146343643Y-91565446D01*
X146248156Y-91400058D01*
X146232673Y-91378748D01*
X146104887Y-91236827D01*
X146085312Y-91219201D01*
X145930811Y-91106950D01*
X145907999Y-91093779D01*
X145733536Y-91016103D01*
X145708484Y-91007963D01*
X145521684Y-90968257D01*
X145495487Y-90965504D01*
X145304513Y-90965504D01*
X145278316Y-90968257D01*
X145091516Y-91007963D01*
X145066464Y-91016103D01*
X144892001Y-91093779D01*
X144869189Y-91106950D01*
X144714688Y-91219201D01*
X144695113Y-91236827D01*
X144567327Y-91378748D01*
X144551844Y-91400058D01*
X144456357Y-91565446D01*
X144445643Y-91589510D01*
X144386629Y-91771137D01*
X144381152Y-91796902D01*
X144361190Y-91986829D01*
X143524512Y-91986829D01*
X143533536Y-91983897D01*
X143707999Y-91906221D01*
X143730811Y-91893050D01*
X143885312Y-91780799D01*
X143904887Y-91763173D01*
X144032673Y-91621252D01*
X144048156Y-91599942D01*
X144143643Y-91434554D01*
X144154357Y-91410490D01*
X144213371Y-91228863D01*
X144218848Y-91203098D01*
X144238810Y-91013171D01*
X144238810Y-90986829D01*
X144218848Y-90796902D01*
X144213371Y-90771137D01*
X144154357Y-90589510D01*
X144143643Y-90565446D01*
X144048156Y-90400058D01*
X144032673Y-90378748D01*
X143904887Y-90236827D01*
X143885312Y-90219201D01*
X143745742Y-90117798D01*
X143832673Y-90021252D01*
X143848156Y-89999942D01*
X143943643Y-89834554D01*
X143954357Y-89810490D01*
X144013371Y-89628863D01*
X144018848Y-89603098D01*
X144038810Y-89413171D01*
X144038810Y-89386829D01*
X146561190Y-89386829D01*
X146561190Y-89413171D01*
X146581152Y-89603098D01*
X146586629Y-89628863D01*
X146645643Y-89810490D01*
X146656357Y-89834554D01*
X146751844Y-89999942D01*
X146767327Y-90021252D01*
X146895113Y-90163173D01*
X146914688Y-90180799D01*
X147069189Y-90293050D01*
X147081226Y-90300000D01*
X147069189Y-90306950D01*
X146914688Y-90419201D01*
X146895113Y-90436827D01*
X146767327Y-90578748D01*
X146751844Y-90600058D01*
X146656357Y-90765446D01*
X146645643Y-90789510D01*
X146586629Y-90971137D01*
X146581152Y-90996902D01*
X146561190Y-91186829D01*
X146561190Y-91213171D01*
X146581152Y-91403098D01*
X146586629Y-91428863D01*
X146645643Y-91610490D01*
X146656357Y-91634554D01*
X146751844Y-91799942D01*
X146767327Y-91821252D01*
X146895113Y-91963173D01*
X146914688Y-91980799D01*
X147069189Y-92093050D01*
X147092001Y-92106221D01*
X147266464Y-92183897D01*
X147291516Y-92192037D01*
X147478316Y-92231743D01*
X147504513Y-92234496D01*
X147695487Y-92234496D01*
X147721684Y-92231743D01*
X147908484Y-92192037D01*
X147933536Y-92183897D01*
X148107999Y-92106221D01*
X148130811Y-92093050D01*
X148285312Y-91980799D01*
X148304887Y-91963173D01*
X148432673Y-91821252D01*
X148448156Y-91799942D01*
X148455727Y-91786829D01*
X150361190Y-91786829D01*
X150361190Y-91813171D01*
X150381152Y-92003098D01*
X150386629Y-92028863D01*
X150445643Y-92210490D01*
X150456357Y-92234554D01*
X150551844Y-92399942D01*
X150567327Y-92421252D01*
X150695113Y-92563173D01*
X150714688Y-92580799D01*
X150869189Y-92693050D01*
X150892001Y-92706221D01*
X151066464Y-92783897D01*
X151091516Y-92792037D01*
X151145649Y-92803543D01*
X151089688Y-92844201D01*
X151070113Y-92861827D01*
X150942327Y-93003748D01*
X150926844Y-93025058D01*
X150831357Y-93190446D01*
X150820643Y-93214510D01*
X150761629Y-93396137D01*
X150756152Y-93421902D01*
X150736190Y-93611829D01*
X150736190Y-93638171D01*
X150756152Y-93828098D01*
X150761629Y-93853863D01*
X150820643Y-94035490D01*
X150831357Y-94059554D01*
X150926844Y-94224942D01*
X150942327Y-94246252D01*
X151070113Y-94388173D01*
X151089688Y-94405799D01*
X151244189Y-94518050D01*
X151267001Y-94531221D01*
X151441464Y-94608897D01*
X151466516Y-94617037D01*
X151653316Y-94656743D01*
X151679513Y-94659496D01*
X151870487Y-94659496D01*
X151896684Y-94656743D01*
X152083484Y-94617037D01*
X152108536Y-94608897D01*
X152282999Y-94531221D01*
X152305811Y-94518050D01*
X152460312Y-94405799D01*
X152479887Y-94388173D01*
X152607673Y-94246252D01*
X152623156Y-94224942D01*
X152718643Y-94059554D01*
X152729357Y-94035490D01*
X152788371Y-93853863D01*
X152793848Y-93828098D01*
X152813810Y-93638171D01*
X152813810Y-93611829D01*
X152793848Y-93421902D01*
X152788371Y-93396137D01*
X152729357Y-93214510D01*
X152718643Y-93190446D01*
X152623156Y-93025058D01*
X152607673Y-93003748D01*
X152479887Y-92861827D01*
X152460312Y-92844201D01*
X152305811Y-92731950D01*
X152282999Y-92718779D01*
X152108536Y-92641103D01*
X152083484Y-92632963D01*
X152029351Y-92621457D01*
X152085312Y-92580799D01*
X152104887Y-92563173D01*
X152232673Y-92421252D01*
X152248156Y-92399942D01*
X152343643Y-92234554D01*
X152354357Y-92210490D01*
X152413371Y-92028863D01*
X152418848Y-92003098D01*
X152438810Y-91813171D01*
X152438810Y-91786829D01*
X152418848Y-91596902D01*
X152413371Y-91571137D01*
X152377077Y-91459436D01*
X152485312Y-91380799D01*
X152504887Y-91363173D01*
X152632673Y-91221252D01*
X152648156Y-91199942D01*
X152743643Y-91034554D01*
X152754357Y-91010490D01*
X152813371Y-90828863D01*
X152818848Y-90803098D01*
X152838810Y-90613171D01*
X152838810Y-90586829D01*
X152818848Y-90396902D01*
X152813371Y-90371137D01*
X152754357Y-90189510D01*
X152743643Y-90165446D01*
X152648156Y-90000058D01*
X152632673Y-89978748D01*
X152504887Y-89836827D01*
X152485312Y-89819201D01*
X152330811Y-89706950D01*
X152307999Y-89693779D01*
X152133536Y-89616103D01*
X152108484Y-89607963D01*
X151921684Y-89568257D01*
X151895487Y-89565504D01*
X151704513Y-89565504D01*
X151678316Y-89568257D01*
X151491516Y-89607963D01*
X151466464Y-89616103D01*
X151292001Y-89693779D01*
X151269189Y-89706950D01*
X151114688Y-89819201D01*
X151095113Y-89836827D01*
X150967327Y-89978748D01*
X150951844Y-90000058D01*
X150856357Y-90165446D01*
X150845643Y-90189510D01*
X150786629Y-90371137D01*
X150781152Y-90396902D01*
X150761190Y-90586829D01*
X150761190Y-90613171D01*
X150781152Y-90803098D01*
X150786629Y-90828863D01*
X150822923Y-90940564D01*
X150714688Y-91019201D01*
X150695113Y-91036827D01*
X150567327Y-91178748D01*
X150551844Y-91200058D01*
X150456357Y-91365446D01*
X150445643Y-91389510D01*
X150386629Y-91571137D01*
X150381152Y-91596902D01*
X150361190Y-91786829D01*
X148455727Y-91786829D01*
X148543643Y-91634554D01*
X148554357Y-91610490D01*
X148613371Y-91428863D01*
X148618848Y-91403098D01*
X148638810Y-91213171D01*
X148638810Y-91186829D01*
X148618848Y-90996902D01*
X148613371Y-90971137D01*
X148554357Y-90789510D01*
X148543643Y-90765446D01*
X148448156Y-90600058D01*
X148432673Y-90578748D01*
X148304887Y-90436827D01*
X148285312Y-90419201D01*
X148130811Y-90306950D01*
X148118774Y-90300000D01*
X148130811Y-90293050D01*
X148285312Y-90180799D01*
X148304887Y-90163173D01*
X148432673Y-90021252D01*
X148448156Y-89999942D01*
X148543643Y-89834554D01*
X148554357Y-89810490D01*
X148613371Y-89628863D01*
X148618848Y-89603098D01*
X148638810Y-89413171D01*
X148638810Y-89386829D01*
X148618848Y-89196902D01*
X148613371Y-89171137D01*
X148554357Y-88989510D01*
X148543643Y-88965446D01*
X148448156Y-88800058D01*
X148432673Y-88778748D01*
X148304887Y-88636827D01*
X148285312Y-88619201D01*
X148130811Y-88506950D01*
X148107999Y-88493779D01*
X147933536Y-88416103D01*
X147908484Y-88407963D01*
X147809057Y-88386829D01*
X150361190Y-88386829D01*
X150361190Y-88413171D01*
X150381152Y-88603098D01*
X150386629Y-88628863D01*
X150445643Y-88810490D01*
X150456357Y-88834554D01*
X150551844Y-88999942D01*
X150567327Y-89021252D01*
X150695113Y-89163173D01*
X150714688Y-89180799D01*
X150869189Y-89293050D01*
X150892001Y-89306221D01*
X151066464Y-89383897D01*
X151091516Y-89392037D01*
X151278316Y-89431743D01*
X151304513Y-89434496D01*
X151495487Y-89434496D01*
X151521684Y-89431743D01*
X151708484Y-89392037D01*
X151733536Y-89383897D01*
X151907999Y-89306221D01*
X151930811Y-89293050D01*
X152085312Y-89180799D01*
X152104887Y-89163173D01*
X152232673Y-89021252D01*
X152248156Y-88999942D01*
X152343643Y-88834554D01*
X152354357Y-88810490D01*
X152367942Y-88768679D01*
X154314438Y-88768679D01*
X154314438Y-88795021D01*
X154334400Y-88984948D01*
X154339877Y-89010713D01*
X154398891Y-89192340D01*
X154409605Y-89216404D01*
X154505092Y-89381792D01*
X154520575Y-89403102D01*
X154648361Y-89545023D01*
X154667936Y-89562649D01*
X154822437Y-89674900D01*
X154845249Y-89688071D01*
X155000212Y-89757065D01*
X154914688Y-89819201D01*
X154895113Y-89836827D01*
X154767327Y-89978748D01*
X154751844Y-90000058D01*
X154656357Y-90165446D01*
X154645643Y-90189510D01*
X154586629Y-90371137D01*
X154581152Y-90396902D01*
X154561190Y-90586829D01*
X154561190Y-90613171D01*
X154581152Y-90803098D01*
X154586629Y-90828863D01*
X154645643Y-91010490D01*
X154656357Y-91034554D01*
X154751844Y-91199942D01*
X154767327Y-91221252D01*
X154895113Y-91363173D01*
X154914688Y-91380799D01*
X155069189Y-91493050D01*
X155092001Y-91506221D01*
X155266464Y-91583897D01*
X155291516Y-91592037D01*
X155478316Y-91631743D01*
X155504513Y-91634496D01*
X155695487Y-91634496D01*
X155721684Y-91631743D01*
X155908484Y-91592037D01*
X155933536Y-91583897D01*
X156107999Y-91506221D01*
X156130811Y-91493050D01*
X156285312Y-91380799D01*
X156304887Y-91363173D01*
X156432673Y-91221252D01*
X156448156Y-91199942D01*
X156543643Y-91034554D01*
X156554357Y-91010490D01*
X156613371Y-90828863D01*
X156618848Y-90803098D01*
X156638810Y-90613171D01*
X156638810Y-90586829D01*
X156618848Y-90396902D01*
X156613371Y-90371137D01*
X156554357Y-90189510D01*
X156543643Y-90165446D01*
X156448156Y-90000058D01*
X156432673Y-89978748D01*
X156304887Y-89836827D01*
X156285312Y-89819201D01*
X156130811Y-89706950D01*
X156107999Y-89693779D01*
X155953036Y-89624785D01*
X156038560Y-89562649D01*
X156058135Y-89545023D01*
X156185921Y-89403102D01*
X156201404Y-89381792D01*
X156296891Y-89216404D01*
X156307605Y-89192340D01*
X156366619Y-89010713D01*
X156372096Y-88984948D01*
X156392058Y-88795021D01*
X156392058Y-88768679D01*
X156372096Y-88578752D01*
X156366619Y-88552987D01*
X156307605Y-88371360D01*
X156296891Y-88347296D01*
X156201404Y-88181908D01*
X156185921Y-88160598D01*
X156058135Y-88018677D01*
X156038560Y-88001051D01*
X155884059Y-87888800D01*
X155861247Y-87875629D01*
X155686784Y-87797953D01*
X155661732Y-87789813D01*
X155474932Y-87750107D01*
X155448735Y-87747354D01*
X155257761Y-87747354D01*
X155231564Y-87750107D01*
X155044764Y-87789813D01*
X155019712Y-87797953D01*
X154845249Y-87875629D01*
X154822437Y-87888800D01*
X154667936Y-88001051D01*
X154648361Y-88018677D01*
X154520575Y-88160598D01*
X154505092Y-88181908D01*
X154409605Y-88347296D01*
X154398891Y-88371360D01*
X154339877Y-88552987D01*
X154334400Y-88578752D01*
X154314438Y-88768679D01*
X152367942Y-88768679D01*
X152413371Y-88628863D01*
X152418848Y-88603098D01*
X152438810Y-88413171D01*
X152438810Y-88386829D01*
X152418848Y-88196902D01*
X152413371Y-88171137D01*
X152354357Y-87989510D01*
X152343643Y-87965446D01*
X152248156Y-87800058D01*
X152232673Y-87778748D01*
X152104887Y-87636827D01*
X152085312Y-87619201D01*
X151930811Y-87506950D01*
X151907999Y-87493779D01*
X151733536Y-87416103D01*
X151708484Y-87407963D01*
X151521684Y-87368257D01*
X151495487Y-87365504D01*
X151304513Y-87365504D01*
X151278316Y-87368257D01*
X151091516Y-87407963D01*
X151066464Y-87416103D01*
X150892001Y-87493779D01*
X150869189Y-87506950D01*
X150714688Y-87619201D01*
X150695113Y-87636827D01*
X150567327Y-87778748D01*
X150551844Y-87800058D01*
X150456357Y-87965446D01*
X150445643Y-87989510D01*
X150386629Y-88171137D01*
X150381152Y-88196902D01*
X150361190Y-88386829D01*
X147809057Y-88386829D01*
X147721684Y-88368257D01*
X147695487Y-88365504D01*
X147504513Y-88365504D01*
X147478316Y-88368257D01*
X147291516Y-88407963D01*
X147266464Y-88416103D01*
X147092001Y-88493779D01*
X147069189Y-88506950D01*
X146914688Y-88619201D01*
X146895113Y-88636827D01*
X146767327Y-88778748D01*
X146751844Y-88800058D01*
X146656357Y-88965446D01*
X146645643Y-88989510D01*
X146586629Y-89171137D01*
X146581152Y-89196902D01*
X146561190Y-89386829D01*
X144038810Y-89386829D01*
X144018848Y-89196902D01*
X144013371Y-89171137D01*
X143954357Y-88989510D01*
X143943643Y-88965446D01*
X143848156Y-88800058D01*
X143832673Y-88778748D01*
X143704887Y-88636827D01*
X143685312Y-88619201D01*
X143530811Y-88506950D01*
X143507999Y-88493779D01*
X143333536Y-88416103D01*
X143308484Y-88407963D01*
X143121684Y-88368257D01*
X143095487Y-88365504D01*
X142904513Y-88365504D01*
X142878316Y-88368257D01*
X142691516Y-88407963D01*
X142666464Y-88416103D01*
X142492001Y-88493779D01*
X142469189Y-88506950D01*
X142314688Y-88619201D01*
X142295113Y-88636827D01*
X142167327Y-88778748D01*
X142151844Y-88800058D01*
X142056357Y-88965446D01*
X142045643Y-88989510D01*
X141986629Y-89171137D01*
X141981152Y-89196902D01*
X141961190Y-89386829D01*
X138234000Y-89386829D01*
X138234000Y-88020276D01*
X138255925Y-88054392D01*
X138279410Y-88081495D01*
X138389868Y-88177208D01*
X138420039Y-88196598D01*
X138552988Y-88257314D01*
X138587399Y-88267418D01*
X138732069Y-88288218D01*
X138750000Y-88289500D01*
X140450000Y-88289500D01*
X140458989Y-88289179D01*
X140532068Y-88283952D01*
X140558577Y-88279169D01*
X140698814Y-88237992D01*
X140731437Y-88223094D01*
X140854392Y-88144075D01*
X140881495Y-88120590D01*
X140977208Y-88010132D01*
X140996598Y-87979961D01*
X141057314Y-87847012D01*
X141062945Y-87827834D01*
X141231237Y-87979631D01*
X141248208Y-87992513D01*
X141442985Y-88115883D01*
X141461883Y-88125721D01*
X141674661Y-88214510D01*
X141694947Y-88221023D01*
X141919644Y-88272692D01*
X141940738Y-88275694D01*
X142170928Y-88288765D01*
X142192225Y-88288170D01*
X142421327Y-88262270D01*
X142442220Y-88258096D01*
X142663682Y-88193965D01*
X142683573Y-88186329D01*
X142891063Y-88085801D01*
X142909383Y-88074923D01*
X143096969Y-87940871D01*
X143113194Y-87927063D01*
X143275513Y-87763323D01*
X143289180Y-87746978D01*
X143410784Y-87573631D01*
X143431007Y-87610799D01*
X143442735Y-87628586D01*
X143585474Y-87809650D01*
X143600032Y-87825206D01*
X143771237Y-87979631D01*
X143788208Y-87992513D01*
X143982985Y-88115883D01*
X144001883Y-88125721D01*
X144214661Y-88214510D01*
X144234947Y-88221023D01*
X144459644Y-88272692D01*
X144480738Y-88275694D01*
X144710928Y-88288765D01*
X144732225Y-88288170D01*
X144961327Y-88262270D01*
X144982220Y-88258096D01*
X145203682Y-88193965D01*
X145223573Y-88186329D01*
X145431063Y-88085801D01*
X145449383Y-88074923D01*
X145636969Y-87940871D01*
X145653194Y-87927063D01*
X145815513Y-87763323D01*
X145829180Y-87746978D01*
X145961589Y-87558229D01*
X145972306Y-87539815D01*
X146071020Y-87331455D01*
X146078482Y-87311498D01*
X146140678Y-87089484D01*
X146144670Y-87068555D01*
X146168570Y-86839237D01*
X146169243Y-86827384D01*
X146169494Y-86801208D01*
X146169049Y-86789347D01*
X146149556Y-86559612D01*
X146145966Y-86538611D01*
X146088043Y-86315444D01*
X146080966Y-86295347D01*
X145986270Y-86085131D01*
X145975908Y-86066515D01*
X145847147Y-85875259D01*
X145833797Y-85858654D01*
X145674652Y-85691827D01*
X145658695Y-85677710D01*
X145473717Y-85540082D01*
X145455609Y-85528854D01*
X145269045Y-85434000D01*
X156516472Y-85434000D01*
X156527346Y-85435958D01*
G37*
%TD.AperFunction*%
%TD*%
M02*
